<svg xmlns="http://www.w3.org/2000/svg" viewBox="0 0 64 64">
  <rect width="64" height="64" rx="16" fill="#ffffff"/>
  <path
    d="M8 30c9 2 16 0 23-7 8-8 17-12 27-14-11 6-18 14-23 25-5 10-10 17-21 21 5-10 5-18-6-25Z"
    fill="url(#green)"
  />
  <path
    d="M35 33c7-8 20-5 22 6 1 7-5 12-14 17-8-8-13-15-8-23Z"
    fill="url(#purple)"
  />
  <circle cx="25" cy="17" r="10" fill="url(#purple)"/>
  <defs>
    <linearGradient id="green" x1="8" x2="58" y1="55" y2="9" gradientUnits="userSpaceOnUse">
      <stop stop-color="#00b36b"/>
      <stop offset="1" stop-color="#18f08a"/>
    </linearGradient>
    <linearGradient id="purple" x1="23" x2="57" y1="7" y2="56" gradientUnits="userSpaceOnUse">
      <stop stop-color="#4f2c92"/>
      <stop offset="1" stop-color="#7a3fc7"/>
    </linearGradient>
  </defs>
</svg>
