<svg width="189" height="53" viewBox="0 0 189 53" fill="none" xmlns="http://www.w3.org/2000/svg">
<g clip-path="url(#clip0_14666_34978)">
<path d="M181.689 0H7.28672C3.26238 0 0 3.26238 0 7.28672V45.7133C0 49.7376 3.26238 53 7.28672 53H181.689C185.714 53 188.976 49.7376 188.976 45.7133V7.28672C188.976 3.26238 185.714 0 181.689 0Z" fill="black"/>
<path d="M62.9922 14.5442L61.9019 17.8469H60.5L64.0674 7.34766H65.7028L69.2857 17.8469H67.8368L66.7154 14.5442H62.9926H62.9922ZM66.4345 13.4849L65.4063 10.4639C65.1728 9.7777 65.017 9.15484 64.8612 8.54751H64.8301C64.6743 9.17038 64.5029 9.80955 64.3005 10.4476L63.2724 13.4853H66.4345V13.4849Z" fill="white"/>
<path d="M70.9868 10.3066L72.4664 14.5427C72.7155 15.2289 72.9183 15.8518 73.0741 16.4743H73.1211C73.2925 15.8514 73.5105 15.2289 73.7599 14.5427L75.224 10.3066H76.6574L73.6977 17.8455H72.3894L69.5234 10.3066H70.9875H70.9868Z" fill="white"/>
<path d="M82.0637 17.8465L81.9545 16.8965H81.9075C81.4871 17.4886 80.6773 18.0179 79.6022 18.0179C78.0759 18.0179 77.2969 16.9435 77.2969 15.8528C77.2969 14.0301 78.9168 13.0334 81.8298 13.0486V12.8939C81.8298 12.2699 81.6584 11.1485 80.1163 11.1485C79.4153 11.1485 78.6833 11.3665 78.1536 11.7092L77.8424 10.8062C78.4656 10.4017 79.3687 10.1367 80.3191 10.1367C82.6244 10.1367 83.1851 11.7096 83.1851 13.22V16.0393C83.1851 16.6937 83.2162 17.3332 83.3098 17.8469H82.0637V17.8465ZM81.8613 13.9994C80.3661 13.9675 78.6681 14.2329 78.6681 15.6963C78.6681 16.5841 79.2602 17.0053 79.9612 17.0053C80.9427 17.0053 81.5656 16.3824 81.7836 15.7433C81.8306 15.6026 81.8616 15.4476 81.8616 15.3069V13.9994H81.8613Z" fill="white"/>
<path d="M86.932 8.18956C86.9479 8.65623 86.6052 9.03041 86.0597 9.03041C85.5767 9.03041 85.2344 8.65623 85.2344 8.18956C85.2344 7.72289 85.5926 7.33203 86.0911 7.33203C86.5897 7.33203 86.932 7.7062 86.932 8.18956ZM85.4054 17.8468V10.308H86.7762V17.8468H85.4054Z" fill="white"/>
<path d="M89.0469 6.78711H90.4177V17.847H89.0469V6.78711Z" fill="white"/>
<path d="M96.9 17.8465L96.7908 16.8965H96.7438C96.3234 17.4886 95.5136 18.0179 94.4385 18.0179C92.9122 18.0179 92.1328 16.9435 92.1328 15.8528C92.1328 14.0301 93.7527 13.0334 96.6657 13.0486V12.8939C96.6657 12.2699 96.4944 11.1485 94.9522 11.1485C94.2512 11.1485 93.5192 11.3665 92.9896 11.7092L92.6783 10.8062C93.3016 10.4017 94.2046 10.1367 95.155 10.1367C97.4603 10.1367 98.021 11.7096 98.021 13.22V16.0393C98.021 16.6937 98.0521 17.3332 98.1457 17.8469H96.8996L96.9 17.8465ZM96.6976 13.9994C95.2024 13.9675 93.5044 14.2329 93.5044 15.6963C93.5044 16.5841 94.0966 17.0053 94.7975 17.0053C95.779 17.0053 96.4019 16.3824 96.6199 15.7433C96.6669 15.6026 96.698 15.4476 96.698 15.3069V13.9994H96.6976Z" fill="white"/>
<path d="M100.18 17.847C100.211 17.3334 100.242 16.5698 100.242 15.9V6.78711H101.597V11.5232H101.628C102.111 10.6824 102.984 10.1369 104.199 10.1369C106.068 10.1369 107.392 11.6942 107.376 13.9836C107.376 16.6786 105.679 18.018 103.996 18.018C102.906 18.018 102.034 17.5968 101.473 16.6002H101.426L101.364 17.847H100.18H100.18ZM101.597 14.8245C101.597 14.9969 101.628 15.1683 101.659 15.323C101.924 16.2741 102.718 16.9273 103.715 16.9273C105.148 16.9273 106.005 15.7593 106.005 14.0306C106.005 12.5199 105.226 11.2264 103.762 11.2264C102.827 11.2264 101.955 11.8656 101.675 12.9096C101.643 13.0658 101.597 13.2519 101.597 13.4703V14.8248V14.8245Z" fill="white"/>
<path d="M109.109 6.78711H110.48V17.847H109.109V6.78711Z" fill="white"/>
<path d="M113.55 14.3262C113.582 16.1804 114.765 16.9439 116.136 16.9439C117.118 16.9439 117.71 16.7725 118.224 16.5545L118.457 17.5349C117.974 17.7529 117.149 18.0031 115.949 18.0031C113.628 18.0031 112.242 16.4761 112.242 14.2018C112.242 11.9276 113.582 10.1367 115.778 10.1367C118.239 10.1367 118.894 12.3018 118.894 13.6881C118.894 13.9683 118.862 14.1867 118.847 14.3262H113.551H113.55ZM117.569 13.3458C117.585 12.4731 117.211 11.1186 115.669 11.1186C114.283 11.1186 113.675 12.3958 113.566 13.3458H117.569Z" fill="white"/>
<path d="M130.719 14.0153C130.719 16.8032 128.788 18.0183 126.966 18.0183C124.925 18.0183 123.352 16.5231 123.352 14.1397C123.352 11.6156 125.003 10.1367 127.09 10.1367C129.177 10.1367 130.719 11.7096 130.719 14.0153ZM124.738 14.093C124.738 15.7444 125.688 16.9913 127.028 16.9913C128.367 16.9913 129.318 15.7596 129.318 14.0627C129.318 12.7855 128.679 11.1645 127.059 11.1645C125.439 11.1645 124.738 12.6596 124.738 14.093Z" fill="white"/>
<path d="M132.453 12.3488C132.453 11.5701 132.437 10.9309 132.391 10.3081H133.605L133.683 11.5534H133.714C134.088 10.8369 134.961 10.1367 136.207 10.1367C137.25 10.1367 138.871 10.7596 138.871 13.3454V17.8469H137.5V13.5016C137.5 12.2866 137.048 11.2733 135.755 11.2733C134.851 11.2733 134.151 11.9124 133.917 12.6759C133.854 12.8473 133.823 13.0804 133.823 13.314V17.8469H132.452V12.3488H132.453Z" fill="white"/>
<path d="M146.055 8.14296V10.308H148.018V11.3517H146.055V15.4168C146.055 16.3517 146.32 16.8816 147.083 16.8816C147.441 16.8816 147.706 16.8346 147.877 16.7876L147.94 17.815C147.675 17.9242 147.254 18.0026 146.725 18.0026C146.086 18.0026 145.572 17.7998 145.245 17.4257C144.856 17.0212 144.715 16.3513 144.715 15.4634V11.3513H143.547V10.3076H144.715V8.50007L146.055 8.14258L146.055 8.14296Z" fill="white"/>
<path d="M149.562 6.78711H150.933V11.4914H150.964C151.182 11.1021 151.525 10.7597 151.946 10.5262C152.351 10.2927 152.834 10.1369 153.348 10.1369C154.361 10.1369 155.981 10.7597 155.981 13.3611V17.847H154.61V13.5169C154.61 12.3019 154.158 11.2734 152.865 11.2734C151.977 11.2734 151.276 11.8974 151.027 12.6446C150.949 12.8311 150.933 13.034 150.933 13.2989V17.847H149.562V6.78711Z" fill="white"/>
<path d="M158.98 14.3262C159.012 16.1804 160.195 16.9439 161.566 16.9439C162.547 16.9439 163.139 16.7725 163.653 16.5545L163.887 17.5349C163.404 17.7529 162.578 18.0031 161.379 18.0031C159.058 18.0031 157.672 16.4761 157.672 14.2018C157.672 11.9276 159.012 10.1367 161.208 10.1367C163.669 10.1367 164.323 12.3018 164.323 13.6881C164.323 13.9683 164.292 14.1867 164.277 14.3262H158.981H158.98ZM162.999 13.3458C163.015 12.4731 162.641 11.1186 161.099 11.1186C159.713 11.1186 159.105 12.3958 158.996 13.3458H162.999Z" fill="white"/>
<path d="M63.7566 36.7109L61.8326 42.5381H59.3594L65.6532 24.0137H68.539L74.8601 42.5381H72.3038L70.3249 36.7109H63.7566ZM69.8306 34.8423L68.0162 29.5118C67.6045 28.3013 67.3292 27.2023 67.0544 26.1306H66.9994C66.7246 27.2292 66.422 28.357 66.0653 29.4826L64.2509 34.842H69.8302L69.8306 34.8423Z" fill="white"/>
<path d="M77.4299 33.5788C77.4299 31.8759 77.3749 30.502 77.3203 29.2377H79.4911L79.6014 31.518H79.6563C80.6462 29.8977 82.2122 28.9355 84.3837 28.9355C87.5989 28.9355 90.0172 31.6567 90.0172 35.6957C90.0172 40.4777 87.1042 42.841 83.9713 42.841C82.2122 42.841 80.6735 42.0711 79.8762 40.7533H79.8212V47.9813H77.4303V33.5788H77.4299ZM79.8212 37.1257C79.8212 37.4816 79.8762 37.8126 79.9308 38.1147C80.3706 39.7908 81.8275 40.9455 83.5588 40.9455C86.1147 40.9455 87.5985 38.8555 87.5985 35.8053C87.5985 33.1402 86.197 30.8576 83.6411 30.8576C81.9924 30.8576 80.4532 32.0415 79.9862 33.854C79.9035 34.1562 79.8212 34.514 79.8212 34.8431V37.1257Z" fill="white"/>
<path d="M93.0705 33.5788C93.0705 31.8759 93.0155 30.502 92.9609 29.2377H95.1321L95.2416 31.518H95.2966C96.2864 29.8977 97.8525 28.9355 100.024 28.9355C103.239 28.9355 105.657 31.6567 105.657 35.6957C105.657 40.4777 102.744 42.841 99.6115 42.841C97.8525 42.841 96.3137 42.0711 95.5165 40.7533H95.4615V47.9813H93.0705V33.5788ZM95.4619 37.1257C95.4619 37.4816 95.5168 37.8126 95.5722 38.1147C96.012 39.7908 97.4681 40.9455 99.1994 40.9455C101.755 40.9455 103.239 38.8555 103.239 35.8053C103.239 33.1402 101.838 30.8576 99.2817 30.8576C97.633 30.8576 96.0938 32.0415 95.6268 33.854C95.5441 34.1562 95.4619 34.514 95.4619 34.8431V37.1257Z" fill="white"/>
<path d="M114.3 39.6261C115.372 40.2861 116.939 40.8366 118.588 40.8366C121.034 40.8366 122.463 39.5431 122.463 37.6745C122.463 35.9423 121.474 34.9533 118.972 33.9934C115.95 32.9217 114.08 31.3552 114.08 28.7436C114.08 25.8567 116.471 23.7129 120.071 23.7129C121.968 23.7129 123.342 24.1538 124.166 24.6216L123.507 26.5728C122.902 26.2415 121.666 25.6933 119.989 25.6933C117.461 25.6933 116.499 27.2037 116.499 28.4683C116.499 30.2005 117.625 31.0508 120.182 32.0421C123.315 33.2507 124.908 34.7611 124.908 37.4823C124.908 40.3422 122.793 42.8147 118.423 42.8147C116.636 42.8147 114.685 42.2912 113.695 41.6331L114.3 39.6257L114.3 39.6261Z" fill="white"/>
<path d="M130.94 25.4183V29.2382H134.403V31.0799H130.94V38.2521C130.94 39.9012 131.408 40.8368 132.754 40.8368C133.386 40.8368 133.854 40.7542 134.156 40.6711L134.265 42.4836C133.798 42.6762 133.056 42.815 132.122 42.815C130.995 42.815 130.089 42.4571 129.511 41.7967C128.824 41.0828 128.577 39.9012 128.577 38.3347V31.0799H126.516V29.2382H128.577V26.0492L130.94 25.418L130.94 25.4183Z" fill="white"/>
<path d="M148.999 35.7787C148.999 40.6972 145.591 42.841 142.376 42.841C138.775 42.841 136 40.2028 136 35.9978C136 31.5468 138.913 28.9355 142.596 28.9355C146.279 28.9355 148.999 31.7106 148.999 35.7787ZM138.446 35.9152C138.446 38.8286 140.122 41.0285 142.486 41.0285C144.85 41.0285 146.527 38.8555 146.527 35.8614C146.527 33.608 145.399 30.748 142.542 30.748C139.684 30.748 138.447 33.3862 138.447 35.9152H138.446Z" fill="white"/>
<path d="M152.055 33.3862C152.055 31.8198 152.028 30.4747 151.945 29.2373H154.061L154.144 31.8489H154.253C154.858 30.0611 156.315 28.9355 157.936 28.9355C158.211 28.9355 158.403 28.9625 158.623 29.0182V31.2985C158.376 31.2424 158.128 31.2158 157.799 31.2158C156.095 31.2158 154.886 32.5071 154.556 34.3218C154.501 34.6509 154.446 35.0357 154.446 35.4474V42.5389H152.055V33.3862Z" fill="white"/>
<path d="M162.12 36.3273C162.176 39.5989 164.264 40.9459 166.683 40.9459C168.414 40.9459 169.458 40.6437 170.366 40.259L170.778 41.9888C169.926 42.3736 168.469 42.8145 166.353 42.8145C162.258 42.8145 159.812 40.1202 159.812 36.1078C159.812 32.0954 162.176 28.9355 166.051 28.9355C170.393 28.9355 171.548 32.7554 171.548 35.2013C171.548 35.6961 171.493 36.0809 171.465 36.3269H162.121L162.12 36.3273ZM169.211 34.5974C169.238 33.0579 168.579 30.6658 165.858 30.6658C163.412 30.6658 162.34 32.9214 162.148 34.5974H169.211Z" fill="white"/>
<path d="M46.3241 33.4349C46.8052 33.5191 47.0925 34.0214 46.9295 34.4816C45.2319 39.2735 42.2529 42.9921 38.8637 42.9921C37.8568 42.9921 36.8848 42.7055 35.9712 42.1865C34.0734 41.1061 31.781 41.1061 29.8836 42.1865C28.9696 42.7055 28.0017 42.9921 26.9948 42.9921C21.7128 42.9921 17.4297 33.9653 17.4297 25.9223C17.4297 17.8792 21.7128 13.8672 26.9948 13.8672C28.319 13.8672 29.5776 14.1925 30.724 14.8043C32.1066 15.5477 33.7485 15.5477 35.1307 14.8081C36.2771 14.1925 37.5395 13.8672 38.8637 13.8672C42.0148 13.8672 44.8134 15.2975 46.5527 18.1613C46.8385 18.6317 46.5682 19.2364 46.0303 19.3536C42.8038 20.0564 40.3934 22.9262 40.3934 26.3635C40.3934 29.8009 42.9527 32.8454 46.3241 33.4349Z" fill="white"/>
<path d="M37.8099 11.0203C36.3742 12.9571 34.3225 14.0569 32.4657 14.0785C31.9463 12.2956 32.3993 10.0111 33.8346 8.07428C35.2703 6.13745 37.3239 5.03919 39.1807 5.01758C39.7001 6.8005 39.2452 9.08345 37.8095 11.0203H37.8099Z" fill="white"/>
</g>
<defs>
<clipPath id="clip0_14666_34978">
<rect width="188.976" height="53" fill="white"/>
</clipPath>
</defs>
</svg>
