<svg width="112" height="122" viewBox="0 0 112 122" fill="none" xmlns="http://www.w3.org/2000/svg">
<path fill-rule="evenodd" clip-rule="evenodd" d="M77.4118 16.9183C72.8823 14.8584 71.2353 13.2104 64.647 16.5063C58.4706 19.8021 54.7647 16.9183 53.5294 20.6261L53.1176 21.038C51.0588 20.2141 49 18.5662 47.7647 16.9183C46.1176 14.0344 46.1176 12.7985 45.7059 9.09064C43.6471 9.9146 42.8235 16.9183 44.4706 19.8021C45.7059 22.686 48.5882 25.9818 51.4706 27.2177C52.7059 26.3938 53.1176 25.5698 53.9412 24.7459C53.1176 29.6896 44.4706 28.4537 46.5294 35.0453C46.9412 36.2813 46.9412 37.9292 47.3529 39.1651C47.7647 41.225 50.6471 40.4011 54.3529 41.225C55.5882 41.637 57.2353 41.637 58.4706 42.049C68.3529 44.5209 69.1765 53.5844 76.5882 56.8802C77.8235 57.2922 79.0588 57.7042 80.2941 58.5282C70.4118 58.9401 67.1176 46.1688 62.1765 44.5209C58.0588 43.6969 59.7059 51.1125 45.2941 59.3521C42.4118 60.5881 37.0588 63.4719 33.7647 63.8839C28 64.7079 25.5294 61.824 23.8823 58.1162C23.0588 56.8802 21.8235 53.5844 22.2353 51.9365C22.6471 50.7006 28.4118 45.3448 22.2353 41.637C20.5882 40.4011 19.3529 40.4011 18.5294 37.9292C17.7059 40.4011 18.5294 42.8729 17.7059 44.9328C17.2941 44.1089 17.2941 44.1089 16.4706 43.6969C16.4706 47.4047 16.4706 51.5245 19.7647 52.7605C19.7647 47.8167 21 47.8167 21 45.7568C21.4118 47.8167 18.1176 56.0563 23.8823 63.4719C25.5294 65.5318 26.3529 65.5318 28.4118 67.1797C25.5294 72.9474 23.4706 71.7115 21 79.1271C19.3529 84.0709 17.7059 88.6027 15.2353 92.7224C14.4118 93.9584 11.9412 96.8422 11.5294 98.4902C11.1176 101.374 9.88235 102.61 8.23529 104.67C4.52941 110.438 4.94118 109.614 0.823529 114.145C0.411765 114.969 0 115.381 0 115.793C1.23529 116.617 7.82353 116.205 9.47059 116.205C11.1176 116.205 11.5294 116.617 12.3529 115.381C12.3529 114.969 12.7647 112.909 12.7647 112.085H9.05882C11.5294 111.262 12.3529 112.497 14 110.026C18.5294 102.61 12.7647 107.966 23.8823 100.138C37.4706 90.6626 31.7059 92.3105 34.1765 84.0709C34.1765 85.7188 34.5882 89.4266 36.2353 89.8386C40.7647 91.0745 46.5294 91.0745 51.0588 90.2506C53.1176 89.8386 54.7647 89.0146 56.4118 88.6027C55.5882 89.4266 55.1765 89.8386 53.5294 90.2506C52.2941 90.6626 50.6471 91.0745 49.8235 91.8985C49.4118 92.7224 52.7059 106.318 53.1176 109.202C53.5294 112.497 52.7059 115.381 53.1176 116.205C55.5882 116.617 57.6471 116.205 60.1176 116.205C60.1176 114.969 59.7059 113.733 59.7059 112.497L56.8235 112.085L59.2941 111.673L58.4706 101.374C63 97.2542 60.5294 98.4902 62.5882 94.3704C63.8235 96.8422 62.5882 103.846 62.5882 107.142C62.5882 110.438 62.5882 111.673 61.7647 114.557C60.9412 116.205 59.7059 119.501 60.1176 121.561C62.1765 122.385 70 122.385 71.647 121.561C72.0588 119.089 72.4706 117.441 72.0588 114.969C70.8235 114.969 67.9412 115.381 65.8823 114.969C67.9412 114.557 70 114.145 71.647 113.733C71.647 111.262 70.8235 109.202 71.2353 106.318C71.2353 105.082 71.647 104.258 72.0588 103.434C72.0588 101.786 72.0588 100.962 72.4706 99.7261C73.2941 93.9584 74.9412 88.6027 76.5882 83.2469C76.5882 81.599 77 81.599 78.2353 81.187C83.5882 78.3032 87.7059 74.5954 91 69.6516C90.1765 73.3594 82.7647 79.9511 82.7647 80.3631C83.5882 82.011 89.3529 85.7188 91 87.3667C95.5294 91.0745 94.2941 91.8985 97.5882 95.1943C99.2353 97.2542 99.2353 96.4303 100.471 99.7261C101.706 103.434 103.353 107.554 102.941 111.673C102.529 116.617 102.529 116.617 110.765 116.205H112C112.412 114.969 111.176 111.673 110.353 110.438C108.706 110.438 107.882 110.85 106.235 110.85C107.471 110.438 108.706 110.026 109.529 109.614C109.941 107.554 107.882 98.9021 107.882 96.0183C107.059 91.4865 105 88.6027 104.588 84.0709C103.353 71.2995 97.1765 45.3448 92.647 35.0453C91 31.3375 89.3529 28.0417 86.8823 25.5698C80.7059 18.9781 83.5882 24.7459 76.5882 22.686C80.2941 22.274 81.5294 22.274 84 19.8021C86.0588 17.7422 86.4706 14.4464 86.0588 11.5625C85.2353 6.61877 78.647 0.0270996 76.1765 0.0270996C76.5882 0.851058 78.647 5.38283 79.4706 8.26669C80.2941 11.9745 79.8823 15.2703 77.4118 16.9183Z" fill="#576433"/>
</svg>
