<svg width="201" height="57" viewBox="0 0 201 57" fill="none" xmlns="http://www.w3.org/2000/svg">
<g filter="url(#filter0_d_16_1508)">
<path fill-rule="evenodd" clip-rule="evenodd" d="M45.0601 47.1585C40.9444 47.1585 36.8288 47.1585 32.7132 47.1585C32.039 47.1585 32.1421 47.1521 31.8383 46.6711C30.1665 44.0233 28.5009 41.3714 26.8418 38.7154C25.7987 37.0562 24.7545 35.3985 23.7091 33.7422C23.6999 33.7276 23.6897 33.7133 23.6809 33.698C23.5586 33.5512 23.4742 33.3766 23.4353 33.1895C23.6122 33.0235 23.8302 33.1042 24.0278 33.1031C25.6564 33.096 27.2853 33.0991 28.9139 33.0991C29.0016 33.0991 29.0894 33.1025 29.1764 33.0991C29.2804 33.0889 29.385 33.1107 29.4762 33.1617C29.5674 33.2126 29.6408 33.2902 29.6866 33.3841C30.0904 34.0596 30.5176 34.7208 30.9319 35.3909C32.0185 37.1455 33.1039 38.9007 34.188 40.6565C34.4087 41.0133 34.637 41.366 34.8472 41.7289C34.8984 41.8312 34.9793 41.9157 35.0792 41.9714C35.1791 42.0271 35.2934 42.0514 35.4074 42.0412C35.4948 42.0375 35.5826 42.0412 35.67 42.0412C39.6455 42.0412 43.6208 42.0412 47.5961 42.0412C47.7536 42.0412 47.9114 42.0412 48.0682 42.0286C48.0941 42.0261 48.1191 42.0176 48.1412 42.0039C48.1633 41.9902 48.1819 41.9716 48.1957 41.9496C48.2095 41.9275 48.2181 41.9026 48.2207 41.8768C48.2234 41.8509 48.2201 41.8248 48.2111 41.8004C48.1838 41.7363 48.1496 41.6754 48.109 41.6187C47.5279 40.809 46.9456 39.9999 46.3621 39.1915C45.9113 38.5675 45.4595 37.9439 45.0067 37.3208C44.084 36.0451 43.1617 34.769 42.2397 33.4926C42.2091 33.4501 42.1716 33.4123 42.1417 33.3691C41.9335 33.0681 41.9308 33.0205 42.1312 32.7123C42.779 31.7146 43.4279 30.7176 44.0778 29.7215C44.4689 29.1204 44.8598 28.5195 45.2505 27.9188C45.3077 27.8307 45.3638 27.7416 45.4261 27.6569C45.5414 27.5008 45.6244 27.5045 45.7485 27.6732C45.8104 27.7576 45.8648 27.8477 45.921 27.9365C47.2495 30.0356 48.578 32.1347 49.9063 34.2337C51.7884 37.2043 53.6705 40.1734 55.5526 43.1412C56.273 44.2788 56.9906 45.4183 57.7056 46.5595C57.7706 46.6616 57.8417 46.7636 57.8978 46.8715C57.9165 46.9014 57.9263 46.9361 57.9262 46.9714C57.9261 47.0068 57.9161 47.0414 57.8972 47.0713C57.8784 47.1012 57.8515 47.1251 57.8197 47.1404C57.7878 47.1558 57.7523 47.1618 57.7172 47.1578C57.5774 47.1646 57.4372 47.1606 57.2971 47.1606H45.0557" fill="#E9761F"/>
</g>
<g filter="url(#filter1_d_16_1508)">
<path fill-rule="evenodd" clip-rule="evenodd" d="M44.4837 25.7104C44.4846 25.8454 44.4408 25.9769 44.3592 26.0845C44.019 26.6555 43.6776 27.226 43.3347 27.7961C42.0102 30.0004 40.6856 32.2045 39.3609 34.4086C38.3706 36.0578 37.3814 37.7076 36.3932 39.3579C36.3215 39.478 36.2524 39.5998 36.1765 39.7174C36.0225 39.9555 35.9044 39.961 35.7558 39.73C35.4708 39.2879 35.1902 38.8457 34.9089 38.4035C34.2903 37.4285 33.672 36.4534 33.0541 35.4783C33.0075 35.4045 32.9636 35.3283 32.9136 35.2569C32.8604 35.1866 32.8318 35.1008 32.8323 35.0126C32.8328 34.9244 32.8623 34.8389 32.9164 34.7692C33.0473 34.562 33.166 34.3474 33.2929 34.1379C34.6797 31.849 36.0669 29.5603 37.4544 27.2719C37.6629 26.928 37.8626 26.5791 38.0823 26.2416C38.1534 26.153 38.1921 26.0428 38.1921 25.9292C38.1921 25.8156 38.1534 25.7054 38.0823 25.6168C37.8534 25.2865 37.6517 24.9365 37.4361 24.5964C35.9168 22.1835 34.3975 19.7706 32.8783 17.3577C32.5241 16.7951 32.1704 16.2321 31.8174 15.6689C31.7803 15.6097 31.7494 15.5451 31.7092 15.4893C31.6935 15.4576 31.6694 15.4308 31.6395 15.4117C31.6097 15.3926 31.5752 15.382 31.5398 15.3811C31.5044 15.3801 31.4694 15.3888 31.4385 15.4061C31.4077 15.4235 31.3822 15.449 31.3647 15.4798C31.2922 15.5784 31.2286 15.6839 31.1606 15.7859C29.5424 18.3219 27.9237 20.8576 26.3045 23.393C25.8283 24.1338 26.0286 24.0529 25.1052 24.0542C23.4589 24.0565 21.8125 24.0565 20.1661 24.0542C20.032 24.0542 19.8599 24.1151 19.7739 23.9808C19.6589 23.8046 19.8487 23.6961 19.9249 23.5726C21.3596 21.2508 22.7971 18.9309 24.2375 16.6128C25.437 14.6803 26.6378 12.7486 27.8398 10.8175C28.9752 8.98943 30.1096 7.16064 31.2429 5.33116C31.2892 5.25667 31.3276 5.17742 31.3789 5.10599C31.515 4.91076 31.6449 4.91722 31.7687 5.11722C32.8266 6.82764 33.8848 8.53761 34.9436 10.2471C36.4352 12.6564 37.9272 15.0656 39.4197 17.4747C41.0524 20.105 42.6864 22.7354 44.3218 25.3658C44.3945 25.4719 44.449 25.5893 44.483 25.7134" fill="#60BD2E"/>
</g>
<g filter="url(#filter2_d_16_1508)">
<path fill-rule="evenodd" clip-rule="evenodd" d="M18.1962 47.0164C14.5187 47.0164 10.8413 47.0164 7.16394 47.0164C6.98911 47.0164 6.8136 47.0164 6.63912 47.0035C6.61231 47.0047 6.58578 46.9977 6.56299 46.9836C6.54019 46.9694 6.5222 46.9487 6.51136 46.9242C6.50053 46.8996 6.49734 46.8724 6.50223 46.846C6.50712 46.8196 6.51986 46.7953 6.53878 46.7763C6.90986 46.2447 7.20068 45.6661 7.52279 45.1062C8.70714 43.0461 9.89035 40.9856 11.0724 38.9246C12.3248 36.7412 13.5765 34.5574 14.8275 32.3733C15.9823 30.3549 17.1245 28.3294 18.2911 26.3189C18.6442 25.7104 18.4979 25.7345 19.3139 25.7349C24.62 25.7367 29.9261 25.7367 35.2322 25.7349C35.9125 25.7349 36.0356 25.6668 35.6183 26.423C34.8911 27.7383 34.1863 29.0655 33.4724 30.3879C33.4426 30.4513 33.4096 30.513 33.3734 30.5729C33.1149 30.9498 33.2475 30.9651 32.6693 30.9651C29.2906 30.964 25.9109 30.964 22.5302 30.9651C21.834 30.9651 21.9115 30.891 21.5312 31.5093C20.0766 33.8794 18.6247 36.251 17.1755 38.6243C16.5816 39.5939 15.9866 40.5627 15.3904 41.5307C15.3173 41.6498 15.2455 41.7688 15.183 41.895C15.1706 41.9181 15.1645 41.944 15.1653 41.9701C15.1661 41.9963 15.1738 42.0218 15.1876 42.044C15.2014 42.0663 15.2208 42.0845 15.2439 42.0968C15.2669 42.1092 15.2929 42.1152 15.319 42.1144C15.4588 42.1209 15.5989 42.1181 15.7391 42.1181H26.2459C26.8663 42.1199 26.7901 42.0841 27.1261 42.5943C28.0087 43.9395 28.8922 45.2841 29.7768 46.6283C29.8057 46.6722 29.8387 46.7134 29.8639 46.7593C29.8779 46.7814 29.886 46.8067 29.8876 46.8329C29.8891 46.859 29.8839 46.8851 29.8726 46.9087C29.8613 46.9323 29.8442 46.9526 29.8228 46.9678C29.8015 46.9829 29.7766 46.9924 29.7506 46.9953C29.5768 47.0106 29.4016 47.0154 29.2271 47.0157C25.5498 47.0157 21.8724 47.0157 18.1949 47.0157" fill="#5F4687"/>
</g>
<path fill-rule="evenodd" clip-rule="evenodd" d="M95.3318 18.3504C95.3318 20.1887 95.3318 22.0271 95.3318 23.8654C95.3359 24.0054 95.3328 24.1454 95.3223 24.2851C95.3054 24.4692 95.2437 24.6464 95.1426 24.8012C95.0415 24.956 94.9041 25.0837 94.7423 25.1731C94.5805 25.2626 94.3993 25.3111 94.2144 25.3144C94.0296 25.3178 93.8467 25.2758 93.6818 25.1922C93.4566 25.0913 93.2585 24.9385 93.1036 24.7463C92.7612 24.3486 92.4211 23.9486 92.0832 23.5463C90.8712 22.0969 89.6604 20.6463 88.4509 19.1946C87.7026 18.2943 86.9567 17.3895 86.208 16.4878C86.1219 16.3559 86.0135 16.2398 85.8876 16.145C85.8369 16.1147 85.7233 16.1549 85.7175 16.213C85.7026 16.3688 85.689 16.5256 85.6886 16.6821C85.6866 18.0476 85.6866 19.4132 85.6886 20.779C85.6886 21.9695 85.6886 23.1599 85.6886 24.3504C85.7025 24.5777 85.6667 24.8054 85.5836 25.0174C85.5064 25.1747 85.3968 25.3139 85.2619 25.4258C85.1271 25.5376 84.9701 25.6196 84.8012 25.6664C84.709 25.6947 84.612 25.7041 84.5161 25.6941C84.4201 25.6841 84.3272 25.6549 84.2427 25.6082C84.0234 25.5159 83.8369 25.3597 83.7075 25.1599C83.5781 24.9602 83.5118 24.7261 83.5172 24.4882C83.5172 24.4358 83.5172 24.3831 83.5172 24.3307C83.4993 21.3375 83.4813 18.3443 83.4632 15.3511C83.4591 14.6157 83.459 13.8804 83.4519 13.1453C83.4525 12.9358 83.492 12.7282 83.5686 12.5331C83.8227 11.8409 84.8475 11.6545 85.3805 12.1487C85.5449 12.306 85.6993 12.4734 85.8427 12.6501C86.3706 13.2804 86.8924 13.9157 87.4186 14.5474C88.2802 15.5821 89.1434 16.6161 90.008 17.6494C90.5457 18.2943 91.0823 18.94 91.6179 19.5865C92.0192 20.0715 92.4179 20.5589 92.8182 21.045C92.8477 21.0883 92.8849 21.1258 92.9281 21.1555C92.9726 21.1764 93.0225 21.1829 93.0709 21.1742C93.0937 21.1705 93.1243 21.1235 93.126 21.0946C93.1342 20.9375 93.1373 20.78 93.1376 20.6229C93.1376 17.9966 93.1376 15.3704 93.1376 12.7443C93.1171 12.4819 93.1621 12.2184 93.2686 11.9776C93.3686 11.7603 93.54 11.5839 93.7544 11.4776C93.9687 11.3713 94.2129 11.3417 94.4465 11.3936C94.6558 11.4208 94.8507 11.5146 95.0025 11.6613C95.1543 11.808 95.2547 11.9997 95.2889 12.2079C95.3207 12.3973 95.3343 12.5894 95.3294 12.7814C95.3322 14.6374 95.3327 16.4933 95.3311 18.3491" fill="#5F4687"/>
<path fill-rule="evenodd" clip-rule="evenodd" d="M109.517 18.3437C109.517 20.1831 109.517 22.0226 109.517 23.862C109.528 24.0193 109.523 24.1772 109.502 24.3334C109.476 24.5125 109.407 24.6828 109.303 24.8304C109.198 24.9779 109.06 25.0985 108.899 25.1822C108.739 25.2659 108.561 25.3104 108.38 25.3119C108.199 25.3134 108.02 25.2719 107.858 25.1909C107.584 25.0719 107.345 24.8845 107.163 24.6467C106.818 24.2283 106.469 23.813 106.122 23.3954C104.905 21.9262 103.689 20.4567 102.472 18.9869C101.734 18.0977 100.995 17.2102 100.253 16.3243C100.199 16.2557 100.14 16.1903 100.078 16.1284C100.044 16.0944 99.9924 16.0603 99.94 16.1018C99.9129 16.1204 99.8935 16.1482 99.8853 16.1801C99.8761 16.3195 99.8716 16.4593 99.8716 16.5991C99.8716 19.0692 99.8716 21.5392 99.8716 24.0093C99.8716 24.1845 99.8751 24.36 99.8693 24.5348C99.8605 24.7808 99.7787 25.0186 99.6343 25.218C99.4899 25.4173 99.2894 25.5692 99.0584 25.6542C98.9244 25.6982 98.7816 25.7084 98.6427 25.6838C98.4201 25.6348 98.216 25.5234 98.0542 25.3627C97.8925 25.202 97.7799 24.9986 97.7295 24.7763C97.7108 24.6198 97.7029 24.4621 97.706 24.3045C97.6901 22.0454 97.6753 19.7862 97.6614 17.527C97.6524 16.073 97.6441 14.6192 97.6366 13.1654C97.6227 12.9908 97.645 12.8152 97.702 12.6496C97.7591 12.4839 97.8497 12.3319 97.9682 12.2029C98.185 11.9956 98.4722 11.878 98.7721 11.8739C99.072 11.8697 99.3624 11.9792 99.5849 12.1804C99.8696 12.4889 100.143 12.8083 100.412 13.1308C100.972 13.8029 101.523 14.4828 102.083 15.1552C103.09 16.3657 104.1 17.5744 105.112 18.7814C105.718 19.507 106.321 20.2344 106.923 20.9634C106.944 20.9912 106.967 21.0174 106.992 21.0416C107.055 21.0967 107.109 21.1753 107.214 21.1283C107.293 21.0943 107.302 21.0219 107.305 20.9545C107.313 20.8147 107.313 20.6746 107.313 20.5345C107.313 17.9769 107.313 15.4193 107.313 12.8617C107.313 12.7216 107.307 12.5808 107.317 12.4413C107.335 12.1953 107.424 11.96 107.575 11.7644C107.885 11.3529 108.323 11.3423 108.765 11.4199C108.965 11.4884 109.141 11.6128 109.273 11.7783C109.405 11.9438 109.486 12.1436 109.508 12.3539C109.519 12.4935 109.522 12.6337 109.516 12.7736C109.516 14.6305 109.516 16.4874 109.516 18.3443" fill="#5F4687"/>
<path fill-rule="evenodd" clip-rule="evenodd" d="M171.923 18.7474C171.923 16.944 171.923 15.1406 171.923 13.3372C171.923 13.197 171.925 13.0569 171.923 12.9168C171.92 12.6501 172.02 12.3926 172.203 12.1989C172.386 12.0051 172.638 11.8902 172.904 11.8787C173.079 11.8501 173.257 11.8655 173.424 11.9234C173.591 11.9813 173.741 12.0799 173.86 12.2103C174.175 12.5618 174.484 12.919 174.787 13.2821C175.784 14.4769 176.78 15.6735 177.775 16.8719C178.894 18.2159 180.015 19.5586 181.138 20.9001C181.23 21.0096 181.295 21.2181 181.491 21.1293C181.641 21.0613 181.587 20.8817 181.587 20.748C181.589 18.0868 181.589 15.4255 181.587 12.7641C181.582 12.537 181.602 12.31 181.646 12.0872C181.715 11.899 181.834 11.7334 181.991 11.6093C182.148 11.4852 182.336 11.4073 182.535 11.3845C182.692 11.3659 182.85 11.3812 183 11.4293C183.15 11.4774 183.288 11.5573 183.405 11.6634C183.521 11.7696 183.614 11.8995 183.676 12.0445C183.737 12.1894 183.767 12.346 183.763 12.5035C183.768 12.626 183.763 12.7488 183.763 12.8712C183.763 16.4955 183.763 20.1197 183.763 23.744C183.763 23.8841 183.763 24.0242 183.763 24.1644C183.763 24.3581 183.713 24.5487 183.619 24.7181C183.526 24.8876 183.39 25.0305 183.226 25.1335C183.062 25.2365 182.874 25.2963 182.681 25.3072C182.487 25.3181 182.294 25.2799 182.12 25.196C181.849 25.0702 181.612 24.882 181.428 24.6467C180.815 23.9047 180.2 23.1654 179.58 22.4287C178.471 21.099 177.361 19.7695 176.252 18.4402C175.647 17.7146 175.042 16.9884 174.439 16.2617C174.384 16.1947 174.324 16.133 174.258 16.0773C174.247 16.0696 174.235 16.0644 174.222 16.0624C174.209 16.0603 174.196 16.0613 174.184 16.0654C174.171 16.0694 174.16 16.0764 174.151 16.0857C174.141 16.095 174.135 16.1063 174.131 16.1188C174.111 16.2743 174.101 16.4308 174.102 16.5875C174.1 19.1272 174.1 21.666 174.102 24.2038C174.102 24.344 174.095 24.4841 174.102 24.6239C174.081 24.8697 173.984 25.103 173.824 25.2908C173.664 25.4787 173.45 25.6117 173.21 25.6712C173.117 25.6985 173.02 25.7066 172.924 25.6949C172.828 25.6832 172.736 25.652 172.653 25.6031C172.436 25.5063 172.253 25.3467 172.128 25.145C172.003 24.9433 171.941 24.7087 171.95 24.4715C171.961 23.3511 171.946 22.2304 171.944 21.11C171.944 20.3222 171.944 19.5341 171.944 18.7464L171.923 18.7474Z" fill="#5F4687"/>
<path fill-rule="evenodd" clip-rule="evenodd" d="M156.583 18.6454C156.583 16.7535 156.583 14.8617 156.583 12.9699C156.583 12.8471 156.58 12.7246 156.583 12.6022C156.577 12.4931 156.593 12.3839 156.632 12.2818C156.671 12.1796 156.731 12.0867 156.808 12.0092C156.885 11.9317 156.977 11.8712 157.079 11.8317C157.181 11.7922 157.29 11.7746 157.399 11.7801C158.327 11.7729 159.256 11.777 160.184 11.7777C161.885 11.7777 163.583 11.7777 165.282 11.7841C166.161 11.799 167.016 12.0769 167.736 12.5821C168.338 12.9847 168.79 13.5765 169.019 14.2641C169.426 15.4258 169.539 16.6701 169.348 17.8862C169.281 18.4593 169.132 19.0198 168.906 19.5508C168.586 20.2367 168.084 20.822 167.456 21.2436C167.37 21.3032 167.274 21.3494 167.192 21.4137C167.166 21.4301 167.144 21.4519 167.126 21.4776C167.109 21.5033 167.098 21.5323 167.093 21.5627C167.088 21.5932 167.089 21.6244 167.097 21.6543C167.104 21.6842 167.118 21.7121 167.138 21.7362C167.188 21.8072 167.243 21.8754 167.301 21.9402C168.189 22.9774 169.077 24.0144 169.965 25.0511C170.009 25.1038 170.067 25.1579 170.036 25.2355C169.998 25.3324 169.907 25.3419 169.819 25.3423C169.381 25.3423 168.943 25.3423 168.505 25.3423C168.242 25.3423 167.979 25.3378 167.717 25.3423C167.629 25.3469 167.542 25.3302 167.463 25.2936C167.383 25.257 167.314 25.2017 167.261 25.1324C167.048 24.8766 166.816 24.6368 166.601 24.3841C166.001 23.6766 165.395 22.9739 164.814 22.2515C164.731 22.141 164.621 22.0534 164.495 21.9967C164.369 21.94 164.231 21.9162 164.093 21.9273C162.779 21.9396 161.465 21.9331 160.152 21.9331C160.012 21.9331 159.871 21.9375 159.732 21.9277C159.556 21.9146 159.39 21.8446 159.258 21.7283C159.127 21.612 159.036 21.4558 159.002 21.2834C158.968 21.1106 158.99 20.9316 159.065 20.7721C159.139 20.6126 159.263 20.4808 159.417 20.3957C159.623 20.2967 159.851 20.2541 160.079 20.2722C161.34 20.274 162.601 20.274 163.863 20.2722C164.213 20.2722 164.563 20.2637 164.912 20.2382C165.468 20.231 166.008 20.0469 166.453 19.7125C166.897 19.3781 167.224 18.9108 167.385 18.3783C167.593 17.7264 167.665 17.0385 167.596 16.3576C167.589 15.937 167.515 15.5202 167.376 15.1229C167.22 14.6735 166.937 14.2791 166.56 13.9878C166.184 13.6964 165.731 13.5208 165.257 13.4821C164.316 13.3954 163.369 13.3798 162.425 13.4355C161.514 13.4559 160.603 13.4546 159.693 13.4624C159.465 13.4644 159.237 13.4576 159.01 13.4668C158.766 13.477 158.715 13.5348 158.704 13.793C158.698 13.9328 158.702 14.0733 158.702 14.2134C158.702 17.6116 158.702 21.0099 158.702 24.4083C158.726 24.688 158.671 24.9689 158.543 25.2188C158.465 25.3502 158.359 25.4634 158.234 25.5506C158.108 25.6379 157.966 25.6972 157.815 25.7247C157.665 25.7521 157.511 25.747 157.362 25.7096C157.214 25.6723 157.076 25.6036 156.956 25.5083C156.828 25.4036 156.727 25.2698 156.661 25.118C156.595 24.9662 156.566 24.8009 156.577 24.6358C156.591 22.6389 156.584 20.6419 156.584 18.645" fill="#5F4687"/>
<path fill-rule="evenodd" clip-rule="evenodd" d="M141.331 16.6871C141.331 15.5842 141.331 14.4813 141.331 13.3783C141.331 13.2382 141.334 13.0984 141.338 12.9582C141.36 12.6866 141.484 12.4333 141.686 12.2496C141.887 12.066 142.15 11.9656 142.423 11.9688C142.694 11.9823 142.952 12.0932 143.148 12.2811C143.345 12.4691 143.467 12.7216 143.492 12.9923C143.501 13.1321 143.495 13.2722 143.495 13.4123C143.495 15.3906 143.502 17.3691 143.492 19.347C143.483 20.0145 143.637 20.6741 143.939 21.2691C144.328 22.0651 145.017 22.6745 145.854 22.964C146.848 23.3145 147.911 23.4214 148.955 23.2759C149.443 23.2292 149.922 23.1219 150.384 22.9565C150.903 22.7631 151.362 22.4361 151.714 22.0085C152.066 21.581 152.3 21.068 152.39 20.5215C152.523 19.8346 152.575 19.1344 152.545 18.4354C152.507 16.6854 152.519 14.9344 152.509 13.1838C152.496 13.0086 152.524 12.833 152.59 12.6702C152.655 12.5074 152.757 12.3616 152.887 12.244C153.007 12.1406 153.147 12.065 153.299 12.0224C153.452 11.9799 153.611 11.9716 153.767 11.998C153.922 12.0244 154.07 12.085 154.2 12.1753C154.329 12.2657 154.437 12.3835 154.516 12.5205C154.646 12.7499 154.709 13.0113 154.698 13.2749C154.691 13.9052 154.696 14.5355 154.695 15.1657C154.695 16.4436 154.684 17.7218 154.692 18.9997C154.707 19.8052 154.636 20.6099 154.483 21.4007C154.274 22.6221 153.614 23.7204 152.633 24.4776C152.137 24.8386 151.582 25.1101 150.993 25.28C149.788 25.6567 148.519 25.7884 147.261 25.6674C145.932 25.5385 144.64 25.2545 143.522 24.4429C142.786 23.9017 142.206 23.1748 141.842 22.3365C141.487 21.5338 141.312 20.6629 141.331 19.7854C141.339 18.7524 141.331 17.7195 141.331 16.6868L141.331 16.6871Z" fill="#5F4687"/>
<path fill-rule="evenodd" clip-rule="evenodd" d="M127.292 18.6889C127.292 16.7628 127.292 14.8366 127.292 12.9103C127.292 12.7702 127.286 12.6297 127.295 12.4903C127.307 12.3067 127.385 12.1336 127.514 12.003C127.644 11.8724 127.816 11.7932 128 11.7801C128.105 11.7739 128.21 11.7777 128.315 11.7777H135.458C135.598 11.7777 135.738 11.7807 135.878 11.7801C136.686 11.7876 137.478 12.0076 138.174 12.4178C138.895 12.8311 139.443 13.4919 139.715 14.278C140.111 15.3691 140.238 16.5395 140.086 17.6902C140.025 18.3355 139.856 18.9659 139.586 19.5552C139.24 20.2641 138.703 20.8621 138.035 21.2818C137.367 21.7015 136.595 21.9261 135.806 21.9304C134.09 21.9304 132.374 21.9304 130.658 21.9304C130.501 21.9431 130.343 21.9269 130.192 21.8824C130.043 21.8275 129.913 21.7284 129.821 21.5982C129.729 21.4681 129.678 21.313 129.676 21.1535C129.663 21.0037 129.695 20.8535 129.767 20.7215C129.838 20.5894 129.947 20.4812 130.08 20.4103C130.248 20.3156 130.44 20.2686 130.633 20.2743C131.141 20.2794 131.648 20.2743 132.156 20.2743C133.172 20.2743 134.188 20.277 135.203 20.2743C135.659 20.2866 136.112 20.2073 136.536 20.0413C136.87 19.9075 137.173 19.7076 137.427 19.4534C137.682 19.1993 137.882 18.8963 138.016 18.5627C138.181 18.1747 138.273 17.7596 138.288 17.3382C138.313 16.8835 138.306 16.4276 138.267 15.9739C138.227 15.5184 138.088 15.0773 137.859 14.6814C137.666 14.3571 137.401 14.0811 137.085 13.8748C136.769 13.6684 136.41 13.5371 136.036 13.4909C135.2 13.4032 134.359 13.3781 133.519 13.4158C133.134 13.4113 132.749 13.4192 132.362 13.4246C131.505 13.4366 130.648 13.4497 129.79 13.4637C129.738 13.4637 129.685 13.4637 129.633 13.4705C129.48 13.4865 129.402 13.5535 129.392 13.6947C129.381 13.8515 129.384 14.0096 129.384 14.1671C129.384 17.5816 129.384 20.9961 129.386 24.4106C129.411 24.7082 129.346 25.0065 129.2 25.2668C129.094 25.4222 128.95 25.5473 128.781 25.6296C128.613 25.7119 128.425 25.7487 128.238 25.7361C128.051 25.7236 127.87 25.6622 127.713 25.558C127.557 25.4539 127.431 25.3107 127.347 25.1426C127.287 24.9959 127.267 24.8357 127.289 24.6787C127.289 23.7682 127.289 22.8577 127.289 21.947V18.6902" fill="#5F4687"/>
<path fill-rule="evenodd" clip-rule="evenodd" d="M119.834 19.8161C120.202 19.8161 120.569 19.8161 120.937 19.8161C121.042 19.8157 121.147 19.8089 121.251 19.7957C121.292 19.7817 121.326 19.7524 121.347 19.7137C121.367 19.675 121.372 19.6299 121.36 19.5879C121.343 19.5383 121.323 19.4901 121.299 19.4437C120.621 18.1412 119.943 16.839 119.263 15.5372C119.182 15.3825 119.038 15.378 118.95 15.5389C118.717 15.9692 118.495 16.4059 118.27 16.8403C117.098 19.0892 115.926 21.3381 114.754 23.5869C114.52 24.0365 114.278 24.4818 114.049 24.9341C113.896 25.2321 113.645 25.4691 113.34 25.6062C113.224 25.6674 113.094 25.6974 112.962 25.6934C112.831 25.6893 112.703 25.6513 112.591 25.5831C112.451 25.5122 112.326 25.4135 112.225 25.2931C112.123 25.1727 112.047 25.033 112.001 24.8824C111.958 24.7675 111.938 24.645 111.943 24.5223C111.948 24.3996 111.978 24.2792 112.03 24.1681C112.216 23.792 112.395 23.4124 112.589 23.0403C114.056 20.2185 115.524 17.3978 116.995 14.578C117.318 13.958 117.682 13.3573 117.975 12.7236C118.077 12.5253 118.23 12.3575 118.418 12.2373C118.606 12.1171 118.823 12.0486 119.046 12.0389C119.268 12.0292 119.49 12.0785 119.688 12.1819C119.886 12.2853 120.053 12.4391 120.172 12.6277C120.378 12.9723 120.561 13.3314 120.747 13.6876C122.204 16.4767 123.66 19.2658 125.115 22.0549C125.446 22.6903 125.761 23.3341 126.096 23.9671C126.18 24.1064 126.233 24.2619 126.252 24.4232C126.27 24.5846 126.254 24.748 126.204 24.9027C126.155 25.0573 126.072 25.1995 125.963 25.3197C125.854 25.4399 125.72 25.5354 125.571 25.5998C125.471 25.6528 125.361 25.6823 125.248 25.686C125.135 25.6898 125.022 25.6678 124.919 25.6215C124.574 25.4834 124.293 25.2222 124.131 24.8886C123.706 24.0654 123.28 23.2433 122.851 22.4222C122.814 22.3436 122.771 22.2675 122.723 22.1947C122.686 22.1348 122.634 22.0857 122.572 22.0523C122.51 22.0189 122.44 22.0023 122.37 22.0042C122.247 22.0076 122.124 22.0062 122.002 22.0062C120.933 22.0062 119.865 22.0062 118.797 22.0062C118.639 22.0115 118.482 22.0047 118.325 21.9858C118.159 21.9663 118.001 21.9052 117.865 21.8082C117.729 21.7113 117.62 21.5815 117.547 21.4311C117.476 21.3053 117.432 21.1661 117.417 21.0224C117.403 20.8786 117.418 20.7334 117.463 20.5959C117.507 20.4584 117.58 20.3317 117.676 20.2237C117.772 20.1157 117.889 20.0288 118.02 19.9685C118.224 19.8643 118.45 19.8116 118.678 19.8151C119.064 19.8175 119.449 19.8151 119.835 19.8151L119.834 19.8161Z" fill="#5F4687"/>
<path fill-rule="evenodd" clip-rule="evenodd" d="M194.067 19.8157C194.435 19.8157 194.803 19.8157 195.17 19.8157C195.275 19.8196 195.38 19.8116 195.483 19.7919C195.505 19.7879 195.526 19.7793 195.544 19.7667C195.562 19.754 195.577 19.7376 195.588 19.7186C195.6 19.6995 195.607 19.6783 195.609 19.6563C195.611 19.6344 195.609 19.6121 195.602 19.5912C195.578 19.5075 195.545 19.4266 195.504 19.3497C194.877 18.1399 194.248 16.9309 193.619 15.7225C193.572 15.6287 193.516 15.5397 193.451 15.4568C193.441 15.4425 193.427 15.4308 193.412 15.423C193.396 15.4151 193.378 15.4112 193.361 15.4117C193.343 15.4122 193.326 15.4171 193.31 15.4258C193.295 15.4346 193.282 15.447 193.272 15.462C193.202 15.5609 193.138 15.665 193.083 15.7735C192.04 17.7724 190.997 19.7717 189.954 21.7715C189.445 22.7483 188.938 23.726 188.432 24.7044C188.266 25.0935 187.967 25.4113 187.589 25.6017C187.482 25.659 187.362 25.6886 187.24 25.6878C187.119 25.6871 186.999 25.6559 186.893 25.5973C186.753 25.5412 186.627 25.4573 186.522 25.3507C186.416 25.244 186.334 25.1169 186.279 24.9772C186.224 24.8375 186.199 24.6881 186.204 24.5382C186.21 24.3883 186.245 24.241 186.31 24.1055C186.385 23.9101 186.473 23.72 186.574 23.5368C187.797 21.1987 189.021 18.8611 190.246 16.5242C190.845 15.3783 191.436 14.2293 192.033 13.0817C192.098 12.9575 192.161 12.8324 192.232 12.7116C192.331 12.5195 192.477 12.3562 192.658 12.2372C192.838 12.1183 193.046 12.0478 193.262 12.0325C193.477 12.0172 193.693 12.0577 193.888 12.15C194.084 12.2423 194.252 12.3834 194.377 12.5596C194.458 12.6725 194.53 12.7924 194.591 12.9177C195.819 15.2728 197.051 17.6266 198.285 19.9789C198.956 21.2642 199.624 22.5518 200.286 23.8419C200.357 23.9623 200.413 24.0905 200.454 24.2238C200.533 24.4961 200.51 24.7875 200.391 25.0445C200.272 25.3015 200.063 25.5067 199.805 25.6225C199.703 25.6736 199.59 25.6999 199.476 25.6993C199.362 25.6988 199.25 25.6712 199.148 25.6191C198.797 25.4552 198.513 25.174 198.346 24.8238C197.951 24.0446 197.54 23.2742 197.135 22.4997C197.101 22.4378 197.076 22.3728 197.044 22.3106C197.002 22.2131 196.931 22.1312 196.841 22.0765C196.75 22.0218 196.644 21.9972 196.539 22.0062C196.329 22.0157 196.119 22.0089 195.909 22.0089C194.945 22.0089 193.982 22.0089 193.017 22.0089C192.843 22.0113 192.668 21.9984 192.495 21.9701C192.272 21.9171 192.07 21.7953 191.92 21.6219C191.769 21.4485 191.676 21.2322 191.655 21.0034C191.637 20.8005 191.68 20.5968 191.778 20.4181C191.875 20.2393 192.024 20.0934 192.204 19.9987C192.417 19.874 192.66 19.8104 192.907 19.815C193.292 19.8218 193.677 19.8167 194.063 19.8167L194.067 19.8157Z" fill="#5F4687"/>
<path fill-rule="evenodd" clip-rule="evenodd" d="M75.7559 19.83C76.1937 19.83 76.6311 19.832 77.0685 19.83C77.0993 19.8347 77.1307 19.8301 77.1588 19.8169C77.187 19.8037 77.2106 19.7824 77.2266 19.7558C77.2427 19.7292 77.2505 19.6984 77.249 19.6674C77.2476 19.6363 77.237 19.6064 77.2185 19.5814C76.8918 18.9435 76.563 18.3069 76.2321 17.6715C75.9088 17.0516 75.5832 16.4326 75.2553 15.8147C75.2093 15.7209 75.1576 15.63 75.1005 15.5426C75.0856 15.5161 75.0638 15.4941 75.0374 15.4789C75.011 15.4636 74.9811 15.4558 74.9506 15.4561C74.9202 15.4564 74.8904 15.4649 74.8644 15.4806C74.8383 15.4964 74.817 15.5188 74.8026 15.5457C74.7464 15.6344 74.6964 15.727 74.6478 15.8198C73.6469 17.7427 72.6463 19.6658 71.6461 21.5892C71.0733 22.6896 70.4997 23.7894 69.9254 24.8885C69.7753 25.1872 69.5344 25.4308 69.2373 25.5841C69.1083 25.6565 68.9619 25.6922 68.814 25.6873C68.6662 25.6824 68.5225 25.6372 68.3985 25.5565C68.2638 25.483 68.1453 25.3833 68.0498 25.2632C67.9544 25.1431 67.884 25.0051 67.8428 24.8574C67.8015 24.7096 67.7903 24.5551 67.8099 24.4029C67.8294 24.2508 67.8792 24.1041 67.9563 23.9715C69.4509 21.0835 70.9534 18.1996 72.4638 15.3198C72.8842 14.5139 73.3047 13.7081 73.7253 12.9025C73.8755 12.5659 74.1393 12.2929 74.4706 12.1314C74.7476 12.0195 75.055 12.008 75.3397 12.0989C75.6243 12.1898 75.8682 12.3773 76.0291 12.629C76.1747 12.8882 76.3185 13.1484 76.4556 13.4113C77.544 15.5061 78.6318 17.6012 79.7189 19.6967C80.4291 21.0616 81.1474 22.4225 81.8576 23.7868C81.9419 23.9401 82.0121 24.1008 82.0675 24.2667C82.1561 24.4982 82.1596 24.7536 82.0776 24.9875C81.9955 25.2214 81.8331 25.4185 81.6193 25.5439C81.4055 25.6693 81.1542 25.7148 80.91 25.6722C80.6658 25.6297 80.4447 25.5019 80.2859 25.3116C80.1711 25.2029 80.0795 25.0722 80.0165 24.9273C79.6114 24.1535 79.2002 23.3817 78.7947 22.6089C78.7702 22.5626 78.7607 22.5069 78.7318 22.4647C78.4529 22.0337 78.5427 22.0062 77.9529 22.0079C76.8497 22.0111 75.7465 22.0111 74.6434 22.0079C74.486 22.0127 74.3285 22.005 74.1723 21.9851C73.9544 21.9553 73.7517 21.8567 73.5937 21.7038C73.4357 21.5509 73.3306 21.3515 73.2937 21.1348C73.2466 20.901 73.2798 20.6581 73.3881 20.4456C73.4963 20.2331 73.6732 20.0634 73.89 19.964C74.0938 19.8606 74.3204 19.8103 74.5488 19.8178C74.5828 19.8178 74.6189 19.8178 74.6539 19.8178H75.757L75.7559 19.83Z" fill="#5F4687"/>
<path fill-rule="evenodd" clip-rule="evenodd" d="M62.3629 23.8889C62.3629 16.4646 62.3629 9.04038 62.3629 1.61614C62.3629 1.44097 62.3571 1.26546 62.368 1.09097C62.3702 0.985866 62.4061 0.884254 62.4703 0.801012C62.5345 0.717771 62.6237 0.657275 62.7248 0.628384C62.8504 0.58407 62.988 0.587797 63.1111 0.638848C63.2342 0.6899 63.334 0.784668 63.3914 0.904914C63.4719 1.08069 63.5111 1.27254 63.5061 1.4658C63.4999 1.78076 63.5061 2.09607 63.5061 2.41137C63.5061 16.9973 63.5061 31.5831 63.5061 46.1687C63.5277 46.378 63.5091 46.5895 63.4513 46.7919C63.4175 46.9204 63.3381 47.0323 63.228 47.1067C63.1179 47.1812 62.9845 47.2131 62.8527 47.1966C62.729 47.1971 62.6099 47.1498 62.5204 47.0645C62.4308 46.9792 62.3777 46.8627 62.372 46.7391C62.3584 46.565 62.3656 46.3891 62.3656 46.214C62.3656 38.7723 62.3656 31.3306 62.3656 23.8889" fill="#E1E1E1"/>
<path fill-rule="evenodd" clip-rule="evenodd" d="M84.8638 33.7103H69.5737C69.3985 33.7103 69.223 33.7164 69.0485 33.7062C68.6642 33.6837 68.4849 33.5096 68.458 33.1759C68.4268 32.7865 68.5788 32.5956 69.021 32.4984C69.1774 32.4784 69.3356 32.4751 69.4927 32.4885H100.283C100.406 32.4885 100.528 32.4929 100.651 32.4885C100.792 32.4867 100.93 32.5268 101.048 32.6038C101.159 32.6597 101.248 32.7509 101.301 32.8629C101.354 32.9749 101.368 33.1015 101.342 33.2225C101.311 33.3415 101.247 33.4494 101.158 33.5337C101.068 33.6179 100.957 33.6752 100.836 33.6987C100.662 33.7133 100.487 33.7178 100.312 33.712C95.1625 33.712 90.0132 33.712 84.8638 33.712" fill="#5F4687"/>
<path fill-rule="evenodd" clip-rule="evenodd" d="M183.099 33.7099H167.705C167.547 33.7099 167.389 33.7181 167.232 33.7045C167.14 33.7008 167.05 33.6758 166.969 33.6315C166.887 33.5871 166.818 33.5247 166.765 33.4489C166.712 33.3732 166.677 33.2862 166.663 33.1948C166.65 33.1035 166.657 33.0102 166.686 32.9222C166.724 32.8046 166.797 32.7014 166.895 32.6261C166.993 32.5508 167.112 32.507 167.235 32.5004C167.374 32.484 167.515 32.4802 167.655 32.4892C168.723 32.4892 169.791 32.4892 170.859 32.4892H198.389C198.547 32.4892 198.705 32.4892 198.862 32.4892C198.994 32.4941 199.123 32.5303 199.238 32.5949C199.353 32.6595 199.451 32.7506 199.523 32.8606C199.566 32.9061 199.594 32.9628 199.605 33.0239C199.617 33.085 199.61 33.148 199.586 33.2055C199.54 33.3384 199.457 33.4556 199.347 33.5439C199.237 33.6321 199.105 33.6879 198.965 33.7048C198.808 33.715 198.65 33.7096 198.493 33.7096L183.099 33.7099Z" fill="#5F4687"/>
<path fill-rule="evenodd" clip-rule="evenodd" d="M137.411 33.3408C137.411 32.3272 137.411 31.2939 137.411 30.2609C137.408 30.1909 137.41 30.1208 137.417 30.0511C137.422 29.9193 137.465 29.7919 137.541 29.6841C137.617 29.5762 137.722 29.4925 137.844 29.4429C137.976 29.3924 138.119 29.382 138.256 29.413C138.394 29.444 138.519 29.515 138.616 29.617C138.665 29.667 138.709 29.7212 138.749 29.7789C139.556 30.7463 140.362 31.7136 141.169 32.681C141.572 33.1646 141.972 33.6514 142.377 34.1337C142.479 34.2537 142.587 34.3682 142.701 34.4765C142.721 34.4937 142.744 34.5053 142.77 34.5099C142.795 34.5146 142.822 34.5121 142.846 34.5029C142.87 34.4936 142.891 34.4779 142.907 34.4574C142.923 34.437 142.933 34.4125 142.936 34.3868C142.951 34.2306 142.956 34.0728 142.956 33.9157C142.956 32.6374 142.956 31.3592 142.956 30.081C142.942 29.8886 142.967 29.6955 143.03 29.5133C143.066 29.3855 143.145 29.274 143.254 29.1975C143.362 29.121 143.494 29.0842 143.626 29.0932C143.759 29.0866 143.89 29.1275 143.995 29.2085C144.101 29.2895 144.174 29.4054 144.202 29.5354C144.254 29.7029 144.278 29.8778 144.273 30.0531C144.273 32.1018 144.273 34.1506 144.273 36.1993C144.28 36.3569 144.257 36.5143 144.205 36.6633C144.172 36.7588 144.119 36.8456 144.048 36.9174C143.977 36.9893 143.89 37.0442 143.795 37.0781C143.7 37.1121 143.599 37.1242 143.498 37.1135C143.398 37.1029 143.301 37.0698 143.215 37.0167C143.039 36.9011 142.885 36.7552 142.76 36.5857C141.566 35.144 140.37 33.7035 139.172 32.2643C139.079 32.1517 139.005 31.9504 138.813 32.0385C138.666 32.1065 138.729 32.2885 138.728 32.4201C138.724 33.6983 138.728 34.9765 138.726 36.2551C138.734 36.43 138.725 36.6052 138.701 36.7786C138.691 36.8755 138.658 36.9686 138.604 37.0498C138.55 37.131 138.478 37.1979 138.392 37.2448C138.307 37.2916 138.211 37.317 138.114 37.3188C138.016 37.3205 137.92 37.2985 137.833 37.2548C137.729 37.2069 137.639 37.1321 137.574 37.0381C137.508 36.9442 137.468 36.8344 137.459 36.7201C137.445 36.5807 137.441 36.4406 137.447 36.3007C137.435 35.3204 137.475 34.3395 137.413 33.3415" fill="#5F4687"/>
<path fill-rule="evenodd" clip-rule="evenodd" d="M124.843 33.1151C124.843 34.1128 124.843 35.1115 124.843 36.111C124.849 36.2509 124.845 36.391 124.831 36.5304C124.819 36.6398 124.78 36.7444 124.717 36.8346C124.654 36.9248 124.569 36.9977 124.47 37.0466C124.371 37.0955 124.262 37.1188 124.152 37.1143C124.042 37.1099 123.935 37.0779 123.841 37.0212C123.688 36.934 123.554 36.8186 123.444 36.6811C123.158 36.3277 122.858 35.9848 122.567 35.6345C121.663 34.5429 120.76 33.4503 119.857 32.3569C119.801 32.2889 119.746 32.2209 119.685 32.1583C119.603 32.0726 119.533 31.9178 119.408 31.9542C119.227 32.0063 119.311 32.1923 119.311 32.3171C119.305 33.6484 119.308 34.9801 119.307 36.3113C119.314 36.4689 119.309 36.6267 119.292 36.7834C119.283 36.898 119.239 37.0069 119.166 37.0957C119.093 37.1845 118.995 37.2489 118.884 37.2804C118.759 37.3239 118.622 37.3244 118.496 37.282C118.37 37.2395 118.262 37.1564 118.189 37.0457C118.077 36.8871 118.022 36.6953 118.032 36.5015C118.035 35.9232 118.028 35.345 118.026 34.7668C118.022 33.2951 118.019 31.8236 118.017 30.3522C118.017 30.2644 118.017 30.177 118.017 30.0893C118.009 29.9478 118.048 29.8078 118.127 29.6904C118.207 29.573 118.322 29.4846 118.456 29.4386C118.587 29.3876 118.731 29.3782 118.868 29.4116C119.005 29.4451 119.129 29.5198 119.222 29.6256C119.284 29.6876 119.341 29.7539 119.394 29.8239C120.636 31.318 121.879 32.8119 123.121 34.3056C123.201 34.3972 123.287 34.4831 123.379 34.5627C123.423 34.6025 123.541 34.5549 123.547 34.4947C123.563 34.3565 123.572 34.2175 123.574 34.0784C123.575 32.7468 123.575 31.4154 123.574 30.0841C123.569 29.9441 123.573 29.804 123.585 29.6644C123.605 29.507 123.681 29.362 123.799 29.2561C123.917 29.1503 124.069 29.0906 124.228 29.0882C124.35 29.092 124.469 29.1327 124.568 29.205C124.667 29.2773 124.742 29.3778 124.783 29.4933C124.835 29.6792 124.855 29.8728 124.841 30.0654C124.841 31.0815 124.841 32.0976 124.841 33.1137" fill="#5F4687"/>
<path fill-rule="evenodd" clip-rule="evenodd" d="M131.959 33.6154C132.169 33.6154 132.379 33.6184 132.588 33.6154C132.614 33.6141 132.64 33.6072 132.663 33.5951C132.686 33.583 132.707 33.566 132.722 33.5453C132.738 33.5246 132.75 33.5006 132.755 33.4751C132.761 33.4496 132.761 33.4232 132.755 33.3977C132.747 33.3461 132.732 33.2959 132.71 33.2484C132.392 32.6445 132.075 32.0416 131.757 31.4395C131.734 31.3924 131.707 31.347 131.677 31.3035C131.661 31.2824 131.641 31.2653 131.618 31.254C131.594 31.2426 131.568 31.2372 131.542 31.2383C131.516 31.2394 131.491 31.2469 131.469 31.2601C131.446 31.2734 131.428 31.2921 131.414 31.3144C131.367 31.3875 131.325 31.4633 131.287 31.5416C130.446 33.1515 129.605 34.7615 128.764 36.3715C128.701 36.4958 128.624 36.613 128.536 36.7211C128.446 36.8293 128.322 36.9043 128.184 36.9342C128.047 36.9641 127.903 36.9473 127.776 36.8864C127.694 36.8535 127.623 36.799 127.569 36.7286C127.516 36.6583 127.483 36.5748 127.473 36.4871C127.444 36.2785 127.482 36.0659 127.582 35.8803C128.071 34.9538 128.549 34.0205 129.033 33.0912C129.573 32.0534 130.114 31.0162 130.657 29.9797C130.757 29.7367 130.902 29.515 131.085 29.3263C131.156 29.2541 131.242 29.1988 131.338 29.1645C131.433 29.1303 131.535 29.118 131.635 29.1285C131.736 29.139 131.833 29.1721 131.919 29.2253C132.005 29.2785 132.078 29.3505 132.132 29.4358C132.205 29.5345 132.269 29.6389 132.325 29.748C133.358 31.7308 134.39 33.7149 135.42 35.7004C135.484 35.8245 135.546 35.9504 135.599 36.0793C135.661 36.2146 135.673 36.3669 135.635 36.5104C135.596 36.6539 135.51 36.7797 135.389 36.8664C135.252 36.947 135.09 36.9743 134.933 36.9434C134.777 36.9124 134.638 36.8252 134.541 36.6984C134.354 36.4041 134.182 36.1001 134.026 35.7878C133.926 35.6038 133.842 35.4113 133.745 35.2259C133.699 35.1215 133.623 35.0338 133.525 34.9753C133.427 34.9168 133.314 34.8904 133.2 34.8997C132.64 34.9167 132.08 34.9048 131.52 34.9065C131.345 34.916 131.169 34.8938 131.002 34.8409C130.885 34.8042 130.781 34.733 130.704 34.6365C130.628 34.54 130.583 34.4228 130.574 34.3001C130.569 34.1685 130.604 34.0386 130.676 33.9282C130.748 33.8178 130.852 33.7324 130.974 33.6837C131.19 33.6095 131.419 33.5816 131.646 33.6018H131.962C131.962 33.6065 131.962 33.6113 131.962 33.6161" fill="#5F4687"/>
<path fill-rule="evenodd" clip-rule="evenodd" d="M151.228 36.9436C150.65 36.9313 150.02 36.9208 149.391 36.9041C148.971 36.8775 148.56 36.7653 148.185 36.5742C147.818 36.403 147.495 36.1503 147.24 35.8353C146.986 35.5203 146.806 35.1513 146.716 34.7565C146.424 33.7209 146.426 32.6246 146.72 31.5898C146.898 30.9235 147.293 30.3352 147.841 29.9173C148.39 29.4994 149.062 29.2756 149.752 29.281C150.889 29.2609 152.028 29.2762 153.166 29.2766C153.254 29.2724 153.342 29.2766 153.428 29.2891C153.524 29.3063 153.614 29.3461 153.691 29.4053C153.768 29.4645 153.829 29.5413 153.87 29.6293C153.915 29.7198 153.938 29.8197 153.937 29.9208C153.936 30.0218 153.91 30.1211 153.863 30.2104C153.815 30.2996 153.747 30.3763 153.664 30.434C153.581 30.4917 153.486 30.5288 153.386 30.5422C153.246 30.5562 153.106 30.5602 152.966 30.5541C152.021 30.5541 151.075 30.5633 150.13 30.5507C149.707 30.5469 149.292 30.6602 148.93 30.8779C148.68 31.0258 148.465 31.2266 148.301 31.4663C148.137 31.706 148.027 31.9787 147.98 32.2653C147.861 32.8512 147.858 33.4548 147.971 34.0419C148.033 34.4617 148.234 34.8485 148.543 35.1401C148.851 35.4317 149.249 35.6112 149.671 35.6497C150.073 35.6826 150.476 35.6928 150.878 35.6803C151.596 35.6748 152.314 35.6674 153.032 35.6623C153.207 35.6465 153.383 35.6734 153.545 35.7405C153.677 35.7934 153.785 35.891 153.851 36.0161C153.918 36.1412 153.938 36.2857 153.908 36.4242C153.892 36.5556 153.83 36.6774 153.735 36.7691C153.639 36.8609 153.515 36.917 153.383 36.9282C153.244 36.9422 153.104 36.9475 152.964 36.9442C152.684 36.9463 152.404 36.9442 152.123 36.9442H151.23" fill="#5F4687"/>
<path fill-rule="evenodd" clip-rule="evenodd" d="M158.875 29.0841C159.733 29.0841 160.59 29.0882 161.448 29.0814C161.552 29.0745 161.656 29.0963 161.749 29.1442C161.842 29.1921 161.92 29.2645 161.975 29.3535C162.035 29.4404 162.071 29.541 162.081 29.6459C162.091 29.7507 162.074 29.8564 162.032 29.9529C161.99 30.0494 161.924 30.1337 161.84 30.1978C161.757 30.2619 161.658 30.3038 161.554 30.3195C161.415 30.3325 161.275 30.3363 161.135 30.3307C159.997 30.3307 158.859 30.329 157.721 30.3307C157.253 30.3307 157.245 30.3416 157.243 30.7953C157.241 32.3182 157.241 33.8411 157.243 35.364C157.243 35.8402 157.25 35.8473 157.755 35.8484C158.858 35.8507 159.961 35.8484 161.063 35.8484C161.186 35.8484 161.308 35.8484 161.431 35.8511C161.608 35.8573 161.776 35.9323 161.899 36.0603C161.986 36.1351 162.049 36.2357 162.076 36.3478C162.103 36.4599 162.095 36.5778 162.051 36.6847C162.016 36.7938 161.951 36.8909 161.864 36.9654C161.777 37.0399 161.671 37.0888 161.558 37.1068C161.453 37.1177 161.348 37.1208 161.243 37.1164C159.65 37.1164 158.057 37.1164 156.464 37.1164C156.359 37.1178 156.255 37.1123 156.151 37.1001C156.106 37.0961 156.065 37.0764 156.034 37.0447C156.003 37.013 155.984 36.9713 155.981 36.9269C155.972 36.8399 155.969 36.7524 155.972 36.665C155.972 34.2841 155.972 31.9031 155.972 29.5222C155.972 29.4348 155.972 29.3473 155.979 29.2603C155.979 29.216 155.996 29.1735 156.027 29.1418C156.058 29.11 156.1 29.0915 156.144 29.0902C156.283 29.0797 156.423 29.079 156.563 29.0786C157.334 29.0786 158.105 29.0786 158.874 29.0786L158.875 29.0841Z" fill="#5F4687"/>
<path fill-rule="evenodd" clip-rule="evenodd" d="M108.602 40.6973C108.843 40.7007 108.906 40.7388 108.973 40.981C109.102 41.4531 109.223 41.9273 109.339 42.4028C109.489 43.015 109.631 43.6272 109.777 44.2395C109.78 44.2742 109.791 44.3079 109.808 44.3381C109.84 44.3763 109.879 44.4069 109.924 44.4279C109.938 44.4341 109.987 44.3939 109.996 44.3684C110.049 44.2201 110.102 44.0715 110.141 43.9194C110.385 42.9718 110.625 42.0232 110.87 41.0759C110.892 40.9918 110.929 40.9125 110.981 40.8422C111.016 40.7917 111.063 40.7512 111.119 40.7249C111.174 40.6986 111.235 40.6874 111.297 40.6923C111.358 40.6973 111.417 40.7183 111.467 40.7532C111.518 40.7881 111.558 40.8357 111.584 40.8912C111.617 40.9528 111.643 41.0177 111.663 41.0848C111.891 41.8916 112.118 42.6987 112.343 43.5062C112.419 43.7755 112.493 44.0453 112.575 44.3123C112.588 44.3528 112.647 44.4126 112.674 44.4075C112.698 44.3991 112.72 44.3856 112.739 44.368C112.757 44.3505 112.772 44.3291 112.782 44.3055C112.823 44.209 112.855 44.1089 112.877 44.0065C112.981 43.5303 113.075 43.0483 113.185 42.5718C113.307 42.0439 113.442 41.5194 113.571 40.9932C113.577 40.9321 113.6 40.8739 113.637 40.8249C113.674 40.7759 113.724 40.7379 113.781 40.715C114.067 40.6184 114.285 40.7953 114.216 41.0926C114.146 41.3987 114.058 41.7004 113.988 42.0072C113.822 42.7395 113.623 43.4647 113.444 44.1943C113.344 44.6024 113.26 45.0106 113.168 45.4208C113.157 45.4721 113.141 45.5228 113.13 45.5735C113.037 45.9912 112.792 45.9983 112.454 45.9572C112.419 45.9513 112.387 45.9363 112.36 45.9136C112.333 45.8908 112.313 45.8612 112.301 45.8279C112.246 45.7181 112.199 45.6044 112.16 45.4878C111.996 44.8994 111.84 44.3082 111.679 43.7191C111.577 43.3483 111.473 42.9784 111.366 42.6092C111.36 42.5742 111.343 42.542 111.318 42.517C111.292 42.4919 111.26 42.4754 111.225 42.4698C111.134 42.4602 111.11 42.5378 111.094 42.599C110.945 43.1742 110.803 43.7511 110.652 44.3259C110.533 44.7824 110.411 45.2388 110.276 45.6905C110.199 45.9459 110.128 45.979 109.851 45.9708C109.593 45.9633 109.47 45.8912 109.409 45.6827C109.329 45.415 109.262 45.1432 109.193 44.8721C108.91 43.7542 108.627 42.6362 108.346 41.5181C108.312 41.382 108.28 41.246 108.258 41.1072C108.205 40.7691 108.273 40.6905 108.603 40.6953" fill="#5F4687"/>
<path fill-rule="evenodd" clip-rule="evenodd" d="M106.311 29.1113C106.431 29.1017 106.552 29.0844 106.673 29.084C108.114 29.0822 109.556 29.0822 110.998 29.084C111.153 29.0647 111.311 29.0805 111.46 29.1303C111.466 29.2425 111.55 29.3153 111.596 29.4072C111.646 29.4795 111.675 29.5645 111.68 29.6525C111.684 29.7405 111.663 29.828 111.62 29.9048C111.577 29.9817 111.513 30.0449 111.436 30.0872C111.359 30.1294 111.271 30.1491 111.183 30.1439C111.061 30.151 110.939 30.146 110.816 30.146C109.82 30.146 108.823 30.1412 107.826 30.1483C107.337 30.1517 107.257 30.2415 107.256 30.7388C107.254 32.3998 107.254 34.0608 107.256 35.7218C107.256 35.8442 107.256 35.9663 107.256 36.0888C107.249 36.301 107.159 36.502 107.004 36.6476C106.983 36.676 106.957 36.6999 106.927 36.718C106.897 36.736 106.863 36.7477 106.828 36.7526C106.793 36.7574 106.758 36.7552 106.724 36.746C106.69 36.7369 106.658 36.721 106.63 36.6993C106.525 36.6367 106.434 36.551 106.3 36.5653L106.304 36.5697C106.307 36.3595 106.312 36.1497 106.312 35.9395C106.312 33.6633 106.312 31.3872 106.312 29.1113" fill="#5F4687"/>
<path fill-rule="evenodd" clip-rule="evenodd" d="M94.3005 45.5643C94.178 45.6503 94.1062 45.6983 94.0368 45.7496C93.6363 46.024 93.1485 46.1408 92.6671 46.0777C92.1857 46.0145 91.7446 45.7759 91.4284 45.4075C91.0143 44.951 90.7806 44.3594 90.7709 43.7432C90.7797 43.5333 90.7746 43.3228 90.7709 43.1129C90.7669 42.7275 90.8483 42.3459 91.0093 41.9957C91.1704 41.6455 91.407 41.3353 91.7022 41.0874C91.842 40.9417 92.0116 40.8277 92.1994 40.7533C92.3872 40.6789 92.5889 40.6457 92.7906 40.6561C92.9479 40.6666 93.1058 40.6666 93.2631 40.6561C93.5267 40.652 93.7869 40.717 94.0177 40.8446C94.2485 40.9722 94.4419 41.1579 94.5787 41.3833C94.6868 41.5425 94.7761 41.7137 94.8447 41.8935C94.8611 41.9247 94.8708 41.9589 94.873 41.9941C94.8753 42.0292 94.8701 42.0644 94.8578 42.0974C94.8456 42.1304 94.8265 42.1604 94.8019 42.1856C94.7772 42.2107 94.7475 42.2303 94.7147 42.2432C94.6521 42.2736 94.5856 42.2955 94.5171 42.3082C94.4838 42.32 94.4485 42.325 94.4132 42.3229C94.378 42.3207 94.3435 42.3113 94.312 42.2954C94.2804 42.2795 94.2524 42.2574 94.2297 42.2303C94.207 42.2033 94.19 42.1719 94.1797 42.1381C94.1312 42.0073 94.0656 41.8835 93.9848 41.7697C93.8994 41.6369 93.7828 41.5269 93.6452 41.4493C93.5077 41.3717 93.3532 41.3289 93.1954 41.3245C93.0552 41.3218 92.9151 41.3296 92.7753 41.3228C92.6163 41.3169 92.4587 41.3545 92.3195 41.4315C92.1803 41.5085 92.0647 41.622 91.9852 41.7599C91.8268 41.9896 91.7147 42.2479 91.6549 42.5204C91.5442 43.0705 91.5442 43.637 91.6549 44.1871C91.7123 44.5721 91.9119 44.9216 92.2144 45.1667C92.4676 45.3744 92.7922 45.4746 93.1185 45.4457C93.4447 45.4167 93.7466 45.261 93.9593 45.0119C94.0588 44.8783 94.1288 44.7251 94.1646 44.5625C94.2005 44.3998 94.2015 44.2314 94.1675 44.0684C94.161 44.0242 94.1387 43.984 94.1047 43.9551C94.0707 43.9262 94.0274 43.9106 93.9828 43.9112C93.8256 43.9024 93.6681 43.9013 93.511 43.8976C93.4059 43.8952 93.3005 43.8997 93.1961 43.8901C93.0376 43.8755 92.9528 43.8051 92.929 43.6833C92.9096 43.6062 92.9173 43.5247 92.9509 43.4526C92.9845 43.3805 93.0419 43.3222 93.1134 43.2874C93.144 43.2703 93.1776 43.2595 93.2124 43.2554C93.7195 43.2554 94.227 43.249 94.7338 43.2643C94.8045 43.2719 94.8704 43.304 94.9201 43.355C94.9697 43.4059 95.0001 43.4726 95.0059 43.5435C95.0094 43.5608 95.0111 43.5783 95.011 43.5959C95.011 44.3136 95.011 45.0313 95.011 45.7493C95.0087 45.7931 94.9974 45.8359 94.9779 45.8752C94.9583 45.9145 94.9309 45.9493 94.8974 45.9775C94.8734 46.0031 94.8442 46.0232 94.8117 46.0364C94.7792 46.0497 94.7443 46.0558 94.7093 46.0544C94.6742 46.053 94.6399 46.0441 94.6087 46.0282C94.5774 46.0124 94.5499 45.99 94.528 45.9626C94.488 45.9056 94.4522 45.8457 94.4212 45.7833C94.3872 45.7245 94.3566 45.6646 94.3022 45.5643" fill="#5F4687"/>
<path fill-rule="evenodd" clip-rule="evenodd" d="M148.723 44.6966V45.6411C148.731 45.7461 148.703 45.8508 148.643 45.9377C148.619 45.9743 148.586 46.004 148.547 46.0241C148.508 46.0442 148.464 46.0539 148.421 46.0523C148.377 46.0507 148.334 46.0379 148.296 46.0151C148.259 45.9923 148.228 45.9603 148.206 45.9221C148.136 45.8132 148.204 45.5949 148.01 45.5993C147.906 45.6013 147.801 45.7119 147.701 45.7799C147.276 46.0494 146.765 46.1478 146.271 46.0552C145.777 45.9626 145.336 45.6859 145.038 45.2809C144.857 45.0439 144.722 44.7746 144.642 44.4874C144.386 43.4704 144.398 42.4806 144.997 41.5622C145.21 41.2403 145.501 40.9762 145.841 40.7935C146.406 40.6163 147.01 40.6056 147.581 40.7629C148.048 41.013 148.405 41.4289 148.582 41.9289C148.603 41.9776 148.606 42.0325 148.59 42.0834C148.574 42.1343 148.541 42.1777 148.495 42.2054C148.423 42.2544 148.345 42.2945 148.263 42.3252C148.237 42.3414 148.208 42.3519 148.177 42.3561C148.146 42.3603 148.115 42.358 148.086 42.3494C148.056 42.3409 148.028 42.3261 148.005 42.3063C147.981 42.2864 147.962 42.2618 147.948 42.234C147.877 42.1143 147.824 41.9826 147.749 41.8649C147.66 41.6928 147.524 41.5499 147.355 41.4534C147.187 41.3569 146.995 41.3108 146.802 41.3207C146.749 41.3246 146.697 41.3246 146.644 41.3207C146.406 41.2946 146.166 41.3515 145.965 41.4816C145.764 41.6117 145.614 41.8072 145.541 42.035C145.259 42.6623 145.185 43.363 145.329 44.0354C145.381 44.3468 145.498 44.6439 145.672 44.9071C145.861 45.1755 146.145 45.3613 146.466 45.4262C146.788 45.491 147.122 45.43 147.4 45.2558C147.591 45.1434 147.744 44.9769 147.84 44.7774C147.936 44.5779 147.971 44.3543 147.94 44.135C147.94 44.104 147.934 44.0733 147.923 44.0446C147.911 44.016 147.893 43.9901 147.871 43.9686C147.848 43.9471 147.822 43.9303 147.793 43.9194C147.764 43.9085 147.733 43.9036 147.702 43.9051C147.458 43.8939 147.212 43.903 146.968 43.8939C146.741 43.8854 146.661 43.784 146.683 43.5571C146.702 43.3568 146.782 43.2564 146.971 43.251C147.426 43.2415 147.88 43.2381 148.335 43.2476C148.596 43.253 148.709 43.3738 148.718 43.6445C148.729 43.9939 148.721 44.3442 148.721 44.6938L148.723 44.6966Z" fill="#5F4687"/>
<path fill-rule="evenodd" clip-rule="evenodd" d="M129.089 44.7082C129.089 45.0235 129.092 45.3388 129.089 45.6541C129.089 45.7409 129.076 45.8273 129.052 45.9106C129.039 45.943 129.018 45.972 128.992 45.9953C128.966 46.0186 128.935 46.0355 128.901 46.0447C128.867 46.0539 128.832 46.0552 128.797 46.0484C128.763 46.0417 128.731 46.0271 128.703 46.0058C128.61 45.9261 128.545 45.8188 128.518 45.6997C128.468 45.5674 128.394 45.5497 128.278 45.6374C128.104 45.7838 127.907 45.901 127.696 45.9844C127.287 46.1256 126.843 46.1292 126.432 45.9946C126.021 45.8601 125.666 45.5947 125.42 45.2391C125.153 44.869 124.983 44.4379 124.926 43.9854C124.866 43.5342 124.876 43.0764 124.956 42.6282C125.025 42.2211 125.19 41.8363 125.438 41.5061C125.686 41.1759 126.009 40.9097 126.381 40.73C126.478 40.6899 126.582 40.6703 126.687 40.6721C126.897 40.6609 127.107 40.6721 127.317 40.6585C127.975 40.6191 128.391 40.9987 128.746 41.4793C128.824 41.5959 128.889 41.7203 128.941 41.8507C129.041 42.0738 128.98 42.2 128.737 42.2929C128.703 42.3051 128.67 42.3153 128.637 42.3269C128.449 42.384 128.416 42.367 128.315 42.1738C128.25 42.0504 128.189 41.9242 128.114 41.8072C128.029 41.6628 127.909 41.5427 127.764 41.4585C127.62 41.3742 127.456 41.3286 127.289 41.3262C127.236 41.3262 127.183 41.3262 127.131 41.3225C126.39 41.2466 126.051 41.7004 125.849 42.2544C125.562 42.9818 125.562 43.791 125.849 44.5184C125.907 44.7127 126.009 44.891 126.148 45.0396C126.286 45.1882 126.456 45.3032 126.646 45.3757C126.835 45.4481 127.039 45.4762 127.241 45.4577C127.443 45.4391 127.638 45.3745 127.811 45.2687C127.998 45.1377 128.145 44.9565 128.234 44.7459C128.323 44.5353 128.35 44.3038 128.313 44.0782C128.308 44.034 128.288 43.993 128.256 43.9626C128.223 43.9322 128.181 43.9145 128.136 43.9126C127.891 43.9031 127.646 43.9065 127.402 43.8973C127.172 43.8888 127.076 43.8143 127.065 43.6507C127.055 43.6027 127.057 43.5533 127.069 43.5059C127.081 43.4586 127.104 43.4147 127.135 43.3773C127.167 43.3399 127.206 43.31 127.251 43.2899C127.295 43.2698 127.344 43.2598 127.393 43.2609C127.848 43.2477 128.303 43.2477 128.758 43.2609C128.803 43.2607 128.847 43.2698 128.888 43.2874C128.929 43.3051 128.966 43.331 128.996 43.3636C129.026 43.3961 129.05 43.4346 129.064 43.4766C129.079 43.5185 129.085 43.5631 129.082 43.6075C129.093 43.9749 129.085 44.3429 129.085 44.7109L129.089 44.7082Z" fill="#5F4687"/>
<path fill-rule="evenodd" clip-rule="evenodd" d="M119.051 43.3187C119.051 42.6013 119.047 41.884 119.051 41.1667C119.055 40.7153 119.085 40.7119 119.528 40.6884C119.649 40.6783 119.771 40.706 119.876 40.7677C119.981 40.8295 120.064 40.9223 120.114 41.0333C120.442 41.5901 120.774 42.1442 121.103 42.7C121.352 43.1207 121.596 43.5442 121.847 43.9639C121.92 44.0829 122 44.1978 122.085 44.3081C122.092 44.3194 122.1 44.3293 122.111 44.3371C122.121 44.345 122.133 44.3507 122.146 44.3538C122.159 44.357 122.172 44.3576 122.185 44.3556C122.198 44.3536 122.21 44.349 122.221 44.3422C122.264 44.3162 122.296 44.2754 122.311 44.2275C122.324 44.0884 122.33 43.9486 122.328 43.8088C122.328 42.9864 122.328 42.1643 122.328 41.3418C122.325 41.2021 122.331 41.0623 122.347 40.9234C122.352 40.8885 122.363 40.8548 122.381 40.8243C122.399 40.7938 122.422 40.7672 122.45 40.7459C122.478 40.7246 122.51 40.7091 122.544 40.7003C122.579 40.6915 122.614 40.6895 122.649 40.6945C122.702 40.6882 122.755 40.7029 122.797 40.7355C122.839 40.7682 122.866 40.816 122.873 40.8687C122.89 40.972 122.898 41.0766 122.899 41.1813C122.9 42.6325 122.9 44.0847 122.899 45.5377C122.901 45.625 122.896 45.7123 122.883 45.7986C122.874 45.8497 122.847 45.8959 122.807 45.9289C122.705 45.9755 122.592 45.9917 122.482 45.9754C122.371 45.9592 122.268 45.9112 122.184 45.8374C121.984 45.551 121.793 45.2592 121.615 44.9585C121.07 44.0425 120.537 43.1217 119.997 42.2034C119.962 42.1439 119.915 42.0924 119.858 42.0524C119.848 42.0443 119.837 42.0388 119.824 42.0363C119.811 42.0338 119.798 42.0344 119.786 42.0381C119.774 42.0418 119.763 42.0484 119.754 42.0574C119.744 42.0664 119.738 42.0775 119.734 42.0898C119.712 42.191 119.702 42.2942 119.702 42.3976C119.7 43.3597 119.7 44.322 119.702 45.2843C119.702 45.3891 119.695 45.4949 119.702 45.5993C119.731 45.9598 119.491 46.018 119.175 45.9435C119.141 45.9333 119.111 45.9122 119.09 45.8835C119.07 45.8548 119.059 45.8201 119.06 45.7847C119.049 45.6629 119.049 45.5401 119.049 45.4177C119.049 44.7179 119.049 44.0181 119.049 43.3183L119.051 43.3187Z" fill="#5F4687"/>
<path fill-rule="evenodd" clip-rule="evenodd" d="M97.1204 43.396C97.1204 42.713 97.1204 42.0299 97.1204 41.3466C97.117 41.2242 97.1221 41.1017 97.1357 40.98C97.1362 40.9403 97.145 40.9011 97.1615 40.865C97.1781 40.8289 97.202 40.7967 97.2318 40.7704C97.2615 40.7442 97.2965 40.7245 97.3344 40.7126C97.3723 40.7007 97.4122 40.6969 97.4517 40.7014C98.1166 40.67 98.7828 40.6742 99.4473 40.714C99.8286 40.7359 100.188 40.8991 100.456 41.1717C100.723 41.4443 100.88 41.8068 100.894 42.1885C100.906 42.391 100.871 42.5934 100.792 42.7804C100.714 42.9674 100.594 43.1339 100.441 43.2674C100.365 43.3394 100.282 43.4038 100.193 43.4596C100.13 43.493 100.082 43.5493 100.059 43.6169C100.037 43.6845 100.041 43.7582 100.071 43.8228C100.178 44.1181 100.296 44.4102 100.417 44.7C100.558 45.0402 100.711 45.3728 100.853 45.7113C100.911 45.8473 100.844 45.9494 100.691 45.9636C100.604 45.9706 100.516 45.972 100.429 45.9677C100.349 45.968 100.272 45.9431 100.207 45.8966C100.143 45.8501 100.095 45.7844 100.07 45.7089C99.9255 45.3524 99.7779 44.9973 99.6299 44.6426C99.5493 44.4494 99.4704 44.2555 99.3799 44.0667C99.3514 43.9829 99.2987 43.9095 99.2284 43.8558C99.158 43.8021 99.0734 43.7705 98.985 43.765C98.6874 43.7606 98.3895 43.7599 98.0922 43.7725C97.9252 43.7796 97.8541 43.8637 97.8469 44.0514C97.8364 44.2963 97.8415 44.5419 97.8412 44.7868C97.8412 45.0844 97.8462 45.3824 97.8384 45.68C97.8326 45.8881 97.7507 45.9626 97.549 45.9708C97.4965 45.9728 97.444 45.9712 97.3918 45.966C97.2085 45.9483 97.1374 45.883 97.1252 45.7075C97.1167 45.5854 97.1207 45.4626 97.1207 45.3398C97.1207 45.007 97.1207 44.6742 97.1207 44.3415V43.3956L97.1204 43.396ZM97.8071 42.2814C97.8071 42.4909 97.7986 42.7007 97.8095 42.9096C97.819 43.0885 97.8905 43.1596 98.0772 43.1643C98.4612 43.1738 98.8453 43.1694 99.2293 43.1687C99.4403 43.1563 99.6429 43.0813 99.8112 42.9534C99.9622 42.8345 100.073 42.6717 100.127 42.4874C100.182 42.3031 100.177 42.1064 100.115 41.9245C100.059 41.7664 99.9558 41.6294 99.8188 41.5326C99.6818 41.4357 99.5181 41.3837 99.3503 41.3837C98.9163 41.3497 98.4779 41.3698 98.0418 41.3759C98.011 41.3721 97.9798 41.3753 97.9504 41.3852C97.9209 41.395 97.8941 41.4113 97.8717 41.4328C97.8494 41.4544 97.8321 41.4806 97.8211 41.5097C97.8102 41.5387 97.8059 41.5698 97.8085 41.6007C97.7997 41.8273 97.8061 42.0545 97.8061 42.281" fill="#5F4687"/>
<path fill-rule="evenodd" clip-rule="evenodd" d="M160.993 43.3463C160.993 42.6808 160.993 42.0152 160.993 41.3494C160.993 41.262 160.99 41.1739 160.993 41.0868C161.009 40.7191 161.073 40.664 161.439 40.6926C161.6 40.7052 161.669 40.7548 161.681 40.9106C161.697 41.1194 161.697 41.33 161.699 41.5399C161.702 41.8375 161.693 42.1358 161.703 42.4331C161.713 42.7303 161.788 42.8099 162.077 42.8161C162.498 42.8249 162.918 42.8195 163.339 42.8191C163.461 42.8191 163.584 42.8208 163.706 42.8113C163.881 42.7973 163.958 42.7259 163.964 42.5453C163.974 42.2127 163.97 41.88 163.971 41.5473C163.971 41.3895 163.963 41.2314 163.975 41.0745C164 40.7684 164.102 40.6834 164.416 40.6919C164.663 40.6987 164.762 40.7848 164.793 41.032C164.801 41.1192 164.803 41.2068 164.8 41.2943C164.8 42.6956 164.796 44.0966 164.802 45.498C164.804 45.8943 164.762 46.0062 164.264 45.9722C164.057 45.9582 163.979 45.8841 163.974 45.6769C163.966 45.2919 163.972 44.9062 163.971 44.5205C163.971 44.2929 163.976 44.0647 163.964 43.8378C163.953 43.6286 163.882 43.5541 163.67 43.5511C163.127 43.5431 162.584 43.5431 162.041 43.5511C161.803 43.5545 161.723 43.6378 161.706 43.863C161.695 44.0198 161.699 44.1779 161.699 44.3358C161.699 44.7912 161.703 45.2467 161.695 45.7021C161.691 45.916 161.622 45.9698 161.4 45.9786C161.366 45.9786 161.329 45.9786 161.295 45.9786C161.063 45.9725 161.007 45.9256 160.994 45.7099C160.987 45.5878 160.991 45.4647 160.991 45.3422V43.3453" fill="#5F4687"/>
<path fill-rule="evenodd" clip-rule="evenodd" d="M115.511 33.029C115.511 34.0432 115.511 35.0576 115.511 36.0721C115.511 36.1946 115.516 36.3174 115.507 36.4392C115.502 36.5973 115.44 36.7484 115.332 36.8641C115.224 36.9798 115.078 37.0522 114.92 37.0677C114.753 37.0633 114.594 36.9987 114.47 36.8857C114.347 36.7728 114.269 36.6191 114.25 36.4531C114.243 36.366 114.242 36.2785 114.246 36.1912C114.246 34.11 114.246 32.0287 114.246 29.9473C114.242 29.8599 114.244 29.7723 114.251 29.6851C114.257 29.5844 114.286 29.4864 114.336 29.3988C114.386 29.3112 114.455 29.2364 114.539 29.1803C114.623 29.1243 114.719 29.0884 114.819 29.0757C114.919 29.0629 115.02 29.0736 115.116 29.1069C115.217 29.1383 115.306 29.1987 115.373 29.2806C115.44 29.3624 115.482 29.4622 115.493 29.5674C115.51 29.7061 115.516 29.8461 115.511 29.9858C115.512 31.0003 115.512 32.0147 115.511 33.029Z" fill="#5F4687"/>
<path fill-rule="evenodd" clip-rule="evenodd" d="M172.34 43.331C172.34 42.648 172.34 41.9646 172.34 41.2813C172.341 41.1417 172.351 41.0023 172.37 40.864C172.377 40.8203 172.399 40.7803 172.432 40.7509C172.465 40.7215 172.507 40.7044 172.551 40.7028C172.586 40.698 172.621 40.6958 172.656 40.6959C173.304 40.6959 173.953 40.6742 174.6 40.7041C174.823 40.7186 175.041 40.7814 175.237 40.8883C175.434 40.9952 175.605 41.1435 175.739 41.323C175.873 41.5026 175.966 41.709 176.012 41.9281C176.058 42.1472 176.056 42.3737 176.006 42.5918C175.921 42.9353 175.711 43.2348 175.417 43.432C175.173 43.6044 175.16 43.6493 175.264 43.9027C175.463 44.3881 175.672 44.8701 175.876 45.3534C175.924 45.4663 175.978 45.5772 176.015 45.6935C176.07 45.8609 175.997 45.9571 175.811 45.9718C175.741 45.9772 175.671 45.9741 175.601 45.9745C175.539 45.9793 175.478 45.9647 175.425 45.9329C175.371 45.9011 175.33 45.8536 175.305 45.7969C175.171 45.5119 175.036 45.2279 174.909 44.9398C174.767 44.6201 174.637 44.2966 174.498 43.9752C174.472 43.9092 174.426 43.8532 174.367 43.8154C174.307 43.7776 174.237 43.76 174.166 43.7653C173.903 43.7653 173.64 43.7568 173.378 43.767C173.127 43.7769 173.041 43.865 173.034 44.1293C173.023 44.5143 173.03 44.9 173.029 45.2857C173.029 45.4259 173.034 45.5663 173.024 45.7058C173.009 45.9031 172.896 45.9799 172.652 45.9738C172.451 45.9687 172.352 45.8891 172.346 45.6963C172.336 45.4163 172.341 45.1357 172.341 44.8558C172.341 44.3476 172.341 43.8396 172.341 43.3317L172.34 43.331ZM173.035 42.2425H173.031C173.031 42.4524 173.024 42.6623 173.032 42.8718C173.041 43.101 173.097 43.1633 173.309 43.1674C173.658 43.1745 174.008 43.1674 174.358 43.1691C174.587 43.1612 174.808 43.0836 174.992 42.9466C175.177 42.8109 175.301 42.6082 175.338 42.382C175.375 42.1557 175.322 41.924 175.19 41.7364C175.114 41.6292 175.013 41.5416 174.896 41.4806C174.78 41.4195 174.65 41.3868 174.519 41.3851C174.101 41.3538 173.68 41.3694 173.26 41.3759C173.115 41.3779 173.044 41.4582 173.037 41.614C173.027 41.8231 173.034 42.0333 173.034 42.2429" fill="#5F4687"/>
<path fill-rule="evenodd" clip-rule="evenodd" d="M142.869 43.1578C142.877 43.8493 142.696 44.5299 142.347 45.1269C142.129 45.498 141.793 45.7858 141.392 45.9447C140.992 46.1037 140.55 46.1248 140.136 46.0048C139.852 45.9171 139.59 45.7684 139.369 45.5691C139.148 45.3697 138.973 45.1246 138.857 44.8507C138.547 44.199 138.453 43.466 138.586 42.7572C138.657 42.3443 138.8 41.9472 139.009 41.5844C139.232 41.2261 139.55 40.9367 139.928 40.7483C140.022 40.7025 140.124 40.6775 140.229 40.6752C140.456 40.6612 140.684 40.6721 140.909 40.6575C141.262 40.6446 141.606 40.7705 141.866 41.0082C142.299 41.3441 142.601 41.8193 142.723 42.3531C142.808 42.6137 142.857 42.8844 142.87 43.1582M142.065 43.3752C142.065 43.2007 142.065 43.0262 142.065 42.8517C142.054 42.5186 141.961 42.1933 141.795 41.9044C141.699 41.7228 141.559 41.5683 141.388 41.4551C141.216 41.3419 141.019 41.2735 140.815 41.2564C140.61 41.2393 140.404 41.274 140.217 41.3572C140.029 41.4404 139.865 41.5695 139.74 41.7327C139.5 42.0572 139.354 42.4413 139.318 42.8432C139.297 43.1918 139.297 43.5412 139.318 43.8898C139.35 44.3285 139.524 44.7449 139.813 45.0762C139.977 45.2844 140.212 45.4258 140.473 45.4744C140.733 45.5229 141.003 45.4752 141.231 45.3401C141.504 45.1814 141.718 44.9385 141.841 44.6479C142.028 44.2515 142.105 43.8121 142.065 43.3755" fill="#5F4687"/>
<path fill-rule="evenodd" clip-rule="evenodd" d="M167.009 43.3868C167.009 42.7219 167.009 42.0572 167.009 41.3926C167.005 41.2703 167.008 41.1478 167.019 41.0259C167.049 40.7902 167.153 40.6987 167.404 40.697C168.104 40.6922 168.803 40.697 169.503 40.697C169.695 40.697 169.888 40.6912 170.082 40.6997C170.266 40.7079 170.357 40.8317 170.367 41.066C170.375 41.1052 170.374 41.1457 170.363 41.1842C170.352 41.2227 170.333 41.2582 170.306 41.2877C170.279 41.3173 170.246 41.34 170.208 41.3542C170.171 41.3684 170.131 41.3737 170.091 41.3694C169.531 41.3769 168.972 41.3752 168.412 41.3725C167.768 41.3694 167.766 41.3361 167.772 41.9949C167.772 42.2225 167.77 42.4501 167.781 42.6769C167.79 42.8545 167.863 42.9235 168.048 42.9272C168.416 42.9351 168.783 42.93 169.15 42.9317C169.29 42.9278 169.43 42.9313 169.569 42.9422C169.618 42.9401 169.667 42.9506 169.711 42.9726C169.755 42.9947 169.792 43.0275 169.819 43.0681C169.847 43.1086 169.864 43.1555 169.868 43.2044C169.872 43.2532 169.864 43.3023 169.844 43.347C169.835 43.3991 169.809 43.4469 169.77 43.483C169.731 43.5191 169.682 43.5416 169.629 43.547C169.49 43.5598 169.35 43.5654 169.211 43.5637C168.843 43.566 168.476 43.5582 168.109 43.5688C167.874 43.5756 167.784 43.6603 167.778 43.8868C167.769 44.2888 167.774 44.6912 167.781 45.0932C167.78 45.1197 167.785 45.1461 167.795 45.1707C167.805 45.1953 167.819 45.2177 167.838 45.2365C167.856 45.2553 167.879 45.2702 167.903 45.2803C167.928 45.2904 167.954 45.2955 167.981 45.2953C168.102 45.3048 168.225 45.3045 168.348 45.3045C168.855 45.3045 169.362 45.3045 169.87 45.3045C169.975 45.3045 170.08 45.3011 170.184 45.3102C170.365 45.3266 170.456 45.4123 170.468 45.5599C170.486 45.6466 170.47 45.7372 170.422 45.8117C170.374 45.8863 170.298 45.9387 170.211 45.9575C170.125 45.9711 170.038 45.9767 169.95 45.9742C169.128 45.9742 168.306 45.9742 167.484 45.9742C167.466 45.9742 167.45 45.9742 167.431 45.9742C167.062 45.9613 167.014 45.9184 167.012 45.5388C167.007 44.8215 167.012 44.1041 167.012 43.3871" fill="#5F4687"/>
<path fill-rule="evenodd" clip-rule="evenodd" d="M102.553 43.2255C102.551 42.8449 102.613 42.4666 102.736 42.1064C102.956 41.5306 103.376 41.053 103.919 40.7605C104.436 40.6096 104.988 40.6191 105.5 40.7877C105.851 40.9696 106.152 41.2353 106.377 41.5613C106.601 41.8872 106.742 42.2635 106.787 42.6568C106.898 43.2443 106.859 43.8502 106.675 44.419C106.555 44.7851 106.368 45.1259 106.125 45.4245C105.912 45.6831 105.634 45.8789 105.318 45.991C105.003 46.103 104.663 46.1269 104.335 46.0602C103.99 45.997 103.666 45.8453 103.397 45.6198C103.128 45.3943 102.922 45.1028 102.799 44.7738C102.597 44.2839 102.514 43.7538 102.554 43.2258M103.268 43.3561C103.268 43.4435 103.261 43.5313 103.268 43.6177C103.292 44.1082 103.454 44.5819 103.735 44.9846C103.819 45.1079 103.926 45.2134 104.05 45.2951C104.175 45.3767 104.314 45.4329 104.461 45.4604C104.607 45.4879 104.757 45.4861 104.903 45.4552C105.049 45.4243 105.187 45.3648 105.309 45.2802C105.516 45.1472 105.681 44.9586 105.786 44.736C106.143 43.9501 106.199 43.0599 105.941 42.2357C105.875 42.0367 105.772 41.852 105.637 41.6915C105.514 41.5442 105.358 41.4279 105.182 41.3519C105.006 41.2759 104.814 41.2422 104.623 41.2537C104.431 41.2652 104.245 41.3215 104.079 41.418C103.913 41.5145 103.773 41.6486 103.668 41.8095C103.393 42.277 103.254 42.812 103.266 43.3544" fill="#5F4687"/>
<path fill-rule="evenodd" clip-rule="evenodd" d="M150.885 43.3684C150.885 42.633 150.885 41.8976 150.885 41.1619C150.885 40.6487 150.99 40.6963 151.371 40.6966C152.124 40.6966 152.877 40.6966 153.63 40.6966C153.718 40.6966 153.806 40.6929 153.893 40.7C153.954 40.7044 154.013 40.7241 154.064 40.7573C154.115 40.7905 154.157 40.8361 154.186 40.8898C154.215 40.9436 154.23 41.0038 154.23 41.0649C154.23 41.126 154.214 41.1861 154.184 41.2395C154.17 41.2719 154.148 41.2997 154.119 41.3199C154.09 41.3401 154.056 41.3519 154.021 41.3538C153.9 41.366 153.777 41.3687 153.655 41.3691C153.164 41.3691 152.674 41.3691 152.184 41.3691C152.061 41.3691 151.938 41.3691 151.817 41.382C151.763 41.3817 151.711 41.4018 151.672 41.4383C151.632 41.4747 151.608 41.5247 151.604 41.5783C151.593 41.9626 151.595 42.3473 151.604 42.732C151.605 42.7584 151.611 42.7844 151.622 42.8084C151.633 42.8324 151.649 42.8538 151.669 42.8715C151.689 42.8892 151.712 42.9027 151.737 42.9113C151.762 42.9199 151.788 42.9233 151.815 42.9214C151.972 42.9306 152.129 42.9299 152.287 42.9303C152.62 42.9303 152.953 42.9367 153.285 42.9303C153.541 42.9238 153.678 42.9776 153.672 43.2286C153.667 43.4796 153.564 43.5735 153.257 43.564C152.907 43.5531 152.556 43.5588 152.206 43.5605C151.6 43.5633 151.588 43.5752 151.586 44.1772C151.586 44.4748 151.583 44.7728 151.592 45.0701C151.596 45.2235 151.666 45.2874 151.821 45.298C151.961 45.3075 152.101 45.3048 152.241 45.3051C152.767 45.3051 153.292 45.3027 153.817 45.3051C154.212 45.3082 154.287 45.3623 154.293 45.6238C154.302 45.9299 154.19 45.9772 153.794 45.9724C153.129 45.965 152.464 45.9704 151.798 45.9708C151.605 45.9708 151.413 45.9755 151.22 45.9708C150.936 45.9633 150.891 45.9235 150.889 45.6262C150.883 44.8731 150.887 44.1204 150.887 43.3674L150.885 43.3684Z" fill="#5F4687"/>
<path fill-rule="evenodd" clip-rule="evenodd" d="M106.298 36.565C106.434 36.5507 106.523 36.6364 106.628 36.699C106.656 36.7207 106.688 36.7366 106.722 36.7457C106.756 36.7549 106.792 36.7571 106.826 36.7523C106.861 36.7475 106.895 36.7357 106.925 36.7176C106.955 36.6996 106.982 36.6757 107.003 36.6473C107.157 36.5017 107.248 36.3007 107.254 36.0885C107.256 35.966 107.254 35.8436 107.254 35.7215C107.254 34.0605 107.254 32.3995 107.254 30.7385C107.254 30.2412 107.336 30.1514 107.825 30.148C108.821 30.1409 109.818 30.146 110.814 30.1456C110.937 30.1456 111.06 30.1511 111.181 30.1436C111.269 30.1489 111.357 30.1294 111.435 30.0871C111.512 30.0449 111.576 29.9817 111.619 29.9047C111.662 29.8278 111.683 29.7403 111.678 29.6523C111.674 29.5642 111.645 29.4792 111.594 29.4069C111.547 29.3154 111.464 29.2422 111.458 29.13C111.764 29.2926 111.918 29.5198 111.882 29.7664C111.85 29.9118 111.774 30.0438 111.665 30.1451C111.555 30.2463 111.418 30.3118 111.27 30.3331C111.148 30.3276 111.025 30.3351 110.903 30.3351C109.906 30.3351 108.908 30.3324 107.91 30.3351C107.464 30.3368 107.434 30.3691 107.431 30.814C107.427 31.3922 107.429 31.9705 107.429 32.5463C107.429 32.5987 107.429 32.6514 107.434 32.7038C107.439 32.7718 107.445 32.8538 107.53 32.862C107.554 32.8607 107.578 32.854 107.599 32.8422C107.62 32.8304 107.638 32.8138 107.651 32.7939C107.725 32.6643 107.836 32.56 107.97 32.495C108.104 32.43 108.255 32.4073 108.403 32.43C109.155 32.4446 109.907 32.4351 110.66 32.4344C110.817 32.4186 110.976 32.4565 111.109 32.5419C111.219 32.6106 111.304 32.7114 111.354 32.8306C111.403 32.9499 111.415 33.0815 111.387 33.2075C111.358 33.3336 111.292 33.4477 111.196 33.5342C111.1 33.6208 110.98 33.6755 110.852 33.6909C110.73 33.7079 110.608 33.713 110.486 33.7062C109.839 33.7062 109.19 33.6943 108.543 33.7113C108.371 33.7411 108.193 33.7211 108.031 33.6536C107.869 33.5861 107.73 33.4738 107.629 33.33C107.618 33.3178 107.604 33.3085 107.588 33.3026C107.572 33.2967 107.555 33.2944 107.539 33.296C107.513 33.2988 107.489 33.3109 107.471 33.3301C107.453 33.3493 107.443 33.3742 107.442 33.4004C107.433 33.5222 107.431 33.6446 107.431 33.7667C107.431 34.5191 107.428 35.2715 107.433 36.0239C107.448 36.217 107.4 36.4097 107.296 36.5735C107.244 36.6654 107.17 36.7424 107.079 36.7971C106.989 36.8518 106.886 36.8825 106.78 36.8861C106.675 36.8943 106.57 36.867 106.482 36.8084C106.394 36.7498 106.328 36.6634 106.294 36.563" fill="#5F4687"/>
<path fill-rule="evenodd" clip-rule="evenodd" d="M157.467 40.6939C157.975 40.6939 158.482 40.6898 158.989 40.6959C159.069 40.6884 159.148 40.7126 159.21 40.7631C159.271 40.8137 159.311 40.8866 159.319 40.966C159.374 41.1946 159.273 41.3541 159.04 41.3663C158.761 41.3813 158.481 41.3687 158.201 41.3769C157.922 41.385 157.864 41.4354 157.863 41.7225C157.857 42.8942 157.859 44.066 157.859 45.2378C157.859 45.3776 157.863 45.5177 157.857 45.6575C157.846 45.8888 157.77 45.9636 157.534 45.9758C157.447 45.9804 157.359 45.9776 157.272 45.9673C157.21 45.9666 157.151 45.9416 157.107 45.8976C157.063 45.8536 157.038 45.7942 157.037 45.732C157.026 45.5929 157.029 45.4524 157.029 45.3126C157.029 44.1758 157.031 43.0391 157.029 41.9024C157.029 41.3847 157.018 41.3803 156.5 41.3752C156.273 41.3728 156.045 41.3772 155.82 41.3616C155.784 41.3616 155.749 41.3543 155.717 41.3401C155.685 41.3258 155.656 41.3049 155.632 41.2788C155.608 41.2527 155.59 41.2218 155.579 41.1883C155.568 41.1548 155.563 41.1192 155.567 41.084C155.57 40.8694 155.675 40.718 155.843 40.6997C155.948 40.6914 156.053 40.6887 156.158 40.6915C156.595 40.6915 157.032 40.6915 157.47 40.6915L157.467 40.6939Z" fill="#5F4687"/>
<path fill-rule="evenodd" clip-rule="evenodd" d="M135.165 43.6704C135.165 43.111 135.165 42.5515 135.165 41.9918C135.165 41.8871 135.168 41.7816 135.158 41.6775C135.139 41.4816 135.056 41.3925 134.861 41.3799C134.666 41.3673 134.476 41.3738 134.283 41.3721C134.195 41.3721 134.108 41.3721 134.02 41.3694C133.959 41.3777 133.897 41.3668 133.842 41.3381C133.787 41.3094 133.742 41.2644 133.714 41.2092C133.689 41.1343 133.685 41.0541 133.701 40.9769C133.718 40.8997 133.754 40.8283 133.808 40.7701C133.833 40.7459 133.863 40.7271 133.895 40.7148C133.928 40.7025 133.962 40.697 133.997 40.6986C134.155 40.6966 134.312 40.6959 134.469 40.6959C135.274 40.6959 136.078 40.6959 136.882 40.6959C136.987 40.6959 137.092 40.6959 137.197 40.7065C137.241 40.7084 137.283 40.7259 137.315 40.7557C137.348 40.7856 137.368 40.826 137.374 40.8697C137.39 40.9554 137.398 41.0425 137.396 41.1296C137.399 41.1604 137.395 41.1914 137.385 41.2205C137.374 41.2496 137.358 41.2762 137.336 41.2983C137.315 41.3204 137.288 41.3375 137.26 41.3486C137.231 41.3596 137.2 41.3643 137.169 41.3622C136.977 41.3728 136.784 41.3687 136.591 41.3718C136.451 41.3738 136.31 41.3697 136.172 41.382C136.141 41.3819 136.11 41.388 136.082 41.3997C136.053 41.4115 136.027 41.4288 136.006 41.4506C135.984 41.4724 135.966 41.4983 135.955 41.5268C135.943 41.5553 135.937 41.5858 135.937 41.6167C135.923 41.7555 135.924 41.8959 135.924 42.0357C135.924 43.1198 135.924 44.2038 135.924 45.2877C135.924 45.3925 135.927 45.4976 135.924 45.6024C135.912 45.9007 135.837 45.9735 135.55 45.9741C135.254 45.9741 135.168 45.9024 135.165 45.6112C135.158 44.965 135.163 44.3187 135.165 43.6704" fill="#5F4687"/>
<path fill-rule="evenodd" clip-rule="evenodd" d="M159.803 32.4367C160.223 32.4367 160.643 32.4255 161.062 32.4398C161.15 32.4362 161.238 32.4522 161.319 32.4866C161.4 32.521 161.472 32.5729 161.531 32.6386C161.589 32.7044 161.632 32.7823 161.657 32.8668C161.682 32.9513 161.688 33.0402 161.674 33.1272C161.659 33.2576 161.605 33.3804 161.518 33.4795C161.432 33.5785 161.318 33.6492 161.191 33.6823C161.105 33.6997 161.018 33.7074 160.931 33.7051C160.161 33.7051 159.392 33.7051 158.622 33.7051C158.447 33.7191 158.272 33.6699 158.129 33.5663C158.027 33.4975 157.948 33.399 157.903 33.2839C157.858 33.1688 157.85 33.0428 157.879 32.9228C157.915 32.7966 157.987 32.6838 158.087 32.5985C158.187 32.5132 158.31 32.4591 158.44 32.4429C158.666 32.4258 158.894 32.4347 159.12 32.4333C159.346 32.432 159.575 32.4333 159.802 32.4333L159.803 32.4367Z" fill="#5F4687"/>
<path fill-rule="evenodd" clip-rule="evenodd" d="M116.776 43.3888C116.776 44.053 116.776 44.717 116.776 45.381C116.776 45.5034 116.778 45.6259 116.768 45.7476C116.767 45.7784 116.76 45.8088 116.748 45.8369C116.735 45.865 116.717 45.8902 116.694 45.9109C116.671 45.9316 116.644 45.9475 116.615 45.9575C116.586 45.9675 116.555 45.9714 116.524 45.9691C116.455 45.9738 116.385 45.9717 116.316 45.9629C116.285 45.9624 116.254 45.9557 116.226 45.9433C116.198 45.9308 116.172 45.9128 116.151 45.8904C116.13 45.8679 116.114 45.8415 116.103 45.8126C116.092 45.7837 116.087 45.7529 116.089 45.7221C116.078 45.583 116.082 45.4429 116.082 45.3031C116.075 43.9226 116.069 42.5422 116.063 41.1619C116.063 41.1279 116.058 41.0919 116.06 41.0575C116.08 40.7626 116.201 40.6691 116.505 40.6966C116.558 40.6957 116.61 40.7133 116.651 40.7464C116.692 40.7795 116.721 40.8261 116.731 40.8779C116.759 41.014 116.773 41.1526 116.774 41.2915C116.778 41.9905 116.776 42.6898 116.776 43.3888Z" fill="#5F4687"/>
<path fill-rule="evenodd" clip-rule="evenodd" d="M106.312 29.111C106.312 31.3872 106.312 33.6633 106.312 35.9392C106.312 36.1494 106.307 36.3593 106.304 36.5695C106.263 36.553 106.228 36.5244 106.205 36.4875C106.181 36.4507 106.169 36.4073 106.17 36.3634C106.159 36.2066 106.151 36.0488 106.151 35.8916C106.15 33.7728 106.15 31.6541 106.151 29.5355C106.151 29.4307 106.152 29.3256 106.163 29.2216C106.171 29.1372 106.238 29.1141 106.313 29.111" fill="#5F4687"/>
<defs>
<filter id="filter0_d_16_1508" x="17.4353" y="24.5431" width="46.491" height="31.6187" filterUnits="userSpaceOnUse" color-interpolation-filters="sRGB">
<feFlood flood-opacity="0" result="BackgroundImageFix"/>
<feColorMatrix in="SourceAlpha" type="matrix" values="0 0 0 0 0 0 0 0 0 0 0 0 0 0 0 0 0 0 127 0" result="hardAlpha"/>
<feOffset dy="3"/>
<feGaussianBlur stdDeviation="3"/>
<feColorMatrix type="matrix" values="0 0 0 0 1 0 0 0 0 1 0 0 0 0 1 0 0 0 0.231 0"/>
<feBlend mode="normal" in2="BackgroundImageFix" result="effect1_dropShadow_16_1508"/>
<feBlend mode="normal" in="SourceGraphic" in2="effect1_dropShadow_16_1508" result="shape"/>
</filter>
<filter id="filter1_d_16_1508" x="13.7378" y="1.96332" width="36.7458" height="46.9364" filterUnits="userSpaceOnUse" color-interpolation-filters="sRGB">
<feFlood flood-opacity="0" result="BackgroundImageFix"/>
<feColorMatrix in="SourceAlpha" type="matrix" values="0 0 0 0 0 0 0 0 0 0 0 0 0 0 0 0 0 0 127 0" result="hardAlpha"/>
<feOffset dy="3"/>
<feGaussianBlur stdDeviation="3"/>
<feColorMatrix type="matrix" values="0 0 0 0 1 0 0 0 0 1 0 0 0 0 1 0 0 0 0.231 0"/>
<feBlend mode="normal" in2="BackgroundImageFix" result="effect1_dropShadow_16_1508"/>
<feBlend mode="normal" in="SourceGraphic" in2="effect1_dropShadow_16_1508" result="shape"/>
</filter>
<filter id="filter2_d_16_1508" x="0.5" y="22.7333" width="41.3591" height="33.2831" filterUnits="userSpaceOnUse" color-interpolation-filters="sRGB">
<feFlood flood-opacity="0" result="BackgroundImageFix"/>
<feColorMatrix in="SourceAlpha" type="matrix" values="0 0 0 0 0 0 0 0 0 0 0 0 0 0 0 0 0 0 127 0" result="hardAlpha"/>
<feOffset dy="3"/>
<feGaussianBlur stdDeviation="3"/>
<feColorMatrix type="matrix" values="0 0 0 0 1 0 0 0 0 1 0 0 0 0 1 0 0 0 0.231 0"/>
<feBlend mode="normal" in2="BackgroundImageFix" result="effect1_dropShadow_16_1508"/>
<feBlend mode="normal" in="SourceGraphic" in2="effect1_dropShadow_16_1508" result="shape"/>
</filter>
</defs>
</svg>
