<svg width="210" height="40" viewBox="0 0 210 40" fill="none" xmlns="http://www.w3.org/2000/svg">
<g clip-path="url(#clip0_1064_5756)">
<path d="M25.1005 18.3036H33.3794C32.523 8.07027 24.0135 0 13.6594 0V8.30085C19.4678 8.30085 24.277 12.6489 25.1005 18.3036" fill="white"/>
<path d="M13.6594 31.699V39.9999C24.0025 39.9999 32.523 31.9296 33.3794 21.6963H25.1005C24.288 27.34 19.4678 31.699 13.6594 31.699" fill="white"/>
<path d="M13.0332 19.3687L9.26709 13.7031C9.05847 13.3847 8.70711 13.209 8.33379 13.209H0L4.08455 19.3687C4.33708 19.753 4.33708 20.2471 4.08455 20.6314L0 26.7802L8.34477 26.7912C8.71809 26.7912 9.06945 26.6045 9.27807 26.2971L13.0442 20.6314C13.2967 20.2471 13.2967 19.753 13.0442 19.3687" fill="white"/>
<path d="M83.8099 25.1221L70.5901 7.89453H66.3188V33.2363H70.074C70.6669 33.2363 71.15 32.7532 71.15 32.1493V16.0087L84.3699 33.2363H88.6411V7.89453H84.7981C84.2601 7.89453 83.8209 8.33373 83.8209 8.88273V25.1221H83.8099Z" fill="white"/>
<path d="M53.549 29.2835H47.3124V21.883H53.549C55.745 21.883 57.392 23.4751 57.392 25.5832C57.392 27.6914 55.734 29.2835 53.549 29.2835ZM47.3124 14.1751V11.8473H52.8133C54.8117 11.8473 56.1073 13.0771 56.1073 14.9876C56.1073 16.8981 54.8117 18.1279 52.8133 18.1279H47.3124V14.1751ZM58.2045 20.1482L57.5237 19.8737L58.1606 19.5113C58.1606 19.5113 60.9275 17.8973 60.9275 14.4276C60.9275 11.2873 57.9629 7.89453 53.1757 7.89453H42.4812V15.9977L44.8529 19.5662C45.0286 19.8297 45.0286 20.1591 44.8529 20.4227L42.4812 23.9912V33.2253H53.8015C59.0719 33.2253 62.2122 29.5251 62.2122 25.9566C62.2122 21.7952 58.3582 20.214 58.1935 20.1482" fill="white"/>
<path d="M106.154 22.1904C106.692 22.1904 107.131 21.7512 107.131 21.2022V17.8753H98.567V12.2206H110.261V7.90552H93.7358V33.2363H98.556V22.1904H106.143H106.154Z" fill="white"/>
<path d="M125.973 30.7109H118.441V20.9277H125.973C129.026 20.9277 130.991 23.2884 130.991 26.0005C130.991 28.7125 129.015 30.7109 125.973 30.7109M118.441 10.4199H125.435C128.125 10.4199 129.739 12.0449 129.739 14.4056C129.739 16.942 128.125 18.5341 125.435 18.5341H118.441V10.4199V10.4199ZM129.564 19.665C129.564 19.665 132.429 18.4023 132.429 14.4056C132.429 10.7823 129.564 7.88354 125.435 7.88354H115.751V33.2473H125.973C130.64 33.2473 133.681 30.1619 133.681 26.0005C133.681 21.2901 129.553 19.6541 129.553 19.6541" fill="white"/>
<path d="M143.377 23.6508L148.219 11.6936L153.061 23.6508H143.377ZM146.967 7.88354L136.569 33.2582H139.435L142.301 26.1871H154.137L157.003 33.2582H159.869L149.471 7.88354H146.956H146.967Z" fill="white"/>
<path d="M182.037 28.3612L166.61 7.88354H164.282V33.2473H166.248C166.654 33.2473 166.983 32.9179 166.983 32.5116V12.7696L182.41 33.2473H184.738V7.88354H182.838C182.399 7.88354 182.048 8.2349 182.048 8.68508V28.3612H182.037Z" fill="white"/>
<path d="M199.33 18.3914L208.839 7.88354H205.435L192.523 22.2014V7.88354H190.645C190.195 7.88354 189.822 8.25686 189.822 8.70704V33.2473H191.71C192.15 33.2473 192.512 32.8849 192.512 32.4347V25.8138L197.53 20.3787L206.5 33.2473H209.728L199.33 18.3914V18.3914Z" fill="white"/>
</g>
<defs>
<clipPath id="clip0_1064_5756">
<rect width="210" height="40" fill="white"/>
</clipPath>
</defs>
</svg>
