<svg width="64" height="34" viewBox="0 0 64 34" fill="none" xmlns="http://www.w3.org/2000/svg">
<path d="M22.8164 24.6138H24.8019V32.4186H28.9271V33.3099H22.8164V24.6138Z" fill="#DE1672"/>
<path d="M34.3451 33.503C33.6932 33.503 33.0854 33.3898 32.5211 33.1634C31.9568 32.937 31.4676 32.6195 31.0545 32.211C30.6408 31.8031 30.3161 31.3177 30.0796 30.755C29.8431 30.1929 29.7246 29.5762 29.7246 28.9048C29.7246 28.2334 29.8431 27.6427 30.0796 27.0929C30.3161 26.5439 30.6408 26.0722 31.0545 25.6786C31.4682 25.285 31.9568 24.9793 32.5211 24.7613C33.0854 24.5434 33.6932 24.4341 34.3451 24.4341C34.9971 24.4341 35.6036 24.544 36.1661 24.7646C36.7285 24.9851 37.2172 25.2915 37.6327 25.6851C38.0482 26.0787 38.3747 26.5478 38.613 27.0929C38.8513 27.6381 38.9704 28.2353 38.9704 28.8853C38.9704 29.3472 38.9166 29.7824 38.8096 30.1903C38.7025 30.5989 38.5495 30.9736 38.3505 31.3158C38.1516 31.658 37.9133 31.9637 37.6351 32.2331C37.3569 32.5024 37.0454 32.7314 36.7019 32.9194C36.3578 33.1074 35.9877 33.2519 35.5903 33.3521C35.193 33.4522 34.7775 33.503 34.3445 33.503H34.3451ZM34.3451 32.7717C34.7382 32.7717 35.0866 32.6748 35.3883 32.4796C35.6901 32.2851 35.9429 32.0171 36.1455 31.6749C36.3481 31.3327 36.5017 30.9261 36.6076 30.4531C36.7128 29.9808 36.7654 29.4649 36.7654 28.9048C36.7654 28.3446 36.7128 27.8489 36.6076 27.3909C36.5023 26.9336 36.3481 26.54 36.1455 26.2108C35.9429 25.8816 35.6901 25.6253 35.3883 25.4412C35.0866 25.2577 34.7382 25.1653 34.3451 25.1653C33.952 25.1653 33.5982 25.2577 33.2958 25.4412C32.994 25.6253 32.7412 25.8816 32.5386 26.2108C32.336 26.54 32.183 26.9336 32.0796 27.3909C31.9762 27.8483 31.9248 28.3531 31.9248 28.9048C31.9248 29.4565 31.9762 29.9808 32.0796 30.4531C32.183 30.9254 32.336 31.3327 32.5386 31.6749C32.7412 32.0171 32.994 32.2851 33.2958 32.4796C33.5976 32.6742 33.9478 32.7717 34.3451 32.7717Z" fill="#DE1672"/>
<path d="M44.3731 24.4341L48.1651 33.3098H46.1385L45.1249 30.9371H41.983L40.9217 33.3098H39.5742L43.5149 24.4341H44.3737H44.3731ZM42.3586 30.1291H44.7904L43.5924 27.32L42.3586 30.1291Z" fill="#DE1672"/>
<path d="M49.0538 24.6138H50.3239L54.9323 30.1416V24.6138H56.1721V33.4381H55.3193L50.3112 27.3331V33.3099H49.0532V24.6138H49.0538Z" fill="#DE1672"/>
<path d="M60.8288 33.4386C60.3438 33.4386 59.9192 33.3774 59.5557 33.2558C59.1923 33.1341 58.8826 32.9663 58.6286 32.7522C58.374 32.5388 58.1714 32.2832 58.0202 31.9859C57.869 31.6886 57.7656 31.3626 57.71 31.0081H59.087C59.1348 31.226 59.2044 31.429 59.2957 31.617C59.387 31.805 59.5031 31.9683 59.6446 32.1075C59.7856 32.2467 59.9525 32.3554 60.1454 32.4348C60.3383 32.5141 60.5615 32.5532 60.8161 32.5532C60.983 32.5532 61.1487 32.5343 61.3138 32.4953C61.4789 32.4569 61.6271 32.3938 61.7583 32.3059C61.8896 32.2181 61.9948 32.1049 62.074 31.9663C62.1539 31.8271 62.1932 31.6554 62.1932 31.4498C62.1932 31.1935 62.1315 30.9645 62.0081 30.7634C61.8847 30.5624 61.722 30.3796 61.5194 30.215C61.3168 30.0504 61.0864 29.8975 60.8282 29.7564C60.5693 29.6152 60.3057 29.4734 60.0353 29.3302C59.765 29.1871 59.5007 29.0362 59.2425 28.8781C58.9842 28.72 58.7538 28.5437 58.5512 28.3492C58.3486 28.1547 58.1853 27.9348 58.0626 27.6889C57.9392 27.443 57.8775 27.1619 57.8775 26.8457C57.8775 26.4996 57.9482 26.1802 58.0892 25.8868C58.2301 25.594 58.4339 25.3397 58.7006 25.1237C58.9667 24.9077 59.2927 24.7392 59.6785 24.6169C60.0638 24.4952 60.5034 24.4341 60.9957 24.4341C61.4015 24.4341 61.7686 24.4939 62.0988 24.6136C62.4284 24.7333 62.7199 24.8992 62.9721 25.1107C63.2243 25.3221 63.436 25.57 63.6071 25.8543C63.7777 26.1386 63.9089 26.443 64.0002 26.7683H62.7544C62.683 26.5634 62.5996 26.3669 62.504 26.1783C62.4091 25.9902 62.2918 25.8256 62.152 25.6845C62.013 25.5433 61.8442 25.4307 61.6452 25.3475C61.4463 25.2642 61.2098 25.2226 60.9358 25.2226C60.6776 25.2226 60.4599 25.259 60.2833 25.3319C60.1061 25.4047 59.9646 25.4978 59.8569 25.611C59.7499 25.7242 59.6725 25.8504 59.6247 25.9896C59.5769 26.1288 59.5533 26.2641 59.5533 26.3968C59.5533 26.6278 59.6168 26.8373 59.7438 27.0253C59.8708 27.2133 60.039 27.389 60.2476 27.5509C60.4563 27.7136 60.6933 27.8684 60.96 28.0161C61.2261 28.1638 61.4971 28.3121 61.7735 28.4617C62.0498 28.6114 62.3208 28.7688 62.5875 28.9334C62.8536 29.098 63.0913 29.2789 63.2999 29.4753C63.5086 29.6718 63.6767 29.8897 63.8037 30.1291C63.9307 30.3686 63.9942 30.6379 63.9942 30.9371C63.9942 31.2917 63.9265 31.6215 63.7916 31.9247C63.6567 32.2285 63.4559 32.492 63.1898 32.7164C62.9231 32.9409 62.5929 33.1172 62.1974 33.2454C61.8019 33.3735 61.3459 33.4379 60.8294 33.4379L60.8288 33.4386Z" fill="#DE1672"/>
<path d="M27.0175 8.89893L25.3283 13.0053L27.3477 17.7356H23.384L22.8143 19.1187H27.9174L29.6519 23.1789H33.1185L27.0169 8.89893H27.0175ZM18.4248 23.1789H18.5028L18.455 23.1112L18.4248 23.1789Z" fill="#643894"/>
<path d="M34.6383 8.30322H39.462C40.2367 8.30322 40.9625 8.39105 41.6392 8.5667C42.3153 8.74236 42.9038 9.00583 43.4033 9.35649C43.9029 9.7078 44.2954 10.145 44.5808 10.6674C44.8663 11.1904 45.009 11.7994 45.009 12.4935C45.009 13.1877 44.8675 13.8083 44.5857 14.3314C44.3032 14.8544 43.9295 15.291 43.4644 15.6423C42.9987 15.9929 42.4683 16.2551 41.8732 16.4269C41.2781 16.5986 40.6685 16.6845 40.0426 16.6845H38.0438V23.1784H34.6377V8.30322H34.6383ZM38.0444 15.3352H39.156C39.5436 15.3352 39.8799 15.2604 40.166 15.1101C40.4514 14.9605 40.6891 14.7555 40.8796 14.496C41.0701 14.2364 41.2128 13.9384 41.3078 13.6021C41.4027 13.2657 41.4505 12.9112 41.4505 12.5384C41.4505 12.0921 41.3876 11.6972 41.2618 11.3537C41.136 11.0102 40.9661 10.7194 40.7514 10.482C40.5373 10.2445 40.2857 10.063 39.9972 9.93875C39.7081 9.81449 39.3973 9.75204 39.0641 9.75204H38.0444V15.3358V15.3352Z" fill="#643894"/>
<path d="M47.4161 8.30257H52.6166C53.5141 8.30257 54.2973 8.40341 54.9668 8.60443C55.6363 8.80546 56.1939 9.08716 56.639 9.44887C57.0841 9.81124 57.4191 10.2406 57.6435 10.7376C57.8679 11.2353 57.9804 11.7759 57.9804 12.3608C57.9804 12.785 57.9036 13.1857 57.7512 13.5618C57.5981 13.9384 57.3841 14.2858 57.1089 14.604C56.8337 14.9221 56.5005 15.2038 56.1092 15.4484C55.7179 15.6937 55.2885 15.8966 54.8192 16.0573L59.7445 23.1765H56.0529L51.4131 16.4522H50.8113V23.1765H47.4155V8.30127L47.4161 8.30257ZM50.8119 15.1478H51.5461C51.9604 15.1478 52.3451 15.086 52.6982 14.9611C53.0514 14.8369 53.3575 14.6593 53.6157 14.429C53.8739 14.1987 54.0759 13.9157 54.2223 13.5793C54.368 13.243 54.4418 12.8624 54.4418 12.4382C54.4418 12.0433 54.3856 11.6816 54.2737 11.3524C54.1612 11.0232 54.007 10.7402 53.8098 10.5021C53.6121 10.2647 53.3744 10.0799 53.0956 9.94851C52.8168 9.81709 52.5144 9.75073 52.1878 9.75073H50.8113V15.1478H50.8119Z" fill="#643894"/>
<path d="M60.6128 8.30322H63.9983V23.1784H60.6128V8.30322Z" fill="#643894"/>
<path d="M24.3441 4.74348C24.3441 4.74348 26.5763 4.05974 26.7118 4.02201L25.0692 7.63265L22.3961 13.6719L20.641 17.6364L20.4681 18.0274L20.1221 18.81C20.1076 18.8406 20.0949 18.8673 20.0816 18.8979C20.078 18.9031 20.075 18.9089 20.0726 18.9174C19.4291 20.3115 18.8104 21.4305 18.0931 22.2828C18.0931 22.2828 18.0925 22.2828 18.0925 22.2841C18.0254 22.3615 17.957 22.4389 17.8869 22.5131C17.8851 22.5176 17.8802 22.5209 17.8778 22.5241C17.8071 22.6002 17.7351 22.677 17.6619 22.7505C17.6444 22.7674 17.6274 22.7857 17.6111 22.8019C17.5277 22.8845 17.4418 22.9652 17.3559 23.0452C17.3372 23.0634 17.3196 23.0791 17.3003 23.0953C17.212 23.1753 17.1231 23.256 17.0317 23.3315C16.6126 23.6834 16.1675 23.9846 15.6976 24.2371C15.5404 24.3216 15.3807 24.3997 15.2162 24.4732C14.5642 24.7653 13.8905 24.9124 13.1975 24.9124C12.906 24.9124 12.6193 24.898 12.3369 24.8714C12.2661 24.8636 12.1959 24.8571 12.1258 24.8479C11.9177 24.8226 11.7109 24.7901 11.5065 24.7484C11.44 24.7341 11.3722 24.7204 11.3039 24.7048C11.1708 24.6736 11.0372 24.6398 10.9054 24.602C10.84 24.5825 10.7741 24.5643 10.7094 24.5422C10.4487 24.4602 10.1935 24.3652 9.94436 24.2553C9.84215 24.211 9.74297 24.1636 9.64439 24.1154C8.8606 23.7309 8.16451 23.2228 7.55308 22.5918C7.48232 22.5189 7.41277 22.4454 7.34443 22.3686C7.06925 22.0616 6.81525 21.7285 6.58362 21.3687C6.50741 21.249 6.43242 21.1267 6.36045 20.9998C6.25099 20.8092 6.14878 20.6102 6.0496 20.4046C5.98307 20.268 5.91957 20.1281 5.85788 19.9843C5.80708 19.8627 5.75689 19.7384 5.70851 19.6128C5.67645 19.525 5.64198 19.4404 5.61053 19.3526C5.1884 18.1608 4.97794 16.8187 4.97794 15.3282C4.97794 14.0082 5.14244 12.8092 5.46962 11.7254C5.51619 11.5725 5.56638 11.4183 5.62081 11.2693C5.80104 10.7638 6.01029 10.2928 6.24555 9.85109C6.56971 9.24411 6.94527 8.69698 7.37467 8.2084C7.60509 7.94623 7.85002 7.70161 8.10705 7.47912C8.20986 7.38934 8.31449 7.30281 8.42153 7.21954C8.47475 7.17726 8.53039 7.13627 8.58422 7.09593C9.02026 6.7739 9.49078 6.50132 9.99395 6.27817C10.2449 6.16758 10.4989 6.06999 10.7608 5.98542C10.8261 5.96395 10.8914 5.94443 10.9568 5.92491C11.0717 5.89239 11.1884 5.86116 11.3063 5.83318C11.6547 5.74861 12.0097 5.68746 12.3713 5.65103C12.6471 5.62305 12.9295 5.61004 13.2156 5.61004C13.6649 5.61004 14.0974 5.65363 14.511 5.74341C14.7173 5.7896 14.9187 5.84424 15.117 5.91125C15.2005 5.94053 15.2839 5.97045 15.3656 6.00363C15.7363 6.14936 16.0889 6.33542 16.4258 6.56182L16.6864 5.9646L16.9471 5.36673C16.8763 5.32639 16.8043 5.28606 16.7324 5.24702C16.6217 5.18522 16.5092 5.12732 16.3955 5.07007C16.329 5.03689 16.26 5.00371 16.1941 4.97118C16.1064 4.9315 16.0187 4.89051 15.931 4.85148C15.87 4.82416 15.8095 4.79813 15.746 4.77276C15.5428 4.68689 15.3353 4.60882 15.1225 4.5353C14.8183 4.43056 14.5001 4.34989 14.176 4.28093C14.1796 4.27963 14.1832 4.27833 14.1869 4.27703C12.8455 3.81317 7.45268 3.50936 3.69823 6.67437C1.83491 8.24483 0.168146 10.8406 0.0121132 14.3556C-0.104004 17.0301 0.622333 19.9648 1.86273 21.7382C5.11764 26.3898 11.489 26.436 11.489 26.436L11.4835 26.4314C11.6656 26.4392 11.8476 26.447 12.0333 26.447C12.6048 26.447 13.1473 26.41 13.6643 26.3338C13.7938 26.3143 13.9214 26.2922 14.0466 26.2688C14.4239 26.1959 14.7862 26.1029 15.1333 25.9871C15.261 25.9442 15.3867 25.8999 15.5089 25.8524C15.541 25.8407 15.5706 25.8303 15.6014 25.8186C15.703 25.7789 15.804 25.7379 15.9044 25.695C15.9256 25.6859 15.9468 25.6787 15.9679 25.6683C16.2213 25.5597 16.4663 25.4419 16.7021 25.3164C16.9005 25.2246 17.12 25.0932 17.3426 24.9449C17.365 24.9299 17.3886 24.9156 17.4121 24.9006C17.4176 24.8974 17.423 24.8928 17.4291 24.8909C17.4388 24.8831 17.4502 24.8785 17.4605 24.8714C17.5113 24.8369 17.5682 24.805 17.6202 24.7705C18.0919 24.4452 18.528 24.0868 18.9259 23.6964C18.9301 23.6919 18.9326 23.6906 18.9326 23.6906V23.6893C19.1521 23.474 19.3607 23.2502 19.5579 23.0147C19.7472 22.7883 19.9153 22.5508 20.0707 22.3075C20.1246 22.2223 20.1778 22.137 20.2286 22.0505C20.2298 22.0492 20.231 22.0479 20.2322 22.0473C20.283 21.9627 20.3314 21.8781 20.3804 21.7935C20.3822 21.7903 20.3834 21.787 20.3864 21.7844C20.4336 21.7018 20.4802 21.6185 20.5255 21.5359C20.528 21.5307 20.531 21.5268 20.534 21.5223C20.5775 21.4429 20.6205 21.3642 20.6646 21.2854C20.6677 21.2796 20.6713 21.2718 20.6761 21.2666C20.7154 21.1937 20.7541 21.1202 20.7916 21.0441C20.8279 20.9686 20.8648 20.8938 20.8969 20.817L21.7635 18.8497L27.8754 4.34013L28.4118 5.66989L28.8642 6.79082L28.8884 0.502441L24.3423 4.74348H24.3441Z" fill="#643894"/>
</svg>
