<svg xmlns="http://www.w3.org/2000/svg" width="110" height="42" fill="none" viewBox="0 0 110 42"><g clip-path="url(#a)"><path fill="#0f1621" d="M22.796 22.703c.26.26.26.533 0 .794a12.88 12.88 0 0 1-9.211 3.826C6.035 27.334 0 21.306 0 13.69 0 6.073 6.035 0 13.585 0a12.88 12.88 0 0 1 9.21 3.825c.26.261.26.534 0 .795L20.31 7.31c-.226.261-.53.261-.79.034-1.583-1.407-3.55-2.27-5.968-2.27-4.6 0-8.228 3.678-8.228 8.604 0 4.927 3.628 8.57 8.228 8.57 2.418 0 4.374-.873 5.967-2.27.26-.227.565-.227.791.034zM42.54 15.7v10.579a.56.56 0 0 1-.565.567h-3.854a.56.56 0 0 1-.565-.567v-9.671c0-3.065-1.661-4.132-3.47-4.132-2.791 0-4.08 2.77-4.08 3.643v10.16a.56.56 0 0 1-.565.567h-3.854a.56.56 0 0 1-.564-.567V1.068A.56.56 0 0 1 25.587.5h3.854a.56.56 0 0 1 .566.568v10.227c1.209-1.975 3.175-3.45 5.854-3.45 3.775 0 6.68 2.883 6.68 7.843zM44.992 17.595c0-5.46 4.26-9.74 9.584-9.74s9.584 4.28 9.584 9.74-4.26 9.74-9.584 9.74-9.584-4.28-9.584-9.74m14.376 0c0-2.997-2.147-5.12-4.792-5.12s-4.792 2.123-4.792 5.12 2.114 5.12 4.792 5.12 4.792-2.123 4.792-5.12M66.375 2.77c0-1.521 1.21-2.77 2.758-2.77s2.712 1.249 2.712 2.77-1.21 2.77-2.712 2.77c-1.504 0-2.758-1.25-2.758-2.77m.825 5.494h3.854c.339 0 .565.227.565.567v17.436c0 .34-.226.568-.565.568H67.2c-.339 0-.565-.227-.565-.568V8.831c0-.34.226-.567.565-.567M87.612 21.034c.305-.26.565-.26.825 0l2.305 2.203c.226.227.26.533.034.794a9.52 9.52 0 0 1-7.244 3.303c-5.323 0-9.437-4.28-9.437-9.74s4.114-9.739 9.437-9.739c2.87 0 5.402 1.295 7.131 3.304.226.26.192.567-.034.794l-2.305 2.237c-.26.26-.531.226-.825-.034-1.063-.943-2.148-1.67-3.854-1.67-2.792 0-4.758 2.203-4.758 5.12s1.966 5.12 4.758 5.12c1.774 0 2.904-.715 3.967-1.669zM108.689 19.41H96.833c.486 2.464 2.373 3.872 5.289 3.872 1.469 0 2.645-.375 3.922-1.294.339-.227.565-.227.825.034l1.661 1.634c.26.261.26.534-.034.829a9.62 9.62 0 0 1-6.871 2.838c-5.775 0-9.742-4.28-9.742-9.74s3.967-9.74 9.324-9.74S110 12.124 110 17.176c0 1.475-.193 2.236-1.323 2.236zm-11.935-3.257h8.827c-.34-2.61-2.114-4.052-4.34-4.052s-4.08 1.441-4.487 4.052"/><path fill="#2777f3" d="M29.859 32.579v.59c0 .09-.068.159-.158.159h-1.673v6.402c0 .091-.068.16-.158.16h-.667a.155.155 0 0 1-.158-.16v-6.402h-1.673a.155.155 0 0 1-.158-.159v-.59c0-.091.068-.16.158-.16h4.329c.09 0 .158.069.158.16M35.204 36.654v3.076c0 .09-.068.159-.158.159h-.633a.155.155 0 0 1-.158-.16v-2.962c0-.908-.452-1.35-1.142-1.35-.971 0-1.48.964-1.48 1.18v3.133c0 .09-.068.159-.158.159h-.633a.155.155 0 0 1-.158-.16v-7.468c0-.091.067-.16.158-.16h.633c.09 0 .158.069.158.16v3.28c.373-.556.95-.987 1.73-.987 1.084 0 1.841.715 1.841 2.11zM41.104 37.107c0 .374-.045.556-.316.556h-3.764c.136.92.791 1.555 1.83 1.555.589 0 .984-.204 1.334-.477.08-.068.136-.09.226 0l.272.261c.079.091.09.16 0 .25-.486.511-1.164.795-1.944.795-1.56 0-2.656-1.203-2.656-2.747s1.062-2.747 2.565-2.747c1.504 0 2.442 1.203 2.442 2.565zm-4.08-.148h3.244c-.057-.92-.712-1.589-1.605-1.589s-1.526.647-1.639 1.59M45.184 38.594c.271.227.622.442 1.175.442.86 0 1.39-.59 1.39-1.895v-4.552c0-.091.068-.16.159-.16h.667c.09 0 .158.069.158.16v4.586c0 1.975-.927 2.815-2.362 2.815-.814 0-1.436-.295-1.786-.704-.068-.08-.068-.148 0-.227l.362-.454q.101-.12.237 0zM49.728 37.288c0-1.544 1.152-2.747 2.644-2.747s2.656 1.192 2.656 2.747-1.153 2.747-2.656 2.747-2.645-1.192-2.645-2.747m4.385 0c0-1.09-.758-1.862-1.73-1.862s-1.729.784-1.729 1.862.769 1.862 1.73 1.862c.96 0 1.729-.784 1.729-1.862M60.204 34.838l-2.746 6.947c-.034.09-.102.124-.192.124h-.633c-.113 0-.181-.068-.125-.181l.735-1.828-2-5.074c-.046-.113 0-.181.124-.181h.644c.09 0 .158.045.192.124l1.503 3.996 1.504-3.996c.033-.09.101-.124.192-.124h.655c.113 0 .17.068.125.181zM62.973 37.288c0-1.544 1.152-2.747 2.644-2.747s2.656 1.192 2.656 2.747-1.153 2.747-2.656 2.747-2.644-1.192-2.644-2.747m4.373 0c0-1.09-.757-1.862-1.729-1.862s-1.729.784-1.729 1.862.769 1.862 1.73 1.862c.96 0 1.728-.784 1.728-1.862M72.523 32.816l-.35.341c-.068.068-.09.057-.136.023-.26-.16-.475-.284-.791-.284-.554 0-.69.272-.69.726v1.045h1.04c.09 0 .158.068.158.159v.476c0 .091-.068.16-.158.16h-1.04v4.267c0 .091-.067.16-.158.16h-.633a.155.155 0 0 1-.158-.16v-4.268h-.622a.155.155 0 0 1-.158-.159v-.476c0-.091.068-.16.158-.16h.622v-1.123c0-.988.531-1.51 1.57-1.51.611 0 1.086.307 1.357.636.045.057.034.09 0 .136zM79.79 39.14v.59c0 .091-.068.16-.158.16h-3.73a.155.155 0 0 1-.158-.16V32.58c0-.091.068-.16.158-.16h3.719c.09 0 .158.069.158.16v.59c0 .09-.068.159-.158.159h-2.894v2.18h2.724c.09 0 .158.068.158.158v.59c0 .091-.067.16-.158.16h-2.724v2.576h2.905c.09 0 .158.069.158.16zM85.927 34.815v4.904c0 .09-.068.159-.158.159h-.588c-.09 0-.147-.068-.158-.16l-.045-.59c-.407.523-.995.875-1.763.875-1.48 0-2.543-1.204-2.543-2.736s1.062-2.736 2.543-2.736c.768 0 1.367.364 1.774.886l.034-.625c0-.09.068-.159.158-.159h.588c.09 0 .158.069.158.16zm-.915 2.463c0-1.01-.724-1.861-1.695-1.861s-1.718.794-1.718 1.861.734 1.873 1.718 1.873c.983 0 1.695-.851 1.695-1.873M89.894 34.917l-.204.477c-.045.09-.101.102-.214.09-.09-.022-.204-.067-.418-.067-.645 0-1.142.488-1.142 1.157v3.145c0 .09-.068.159-.158.159h-.633a.155.155 0 0 1-.158-.16v-4.903c0-.09.068-.159.158-.159h.588c.09 0 .147.068.158.159l.045.477c.283-.443.712-.76 1.3-.76.271 0 .497.079.644.192.068.046.08.091.034.182zM95.002 36.653v3.076c0 .09-.068.159-.158.159h-.633a.155.155 0 0 1-.158-.159v-2.963c0-.908-.452-1.35-1.142-1.35-.972 0-1.48.964-1.48 1.18v3.133c0 .09-.068.159-.158.159h-.633a.155.155 0 0 1-.159-.159v-4.904c0-.09.068-.159.159-.159h.599c.09 0 .147.068.158.16l.045.714c.373-.556.95-.987 1.73-.987 1.084 0 1.841.715 1.841 2.111zM95.94 32.895c0-.33.26-.59.588-.59s.576.26.576.59-.26.579-.576.579a.59.59 0 0 1-.588-.579m.26 1.76h.633c.09 0 .159.067.159.158v4.904c0 .09-.068.159-.159.159H96.2a.155.155 0 0 1-.158-.159v-4.904c0-.09.068-.159.158-.159M102.563 36.653v3.076c0 .09-.068.159-.159.159h-.632a.155.155 0 0 1-.159-.159v-2.963c0-.908-.452-1.35-1.141-1.35-.972 0-1.48.964-1.48 1.18v3.133c0 .09-.069.159-.159.159H98.2a.155.155 0 0 1-.158-.159v-4.904c0-.09.068-.159.158-.159h.6c.09 0 .146.068.157.16l.046.714c.373-.556.949-.987 1.729-.987 1.085 0 1.842.715 1.842 2.111zM108.7 34.813v4.972c0 1.635-1.469 2.214-2.667 2.214-.825 0-1.548-.216-2.046-.545-.09-.057-.09-.136-.056-.227l.203-.375c.057-.09.124-.102.215-.068.441.239.938.386 1.627.386.837 0 1.82-.363 1.82-1.396v-.783c-.407.533-.995.908-1.797.908-1.481 0-2.543-1.203-2.543-2.68 0-1.475 1.062-2.678 2.543-2.678.768 0 1.367.352 1.774.874l.034-.613c0-.09.068-.159.158-.159h.588c.091 0 .158.068.158.16zm-.915 2.407c0-.965-.724-1.805-1.696-1.805s-1.718.795-1.718 1.805.735 1.816 1.718 1.816c.984 0 1.696-.851 1.696-1.816"/></g><defs><clipPath id="a"><path fill="#fff" d="M0 0h110v42H0z"/></clipPath></defs></svg>