<svg width="128" height="128" viewBox="0 0 128 128" fill="none" xmlns="http://www.w3.org/2000/svg">
<circle cx="64" cy="64" r="64" fill="#009944"/>
<path fill-rule="evenodd" clip-rule="evenodd" d="M84.3039 66.3461L83.3486 68.5398C83.2952 68.6906 83.2055 68.826 83.0873 68.9338C82.9691 69.0416 82.8262 69.1186 82.6711 69.1579C81.6842 69.41 80.7384 69.802 79.8625 70.3219C79.7356 70.397 79.5934 70.4422 79.4465 70.4541C79.2996 70.4659 79.1519 70.4441 79.0147 70.3903L76.7196 69.4876L75.2352 70.9721L76.134 73.2584C76.1897 73.3965 76.2128 73.5457 76.2016 73.6942C76.1903 73.8427 76.145 73.9867 76.0691 74.1148C75.809 74.5537 75.5803 75.0105 75.3846 75.4817C75.3347 75.6022 74.9028 76.9228 74.9028 76.9228C74.8665 77.0663 74.7978 77.1996 74.702 77.3124C74.6062 77.4252 74.4858 77.5145 74.3501 77.5735L72.0929 78.5563V80.6586L74.2867 81.614C74.4375 81.6673 74.5728 81.757 74.6806 81.8752C74.7884 81.9934 74.8653 82.1364 74.9046 82.2914C75.1569 83.2783 75.5489 84.2241 76.0687 85.1C76.1437 85.2269 76.1889 85.3691 76.2008 85.516C76.2126 85.6629 76.1908 85.8106 76.1371 85.9478L75.2344 88.2429L76.7189 89.7273L79.0051 88.8285C79.1433 88.7728 79.2924 88.7497 79.441 88.761C79.5896 88.7723 79.7335 88.8176 79.8617 88.8936C80.3006 89.1538 80.7573 89.3825 81.2285 89.578C81.3489 89.628 82.6697 90.0599 82.6697 90.0599C82.8132 90.0962 82.9464 90.1649 83.0592 90.2607C83.172 90.3565 83.2614 90.4769 83.3204 90.6126L84.3031 92.8697H86.4055L87.3608 90.676C87.4142 90.5252 87.5039 90.3899 87.6221 90.2821C87.7403 90.1743 87.8832 90.0973 88.0383 90.0581C89.0252 89.8058 89.9709 89.4138 90.8469 88.894C90.9737 88.8189 91.116 88.7738 91.2629 88.7619C91.4098 88.75 91.5575 88.7717 91.6947 88.8255L93.9898 89.7282L95.4742 88.2438L94.5754 85.9576C94.5197 85.8194 94.4966 85.6703 94.5078 85.5217C94.5191 85.3731 94.5644 85.2292 94.6403 85.101C94.9005 84.6621 95.1293 84.2054 95.3248 83.7341C95.3747 83.6138 95.8066 82.293 95.8066 82.293C95.8429 82.1495 95.9116 82.0162 96.0074 81.9035C96.1032 81.7907 96.2236 81.7013 96.3593 81.6423L98.6164 80.6595V78.5572L96.4227 77.6018C96.2718 77.5486 96.1365 77.4589 96.0286 77.3407C95.9208 77.2225 95.8439 77.0795 95.8046 76.9244C95.5523 75.9375 95.1603 74.9918 94.6406 74.1158C94.5655 73.989 94.5203 73.8467 94.5084 73.6998C94.4966 73.553 94.5184 73.4053 94.5722 73.2681L95.4748 70.9731L93.9904 69.4885L91.7043 70.3873C91.5661 70.443 91.417 70.4661 91.2684 70.4549C91.1199 70.4436 90.9759 70.3983 90.8477 70.3224C90.4086 70.0617 89.9516 69.8326 89.4801 69.6367C89.3596 69.5867 88.0389 69.155 88.0389 69.155C87.8954 69.1187 87.7622 69.05 87.6494 68.9542C87.5366 68.8584 87.4473 68.738 87.3883 68.6023L86.4055 66.3452L84.3039 66.3461ZM89.3245 75.6375C90.1097 76.4227 90.6445 77.4231 90.8611 78.5121C91.0778 79.6012 90.9666 80.7301 90.5417 81.756C90.1167 82.7819 89.3971 83.6587 88.4739 84.2756C87.5506 84.8926 86.4651 85.2218 85.3547 85.2218C84.2443 85.2218 83.1588 84.8926 82.2355 84.2756C81.3122 83.6587 80.5926 82.7819 80.1677 81.756C79.7428 80.7301 79.6316 79.6012 79.8483 78.5121C80.0649 77.4231 80.5996 76.4227 81.3848 75.6375C82.4406 74.5901 83.8675 74.0024 85.3547 74.0024C86.8419 74.0024 88.2688 74.5901 89.3245 75.6375ZM90.7007 74.2614C91.758 75.3187 92.4781 76.6659 92.7698 78.1324C93.0615 79.599 92.9118 81.1191 92.3396 82.5006C91.7673 83.8821 90.7983 85.0629 89.555 85.8936C88.3117 86.7244 86.85 87.1678 85.3547 87.1678C83.8594 87.1678 82.3977 86.7244 81.1544 85.8936C79.9111 85.0629 78.942 83.8821 78.3698 82.5006C77.7976 81.1191 77.6479 79.599 77.9396 78.1324C78.2313 76.6659 78.9514 75.3187 80.0087 74.2614C81.4304 72.8507 83.3519 72.0591 85.3547 72.0591C87.3574 72.0591 89.279 72.8507 90.7007 74.2614ZM47.7026 41.4313H40.568V45.2378H47.7026V41.4295V41.4313ZM88.2717 41.4313H81.1362V45.2378H88.2709V41.4295L88.2717 41.4313ZM81.0969 39.4832C80.8926 37.7571 79.7229 35.5856 77.7454 35.5856H51.0937C49.116 35.5856 47.9462 37.7571 47.7422 39.4832H48.6759C48.934 39.4832 49.1815 39.5857 49.364 39.7682C49.5465 39.9507 49.649 40.1982 49.649 40.4563V42.348H79.19V40.4563C79.19 40.1982 79.2926 39.9507 79.4751 39.7682C79.6576 39.5857 79.9051 39.4832 80.1632 39.4832H81.0969ZM45.792 39.4832H42.4689C42.6562 37.0571 43.5559 34.8882 44.9049 33.3009C46.2902 31.6708 48.1523 30.6678 50.1848 30.6678H78.6539C80.6865 30.6678 82.5486 31.671 83.9339 33.3009C85.2829 34.8882 86.1828 37.0571 86.3698 39.4832H83.0468C82.9341 38.0489 82.3979 36.6804 81.506 35.5515C80.539 34.3682 79.2141 33.6392 77.7452 33.6392H51.0937C49.6248 33.6392 48.2999 34.3682 47.3328 35.5515C46.4409 36.6804 45.9046 38.0488 45.792 39.4832ZM64.4194 68.0715L68.9135 64.8066L67.1977 59.5261H61.6415L59.9257 64.8074L64.4194 68.0715ZM58.9451 61.5384L34.042 58.3998C33.993 58.3508 33.2406 58.3182 33.2406 57.8486V44.8339C33.2406 44.4873 33.6106 44.2943 33.9203 44.2943H38.6217V46.2091C38.6217 46.4672 38.7242 46.7148 38.9067 46.8973C39.0892 47.0798 39.3367 47.1823 39.5948 47.1823H48.6757C48.9338 47.1823 49.1814 47.0798 49.3639 46.8973C49.5464 46.7148 49.6489 46.4672 49.6489 46.2091V44.2943H79.1899V46.2091C79.1899 46.4672 79.2924 46.7148 79.4749 46.8973C79.6574 47.0798 79.9049 47.1823 80.163 47.1823H89.2433C89.5014 47.1823 89.749 47.0798 89.9315 46.8973C90.114 46.7148 90.2165 46.4672 90.2165 46.2091V44.2943H94.9178C95.2276 44.2943 95.5976 44.4873 95.5976 44.8339V57.8486C95.5976 58.2048 95.0787 58.3611 94.8001 58.396L69.8766 61.4886L68.8447 58.313C68.7912 58.1033 68.6695 57.9174 68.4987 57.7847C68.3279 57.6519 68.1177 57.5798 67.9014 57.5798L60.9353 57.5816C60.7302 57.5816 60.5304 57.6466 60.3645 57.7671C60.1986 57.8877 60.075 58.0576 60.0116 58.2527L58.944 61.5384H58.9451ZM59.6388 91.6426C55.1656 91.6426 50.6923 91.6423 46.2189 91.6417C46.0871 91.6429 45.9611 91.6958 45.8679 91.7889C45.7748 91.8821 45.7219 92.0081 45.7207 92.1399V93.2556C45.7219 93.3874 45.7748 93.5134 45.8679 93.6066C45.9611 93.6997 46.0871 93.7526 46.2189 93.7538H59.6099C59.7416 93.7526 59.8676 93.6997 59.9607 93.6065C60.0539 93.5133 60.1067 93.3873 60.1079 93.2556V92.1399C60.1068 92.0132 60.058 91.8916 59.9711 91.7994C59.8843 91.7072 59.7652 91.6512 59.6388 91.6426ZM63.9372 89.1111H73.3571C74.0199 89.8881 75.0466 90.8033 75.7946 91.5503C75.9281 91.6837 76.0976 91.7754 76.2824 91.814C76.4672 91.8527 76.6593 91.8367 76.8351 91.768L79.2927 90.8014C80.0674 91.2217 80.8836 91.5606 81.7282 91.8125L82.7489 94.1576C82.815 94.3492 82.9392 94.5153 83.1041 94.6329C83.2691 94.7505 83.4666 94.8138 83.6692 94.8138L87.0401 94.8112C87.229 94.8112 87.4138 94.756 87.5718 94.6525C87.7298 94.549 87.8542 94.4016 87.9297 94.2285L88.9816 91.8123C89.8262 91.5605 90.6424 91.2217 91.4171 90.8014L93.8156 91.7447C93.9967 91.8294 94.1996 91.8563 94.3965 91.8218C94.5934 91.7872 94.7749 91.6927 94.9163 91.5513L97.2988 89.1672C97.4323 89.0336 97.5239 88.8641 97.5626 88.6793C97.6013 88.4945 97.5853 88.3025 97.5165 88.1267L96.5499 85.6691C96.9703 84.8944 97.3091 84.0782 97.561 83.2335L99.9062 82.2128C100.098 82.1467 100.264 82.0223 100.382 81.8571C100.5 81.6918 100.563 81.4939 100.562 81.291L100.56 77.9201C100.56 77.7312 100.505 77.5464 100.401 77.3884C100.298 77.2304 100.15 77.106 99.977 77.0306L97.5609 75.9785C97.3091 75.1339 96.9703 74.3177 96.5499 73.5431L97.4932 71.1446C97.578 70.9635 97.6049 70.7607 97.5703 70.5637C97.5357 70.3668 97.4413 70.1853 97.2999 70.0439L95.0467 67.7906V60.3258C95.6863 60.2518 96.2879 59.9842 96.7711 59.5587C97.0142 59.3451 97.209 59.082 97.3423 58.7871C97.4757 58.4922 97.5446 58.1723 97.5446 57.8486V44.8339C97.5423 44.4971 97.4695 44.1645 97.3309 43.8575C97.1923 43.5505 96.9909 43.2759 96.7397 43.0515C96.2416 42.5982 95.592 42.3475 94.9184 42.3486H90.2171V40.4563C90.2171 40.1982 90.1146 39.9507 89.9321 39.7682C89.7496 39.5857 89.5021 39.4832 89.244 39.4832H88.3147C88.1212 36.5769 87.045 33.9627 85.4165 32.0465C83.6671 29.9883 81.2843 28.7214 78.6539 28.7214H50.1848C47.5546 28.7214 45.1717 29.9883 43.4225 32.0465C41.7938 33.9627 40.7177 36.5769 40.5238 39.4832H39.5945C39.3364 39.4832 39.0889 39.5857 38.9064 39.7682C38.7239 39.9507 38.6213 40.1982 38.6213 40.4563V42.348H33.9203C33.2469 42.3469 32.5973 42.5976 32.0992 43.0509C31.848 43.2753 31.6467 43.5499 31.5081 43.8569C31.3694 44.1639 31.2966 44.4965 31.2944 44.8333V57.848C31.2943 58.1721 31.3633 58.4925 31.4968 58.7878C31.6303 59.0831 31.8253 59.3466 32.0687 59.5605C32.5514 59.9862 33.1531 60.2533 33.7925 60.3258V76.907C32.2713 77.7019 30.9407 78.8173 29.8925 80.1764C28.8443 81.5355 28.1035 83.1059 27.7211 84.7791C27.3388 86.4523 27.3241 88.1886 27.678 89.868C28.0319 91.5475 28.746 93.1302 29.771 94.5069C30.796 95.8835 32.1075 97.0214 33.615 97.842C35.1225 98.6625 36.7901 99.1462 38.5027 99.2597C40.2153 99.3731 41.9321 99.1136 43.5346 98.4991C45.1372 97.8845 46.5873 96.9296 47.785 95.7001H59.6096C60.2575 95.699 60.8786 95.441 61.3368 94.9828C61.7949 94.5247 62.0528 93.9036 62.0539 93.2556V92.1399C62.0541 91.9369 62.0288 91.7348 61.9788 91.5381C62.3876 91.4201 62.766 91.215 63.0881 90.9369C63.3579 90.7161 63.5744 90.4372 63.7214 90.1211C63.8685 89.805 63.9421 89.4597 63.9372 89.1111ZM48.2467 89.6955C47.9405 89.6498 47.6043 89.6231 47.6043 89.1867V88.0703C47.6055 87.9386 47.6584 87.8126 47.7515 87.7195C47.8446 87.6264 47.9706 87.5735 48.1023 87.5723H61.4933C61.625 87.5735 61.751 87.6263 61.8442 87.7195C61.9374 87.8126 61.9902 87.9386 61.9915 88.0703V89.1862C61.9915 89.4481 61.502 89.6958 61.2616 89.6958C56.9236 89.6958 52.5849 89.6955 48.2467 89.6955ZM56.7798 72.714C56.9081 72.7471 57.018 72.8298 57.0853 72.9438C57.1526 73.0579 57.1719 73.1941 57.1389 73.3223L56.8657 74.404C56.8326 74.5322 56.7499 74.6421 56.6359 74.7094C56.5218 74.7767 56.3857 74.796 56.2574 74.7631L43.2747 71.4839C43.1464 71.4508 43.0366 71.3681 42.9692 71.254C42.9019 71.14 42.8826 71.0038 42.9156 70.8756L43.1888 69.7939C43.2219 69.6657 43.3046 69.5558 43.4187 69.4885C43.5328 69.4211 43.6689 69.4018 43.7972 69.4348L56.7798 72.714ZM44.2686 67.5496L57.2512 70.8277C57.8783 70.9877 58.4168 71.3893 58.749 71.9448C59.0812 72.5003 59.1802 73.1647 59.0244 73.7929L58.7511 74.8746C58.5911 75.5018 58.1895 76.0402 57.634 76.3724C57.0785 76.7046 56.4142 76.8036 55.7859 76.6479L42.8033 73.3691C42.1762 73.2091 41.6377 72.8075 41.3055 72.252C40.9733 71.6965 40.8743 71.0322 41.0301 70.4039L41.3034 69.3223C41.4634 68.6951 41.865 68.1567 42.4205 67.8244C42.976 67.4922 43.6403 67.3938 44.2686 67.5496ZM60.1134 85.6264C55.6552 85.6264 51.1899 85.6631 46.7326 85.6154C46.5998 85.6133 46.473 85.5598 46.3787 85.4663C46.2844 85.3727 46.23 85.2464 46.2268 85.1136V83.9977C46.2281 83.8661 46.2809 83.7404 46.3739 83.6473C46.4669 83.5543 46.5927 83.5014 46.7242 83.5H60.1152C60.2469 83.5012 60.3729 83.5541 60.466 83.6472C60.5591 83.7403 60.612 83.8663 60.6132 83.998V85.1139C60.6133 85.2502 60.5594 85.381 60.4635 85.4779C60.4178 85.5246 60.3633 85.5618 60.3032 85.5873C60.243 85.6129 60.1787 85.626 60.1134 85.6264ZM61.5124 81.5427C57.0554 81.5884 52.5862 81.5533 48.1279 81.5533C47.995 81.5484 47.8692 81.4923 47.7767 81.3968C47.6842 81.3013 47.6321 81.1738 47.6314 81.0408V79.9249C47.6326 79.7932 47.6855 79.6672 47.7787 79.5741C47.8719 79.481 47.9978 79.4281 48.1296 79.4269H61.5206C61.6523 79.4281 61.7783 79.481 61.8715 79.5741C61.9646 79.6672 62.0175 79.7932 62.0188 79.9249V81.0408C62.0156 81.1736 61.9612 81.3 61.8669 81.3936C61.7726 81.4871 61.6452 81.5405 61.5124 81.5427ZM46.5705 78.0446C47.0082 77.68 47.5599 77.4805 48.1296 77.4809H61.5206C62.1685 77.482 62.7896 77.74 63.2477 78.1981C63.7059 78.6563 63.9638 79.2773 63.9649 79.9252V81.0411C63.964 81.5235 63.8202 81.9947 63.5518 82.3954C63.2834 82.7962 62.9024 83.1085 62.4567 83.2929C62.5258 83.5216 62.5608 83.7592 62.5606 83.998V85.1139C62.5605 85.3545 62.5246 85.5938 62.454 85.8238C63.0501 86.0807 63.5206 86.5625 63.7632 87.1645H73.5716L74.1601 85.6683C73.7397 84.8936 73.4009 84.0774 73.1491 83.2328L70.733 82.1807C70.5598 82.1053 70.4124 81.9809 70.3089 81.8229C70.2054 81.6649 70.1503 81.4802 70.1503 81.2913L70.1475 77.9204C70.1475 77.7178 70.2108 77.5202 70.3284 77.3552C70.4461 77.1903 70.6122 77.0661 70.8038 77.0001L73.149 75.9794C73.4008 75.1347 73.7397 74.3185 74.1601 73.5439L73.1935 71.0863C73.1248 70.9104 73.1087 70.7184 73.1474 70.5336C73.1861 70.3488 73.2777 70.1793 73.4112 70.0457L75.7937 67.6611C75.9351 67.5197 76.1166 67.4253 76.3135 67.3907C76.5104 67.3561 76.7132 67.3829 76.8944 67.4676L79.2929 68.4111C80.0675 67.9906 80.8837 67.6517 81.7284 67.4L82.7795 64.984C82.855 64.8108 82.9794 64.6634 83.1374 64.5599C83.2954 64.4564 83.4802 64.4013 83.6691 64.4013L87.04 64.3985C87.2426 64.3985 87.4402 64.4618 87.6052 64.5794C87.7701 64.6971 87.8943 64.8632 87.9603 65.0548L88.981 67.4C89.8256 67.6519 90.6418 67.9908 91.4165 68.4111L93.0998 67.749V60.5675L70.4898 63.3731L70.9787 64.8778C71.0422 65.0731 71.0421 65.2835 70.9786 65.4788C70.915 65.6741 70.7912 65.8442 70.625 65.9648L64.9902 70.0596C64.8214 70.182 64.6177 70.2468 64.4093 70.2446C64.2008 70.2424 63.9986 70.1732 63.8324 70.0473L58.2135 65.9645C58.0422 65.8403 57.916 65.6636 57.8542 65.4612C57.7924 65.2588 57.7984 65.0418 57.8712 64.8431L58.3351 63.4151L35.7385 60.5678V76.0974C37.5669 75.5218 39.5075 75.3983 41.3941 75.7374C43.2807 76.0765 45.0571 76.8682 46.5705 78.0446ZM45.7882 81.7404C45.7198 81.5135 45.6851 81.2778 45.6851 81.0408C45.6851 80.6426 45.6712 80.2231 45.687 79.8276C44.2644 78.63 42.5339 77.8565 40.6928 77.5951C38.8517 77.3338 36.9742 77.5951 35.2745 78.3494C33.5748 79.1038 32.1214 80.3206 31.0799 81.8612C30.0385 83.4018 29.4511 85.2041 29.3847 87.0624C29.3183 88.9208 29.7755 90.7604 30.7042 92.3714C31.633 93.9824 32.9959 95.3 34.6374 96.1737C36.2788 97.0474 38.1329 97.4422 39.9879 97.313C41.843 97.1838 43.6244 96.5357 45.1289 95.4428C44.7227 95.2394 44.381 94.9273 44.1419 94.5411C43.9027 94.155 43.7755 93.71 43.7744 93.2558V92.14C43.7756 91.5781 43.9698 91.0337 44.3245 90.5979C44.6792 90.1621 45.1728 89.8614 45.7227 89.7461C45.6796 89.5627 45.6578 89.3749 45.658 89.1865V88.0703C45.6576 87.8276 45.6935 87.5863 45.7646 87.3543C45.325 87.1669 44.95 86.8546 44.6861 86.4562C44.4222 86.0577 44.281 85.5906 44.28 85.1127V83.9968C44.2812 83.5138 44.425 83.042 44.6933 82.6404C44.9616 82.2389 45.3425 81.9264 45.7882 81.7404Z" fill="white"/>
<path d="M38.6522 94L35 88.916V88.2381H35.4251C36.4557 88.2381 37.2415 88.12 37.7826 87.8838C38.3366 87.6475 38.6586 87.2213 38.7488 86.605H35V85.619H38.7295C38.6006 85.0439 38.2593 84.6279 37.7053 84.3711C37.1643 84.1144 36.4042 83.986 35.4251 83.986H35V83H43V83.986H39.3478C39.9662 84.3866 40.3333 84.9309 40.4493 85.619H43V86.605H40.4879C40.3977 87.3548 40.037 87.9402 39.4058 88.3613C38.7874 88.7722 37.963 89.0341 36.9324 89.1471L40.6232 94H38.6522Z" fill="white"/>
</svg>
