<?xml version="1.0" encoding="UTF-8"?>
<svg id="Layer_1" xmlns="http://www.w3.org/2000/svg" xmlns:xlink="http://www.w3.org/1999/xlink" version="1.1" viewBox="0 0 1080 364.1">
  <!-- Generator: Adobe Illustrator 30.3.0, SVG Export Plug-In . SVG Version: 2.1.3 Build 182)  -->
  <defs>
    <style>
      .st0 {
        fill: #231f20;
      }

      .st1 {
        fill: url(#linear-gradient);
      }
    </style>
    <linearGradient id="linear-gradient" x1="219.32" y1="108.91" x2="182.18" y2="230.38" gradientUnits="userSpaceOnUse">
      <stop offset="0" stop-color="#005cff"/>
      <stop offset=".5" stop-color="#003ac7"/>
      <stop offset="1" stop-color="#001b94"/>
    </linearGradient>
  </defs>
  <g>
    <path class="st0" d="M507.27,158.24c8.07-4.28,14.38-10.34,18.91-18.16,4.54-7.82,6.81-17.12,6.81-27.89s-2.27-19.89-6.81-27.66c-4.54-7.78-10.85-13.81-18.91-18.09-8.07-4.28-17.38-6.43-27.92-6.43h-45.53v104.67h45.53c10.54,0,19.85-2.14,27.92-6.43ZM461.05,141.04v-57.41h16.92c5.59,0,10.43,1.14,14.51,3.44,4.08,2.29,7.27,5.56,9.56,9.79,2.29,4.24,3.44,9.4,3.44,15.48s-1.15,10.99-3.44,15.33c-2.29,4.34-5.48,7.65-9.56,9.94-4.08,2.3-8.92,3.44-14.51,3.44h-16.92Z"/>
    <polygon class="st0" points="572.47 110.69 597.09 154.35 609.2 154.35 634 109.14 634.24 164.67 659.27 164.67 659.13 60 636.71 60 603.63 120.48 569.86 60 547.44 60 547.44 164.67 572.47 164.67 572.47 110.69"/>
    <rect class="st0" x="678.67" y="60" width="27.24" height="104.67"/>
    <polygon class="st0" points="433.81 308.81 461.05 308.81 461.05 272.93 503.42 272.93 503.42 250.05 461.05 250.05 461.05 227.17 509.19 227.17 509.19 204.15 433.81 204.15 433.81 308.81"/>
    <rect class="st0" x="516.62" y="204.15" width="27.24" height="104.67"/>
    <polygon class="st0" points="622.54 259.89 580.17 204.15 557.75 204.15 557.75 308.81 584.3 308.81 584.3 253.03 626.81 308.81 649.23 308.81 649.23 204.15 622.54 204.15 622.54 259.89"/>
    <path class="st0" d="M693.94,204.15l-42.51,104.67h27.79l7.56-20.49h40.72l7.56,20.49h28.34l-42.64-104.67h-26.82ZM694.78,266.65l12.36-33.47,12.36,33.47h-24.71Z"/>
    <polygon class="st0" points="830.53 259.89 788.17 204.15 765.74 204.15 765.74 308.81 792.29 308.81 792.29 253.03 834.8 308.81 857.22 308.81 857.22 204.15 830.53 204.15 830.53 259.89"/>
    <path class="st0" d="M901.04,234.72c2.34-2.64,5.16-4.66,8.46-6.06,3.3-1.39,6.92-2.09,10.87-2.09,4.49,0,8.62,1.05,12.38,3.14,3.76,2.09,7.2,5.14,10.32,9.12l17.33-17.05c-4.68-6.48-10.52-11.38-17.54-14.73-7.02-3.34-14.97-5.01-23.87-5.01-7.61,0-14.63,1.32-21.05,3.96-6.42,2.64-12.01,6.38-16.78,11.21-4.77,4.84-8.48,10.59-11.14,17.27-2.66,6.68-3.99,14.01-3.99,21.98s1.33,15.31,3.99,21.98c2.66,6.68,6.37,12.43,11.14,17.27,4.77,4.83,10.36,8.57,16.78,11.21,6.42,2.64,13.43,3.96,21.05,3.96,8.89,0,16.85-1.7,23.87-5.09,7.01-3.39,12.86-8.32,17.54-14.8l-17.33-17.05c-3.12,4.09-6.56,7.18-10.32,9.27-3.76,2.09-7.89,3.14-12.38,3.14-3.94,0-7.57-.7-10.87-2.09-3.3-1.39-6.12-3.41-8.46-6.05-2.34-2.64-4.17-5.81-5.5-9.5-1.33-3.69-1.99-7.78-1.99-12.26s.66-8.57,1.99-12.26c1.33-3.69,3.16-6.85,5.5-9.5Z"/>
    <polygon class="st0" points="993.96 285.79 993.96 266.65 1036.74 266.65 1036.74 244.67 993.96 244.67 993.96 227.17 1042.52 227.17 1042.52 204.15 967.13 204.15 967.13 308.81 1044.3 308.81 1044.3 285.79 993.96 285.79"/>
  </g>
  <path class="st1" d="M362.54,130.67c-18.62-28.72-49.21-46.92-79.18-61.32C212.45,36.51,132.12,22.55,55.73,23.59c.09.02.19.02.28.03.05,0,.08.02.13.02.06,0,.11.02.17.02.22.03.44.06.66.09.27.02.52.05.79.09,17.31,2.27,141.25,20.22,229.98,82.22,5.98,4.33,11.82,8.86,17.51,13.58,5.07,4.28,9.46,9.24,13.52,14.48,1.21,1.57,2.38,3.18,3.51,4.8-.06.02-.11.02-.17.03.63.82,1.24,1.65,1.86,2.49,14.74,22.63,20.17,49.71,2.96,72.75-14.26,19.92-39.61,34.02-62.65,44.14-5.52,2.22-10.92,4.2-16.04,5.98-25.48,8.34-51.47,14.51-77.77,19.09l-.28.05c-16.15,2.72-32.23,4.85-47.68,6.48h-.05c-7.3.77-14.46,1.45-21.42,2.01-6.39.52-12.62.96-18.62,1.32-2.8.19-5.54.33-8.21.49h-.02c-.44.02-.87.03-1.29.06l12.12-37.74,14.85-46.34,5.11-15.94,1.13-3.52s-.06.02-.09.03l1.7-5.32,1.95-6.09-7.49,2.05-39.39,10.73-26.61,84.88s.06-.03.09-.05l-21.59,68.86h1.73c1.97,0,3.93-.02,5.9-.03,4.58-.03,9.17-.13,13.75-.27,3.12-.08,6.22-.19,9.33-.33,1.27-.05,2.55-.11,3.84-.17,1.32-.06,2.66-.13,3.98-.21,1.1-.05,2.2-.11,3.3-.19,4.34-.25,8.69-.54,13.05-.87,3.83-.29,7.66-.62,11.49-.97.48-.04.96-.09,1.43-.13,3.67-.34,7.34-.71,11.01-1.1.07,0,.14-.01.2-.02,0,0,0,0,0,0,40.03-4.29,79.87-11.65,118.87-21.31,10.42-2.69,20.83-5.62,31.14-8.92,28.04-7.95,55.11-18.8,79.83-34.12,19.1-12.15,37.2-28.34,47.59-49.03,16.38-31.14,10.56-68.83-8.62-97.03ZM202.08,267.13c17.15-3.97,33-8.65,47.27-13.96l28.57-90.18-46.89,12.76-28.95,91.37ZM178.82,168.27l-3.87,12.2-4.83,15.3h-.02l-25.78,81.4c15.74-1.9,30.83-4.34,45.13-7.25h.02l27.52-86.91,4.85-15.3,4.97-15.72,1.73-5.44-46.89,12.76-2.83,8.97ZM288.3,130.26l-46.89,12.76-6.81,21.2,46.89-12.76,6.81-21.2ZM117.66,188.99l-2.45,7.74-2.6,8.21-2.23,7.08h-.02l-22,69.44c15.01-.54,29.65-1.54,43.81-2.97l25.1-79.25,3.35-10.59,1.48-4.69h.02l3.56-11.25,3.15-9.93-46.91,12.78-4.25,13.42Z"/>
</svg>