<svg xmlns="http://www.w3.org/2000/svg" viewBox="0 0 217.81 69.94"><defs><style>.cls-1{fill:#383535;}.cls-2{fill:#1ca0d0;}.cls-3{fill:#f7fafc;}.cls-4{isolation:isolate;}</style></defs><g id="Layer_2" data-name="Layer 2"><g id="Layer_1-2" data-name="Layer 1"><path class="cls-1" d="M101.68,41.14a10.57,10.57,0,1,1-.18-12.23l-4,3.3a5.07,5.07,0,0,0-4.27-2.43,5.45,5.45,0,0,0,0,10.88,5.05,5.05,0,0,0,4.26-2.42Z"></path><path class="cls-1" d="M117.7,24.72h-2.82l-10.46,21H110l1.2-2.71,9.36,0,1.14,2.67h5.46Zm-4.32,13.87L116,33.31l2.6,5.28Z"></path><path class="cls-1" d="M191.49,24.72h-2.81l-10.47,21h5.56L185,43l9.35,0,1.14,2.67h5.47Zm-4.31,13.87,2.63-5.28,2.59,5.28Z"></path><path class="cls-1" d="M140.86,25.09H130.8V45.73h5.58V39.55h4.35a7.09,7.09,0,0,0,7.08-7.09v-.41A7,7,0,0,0,140.86,25.09Zm1.46,7.55a2.76,2.76,0,0,1-2.76,2.76h-3.18V29.69h3.45a2.48,2.48,0,0,1,2.49,2.49Z"></path><rect class="cls-1" x="151.27" y="25.09" width="5.53" height="20.63"></rect><rect class="cls-1" x="204.83" y="25.09" width="5.53" height="20.63"></rect><rect class="cls-1" x="166.57" y="25.09" width="5.53" height="20.63"></rect><rect class="cls-1" x="160.46" y="25.09" width="17.75" height="4.96"></rect><rect class="cls-1" x="204.83" y="40.4" width="12.14" height="5.32"></rect><circle class="cls-2" cx="34.97" cy="34.97" r="34.97"></circle><path class="cls-3" d="M54.79,42.84c-1.94,0-3.87,0-6.85,0,3.43-5.68,6.31-10.33,9.08-15.06s.38-9.4-4.91-9.49q-16.44-.28-32.91,0c-4.93.1-8.34,3.77-8.5,8.7-.17,5.34-.18,10.71,0,16a8.58,8.58,0,0,0,8.6,8.6c11.87.19,23.75.08,35.62.08,3,0,4.48-1.79,4.45-4.48S57.71,42.9,54.79,42.84Zm-17.34-.21L21,42.83V39h8.94a4,4,0,0,0,0-8.07H21V27.14H46.7Z"></path><g class="cls-4"><path class="cls-2" d="M85.93,61.37a3.91,3.91,0,0,1-1.51-.29,3.74,3.74,0,0,1-1.2-.81,3.78,3.78,0,0,1-.79-1.22,4.4,4.4,0,0,1,0-3.09,3.78,3.78,0,0,1,.79-1.22,3.74,3.74,0,0,1,1.2-.81,4.22,4.22,0,0,1,3.51.2,3.85,3.85,0,0,1,1.33,1.33l-1.06.79a2.84,2.84,0,0,0-.88-.94A2.47,2.47,0,0,0,86,55a2.3,2.3,0,0,0-1,.2,2.22,2.22,0,0,0-.74.53,2.33,2.33,0,0,0-.47.81,3.09,3.09,0,0,0,0,2,2.29,2.29,0,0,0,.47.8,2.22,2.22,0,0,0,.74.53,2.3,2.3,0,0,0,1,.2,2.47,2.47,0,0,0,1.36-.35,2.84,2.84,0,0,0,.88-.94l1.06.79a3.66,3.66,0,0,1-3.33,1.82Z"></path><path class="cls-2" d="M92.9,58.22H91.72v3H90.3V53.79h3.3a3.12,3.12,0,0,1,1,.15,2.31,2.31,0,0,1,.78.45,1.89,1.89,0,0,1,.51.7,2.25,2.25,0,0,1,.18.92,2.06,2.06,0,0,1-.45,1.36,2.16,2.16,0,0,1-1.18.75l2.4,3.07v0h-1.7ZM93.45,57a1.19,1.19,0,0,0,.85-.26,1,1,0,0,0,0-1.43,1.23,1.23,0,0,0-.85-.25H91.72V57Z"></path><path class="cls-2" d="M97.6,53.79H99v7.43H97.6Z"></path><path class="cls-2" d="M103.15,61.37a4.06,4.06,0,0,1-1.15-.15,3.8,3.8,0,0,1-.89-.39,3.3,3.3,0,0,1-.67-.54,4.92,4.92,0,0,1-.47-.6l.93-.91a4.2,4.2,0,0,0,.37.49,2.53,2.53,0,0,0,.5.42,2.59,2.59,0,0,0,.63.29,2.35,2.35,0,0,0,.77.11,1.56,1.56,0,0,0,1-.3.91.91,0,0,0,.36-.73.78.78,0,0,0-.28-.61,1.69,1.69,0,0,0-.92-.35l-.65-.1a3.86,3.86,0,0,1-.89-.25,2.48,2.48,0,0,1-.7-.45,2,2,0,0,1-.45-.62,2,2,0,0,1-.15-.78,2.25,2.25,0,0,1,.18-.89,2.2,2.2,0,0,1,.54-.72,2.64,2.64,0,0,1,.84-.48,3.56,3.56,0,0,1,1.12-.17,3.32,3.32,0,0,1,1.54.34,3,3,0,0,1,1.09.86l-.91.94a2.35,2.35,0,0,0-.8-.65,2.2,2.2,0,0,0-.95-.21,1.35,1.35,0,0,0-.87.25.73.73,0,0,0-.07,1.14,1.37,1.37,0,0,0,.73.3l.64.1a3.39,3.39,0,0,1,1.79.73A1.94,1.94,0,0,1,106,59a2.27,2.27,0,0,1-.21,1,2.06,2.06,0,0,1-.59.76,2.58,2.58,0,0,1-.91.5A3.89,3.89,0,0,1,103.15,61.37Z"></path><path class="cls-2" d="M107.2,53.79h1.42v7.43H107.2Z"></path><path class="cls-2" d="M110.24,53.79h1.42V60h3.59v1.25h-5Z"></path><path class="cls-2" d="M121.17,58.22H120v3h-1.42V53.79h3.3a3.12,3.12,0,0,1,1,.15,2.31,2.31,0,0,1,.78.45,1.89,1.89,0,0,1,.51.7,2.25,2.25,0,0,1,.18.92,2.11,2.11,0,0,1-.44,1.36,2.19,2.19,0,0,1-1.19.75l2.41,3.07v0H123.4Zm.55-1.24a1.23,1.23,0,0,0,.86-.26,1,1,0,0,0,0-1.43,1.28,1.28,0,0,0-.86-.25H120V57Z"></path><path class="cls-2" d="M129.65,60.57a2.27,2.27,0,0,1-.76.57,2.29,2.29,0,0,1-1,.21,2.74,2.74,0,0,1-1.08-.21,2.36,2.36,0,0,1-.86-.59,2.91,2.91,0,0,1-.57-.93,3.53,3.53,0,0,1-.2-1.21,3.57,3.57,0,0,1,.2-1.21,2.8,2.8,0,0,1,.57-.93,2.49,2.49,0,0,1,.86-.59,2.58,2.58,0,0,1,1.08-.22,2.16,2.16,0,0,1,1,.22,2.57,2.57,0,0,1,.76.57v-.66H131v5.63h-1.39Zm-1.45-.45a1.77,1.77,0,0,0,.87-.23,1.34,1.34,0,0,0,.58-.62V57.55a1.36,1.36,0,0,0-.58-.63,1.76,1.76,0,0,0-.87-.22,1.69,1.69,0,0,0-.64.11,1.56,1.56,0,0,0-.5.33,1.46,1.46,0,0,0-.34.55,2.06,2.06,0,0,0,0,1.44,1.5,1.5,0,0,0,.34.54,1.56,1.56,0,0,0,.5.33A1.69,1.69,0,0,0,128.2,60.12Z"></path><path class="cls-2" d="M134.84,61.28a2.11,2.11,0,0,1-1.55-.52,2.39,2.39,0,0,1-.51-1.69V56.71h-.94V55.59h1V54.16h1.34v1.43h1.3v1.12h-1.3v2.42a.94.94,0,0,0,.26.76,1.21,1.21,0,0,0,.78.22h.26v1.11A3,3,0,0,1,134.84,61.28Z"></path><path class="cls-2" d="M136.37,53.2h1.42v1.44h-1.42Zm0,2.39h1.39v5.63h-1.39Z"></path><path class="cls-2" d="M139.1,55.59h1.39v.79a1.85,1.85,0,0,1,.68-.65,2.06,2.06,0,0,1,1.1-.27,2.33,2.33,0,0,1,.95.18,1.87,1.87,0,0,1,.67.5,2.38,2.38,0,0,1,.39.78,3.44,3.44,0,0,1,.13,1v3.31H143V58.06c0-.91-.41-1.36-1.24-1.36a1.21,1.21,0,0,0-.85.3,1.41,1.41,0,0,0-.44.68v3.54H139.1Z"></path><path class="cls-2" d="M147.92,60.84a3,3,0,0,1-1.07-.19,2.28,2.28,0,0,1-.81-.55,2.5,2.5,0,0,1-.51-.85,3.13,3.13,0,0,1-.18-1.1,3.21,3.21,0,0,1,.18-1.1,2.5,2.5,0,0,1,.51-.85,2.28,2.28,0,0,1,.81-.55,3,3,0,0,1,1.07-.19,2,2,0,0,1,1,.22,2.44,2.44,0,0,1,.73.57v-.66H151v4.67a3.22,3.22,0,0,1-.25,1.33,2.59,2.59,0,0,1-.65.92,2.66,2.66,0,0,1-1,.55,3.38,3.38,0,0,1-1.1.18,4.28,4.28,0,0,1-.92-.09,3.57,3.57,0,0,1-.74-.25,2.38,2.38,0,0,1-.55-.36,2.67,2.67,0,0,1-.39-.44l.84-.87a2.25,2.25,0,0,0,.67.6,2.14,2.14,0,0,0,1,.22,2,2,0,0,0,.6-.09,1.78,1.78,0,0,0,.52-.29,1.57,1.57,0,0,0,.37-.52,2.05,2.05,0,0,0,.14-.78v-.31a2.26,2.26,0,0,1-.73.56A2,2,0,0,1,147.92,60.84Zm.34-1.19a1.49,1.49,0,0,0,.81-.22,1.31,1.31,0,0,0,.55-.59V57.47a1.38,1.38,0,0,0-.55-.6,1.58,1.58,0,0,0-.81-.22,1.5,1.5,0,1,0,0,3Z"></path><path class="cls-2" d="M152.23,55.59h1.64v1.63h-1.64Zm0,4h1.64v1.63h-1.64Z"></path><path class="cls-2" d="M157.61,53.79h3.07a2.72,2.72,0,0,1,1.77.52,1.75,1.75,0,0,1,.65,1.46,1.71,1.71,0,0,1-.85,1.48,2.27,2.27,0,0,1,1,.65,1.77,1.77,0,0,1,.39,1.2,1.92,1.92,0,0,1-.68,1.57,3.1,3.1,0,0,1-2,.55h-3.38Zm2.88,3.06a1.26,1.26,0,0,0,.89-.26,1,1,0,0,0,0-1.36,1.26,1.26,0,0,0-.89-.26H159v1.88Zm.45,3.19a1.44,1.44,0,0,0,.95-.26.93.93,0,0,0,.31-.75.91.91,0,0,0-.31-.74,1.44,1.44,0,0,0-.95-.26H159v2Z"></path><path class="cls-2" d="M164.8,53.79h3.07a2.74,2.74,0,0,1,1.77.52,1.77,1.77,0,0,1,.65,1.46,1.62,1.62,0,0,1-.22.84,1.68,1.68,0,0,1-.63.64,2.19,2.19,0,0,1,1,.65,1.72,1.72,0,0,1,.4,1.2,1.9,1.9,0,0,1-.69,1.57,3.05,3.05,0,0,1-2,.55H164.8Zm2.88,3.06a1.23,1.23,0,0,0,.88-.26,1,1,0,0,0,0-1.36,1.23,1.23,0,0,0-.88-.26h-1.46v1.88Zm.45,3.19a1.46,1.46,0,0,0,1-.26,1,1,0,0,0,.3-.75.94.94,0,0,0-.3-.74,1.46,1.46,0,0,0-1-.26h-1.91v2Z"></path><path class="cls-2" d="M172,53.79h3.07a2.75,2.75,0,0,1,1.78.52,1.77,1.77,0,0,1,.65,1.46,1.62,1.62,0,0,1-.22.84,1.76,1.76,0,0,1-.63.64,2.19,2.19,0,0,1,1,.65,1.77,1.77,0,0,1,.4,1.2,1.9,1.9,0,0,1-.69,1.57,3.05,3.05,0,0,1-2,.55H172Zm2.89,3.06a1.23,1.23,0,0,0,.88-.26,1,1,0,0,0,0-1.36,1.23,1.23,0,0,0-.88-.26H173.4v1.88Zm.45,3.19a1.46,1.46,0,0,0,1-.26,1,1,0,0,0,.3-.75.94.94,0,0,0-.3-.74,1.46,1.46,0,0,0-1-.26H173.4v2Z"></path><path class="cls-2" d="M179,57.35h3.19v1.12H179Z"></path><path class="cls-2" d="M188.39,61.37a4.06,4.06,0,0,1-1.15-.15,3.8,3.8,0,0,1-.89-.39,3.23,3.23,0,0,1-.66-.54,4.2,4.2,0,0,1-.48-.6l.93-.91a4.3,4.3,0,0,0,.38.49,2.28,2.28,0,0,0,.5.42,2.48,2.48,0,0,0,1.39.4,1.6,1.6,0,0,0,1.05-.3.93.93,0,0,0,.35-.73.8.8,0,0,0-.27-.61,1.69,1.69,0,0,0-.93-.35L188,58a4,4,0,0,1-.9-.25,2.42,2.42,0,0,1-.69-.45,1.71,1.71,0,0,1-.45-.62,1.85,1.85,0,0,1-.16-.78A2.09,2.09,0,0,1,186,55a2.17,2.17,0,0,1,.53-.72,2.69,2.69,0,0,1,.85-.48,3.51,3.51,0,0,1,1.12-.17A3.35,3.35,0,0,1,190,54a3,3,0,0,1,1.08.86l-.91.94a2.41,2.41,0,0,0-.79-.65,2.24,2.24,0,0,0-1-.21,1.3,1.3,0,0,0-.86.25.73.73,0,0,0-.32.59.7.7,0,0,0,.25.55,1.33,1.33,0,0,0,.73.3l.63.1a3.39,3.39,0,0,1,1.79.73,1.91,1.91,0,0,1,.64,1.52,2.27,2.27,0,0,1-.21,1,2.3,2.3,0,0,1-.59.76,2.77,2.77,0,0,1-.91.5A4,4,0,0,1,188.39,61.37Z"></path><path class="cls-2" d="M194.64,61.28a2.07,2.07,0,0,1-1.54-.52,2.34,2.34,0,0,1-.52-1.69V56.71h-.94V55.59h1V54.16H194v1.43h1.3v1.12H194v2.42a.94.94,0,0,0,.26.76,1.21,1.21,0,0,0,.78.22h.26v1.11A3,3,0,0,1,194.64,61.28Z"></path><path class="cls-2" d="M200.29,60.57a2.37,2.37,0,0,1-.76.57,2.33,2.33,0,0,1-1,.21,2.79,2.79,0,0,1-1.09-.21,2.41,2.41,0,0,1-.85-.59,2.91,2.91,0,0,1-.57-.93,3.53,3.53,0,0,1-.2-1.21,3.57,3.57,0,0,1,.2-1.21,2.8,2.8,0,0,1,.57-.93,2.55,2.55,0,0,1,.85-.59,2.62,2.62,0,0,1,1.09-.22,2.19,2.19,0,0,1,1,.22,2.71,2.71,0,0,1,.76.57v-.66h1.39v5.63h-1.39Zm-1.45-.45a1.7,1.7,0,0,0,.86-.23,1.31,1.31,0,0,0,.59-.62V57.55a1.33,1.33,0,0,0-.59-.63,1.84,1.84,0,0,0-1.5-.11,1.72,1.72,0,0,0-.51.33,1.58,1.58,0,0,0-.33.55,2.06,2.06,0,0,0,0,1.44,1.63,1.63,0,0,0,.33.54,1.72,1.72,0,0,0,.51.33A1.69,1.69,0,0,0,198.84,60.12Z"></path><path class="cls-2" d="M204.4,61.22H203V53.46h1.39v2.79a2.4,2.4,0,0,1,.75-.57,2.21,2.21,0,0,1,1-.22,2.7,2.7,0,0,1,1.94.81,2.63,2.63,0,0,1,.56.93,3.34,3.34,0,0,1,.21,1.21,3.3,3.3,0,0,1-.21,1.21,2.72,2.72,0,0,1-.56.93,2.45,2.45,0,0,1-.86.59,2.74,2.74,0,0,1-1.08.21,2.34,2.34,0,0,1-1-.21,2.14,2.14,0,0,1-.75-.57Zm1.45-1.1a1.61,1.61,0,0,0,.63-.12,1.5,1.5,0,0,0,.51-.33,1.66,1.66,0,0,0,.34-.54,2.06,2.06,0,0,0,0-1.44,1.6,1.6,0,0,0-.34-.55,1.5,1.5,0,0,0-.51-.33,1.61,1.61,0,0,0-.63-.11,1.76,1.76,0,0,0-.87.22,1.36,1.36,0,0,0-.58.63v1.72a1.34,1.34,0,0,0,.58.62A1.77,1.77,0,0,0,205.85,60.12Z"></path><path class="cls-2" d="M209.87,53.46h1.39v7.76h-1.39Z"></path><path class="cls-2" d="M215.24,61.36a3.21,3.21,0,0,1-1.23-.23,2.79,2.79,0,0,1-1.53-1.56,3.32,3.32,0,0,1,0-2.35,2.83,2.83,0,0,1,.59-.94,2.59,2.59,0,0,1,.89-.6,2.81,2.81,0,0,1,1.13-.22,3.1,3.1,0,0,1,1.12.2,2.54,2.54,0,0,1,.85.57,2.57,2.57,0,0,1,.55.88,3,3,0,0,1,.19,1.11c0,.09,0,.2,0,.32s0,.24,0,.35h-4.08a1.53,1.53,0,0,0,.51.92,1.68,1.68,0,0,0,1.13.35,1.71,1.71,0,0,0,.93-.25,2.12,2.12,0,0,0,.67-.58l.76.91a3.33,3.33,0,0,1-1,.8A3.11,3.11,0,0,1,215.24,61.36Zm-.14-4.75a1.41,1.41,0,0,0-.9.29,1.6,1.6,0,0,0-.51.86h2.75a1.26,1.26,0,0,0-.41-.86A1.46,1.46,0,0,0,215.1,56.61Z"></path></g></g></g></svg>