<svg xmlns="http://www.w3.org/2000/svg" xml:space="preserve" width="139" height="27" style="shape-rendering:geometricPrecision;text-rendering:geometricPrecision;image-rendering:optimizeQuality;fill-rule:evenodd;clip-rule:evenodd" viewBox="0 0 58.28 11.3"><defs><style>.fil0{fill:#fff}</style></defs><g id="Layer_x0020_1"><g id="_2161160466496"><path class="fil0" d="M3.56 5.22c-.4 0-.81.01-1.21.01-.06.46-.12.92-.19 1.38C1.45 7.33.72 8.05 0 8.78c.17-1.26.34-2.5.51-3.74.17-1.22.34-2.44.5-3.65C1.11.7 1.64.13 2.24.03 3.34.02 4.43.02 5.52.01 6.61.01 7.69 0 8.78 0L7.19 1.59c-.73 0-1.45 0-2.18.01H2.82c-.08.67-.17 1.33-.26 2h1.32c.43-.01.87-.01 1.31-.01-.54.54-1.09 1.08-1.63 1.63zM3.65 7.42c.74 0 1.48-.01 2.22-.01.74-.01 1.47-.02 2.21-.02-.01.14-.03.28-.05.42-.16.68-.74 1.22-1.36 1.22l-3.27.03-3.28.03 4.46-4.46C6.03 3.17 7.47 1.73 8.9.31c-.08.68-.15 1.35-.23 2.03-.82.84-1.65 1.68-2.49 2.52-.83.85-1.68 1.7-2.53 2.56zM10.62 8.92h1.56V4.96h4.04V3.68h-4.04V1.35h4.6V0h-6.16v8.92zm7.25 0h1.42V2.46h-1.42v6.46zm0-7.57h1.42V0h-1.42v1.35zm2.97 7.57h1.42V5.11c0-.95.61-1.7 1.56-1.7.84 0 1.24.44 1.26 1.45v4.06h1.43V4.48c0-1.45-.89-2.19-2.29-2.19-.85 0-1.58.43-2.01 1.14l-.02-.02v-.95h-1.35v6.46zm11.15-2.18c0 .9-.97 1.23-1.6 1.23-.5 0-1.31-.19-1.31-.83 0-.75.55-.97 1.16-1.07.63-.11 1.31-.1 1.75-.39v1.06zm1.43-2.58c0-1.36-1.33-1.87-2.59-1.87-1.42 0-2.84.48-2.94 2.14h1.43c.06-.7.62-1.02 1.42-1.02.58 0 1.34.14 1.34.87 0 .84-.91.73-1.94.92-1.2.13-2.48.4-2.48 2.01 0 1.26 1.05 1.88 2.21 1.88.76 0 1.67-.24 2.23-.78.12.58.53.78 1.1.78.24 0 .69-.09.9-.16v-.99c-.15.03-.26.03-.35.03-.26 0-.33-.14-.33-.49V4.16zM34.99 8.92h1.42V0h-1.42v8.92zm8.83-2.86c.24-1.94-1.01-3.77-3.05-3.77-1.92 0-3.12 1.57-3.12 3.41 0 1.98 1.14 3.39 3.16 3.39 1.41 0 2.61-.78 2.92-2.2h-1.35c-.25.72-.75 1.08-1.57 1.08-1.19 0-1.74-.9-1.74-1.91h4.75zm-4.75-.94c.04-.96.71-1.71 1.7-1.71.96 0 1.58.81 1.62 1.71h-3.32zm9.82 1.62c0 .9-.97 1.23-1.6 1.23-.5 0-1.31-.19-1.31-.83 0-.75.55-.97 1.16-1.07.63-.11 1.31-.1 1.75-.39v1.06zm1.42-2.58c0-1.36-1.32-1.87-2.58-1.87-1.43 0-2.84.48-2.94 2.14h1.43c.06-.7.62-1.02 1.42-1.02.58 0 1.34.14 1.34.87 0 .84-.91.73-1.94.92-1.2.13-2.48.4-2.48 2.01 0 1.26 1.04 1.88 2.21 1.88.76 0 1.67-.24 2.23-.78.11.58.53.78 1.1.78.24 0 .69-.09.9-.16v-.99c-.15.03-.26.03-.35.03-.26 0-.34-.14-.34-.49V4.16zm6.55 1.54c0 1.12-.49 2.27-1.79 2.27-1.15 0-1.81-.98-1.81-2.27 0-1.38.61-2.29 1.81-2.29 1.18 0 1.79 1.11 1.79 2.29zm-4.97 5.6h1.42V8.08h.03c.45.71 1.33 1.01 2.16 1.01 1.91 0 2.78-1.63 2.78-3.37 0-1.89-.99-3.43-3.02-3.43-.83 0-1.6.31-2 1.04h-.02v-.87h-1.35v8.84z"/></g></g></svg>