<svg id="afb868dd-3876-42f8-be08-606e176b3338" data-name="globecapital" xmlns="http://www.w3.org/2000/svg" xmlns:xlink="http://www.w3.org/1999/xlink" viewBox="0 0 156.45 28.16"><defs><radialGradient id="b72f0338-b189-4e27-b204-f2c760a0c4ae" cx="215.18" cy="1826.48" r="16.01" gradientTransform="translate(-162.36 -1821.3)" gradientUnits="userSpaceOnUse"><stop offset="0" stop-color="#fff"/><stop offset="0.04" stop-color="#edf8fd"/><stop offset="0.13" stop-color="#c6e4f2"/><stop offset="0.25" stop-color="#84cdec"/><stop offset="0.33" stop-color="#57c1ee"/><stop offset="0.48" stop-color="#3ea8d6"/><stop offset="0.71" stop-color="#2b83b6"/><stop offset="0.89" stop-color="#1c6ba3"/><stop offset="1" stop-color="#14639b"/></radialGradient></defs><polygon points="103.74 19.65 95.06 19.65 95.06 14.75 103.11 14.75 104.06 14.75 104.06 13.76 104.06 10.88 104.06 9.89 103.11 9.89 95.06 9.89 95.06 5.13 103.43 5.13 104.42 5.13 104.42 4.14 104.42 1.26 104.42 0.27 103.43 0.27 90.84 0.27 89.85 0.27 89.85 1.26 89.85 23.52 89.85 24.51 90.84 24.51 103.74 24.51 104.73 24.51 104.73 23.52 104.73 20.64 104.73 19.65 103.74 19.65" style="fill:#0061a9"/><path d="M86.61,14.61h0a6.76,6.76,0,0,0-3.28-3.14A5.17,5.17,0,0,0,85,8.9h0a6.54,6.54,0,0,0,.09-3.28h0A6.11,6.11,0,0,0,82,1.39h0A9.44,9.44,0,0,0,78.11.31,21.49,21.49,0,0,0,75.73.22h-5.8V24.51h9.12a8.91,8.91,0,0,0,1.67-.14,8.24,8.24,0,0,0,3.19-1.17h0a7.88,7.88,0,0,0,2-1.8,6.44,6.44,0,0,0,1.22-3,6.53,6.53,0,0,0-.54-3.74Zm-11.51.05h2.56a6.85,6.85,0,0,1,2.61.4,2.33,2.33,0,0,1,1.53,1.71h0a2.42,2.42,0,0,1-1.8,2.7,6,6,0,0,1-1.17.14c-1,0-2,0-2.92,0H75.1v-5Zm4.67-6.34h0a2.2,2.2,0,0,1-1.53,1.26,7.19,7.19,0,0,1-2.11.22h-1V5.13h2.07a3.64,3.64,0,0,1,2.07.58h0a1.59,1.59,0,0,1,.54.86h0A2.84,2.84,0,0,1,79.77,8.32Z" style="fill:#0061a9"/><path d="M31.39,19.65V.31H26.17v24.2h15.2V19.65h-10Z" style="fill:#0061a9"/><path d="M13.76,11.6h-1v4.81h4.32v2.88c-.32.09-.59.18-.86.23h0a12.08,12.08,0,0,1-3.1.49h-.27a6,6,0,0,1-.94-.09h0a7,7,0,0,1-2.34-.63A7.32,7.32,0,0,1,6.39,16.5a6.92,6.92,0,0,1-1.08-3.73,15.38,15.38,0,0,1,.13-1.89A7.11,7.11,0,0,1,7.1,7.46,7.52,7.52,0,0,1,9.85,5.4a7.2,7.2,0,0,1,2.56-.59h.41A9.8,9.8,0,0,1,14,4.86h.05c.67.09,1.34.18,2,.31h0A16,16,0,0,1,19.88,6.7a4.31,4.31,0,0,0,.49.27l1,.54V2.11a.91.91,0,0,0-.35-.22C19.88,1.48,18.71,1,17.49.63h0A13.49,13.49,0,0,0,14.08,0l-.14,0H12.23c-.13,0-.22,0-.31,0a13.15,13.15,0,0,0-3,.5,12.23,12.23,0,0,0-4.09,2A12.1,12.1,0,0,0,.31,9.44h0A10.15,10.15,0,0,0,.09,11c0,.18,0,.31,0,.45l0,.13v1.89a4.57,4.57,0,0,1,.09.72h0A11.08,11.08,0,0,0,.9,17.45a9,9,0,0,0,1.57,2.61h0c.5.54,1,1,1.49,1.52a1.38,1.38,0,0,0,.27.23,8.35,8.35,0,0,0,2.34,1.53,12.18,12.18,0,0,0,3.73,1.17c.27,0,.54,0,.76.09s.27,0,.41,0l.09.09h2.69a.76.76,0,0,0,.36-.09c.14,0,.27,0,.36,0,.59-.05,1.17-.14,1.76-.23A22.75,22.75,0,0,0,21.36,23a1.36,1.36,0,0,0,.9-1.35v-10h-8.5Z" style="fill:#0061a9"/><g id="afcb2da3-2da2-4eb0-9f81-b17f60bd00f5" data-name="icon"><circle cx="54.64" cy="12.37" r="11.38" style="fill:url(#b72f0338-b189-4e27-b204-f2c760a0c4ae)"/><ellipse cx="54.64" cy="26.8" rx="8.99" ry="0.81" style="fill:#d3d3d3"/></g><rect id="b0c8fe01-2062-4200-a84b-9ce622c9453d" data-name="line" x="114.35" y="0.45" width="0.72" height="24.37" style="fill:#015ba3"/><path d="M130.54,1.48a2.22,2.22,0,0,1,.59,1.67v3.1h-1.62V3.37a1.1,1.1,0,0,0-.27-.81,1.22,1.22,0,0,0-1.53,0,1.1,1.1,0,0,0-.27.81V6.25h-1.62V3.37a1.1,1.1,0,0,0-.27-.81,1.22,1.22,0,0,0-1.53,0,1.1,1.1,0,0,0-.27.81V6.25h-1.62V.94h1.62v.68a1.73,1.73,0,0,1,.63-.54,2,2,0,0,1,.9-.18,2.11,2.11,0,0,1,1.08.27,1.78,1.78,0,0,1,.72.72,2.39,2.39,0,0,1,.76-.72,2.12,2.12,0,0,1,1-.27A2.21,2.21,0,0,1,130.54,1.48Z" style="fill:#0061a9"/><path d="M133.11,6a2.43,2.43,0,0,1-1-.94,2.93,2.93,0,0,1-.36-1.44,2.9,2.9,0,0,1,.36-1.44,2.45,2.45,0,0,1,1-1A2.93,2.93,0,0,1,134.5.9a2.8,2.8,0,0,1,1.39.31,2.45,2.45,0,0,1,1,1,2.9,2.9,0,0,1,.36,1.44A2.93,2.93,0,0,1,136.88,5a2.43,2.43,0,0,1-1,.94,2.82,2.82,0,0,1-1.39.32A2.54,2.54,0,0,1,133.11,6Zm2.2-1.39a1.34,1.34,0,0,0,.31-1,1.39,1.39,0,0,0-.31-1,1.11,1.11,0,0,0-.77-.36,1.09,1.09,0,0,0-.8.36,1.29,1.29,0,0,0-.32,1,1.38,1.38,0,0,0,.32,1,1,1,0,0,0,.76.36A1.18,1.18,0,0,0,135.31,4.59Z" style="fill:#0061a9"/><path d="M142.77,1.48a2.41,2.41,0,0,1,.54,1.67v3.1h-1.62V3.37a1.1,1.1,0,0,0-.27-.81,1,1,0,0,0-.76-.31,1,1,0,0,0-.76.31,1.18,1.18,0,0,0-.27.81V6.25h-1.58V.94h1.62v.72A2.1,2.1,0,0,1,141.29.9,1.87,1.87,0,0,1,142.77,1.48Z" style="fill:#0061a9"/><path d="M149.29,4h-3.68a1.29,1.29,0,0,0,.31.77.93.93,0,0,0,.68.27.91.91,0,0,0,.85-.5h1.75a2.46,2.46,0,0,1-.49,1,3.27,3.27,0,0,1-.85.67,2.48,2.48,0,0,1-1.17.23,2.76,2.76,0,0,1-1.4-.32,2.36,2.36,0,0,1-.94-.94A2.93,2.93,0,0,1,144,3.69a2.9,2.9,0,0,1,.36-1.44,2.39,2.39,0,0,1,.94-.95,2.86,2.86,0,0,1,1.4-.31,2.93,2.93,0,0,1,1.39.31,2.39,2.39,0,0,1,.94,1,2.71,2.71,0,0,1,.36,1.39S149.34,3.82,149.29,4Zm-1.61-.94a.93.93,0,0,0-.27-.68,1,1,0,0,0-.72-.27,1.09,1.09,0,0,0-.68.23,1.26,1.26,0,0,0-.36.67h2Z" style="fill:#0061a9"/><path d="M155.5.94l-3.33,7.83h-1.75l1.21-2.7L149.47.94h1.8l1.22,3.33L153.7.94Z" style="fill:#0061a9"/><path d="M131.35,9.13a1.67,1.67,0,0,1,.5,1.26,2,2,0,0,1,0,.54l-.54,3.1h-1.62l.5-2.88v-.27a1,1,0,0,0-.23-.63.9.9,0,0,0-.63-.22,1.28,1.28,0,0,0-.81.27,1.17,1.17,0,0,0-.4.81l-.5,2.88h-1.66l.5-2.88v-.27a1,1,0,0,0-.23-.63.86.86,0,0,0-.63-.23,1.28,1.28,0,0,0-.81.27,1.17,1.17,0,0,0-.4.81v0l-.5,2.92h-1.62l1-5.31h1.62l-.14.68a2.61,2.61,0,0,1,.72-.54,2,2,0,0,1,.95-.18,1.86,1.86,0,0,1,1,.27,1.25,1.25,0,0,1,.58.76,2.46,2.46,0,0,1,.9-.72,2.4,2.4,0,0,1,1.08-.27A2.1,2.1,0,0,1,131.35,9.13Z" style="fill:#0061a9"/><path d="M138.41,8.72,137.47,14h-1.62l.13-.72a3.27,3.27,0,0,1-.76.59,2.55,2.55,0,0,1-1,.22,1.66,1.66,0,0,1-1.26-.45,1.68,1.68,0,0,1-.45-1.26,1.71,1.71,0,0,1,0-.54l.54-3.1h1.61l-.49,2.88c0,.09,0,.18,0,.31a1,1,0,0,0,.22.63.86.86,0,0,0,.63.23,1.05,1.05,0,0,0,.76-.27,1.17,1.17,0,0,0,.41-.77l.54-3h1.66Z" style="fill:#0061a9"/><path d="M139.58,13.9a2.08,2.08,0,0,1-.76-.54,1.28,1.28,0,0,1-.27-.81v-.23h1.57a.54.54,0,0,0,.18.45.71.71,0,0,0,.54.18.82.82,0,0,0,.5-.13.34.34,0,0,0,.17-.32c0-.13-.09-.22-.22-.31a2.35,2.35,0,0,0-.72-.27,6.19,6.19,0,0,1-.85-.36,1.24,1.24,0,0,1-.59-.5,1.24,1.24,0,0,1-.27-.81,1.48,1.48,0,0,1,.27-.85,1.7,1.7,0,0,1,.77-.59,3.09,3.09,0,0,1,1.17-.22,2.9,2.9,0,0,1,1.12.22,2.07,2.07,0,0,1,.76.59,1.48,1.48,0,0,1,.27.85v.14h-1.48a.54.54,0,0,0-.18-.45.68.68,0,0,0-.54-.18.77.77,0,0,0-.45.13.35.35,0,0,0-.18.32.46.46,0,0,0,.23.36,5.17,5.17,0,0,0,.72.31,7.5,7.5,0,0,1,.85.36,1.9,1.9,0,0,1,.58.45,1,1,0,0,1,.23.77,1.28,1.28,0,0,1-.32.9,1.85,1.85,0,0,1-.85.58,3.31,3.31,0,0,1-1.21.18A3,3,0,0,1,139.58,13.9Z" style="fill:#0061a9"/><path d="M145.88,12.19v.13a.44.44,0,0,0,.09.27.48.48,0,0,0,.31.09h.59l-.27,1.4h-.81q-1.62,0-1.62-1.35a2.28,2.28,0,0,1,0-.5l.36-2.11h-.63l.23-1.35h.63L145,7.46h1.62l-.22,1.31h1.08l-.23,1.35h-1.08Z" style="fill:#0061a9"/><path d="M125.15,17.36a2.09,2.09,0,0,1,.67.58v-.76h1.62v5.3a3.25,3.25,0,0,1-.27,1.35,2,2,0,0,1-.9,1,3.05,3.05,0,0,1-1.48.36,3.21,3.21,0,0,1-1.94-.54,2.13,2.13,0,0,1-.85-1.53h1.62a.77.77,0,0,0,.36.49,1.1,1.1,0,0,0,.72.18,1.28,1.28,0,0,0,.81-.27,1.3,1.3,0,0,0,.31-.94v-.77a1.48,1.48,0,0,1-.67.59,2.23,2.23,0,0,1-1,.22,2,2,0,0,1-1.17-.36,2.53,2.53,0,0,1-.86-.94,3,3,0,0,1-.31-1.44,3,3,0,0,1,.31-1.44,2.53,2.53,0,0,1,.86-.94,2.13,2.13,0,0,1,1.17-.32A1.45,1.45,0,0,1,125.15,17.36Zm.31,1.53a1.09,1.09,0,0,0-.81-.36,1.12,1.12,0,0,0-.81.36,1.3,1.3,0,0,0-.36.94,1.5,1.5,0,0,0,.36,1,1.12,1.12,0,0,0,.81.36,1.09,1.09,0,0,0,.81-.36,1.26,1.26,0,0,0,.36-.94A1.3,1.3,0,0,0,125.46,18.89Z" style="fill:#0061a9"/><path d="M130.81,17.36a1.68,1.68,0,0,1,.95-.27V18.8h-.45a1.26,1.26,0,0,0-.9.27,1.08,1.08,0,0,0-.32.9v2.47h-1.62V17.18h1.62v.9A2.73,2.73,0,0,1,130.81,17.36Z" style="fill:#0061a9"/><path d="M133.42,22.26a2.58,2.58,0,0,1-1-1,3,3,0,0,1-.36-1.43,3,3,0,0,1,.36-1.44,2.58,2.58,0,0,1,1-1,3,3,0,0,1,1.39-.31,2.86,2.86,0,0,1,1.4.31,2.58,2.58,0,0,1,1,1,3,3,0,0,1,.36,1.44,3,3,0,0,1-.36,1.43,2.58,2.58,0,0,1-1,1,3,3,0,0,1-1.4.31A3.07,3.07,0,0,1,133.42,22.26Zm2.2-1.44a1.29,1.29,0,0,0,.32-1,1.38,1.38,0,0,0-.32-1,1.11,1.11,0,0,0-.76-.36,1.15,1.15,0,0,0-.81.36,1.34,1.34,0,0,0-.31,1,1.39,1.39,0,0,0,.31,1,1,1,0,0,0,.76.36A1,1,0,0,0,135.62,20.82Z" style="fill:#0061a9"/><path d="M146,17.18l-1.44,5.3h-1.8L141.92,19l-.85,3.46h-1.8l-1.44-5.3h1.62l.76,3.82.9-3.82h1.71l.9,3.78.76-3.78Z" style="fill:#0061a9"/></svg>