<?xml version="1.0" encoding="utf-8"?>
<!-- Generator: Adobe Illustrator 25.4.1, SVG Export Plug-In . SVG Version: 6.00 Build 0)  -->
<svg version="1.1" id="Layer_1" xmlns="http://www.w3.org/2000/svg" xmlns:xlink="http://www.w3.org/1999/xlink" x="0px" y="0px"
	 viewBox="0 0 200 56" style="enable-background:new 0 0 200 56;" xml:space="preserve">
<style type="text/css">
	.st0{fill-rule:evenodd;clip-rule:evenodd;fill:url(#SVGID_1_);}
	.st1{fill-rule:evenodd;clip-rule:evenodd;fill:url(#SVGID_00000181787741952700889610000016166118936074446477_);}
	.st2{fill-rule:evenodd;clip-rule:evenodd;fill:url(#SVGID_00000137133058410463398090000015537513357954893712_);}
	.st3{fill-rule:evenodd;clip-rule:evenodd;fill:url(#SVGID_00000072244619853273115180000002285742622534703538_);}
	.st4{fill-rule:evenodd;clip-rule:evenodd;fill:#0061AF;}
	.st5{fill-rule:evenodd;clip-rule:evenodd;fill:#6D6E71;}
	.st6{fill-rule:evenodd;clip-rule:evenodd;fill:#ED1C24;}
</style>
<linearGradient id="SVGID_1_" gradientUnits="userSpaceOnUse" x1="58.6957" y1="24.412" x2="47.0227" y2="14.3375">
	<stop  offset="0" style="stop-color:#ED1C24"/>
	<stop  offset="0.16" style="stop-color:#ED1C24"/>
	<stop  offset="1" style="stop-color:#AC161B"/>
</linearGradient>
<path class="st0" d="M45.09,10.88l-5.59,5.86l5.83,5.83c5.49,5.49,14.38,5.49,19.87,0l0.3-0.3L52.87,9.64c0,0-0.09-0.06-0.22-0.11
	c-1.07-0.57-2.07-0.78-2.96-0.78C46.88,8.75,45.09,10.88,45.09,10.88z"/>
<linearGradient id="SVGID_00000121966269846118343680000009221410856617095866_" gradientUnits="userSpaceOnUse" x1="17.7907" y1="28.2057" x2="39.2869" y2="9.5877">
	<stop  offset="0" style="stop-color:#ED1C24"/>
	<stop  offset="0.16" style="stop-color:#ED1C24"/>
	<stop  offset="1" style="stop-color:#F15B40"/>
</linearGradient>
<path style="fill-rule:evenodd;clip-rule:evenodd;fill:url(#SVGID_00000121966269846118343680000009221410856617095866_);" d="
	M29.5,6.26L2.76,33c5.65,5.65,14.82,5.65,20.47,0L39.5,16.74l5.59-5.86c0,0,3.21-3.84,7.8-1.23L49.5,6.26
	c-2.76-2.76-6.38-4.14-10-4.14C35.88,2.12,32.26,3.5,29.5,6.26z"/>
<linearGradient id="SVGID_00000041976945744485209930000010342508368871012490_" gradientUnits="userSpaceOnUse" x1="48.6493" y1="42.667" x2="35.9395" y2="32.4533">
	<stop  offset="0" style="stop-color:#1E398D"/>
	<stop  offset="0.16" style="stop-color:#1E398D"/>
	<stop  offset="1" style="stop-color:#0061AF"/>
</linearGradient>
<path style="fill-rule:evenodd;clip-rule:evenodd;fill:url(#SVGID_00000041976945744485209930000010342508368871012490_);" d="
	M29.05,33.44l-0.3,0.3l12.63,12.63c0,0,0.09,0.06,0.22,0.11c4.46,2.35,7.56-1.36,7.56-1.36l5.59-5.86l-5.83-5.83
	c-2.74-2.74-6.34-4.12-9.94-4.12C35.39,29.33,31.8,30.7,29.05,33.44z"/>
<linearGradient id="SVGID_00000170981624505290494780000015472842862322435498_" gradientUnits="userSpaceOnUse" x1="54.644" y1="46.7446" x2="73.154" y2="31.0904">
	<stop  offset="0" style="stop-color:#0082C6"/>
	<stop  offset="0.16" style="stop-color:#0082C6"/>
	<stop  offset="1" style="stop-color:#0061AF"/>
</linearGradient>
<path style="fill-rule:evenodd;clip-rule:evenodd;fill:url(#SVGID_00000170981624505290494780000015472842862322435498_);" d="
	M71.02,23.01L54.75,39.27l-5.59,5.86c0,0-3.21,3.84-7.8,1.23c1.07,1.07,3.39,3.39,3.39,3.39c5.52,5.52,14.47,5.52,19.99,0
	l26.74-26.74c-2.83-2.83-6.53-4.24-10.24-4.24C77.55,18.77,73.84,20.18,71.02,23.01z"/>
<path class="st4" d="M105.28,9.56V9.52c0-4.13,3.22-7.52,7.62-7.52c2.62,0,4.19,0.71,5.71,1.99l-2.01,2.43
	c-1.12-0.93-2.12-1.47-3.8-1.47c-2.33,0-4.17,2.06-4.17,4.53v0.04c0,2.66,1.83,4.61,4.4,4.61c1.16,0,2.2-0.29,3.01-0.87v-2.08h-3.22
	V8.42h6.31v6.31c-1.5,1.27-3.55,2.31-6.21,2.31C108.4,17.03,105.28,13.86,105.28,9.56z"/>
<path class="st4" d="M128.64,9.31c1.56,0,2.45-0.83,2.45-2.06V7.21c0-1.37-0.96-2.08-2.51-2.08h-3.18v4.17H128.64L128.64,9.31z
	 M122.2,2.25h6.65c1.85,0,3.28,0.52,4.24,1.47c0.81,0.81,1.25,1.95,1.25,3.32v0.04c0,2.35-1.27,3.82-3.11,4.51l3.55,5.19h-3.74
	l-3.11-4.65h-2.51v4.65h-3.2V2.25z"/>
<rect x="137.36" y="2.25" class="st4" width="3.2" height="14.54"/>
<polygon class="st4" points="144.2,2.25 147.39,2.25 147.39,8 153.29,8 153.29,2.25 156.49,2.25 156.49,16.78 153.29,16.78 
	153.29,10.95 147.39,10.95 147.39,16.78 144.2,16.78 "/>
<path class="st4" d="M159.75,10.56V2.25h3.2v8.22c0,2.37,1.18,3.59,3.14,3.59c1.95,0,3.14-1.18,3.14-3.49V2.25h3.2v8.2
	c0,4.4-2.47,6.56-6.37,6.56C162.14,17.01,159.75,14.83,159.75,10.56z"/>
<polygon class="st4" points="175.68,2.25 179.12,2.25 182.94,8.4 186.76,2.25 190.21,2.25 190.21,16.78 187.03,16.78 187.03,7.3 
	182.94,13.5 182.86,13.5 178.81,7.36 178.81,16.78 175.68,16.78 "/>
<polygon class="st5" points="105.28,22.6 106.35,22.6 106.35,25.12 109.24,25.12 109.24,22.6 110.31,22.6 110.31,28.67 
	109.24,28.67 109.24,26.11 106.35,26.11 106.35,28.67 105.28,28.67 "/>
<path class="st5" d="M116.83,25.65v-0.02c0-1.18-0.86-2.16-2.06-2.16c-1.2,0-2.05,0.96-2.05,2.14v0.02c0,1.18,0.86,2.15,2.06,2.15
	C115.98,27.78,116.83,26.83,116.83,25.65L116.83,25.65z M111.6,25.65v-0.02c0-1.71,1.32-3.14,3.18-3.14c1.86,0,3.16,1.41,3.16,3.12
	v0.02c0,1.71-1.32,3.14-3.18,3.14C112.9,28.77,111.6,27.36,111.6,25.65z"/>
<path class="st5" d="M119.14,26.09V22.6h1.07v3.45c0,1.13,0.58,1.73,1.53,1.73c0.94,0,1.53-0.56,1.53-1.68V22.6h1.07v3.44
	c0,1.81-1.02,2.72-2.61,2.72C120.15,28.76,119.14,27.85,119.14,26.09z"/>
<path class="st5" d="M125.39,27.78l0.64-0.76c0.58,0.5,1.17,0.79,1.92,0.79c0.66,0,1.07-0.31,1.07-0.76v-0.02
	c0-0.43-0.24-0.67-1.37-0.93c-1.29-0.31-2.02-0.69-2.02-1.81v-0.02c0-1.04,0.87-1.76,2.07-1.76c0.88,0,1.59,0.27,2.2,0.76
	l-0.57,0.81c-0.55-0.41-1.09-0.62-1.65-0.62c-0.62,0-0.99,0.32-0.99,0.72v0.02c0,0.47,0.28,0.68,1.45,0.95
	c1.28,0.31,1.94,0.77,1.94,1.78v0.02c0,1.14-0.89,1.81-2.17,1.81C126.99,28.75,126.12,28.43,125.39,27.78z"/>
<rect x="131.4" y="22.6" class="st5" width="1.07" height="6.07"/>
<polygon class="st5" points="134.09,22.6 135.08,22.6 138.33,26.79 138.33,22.6 139.38,22.6 139.38,28.67 138.48,28.67 
	135.14,24.35 135.14,28.67 134.09,28.67 "/>
<path class="st5" d="M140.67,25.65v-0.02c0-1.7,1.3-3.14,3.13-3.14c1.06,0,1.71,0.3,2.33,0.82l-0.68,0.81
	c-0.47-0.4-0.93-0.65-1.7-0.65c-1.12,0-1.97,0.98-1.97,2.14v0.02c0,1.25,0.82,2.17,2.06,2.17c0.57,0,1.09-0.18,1.46-0.46v-1.14
	h-1.55v-0.93h2.58v2.55c-0.6,0.51-1.46,0.94-2.53,0.94C141.92,28.77,140.67,27.42,140.67,25.65z"/>
<polygon class="st5" points="150.33,22.6 154.85,22.6 154.85,23.57 151.4,23.57 151.4,25.23 154.46,25.23 154.46,26.2 151.4,26.2 
	151.4,28.67 150.33,28.67 "/>
<rect x="156.08" y="22.6" class="st5" width="1.07" height="6.07"/>
<polygon class="st5" points="158.77,22.6 159.75,22.6 163,26.79 163,22.6 164.05,22.6 164.05,28.67 163.16,28.67 159.82,24.35 
	159.82,28.67 158.77,28.67 "/>
<path class="st5" d="M169.29,26.26l-1.05-2.43l-1.04,2.43H169.29L169.29,26.26z M167.76,22.56h0.99l2.67,6.11h-1.13l-0.62-1.47
	h-2.87l-0.62,1.47h-1.09L167.76,22.56z"/>
<polygon class="st5" points="172.46,22.6 173.45,22.6 176.7,26.79 176.7,22.6 177.75,22.6 177.75,28.67 176.86,28.67 173.51,24.35 
	173.51,28.67 172.46,28.67 "/>
<path class="st5" d="M179.04,25.65v-0.02c0-1.72,1.29-3.14,3.13-3.14c1.12,0,1.79,0.39,2.37,0.94l-0.68,0.79
	c-0.49-0.45-1.01-0.75-1.7-0.75c-1.15,0-2,0.95-2,2.14v0.02c0,1.19,0.84,2.15,2,2.15c0.75,0,1.22-0.29,1.74-0.78l0.68,0.69
	c-0.63,0.66-1.33,1.07-2.46,1.07C180.36,28.77,179.04,27.39,179.04,25.65z"/>
<polygon class="st5" points="185.7,22.6 190.2,22.6 190.2,23.55 186.77,23.55 186.77,25.13 189.81,25.13 189.81,26.08 186.77,26.08 
	186.77,27.71 190.25,27.71 190.25,28.67 185.7,28.67 "/>
<path class="st4" d="M101.38,48.49l0.03-1.73c0.01-0.48,0.06-1.3,0.07-1.89h-0.02c-0.19,0.59-0.44,1.45-0.6,1.88l-0.63,1.74H101.38
	L101.38,48.49z M99.88,49.56l-0.68,1.81h-1.41l3.17-7.82h1.69l0.07,7.82h-1.4l0.02-1.81H99.88z"/>
<path class="st4" d="M105.12,50.25c0.12,0.08,0.23,0.14,0.41,0.14c0.88,0,1.31-1.93,1.31-2.77c0-0.38-0.03-0.78-0.42-0.78
	c-0.37,0-0.77,0.59-0.9,1.28L105.12,50.25L105.12,50.25z M103.07,53.6l1.15-6.03c0.13-0.67,0.22-1.31,0.3-1.87h1.24l-0.09,0.82h0.02
	c0.35-0.57,0.89-0.92,1.41-0.92c1.02,0,1.22,0.88,1.22,1.75c0,1.9-1.02,4.11-2.68,4.11c-0.26,0-0.53-0.05-0.7-0.14h-0.03l-0.42,2.27
	H103.07z"/>
<path class="st4" d="M108.52,51.37l0.73-3.83c0.13-0.66,0.22-1.31,0.3-1.84h1.24l-0.06,0.73h0.02c0.39-0.53,0.92-0.82,1.53-0.82
	c0.8,0,1.1,0.56,1.1,1.24c0,0.34-0.06,0.68-0.14,1.08l-0.65,3.44h-1.45l0.67-3.53c0.03-0.2,0.07-0.38,0.07-0.6
	c0-0.27-0.12-0.45-0.36-0.45c-0.34,0-0.79,0.5-1,1.58l-0.57,3H108.52z"/>
<path class="st4" d="M117.04,46.72c-0.12-0.02-0.22-0.03-0.3-0.03c-0.95,0-1.46,1.89-1.47,2.73c0,0.5,0.07,0.86,0.43,0.86
	c0.39,0,0.77-0.65,0.97-1.68L117.04,46.72L117.04,46.72z M116.52,51.37c0.01-0.3,0.03-0.61,0.05-0.95h-0.03
	c-0.45,0.75-1,1.04-1.45,1.04c-0.82,0-1.23-0.71-1.23-1.7c0-1.72,0.86-4.15,3.29-4.15c0.57,0,1.14,0.09,1.48,0.23l-0.63,3.15
	c-0.14,0.66-0.24,1.76-0.23,2.38H116.52z"/>
<path class="st4" d="M124.73,51.15c-0.43,0.16-0.94,0.29-1.54,0.29c-0.93,0-1.5-0.3-1.9-0.81c-0.38-0.48-0.58-1.24-0.58-1.95
	c0-1.61,0.53-3.12,1.47-4.12c0.66-0.7,1.58-1.08,2.54-1.08c0.65,0,1.01,0.12,1.24,0.21l-0.46,1.28c-0.19-0.08-0.52-0.15-0.85-0.15
	c-0.53,0-0.94,0.16-1.3,0.51c-0.64,0.64-1.11,1.88-1.11,3.33c0,0.97,0.31,1.53,0.94,1.53c0.16,0,0.29-0.01,0.42-0.05l0.36-1.94
	h-0.71l0.24-1.17h2.02L124.73,51.15z"/>
<path class="st4" d="M125.68,51.37l1.53-8.03h1.45l-0.59,3.05h0.02c0.35-0.45,0.82-0.79,1.43-0.79c0.72,0,1.03,0.51,1.03,1.24
	c0,0.32-0.06,0.68-0.14,1.11l-0.65,3.41h-1.45l0.66-3.41c0.03-0.22,0.07-0.53,0.07-0.72c0-0.28-0.1-0.45-0.35-0.45
	c-0.34,0-0.78,0.49-0.94,1.35l-0.63,3.24H125.68z"/>
<path class="st4" d="M134.21,46.72c-0.12-0.02-0.22-0.03-0.3-0.03c-0.95,0-1.46,1.89-1.47,2.73c0,0.5,0.07,0.86,0.43,0.86
	c0.39,0,0.77-0.65,0.97-1.68L134.21,46.72L134.21,46.72z M133.68,51.37c0.01-0.3,0.03-0.61,0.05-0.95h-0.03
	c-0.45,0.75-1,1.04-1.45,1.04c-0.82,0-1.23-0.71-1.23-1.7c0-1.72,0.86-4.15,3.29-4.15c0.57,0,1.14,0.09,1.48,0.23l-0.63,3.15
	c-0.14,0.66-0.24,1.76-0.23,2.38H133.68z"/>
<path class="st4" d="M135.76,51.37l0.73-3.85c0.13-0.65,0.21-1.3,0.29-1.82h1.24c-0.02,0.29-0.05,0.59-0.08,0.94h0.03
	c0.42-0.72,0.93-1.03,1.4-1.03c0.09,0,0.16,0,0.23,0.02l-0.27,1.45c-0.06,0-0.16-0.01-0.24-0.01c-0.63,0-1.22,0.72-1.39,1.68
	l-0.5,2.62H135.76z"/>
<path class="st4" d="M139.64,51.46c-0.53,0-0.83-0.39-0.83-0.94c0-0.54,0.43-1.08,0.94-1.08c0.57,0,0.87,0.39,0.87,0.93
	c0,0.67-0.45,1.09-0.96,1.09H139.64z"/>
<path class="st6" d="M146.08,48.49l0.03-1.73c0.01-0.48,0.06-1.3,0.07-1.89h-0.02c-0.19,0.59-0.44,1.45-0.6,1.88l-0.63,1.74H146.08
	L146.08,48.49z M144.58,49.56l-0.68,1.81h-1.41l3.17-7.82h1.69l0.07,7.82h-1.4l0.02-1.81H144.58z"/>
<path class="st6" d="M149.83,50.25c0.12,0.08,0.23,0.14,0.41,0.14c0.88,0,1.31-1.93,1.31-2.77c0-0.38-0.03-0.78-0.42-0.78
	c-0.37,0-0.77,0.59-0.9,1.28L149.83,50.25L149.83,50.25z M147.77,53.6l1.15-6.03c0.13-0.67,0.22-1.31,0.3-1.87h1.24l-0.09,0.82h0.02
	c0.35-0.57,0.89-0.92,1.41-0.92c1.02,0,1.22,0.88,1.22,1.75c0,1.9-1.02,4.11-2.68,4.11c-0.25,0-0.53-0.05-0.7-0.14h-0.03l-0.42,2.27
	H147.77z"/>
<path class="st6" d="M153.22,51.37l0.73-3.83c0.13-0.66,0.22-1.31,0.3-1.84h1.24l-0.06,0.73h0.02c0.39-0.53,0.92-0.82,1.53-0.82
	c0.8,0,1.1,0.56,1.1,1.24c0,0.34-0.06,0.68-0.14,1.08l-0.65,3.44h-1.45l0.67-3.53c0.03-0.2,0.07-0.38,0.07-0.6
	c0-0.27-0.12-0.45-0.36-0.45c-0.34,0-0.79,0.5-1,1.58l-0.57,3H153.22z"/>
<path class="st6" d="M160.37,45.01c-0.45,0-0.65-0.34-0.65-0.77c0.01-0.42,0.3-0.89,0.81-0.89c0.48,0,0.7,0.36,0.68,0.75
	c-0.01,0.58-0.41,0.9-0.83,0.9H160.37L160.37,45.01z M158.36,51.37l1.09-5.67h1.45l-1.09,5.67H158.36z"/>
<path class="st6" d="M164.9,47.31c0.09,0.01,0.19,0.01,0.28,0.01c1.06,0,1.38-1.04,1.38-1.73c0-0.52-0.24-0.89-0.81-0.89
	c-0.14,0-0.27,0.01-0.35,0.03L164.9,47.31L164.9,47.31z M164.18,43.66c0.48-0.08,1.08-0.14,1.57-0.14c0.52,0,1.31,0.1,1.79,0.63
	c0.34,0.36,0.49,0.93,0.49,1.35c0,1.09-0.52,1.9-1.01,2.34c-0.54,0.46-1.32,0.68-1.97,0.68c-0.13,0-0.26,0-0.37-0.01l-0.54,2.86
	h-1.41L164.18,43.66z"/>
<path class="st6" d="M170.7,47.28c0-0.31-0.13-0.51-0.41-0.51c-0.44,0-0.83,0.57-1,1.38c0.77,0.03,1.4-0.27,1.4-0.86V47.28
	L170.7,47.28z M171.31,51.13c-0.5,0.21-0.99,0.31-1.64,0.31c-1.39,0-1.93-0.92-1.93-2.13c0-1.65,0.92-3.7,2.73-3.7
	c1.03,0,1.5,0.77,1.51,1.54c0,1.55-1.25,2.13-2.83,2.09c-0.01,0.16,0,0.45,0.13,0.66c0.14,0.23,0.39,0.41,0.79,0.41
	c0.48,0,0.81-0.12,1.15-0.28L171.31,51.13z"/>
<path class="st6" d="M171.96,51.37l1.53-8.03h1.45l-0.59,3.05h0.02c0.35-0.45,0.82-0.79,1.43-0.79c0.72,0,1.03,0.51,1.03,1.24
	c0,0.32-0.06,0.68-0.14,1.11l-0.65,3.41h-1.45l0.66-3.41c0.03-0.22,0.07-0.53,0.07-0.72c0-0.28-0.1-0.45-0.35-0.45
	c-0.34,0-0.78,0.49-0.94,1.35l-0.63,3.24H171.96z"/>
<path class="st6" d="M180.13,51.29c-0.16,0.07-0.53,0.15-1.01,0.15c-1.25,0-1.77-1-1.77-2.04c0-2.03,1.26-3.78,3.05-3.78
	c0.35,0,0.57,0.05,0.71,0.1l-0.36,1.18c-0.14-0.03-0.28-0.06-0.41-0.06c-0.85,0-1.54,1.14-1.54,2.34c0,0.65,0.27,1.07,0.74,1.07
	c0.27,0,0.51-0.08,0.7-0.13L180.13,51.29z"/>
<path class="st6" d="M180.67,51.37l1.53-8.03h1.45l-0.59,3.05h0.02c0.35-0.45,0.82-0.79,1.43-0.79c0.72,0,1.03,0.51,1.03,1.24
	c0,0.32-0.06,0.68-0.14,1.11l-0.65,3.41h-1.45l0.66-3.41c0.03-0.22,0.07-0.53,0.07-0.72c0-0.28-0.1-0.45-0.35-0.45
	c-0.34,0-0.78,0.49-0.94,1.35l-0.63,3.24H180.67z"/>
<path class="st6" d="M189.19,46.72c-0.12-0.02-0.22-0.03-0.3-0.03c-0.95,0-1.46,1.89-1.47,2.73c0,0.5,0.07,0.86,0.43,0.86
	c0.39,0,0.77-0.65,0.97-1.68L189.19,46.72L189.19,46.72z M188.67,51.37c0.01-0.3,0.03-0.61,0.05-0.95h-0.03
	c-0.45,0.75-1,1.04-1.45,1.04c-0.82,0-1.23-0.71-1.23-1.7c0-1.72,0.86-4.15,3.29-4.15c0.57,0,1.14,0.09,1.48,0.23l-0.63,3.15
	c-0.14,0.66-0.24,1.76-0.23,2.38H188.67z"/>
<path class="st6" d="M190.75,51.37l0.73-3.83c0.13-0.66,0.22-1.31,0.3-1.84h1.24l-0.06,0.73h0.02c0.39-0.53,0.92-0.82,1.53-0.82
	c0.8,0,1.1,0.56,1.1,1.24c0,0.34-0.06,0.68-0.14,1.08l-0.65,3.44h-1.45l0.67-3.53c0.03-0.2,0.07-0.38,0.07-0.6
	c0-0.27-0.12-0.45-0.36-0.45c-0.34,0-0.79,0.5-1,1.58l-0.57,3H190.75z"/>
<path class="st6" d="M196.89,51.46c-0.53,0-0.83-0.39-0.83-0.94c0-0.54,0.43-1.08,0.94-1.08c0.57,0,0.87,0.39,0.87,0.93
	c0,0.67-0.45,1.09-0.96,1.09H196.89z"/>
<rect x="105.28" y="35.85" class="st5" width="85.04" height="0.58"/>
</svg>
