<?xml version="1.0" encoding="UTF-8"?>
<!DOCTYPE svg PUBLIC "-//W3C//DTD SVG 1.1//EN" "http://www.w3.org/Graphics/SVG/1.1/DTD/svg11.dtd">
<!-- Creator: CorelDRAW 2018 (64-Bit) -->
<svg xmlns="http://www.w3.org/2000/svg" xml:space="preserve" width="152.4mm" height="50.8mm" version="1.1" style="shape-rendering:geometricPrecision; text-rendering:geometricPrecision; image-rendering:optimizeQuality; fill-rule:evenodd; clip-rule:evenodd"
viewBox="0 0 15240 5080"
 xmlns:xlink="http://www.w3.org/1999/xlink">
 <defs>
  <style type="text/css">
   <![CDATA[
    .fil0 {fill:none}
    .fil5 {fill:#FEFEFE}
    .fil7 {fill:#2B2A29}
    .fil3 {fill:#E31E24}
    .fil2 {fill:#164789}
    .fil4 {fill:#264796}
    .fil6 {fill:#FEFEFE;fill-rule:nonzero}
    .fil1 {fill:#2B2A29;fill-rule:nonzero}
   ]]>
  </style>
 </defs>
 <g id="Layer_x0020_1">
  <metadata id="CorelCorpID_0Corel-Layer"/>
  <rect class="fil0" x="-0" y="-0" width="15240" height="5080"/>
  <g id="_2310829879824">
   <path class="fil1" d="M1991.82 3932.71l-27.45 125.96 -44.56 0c-0.24,-25.67 -1.78,-43.73 -4.52,-54.07 -2.85,-10.34 -7.25,-18.06 -13.43,-23.29 -6.17,-5.23 -14.85,-7.84 -25.9,-7.84l-31.02 0 -74.86 340.45c-1.43,6.3 -2.38,11.05 -2.73,14.5 -0.48,3.33 -0.96,7.01 -1.31,11.05 -0.36,4.04 -0.48,9.15 -0.48,15.21 0,10.7 2.74,18.18 8.2,22.58 5.47,4.4 13.91,7.01 25.55,7.73l-4.87 22.93 -184.91 0 4.88 -22.93c10.22,-1.43 18.42,-4.4 24.36,-9.16 6.06,-4.63 11.17,-11.52 15.21,-20.67 4.04,-9.15 8.2,-22.94 12.36,-41.24l74.86 -340.45 -27.92 0c-9.04,0 -16.4,0.83 -22.11,2.37 -5.58,1.67 -10.57,3.92 -14.73,6.78 -4.16,2.97 -8.68,7.01 -13.55,12.24 -4.87,5.22 -10.34,12.24 -16.28,21.27 -5.82,8.91 -12.24,20.67 -18.89,35.29l-45.64 0 26.15 -118.71 383.59 0z"/>
   <path id="1" class="fil1" d="M2120.63 4122.13l4.52 1.3c18.54,-22.69 37.43,-39.45 56.56,-50.26 19.14,-10.82 40.53,-16.16 64.29,-16.16 23.65,0 42.31,6.65 55.97,19.96 13.79,13.43 20.56,31.73 20.56,55.26 0,15.09 -2.26,33.03 -6.89,53.95l-28.64 128.81c-2.26,10.7 -3.8,18.9 -4.63,24.72 -0.84,5.82 -1.19,10.81 -1.19,14.97 0,10.46 2.49,17.71 7.72,21.87 5.23,4.16 14.26,7.01 26.98,8.44l-4.16 22.93 -144.5 0 43.61 -189.42c6.18,-26.86 10.1,-45.51 11.41,-55.73 1.42,-10.1 2.14,-18.18 2.14,-24.01 0,-10.45 -2.26,-18.18 -6.66,-23.29 -4.4,-5.11 -10.69,-7.6 -19.13,-7.6 -7.37,0 -15.57,2.73 -24.36,8.31 -8.8,5.59 -18.66,14.26 -29.59,26.15 -10.93,11.76 -19.61,24.36 -26.14,37.55 -6.42,13.19 -11.65,29.71 -15.57,49.43l-38.38 178.61 -99.94 0 88.17 -393.46c5.11,-22.69 7.61,-39.33 7.61,-49.67 0,-5.11 -0.48,-9.15 -1.55,-12.12 -1.07,-2.85 -2.61,-5.23 -4.75,-7.13 -2.02,-1.78 -4.87,-3.21 -8.32,-4.28 -3.45,-1.07 -10.34,-2.26 -20.56,-3.68l5.59 -22.58 104.09 -5.59 39.34 0 -53.6 212.72z"/>
   <path id="2" class="fil1" d="M2677.01 4335.55c-23.41,26.38 -48.72,45.99 -75.7,58.82 -27.09,12.72 -56.32,19.14 -87.93,19.14 -27.1,0 -50.27,-4.76 -69.28,-14.26 -19.02,-9.51 -33.4,-23.65 -43.02,-42.31 -9.63,-18.66 -14.38,-41 -14.38,-67.02 0,-12.12 1.54,-27.57 4.87,-46.35 4.4,-25.55 11.05,-48.24 20.2,-68.21 11.29,-24.6 26.15,-45.75 44.57,-63.34 18.3,-17.7 39.81,-31.25 64.52,-40.75 24.72,-9.51 51.81,-14.26 81.28,-14.26 34.82,0 61.32,6.29 79.39,19.01 18.06,12.59 27.21,31.96 27.21,57.87 0,17.71 -3.57,33.27 -10.7,46.7 -7.01,13.43 -18.77,25.67 -35.29,36.6 -16.52,10.82 -39.81,19.73 -69.76,26.38 -30.06,6.78 -66.42,10.58 -108.85,11.53 -2.97,13.67 -4.51,27.81 -4.51,42.42 0,8.68 0.83,16.76 2.37,24.6 1.67,7.73 4.52,14.62 8.8,20.68 4.16,6.06 9.74,10.81 16.63,14.5 7.02,3.56 15.93,5.34 26.86,5.34 20.44,0 38.86,-4.15 55.38,-12.35 16.4,-8.2 35.77,-22.94 58.11,-43.97l29.23 29.23zm-184.55 -117.05c42.78,-1.19 75.46,-9.27 98.04,-24.48 22.58,-15.21 33.99,-36.72 33.99,-64.65 0,-11.76 -2.74,-20.79 -8.2,-26.97 -5.47,-6.18 -13.08,-9.15 -22.82,-9.15 -21.63,0 -41,10.58 -58.35,31.97 -17.23,21.39 -31.49,52.4 -42.66,93.28z"/>
   <path id="3" class="fil1" d="M3308.5 3932.71l-24.72 112.06 -44.56 0c-1.19,-21.99 -3.21,-37.44 -6.3,-46.23 -2.97,-8.91 -7.6,-15.21 -13.9,-19.13 -6.3,-4.04 -15.09,-5.94 -26.5,-5.94l-87.34 0 -36.84 167.07 48.36 0c9.27,0 17.12,-1.54 23.41,-4.51 6.42,-3.09 12.36,-8.08 17.83,-15.21 5.47,-7.01 10.81,-16.88 16.16,-29.35l38.26 0 -33.39 141.29 -35.89 0c0,-13.43 -0.71,-23.77 -2.37,-30.9 -1.67,-7.25 -4.64,-12.47 -9.03,-15.68 -4.4,-3.33 -12.01,-4.88 -22.7,-4.88l-49.44 0 -40.99 185.86 78.31 0c10.22,0 18.18,-0.71 23.77,-2.02 5.7,-1.43 10.93,-3.68 15.68,-6.65 4.75,-2.98 10.34,-7.85 16.52,-14.5 6.3,-6.54 12.48,-14.98 18.66,-25.08 6.18,-10.1 12.47,-22.22 19.01,-36.36l47.29 0 -31.96 125.37 -331.07 0 4.87 -22.93c9.75,-2.86 17.23,-6.66 22.46,-11.53 5.23,-4.87 9.63,-11.77 13.31,-20.68 3.8,-9.03 7.49,-21.86 11.17,-38.86l63.34 -287.22c3.09,-13.66 4.51,-27.33 4.51,-40.76 0,-9.74 -2.25,-16.87 -6.77,-21.39 -4.51,-4.51 -11.88,-7.48 -22.1,-8.91l4.87 -22.93 338.08 0z"/>
   <path id="4" class="fil1" d="M3562.92 4014.46c1.43,-5.7 3.09,-14.14 4.87,-24.95 1.9,-10.93 2.85,-19.25 2.85,-24.72 0,-5.11 -0.59,-9.15 -1.54,-12.12 -1.07,-2.85 -2.61,-5.23 -4.75,-7.13 -2.02,-1.78 -4.88,-3.21 -8.32,-4.28 -3.57,-1.07 -10.34,-2.26 -20.56,-3.68l5.59 -22.58 104.09 -5.59 39.34 0 -87.7 395.84c-2.62,11.29 -4.64,20.91 -5.94,28.64 -1.43,7.84 -2.14,14.38 -2.14,19.72 0,10.46 2.61,17.95 7.72,22.58 5.11,4.64 14.14,7.61 27.1,8.8l-3.81 22.93 -133.68 0 18.77 -71.42 -4.51 -1.31c-15.81,20.44 -30.43,36.25 -44.09,47.54 -13.55,11.17 -26.86,19.13 -40.05,23.76 -13.07,4.64 -28.16,7.02 -45.39,7.02 -16.28,0 -30.54,-3.81 -42.78,-11.53 -12.36,-7.61 -22.11,-19.73 -29.24,-36.36 -7.24,-16.64 -10.81,-37.67 -10.81,-63.22 0,-24.36 2.85,-48.96 8.56,-73.8 5.7,-24.84 14.02,-48.01 25.07,-69.4 10.93,-21.51 24.96,-39.93 41.95,-55.26 16.87,-15.33 36.12,-26.97 57.51,-34.93 21.51,-7.96 44.92,-12 70.23,-12 20.68,0 40.65,3.56 59.9,10.81l11.76 -53.36zm-35.53 176.95c1.43,-7.02 2.73,-15.1 3.92,-24.25 1.07,-9.15 1.66,-18.18 1.66,-26.97 0,-15.57 -2.85,-27.21 -8.67,-35.18 -5.82,-7.84 -15.33,-11.76 -28.52,-11.76 -21.63,0 -40.76,10.81 -57.52,32.44 -16.63,21.75 -30.06,50.98 -40.28,87.58 -10.22,36.72 -15.33,69.52 -15.33,98.51 0,17 2.5,29.59 7.49,38.03 4.99,8.32 12.71,12.48 23.17,12.48 15.21,0 30.9,-7.49 46.82,-22.46 15.8,-14.97 28.64,-32.56 38.38,-52.76 9.75,-20.21 18.54,-47.77 26.15,-82.83l2.73 -12.83z"/>
   <path id="5" class="fil1" d="M3720.02 4062.59l144.5 0 -43.61 189.3c-6.18,26.98 -10.1,45.51 -11.41,55.73 -1.43,10.22 -2.14,18.3 -2.14,24.01 0,10.93 2.14,18.89 6.42,23.77 4.27,4.87 10.69,7.24 19.01,7.24 4.63,0 9.63,-1.07 14.97,-3.32 5.35,-2.14 10.7,-5.47 16.05,-9.75 5.34,-4.28 11.76,-10.22 19.48,-17.94 7.61,-7.61 14.38,-15.81 20.21,-24.48 5.7,-8.68 10.57,-18.06 14.37,-28.05 3.81,-9.98 7.37,-22.57 10.7,-37.9l38.26 -178.61 99.94 0 -54.66 245.75c-1.19,5.58 -2.73,13.54 -4.75,23.88 -1.91,10.34 -2.97,18.9 -2.97,25.91 0,9.74 2.73,16.4 8.19,19.96 5.47,3.69 14.03,5.94 25.55,6.9l-5.11 22.93 -131.31 0 18.78 -71.42 -4.16 -1.31c-21.63,26.86 -42.42,46.71 -62.51,59.3 -20.08,12.72 -42.9,19.02 -68.44,19.02 -23.41,0 -41.95,-6.66 -55.62,-20.09 -13.78,-13.31 -20.56,-31.73 -20.56,-55.14 0,-15.09 2.26,-33.03 6.9,-53.95l28.63 -128.81c2.26,-10.7 3.81,-18.9 4.64,-24.72 0.83,-5.82 1.31,-10.81 1.31,-14.97 0,-10.22 -2.62,-17.47 -7.73,-21.63 -5.11,-4.16 -14.14,-7.01 -27.09,-8.67l4.16 -22.94z"/>
   <path id="6" class="fil1" d="M4349.84 4315.71l28.16 30.18c-24.36,24.48 -48.72,41.83 -73.08,52.17 -24.36,10.22 -51.22,15.45 -80.45,15.45 -23.89,0 -44.33,-5.11 -61.32,-15.33 -16.88,-10.22 -29.59,-24.84 -38.03,-43.74 -8.55,-18.89 -12.71,-41.11 -12.71,-66.66 0,-20.2 2.37,-40.29 7.25,-60.25 3.44,-14.62 7.96,-28.99 13.54,-43.14 7.49,-18.77 16.16,-35.17 26.15,-49.07 11.88,-16.28 26.02,-30.31 42.66,-42.07 16.63,-11.88 35.29,-20.92 56.09,-27.09 20.67,-6.07 43.01,-9.15 67.02,-9.15 15.57,0 32.32,1.18 50.38,3.68 18.18,2.38 34.23,5.82 48.13,10.22l-19.49 84.96 -62.74 0c0.47,-4.87 0.71,-9.86 0.71,-14.97 0,-16.75 -2.49,-28.88 -7.6,-36.36 -5.11,-7.61 -12.72,-11.29 -22.7,-11.29 -17.11,0 -33.51,9.86 -49.08,29.59 -15.57,19.73 -28.52,47.06 -38.98,82.11 -10.45,35.06 -15.68,65.84 -15.68,92.22 0,43.61 15.92,65.47 47.77,65.47 15.92,0 31.13,-3.56 45.39,-10.81 14.26,-7.13 30.42,-19.25 48.61,-36.12z"/>
   <path id="7" class="fil1" d="M4722.02 4082.08l31.37 -25.07 38.99 5.58 -53.6 242.66c-2.85,12.24 -4.87,22.1 -6.18,29.59 -1.31,7.37 -1.9,13.66 -1.9,18.77 0,10.46 2.61,17.95 7.72,22.58 5.11,4.64 14.14,7.61 27.1,8.8l-3.81 22.93 -133.68 0 18.77 -71.42 -4.51 -1.31c-15.81,20.44 -30.43,36.25 -44.09,47.54 -13.55,11.17 -26.86,19.13 -40.05,23.76 -13.07,4.64 -28.16,7.02 -45.39,7.02 -16.28,0 -30.54,-3.81 -42.78,-11.53 -12.36,-7.61 -22.11,-19.73 -29.24,-36.36 -7.24,-16.64 -10.81,-37.67 -10.81,-63.22 0,-24.36 2.85,-48.96 8.56,-73.8 5.7,-24.84 14.02,-48.01 25.19,-69.4 11.17,-21.51 25.19,-39.93 42.18,-55.26 16.88,-15.33 36.13,-26.97 57.52,-34.93 21.51,-7.96 44.92,-12 70.23,-12 34.58,0 64.05,8.31 88.41,25.07zm-52.64 109.33c1.66,-7.49 2.97,-15.81 4.04,-24.96 1.07,-9.15 1.54,-18.06 1.54,-26.62 0,-15.33 -2.85,-26.85 -8.67,-34.82 -5.82,-7.84 -15.33,-11.76 -28.52,-11.76 -21.63,0 -40.76,10.81 -57.52,32.44 -16.63,21.75 -30.06,50.98 -40.28,87.58 -10.22,36.72 -15.33,69.52 -15.33,98.51 0,17 2.5,29.59 7.49,38.03 4.99,8.32 12.71,12.48 23.17,12.48 15.21,0 30.9,-7.49 46.82,-22.46 15.8,-14.97 28.64,-32.56 38.38,-52.76 9.75,-20.21 18.54,-47.77 26.15,-82.83l2.73 -12.83z"/>
   <path id="8" class="fil1" d="M5065.7 4344.58c-16.52,17.83 -31.26,31.49 -44.33,41 -12.95,9.62 -26.5,16.64 -40.64,21.15 -14.14,4.52 -30.54,6.78 -49.08,6.78 -18.89,0 -34.46,-3.45 -46.82,-10.34 -12.47,-6.78 -21.51,-15.93 -26.97,-27.45 -5.59,-11.53 -8.44,-24.48 -8.44,-38.86 0,-10.82 0.83,-21.27 2.5,-31.14 1.54,-9.86 4.99,-26.02 10.1,-48.6l35.77 -151.04 -46.94 0 4.87 -22.93c14.38,-0.95 25.67,-3.33 33.75,-7.13 8.08,-3.92 15.09,-9.51 20.67,-16.99 5.71,-7.37 11.18,-17.59 16.28,-30.54 5.11,-13.08 10.82,-30.66 17,-53l83.54 0 -20.2 87.1 84.61 0 -9.39 43.49 -85.21 0 -38.74 159.12c-1.54,6.89 -3.09,13.79 -4.51,20.56 -1.43,6.65 -2.5,13.07 -3.45,19.25 -0.95,6.18 -1.54,11.29 -1.9,15.33 -0.36,4.04 -0.59,7.72 -0.59,10.93 0,10.94 2.02,18.9 5.94,23.89 3.92,4.99 9.74,7.48 17.47,7.48 10.45,0 21.15,-3.68 32.2,-11.17 10.93,-7.36 22.94,-18.89 35.65,-34.46l26.86 27.57z"/>
   <path id="9" class="fil1" d="M5292.31 3923.67l-18.06 85.33 -90.2 0 19.13 -85.33 89.13 0zm-80.45 391.32c-2.5,11.53 -4.16,20.2 -4.87,25.79 -0.6,5.47 -0.95,10.22 -0.95,13.9 0,9.98 2.61,17.11 7.84,21.51 5.11,4.4 14.14,7.37 26.97,8.8l-3.92 22.93 -144.74 0 54.31 -243.01c2.97,-13.91 5.11,-24.72 6.18,-32.56 1.19,-7.73 1.78,-14.26 1.78,-19.61 0,-9.15 -2.14,-15.57 -6.41,-19.37 -4.28,-3.8 -13.31,-6.42 -26.98,-7.84l5.23 -22.94 101.96 -3.92 39.69 0 -56.09 256.32z"/>
   <path id="10" class="fil1" d="M5441.68 4413.51c-25.55,0 -48.01,-4.64 -67.38,-13.79 -19.37,-9.15 -34.58,-23.05 -45.63,-41.71 -11.05,-18.78 -16.52,-41.59 -16.52,-68.45 0,-10.22 0.71,-21.63 2.02,-34.1 1.9,-15.81 5.11,-31.97 9.74,-48.37 5.35,-19.13 12.13,-36 20.21,-50.86 8.79,-16.75 19.01,-31.13 30.66,-43.37 11.64,-12.12 24.24,-22.23 37.78,-30.31 13.55,-7.96 28.41,-14.02 44.33,-18.3 19.13,-4.87 39.1,-7.24 59.89,-7.24 28.88,0 53,5.22 72.49,15.8 19.49,10.58 33.87,25.31 43.25,44.09 9.51,18.77 14.15,40.64 14.15,65.47 0,30.54 -5.11,61.32 -15.33,92.22 -10.22,30.9 -24.25,56.68 -42.31,77.6 -17.94,20.91 -39.21,36.36 -63.81,46.34 -24.6,9.98 -52.53,14.98 -83.54,14.98zm-35.89 -101.37c0,21.87 3.57,38.15 10.58,48.96 7.13,10.81 18.3,16.16 33.63,16.16 8.55,0 16.75,-1.78 24.48,-5.35 7.84,-3.68 15.44,-9.74 23.05,-18.53 7.49,-8.68 14.26,-19.73 20.32,-33.04 6.06,-13.31 11.76,-29.83 17.23,-49.43 5.47,-19.61 9.75,-38.86 12.72,-57.64 2.97,-18.77 4.51,-36.24 4.51,-52.52 0,-23.18 -3.56,-40.29 -10.57,-51.22 -7.13,-10.93 -18.07,-16.28 -32.92,-16.28 -19.49,0 -36.36,9.39 -50.62,28.28 -14.26,19.01 -26.62,48.25 -36.96,87.82 -10.34,39.57 -15.45,73.79 -15.45,102.79z"/>
   <path id="11" class="fil1" d="M6039.65 4407.92l-144.38 0 43.49 -189.42c6.3,-26.86 10.1,-45.51 11.52,-55.73 1.31,-10.1 2.03,-18.18 2.03,-24.01 0,-10.45 -2.14,-18.18 -6.66,-23.29 -4.4,-5.11 -10.69,-7.6 -19.13,-7.6 -7.37,0 -15.57,2.73 -24.36,8.31 -8.8,5.59 -18.66,14.26 -29.59,26.15 -10.93,11.76 -19.61,24.36 -26.15,37.55 -6.41,13.19 -11.64,29.71 -15.56,49.43l-38.39 178.61 -99.82 0 54.67 -245.75c1.07,-5.58 2.61,-13.54 4.63,-23.88 2.02,-10.34 2.97,-19.02 2.97,-25.91 0,-9.74 -2.73,-16.52 -8.2,-20.08 -5.46,-3.57 -14.02,-5.82 -25.55,-6.77l5.23 -22.94 95.66 -3.92 36.6 0 -19.84 75.22 4.16 1.43c16.04,-19.73 30.9,-35.18 44.56,-46.47 13.67,-11.29 27.33,-19.37 40.88,-24.36 13.67,-4.99 28.64,-7.48 45.16,-7.48 23.88,0 42.66,6.65 56.32,19.96 13.79,13.43 20.56,31.73 20.56,55.26 0,15.09 -2.26,33.03 -6.89,53.95l-28.64 128.81c-2.26,10.7 -3.8,18.9 -4.63,24.72 -0.84,5.82 -1.19,10.81 -1.19,14.97 0,10.46 2.61,17.71 7.84,21.87 5.23,4.16 14.14,7.01 26.98,8.44l-4.28 22.93z"/>
   <path id="12" class="fil1" d="M6456.75 4366.45c11.41,0 20.2,-0.83 26.5,-2.74 6.3,-1.9 12,-4.75 17,-8.67 5.11,-4.04 10.81,-9.39 16.99,-16.4 6.06,-7.01 12.24,-16.04 18.18,-27.21 6.06,-11.05 12.24,-24.96 18.54,-41.71l47.29 0 -35.53 138.2 -318.47 0 4.87 -22.93c9.75,-2.86 17.23,-6.66 22.46,-11.53 5.23,-4.87 9.63,-11.77 13.31,-20.68 3.8,-9.03 7.49,-21.86 11.17,-38.86l63.34 -287.22c3.09,-13.66 4.51,-27.33 4.51,-40.76 0,-9.74 -2.25,-16.87 -6.77,-21.39 -4.51,-4.51 -11.88,-7.48 -22.1,-8.91l4.87 -22.93 175.16 0 -4.87 22.93c-9.75,2.85 -17.23,6.65 -22.46,11.53 -5.23,4.87 -9.75,11.76 -13.43,20.67 -3.68,9.04 -7.37,21.87 -11.17,38.86l-75.1 339.75 65.71 0z"/>
   <path id="13" class="fil1" d="M6779.99 4413.51c-25.55,0 -48.01,-4.64 -67.38,-13.79 -19.37,-9.15 -34.59,-23.05 -45.64,-41.71 -11.05,-18.78 -16.52,-41.59 -16.52,-68.45 0,-10.22 0.71,-21.63 2.02,-34.1 1.9,-15.81 5.11,-31.97 9.74,-48.37 5.35,-19.13 12.13,-36 20.21,-50.86 8.8,-16.75 19.02,-31.13 30.67,-43.37 11.64,-12.12 24.24,-22.23 37.78,-30.31 13.55,-7.96 28.41,-14.02 44.33,-18.3 19.13,-4.87 39.1,-7.24 59.89,-7.24 28.88,0 53,5.22 72.49,15.8 19.49,10.58 33.87,25.31 43.25,44.09 9.51,18.77 14.15,40.64 14.15,65.47 0,30.54 -5.11,61.32 -15.33,92.22 -10.22,30.9 -24.25,56.68 -42.31,77.6 -17.94,20.91 -39.21,36.36 -63.81,46.34 -24.6,9.98 -52.53,14.98 -83.54,14.98zm-35.89 -101.37c0,21.87 3.57,38.15 10.58,48.96 7.13,10.81 18.3,16.16 33.63,16.16 8.55,0 16.75,-1.78 24.48,-5.35 7.84,-3.68 15.44,-9.74 23.05,-18.53 7.49,-8.68 14.26,-19.73 20.32,-33.04 6.06,-13.31 11.76,-29.83 17.23,-49.43 5.47,-19.61 9.75,-38.86 12.72,-57.64 2.97,-18.77 4.51,-36.24 4.51,-52.52 0,-23.18 -3.56,-40.29 -10.57,-51.22 -7.13,-10.93 -18.07,-16.28 -32.92,-16.28 -19.49,0 -36.36,9.39 -50.62,28.28 -14.26,19.01 -26.62,48.25 -36.96,87.82 -10.34,39.57 -15.45,73.79 -15.45,102.79z"/>
   <path id="14" class="fil1" d="M7326.5 4082.08l31.37 -25.07 38.98 5.58 -53.59 242.66c-2.85,12.24 -4.87,22.1 -6.18,29.59 -1.31,7.37 -1.9,13.66 -1.9,18.77 0,10.46 2.61,17.95 7.72,22.58 5.11,4.64 14.14,7.61 27.1,8.8l-3.81 22.93 -133.68 0 18.77 -71.42 -4.51 -1.31c-15.81,20.44 -30.43,36.25 -44.09,47.54 -13.55,11.17 -26.86,19.13 -40.05,23.76 -13.07,4.64 -28.16,7.02 -45.39,7.02 -16.28,0 -30.54,-3.81 -42.78,-11.53 -12.36,-7.61 -22.11,-19.73 -29.24,-36.36 -7.24,-16.64 -10.81,-37.67 -10.81,-63.22 0,-24.36 2.85,-48.96 8.56,-73.8 5.7,-24.84 14.02,-48.01 25.19,-69.4 11.17,-21.51 25.19,-39.93 42.18,-55.26 16.88,-15.33 36.13,-26.97 57.52,-34.93 21.51,-7.96 44.92,-12 70.23,-12 34.58,0 64.05,8.31 88.41,25.07zm-52.64 109.33c1.66,-7.49 2.97,-15.81 4.04,-24.96 1.07,-9.15 1.54,-18.06 1.54,-26.62 0,-15.33 -2.85,-26.85 -8.67,-34.82 -5.82,-7.84 -15.33,-11.76 -28.52,-11.76 -21.63,0 -40.76,10.81 -57.52,32.44 -16.63,21.75 -30.06,50.98 -40.28,87.58 -10.22,36.72 -15.33,69.52 -15.33,98.51 0,17 2.5,29.59 7.49,38.03 4.99,8.32 12.71,12.48 23.17,12.48 15.21,0 30.9,-7.49 46.82,-22.46 15.8,-14.97 28.64,-32.56 38.38,-52.76 9.75,-20.21 18.54,-47.77 26.15,-82.83l2.73 -12.83z"/>
   <path id="15" class="fil1" d="M7784.25 4407.92l-144.38 0 43.49 -189.42c6.3,-26.86 10.1,-45.51 11.52,-55.73 1.31,-10.1 2.03,-18.18 2.03,-24.01 0,-10.45 -2.14,-18.18 -6.66,-23.29 -4.4,-5.11 -10.69,-7.6 -19.13,-7.6 -7.37,0 -15.57,2.73 -24.36,8.31 -8.8,5.59 -18.66,14.26 -29.59,26.15 -10.93,11.76 -19.61,24.36 -26.15,37.55 -6.41,13.19 -11.64,29.71 -15.56,49.43l-38.39 178.61 -99.82 0 54.67 -245.75c1.07,-5.58 2.61,-13.54 4.63,-23.88 2.02,-10.34 2.97,-19.02 2.97,-25.91 0,-9.74 -2.73,-16.52 -8.2,-20.08 -5.46,-3.57 -14.02,-5.82 -25.55,-6.77l5.23 -22.94 95.66 -3.92 36.6 0 -19.84 75.22 4.16 1.43c16.04,-19.73 30.9,-35.18 44.56,-46.47 13.67,-11.29 27.33,-19.37 40.88,-24.36 13.67,-4.99 28.64,-7.48 45.16,-7.48 23.88,0 42.66,6.65 56.32,19.96 13.79,13.43 20.56,31.73 20.56,55.26 0,15.09 -2.26,33.03 -6.89,53.95l-28.64 128.81c-2.26,10.7 -3.8,18.9 -4.63,24.72 -0.84,5.82 -1.19,10.81 -1.19,14.97 0,10.46 2.61,17.71 7.84,21.87 5.23,4.16 14.14,7.01 26.98,8.44l-4.28 22.93z"/>
   <path id="16" class="fil1" d="M8054.12 4291.94c0.71,20.44 3.8,36.6 9.39,48.24 5.58,11.77 13.42,20.09 23.64,25.08 10.22,4.99 23.77,7.49 40.41,7.49 25.31,0 45.27,-7.25 59.89,-21.75 14.62,-14.5 21.98,-34.82 21.98,-60.73 0,-13.54 -2.37,-25.43 -7.01,-35.76 -4.63,-10.22 -11.76,-20.32 -21.39,-30.07 -9.62,-9.74 -26.26,-23.29 -49.91,-40.76 -22.1,-16.16 -38.74,-34.22 -50.03,-53.95 -11.29,-19.73 -16.87,-40.4 -16.87,-61.91 0,-18.42 3.92,-36.36 11.88,-53.95 7.84,-17.71 19.49,-33.04 34.94,-46.23 15.45,-13.07 34.82,-23.05 58.35,-30.06 23.41,-7.01 50.74,-10.46 82.11,-10.46 23.17,0 44.56,1.19 64.05,3.68 19.49,2.38 39.57,6.78 60.25,13.08l-21.27 99.22 -45.51 0c-0.24,-26.02 -5.35,-45.04 -15.33,-57.16 -9.99,-12 -26.15,-18.06 -48.49,-18.06 -24.36,0 -43.61,6.54 -57.75,19.61 -14.14,13.19 -21.27,31.25 -21.27,54.19 0,16.28 5.7,31.61 16.87,46.1 11.29,14.5 28.28,30.07 51.1,46.47 20.68,15.33 36.48,29.11 47.65,41.23 11.17,12.24 19.49,25.19 25.08,38.86 5.58,13.67 8.31,29.35 8.31,47.06 0,23.65 -5.7,46.11 -16.99,67.5 -10.93,19.96 -25.67,36.6 -44.2,49.79 -16.52,11.64 -33.52,19.96 -50.87,25.07 -21.39,6.54 -48.6,9.75 -81.87,9.75 -21.27,0 -43.61,-1.91 -67.02,-5.59 -23.29,-3.68 -45.75,-8.91 -67.26,-15.69l21.51 -100.29 45.63 0z"/>
   <path id="17" class="fil1" d="M8415.84 4165.26c5.59,-25.07 8.32,-42.42 8.32,-52.17 0,-9.62 -2.37,-16.28 -7.36,-20.08 -4.88,-3.8 -13.67,-6.3 -26.39,-7.48l5.23 -22.94 94.36 -3.92 37.9 0 -19.84 75.22 4.16 1.43c15.8,-20.21 30.42,-35.89 43.85,-47.18 13.54,-11.29 26.85,-19.25 40.05,-24 13.31,-4.76 28.52,-7.13 45.64,-7.13 16.28,0 30.54,3.8 42.78,11.52 12.36,7.61 22.1,19.73 29.23,36.36 7.25,16.52 10.81,37.68 10.81,63.11 0,24.48 -2.85,49.07 -8.43,73.91 -5.71,24.72 -14.14,47.89 -25.08,69.4 -11.05,21.51 -25.07,39.81 -41.95,55.14 -16.99,15.33 -36.24,26.97 -57.64,35.05 -21.51,7.96 -44.92,12.01 -70.23,12.01 -20.56,0 -40.52,-3.57 -59.89,-10.82l-15.57 73.44c-0.71,3.68 -1.43,7.25 -1.9,10.7 -0.59,3.32 -1.07,6.41 -1.31,9.38 -0.24,2.86 -0.35,5.59 -0.35,8.2 0,9.87 2.61,17.11 7.84,21.51 5.23,4.4 14.26,7.37 26.97,8.68l-3.8 23.05 -144.86 0 87.46 -392.39zm69.64 113.84c-3.8,17.24 -5.58,33.99 -5.58,50.51 0,16.87 2.85,29.11 8.55,36.48 5.59,7.49 15.21,11.17 28.64,11.17 8.68,0 16.52,-1.43 23.89,-4.16 7.24,-2.73 14.49,-7.37 21.62,-13.78 7.01,-6.3 14.14,-15.69 21.39,-28.05 9.04,-15.21 17.01,-32.68 23.78,-52.17 6.89,-19.48 12.24,-39.92 16.28,-61.43 3.92,-21.51 5.82,-41.12 5.82,-59.06 0,-17.11 -2.49,-29.83 -7.48,-38.03 -4.99,-8.32 -12.6,-12.36 -23.06,-12.36 -15.34,0 -31.02,7.49 -46.83,22.46 -15.92,14.86 -28.64,32.21 -38.14,51.93 -9.51,19.73 -18.3,47.65 -26.15,83.66l-2.73 12.83z"/>
   <path id="18" class="fil1" d="M9064.09 4335.55c-23.41,26.38 -48.72,45.99 -75.7,58.82 -27.09,12.72 -56.32,19.14 -87.93,19.14 -27.1,0 -50.27,-4.76 -69.28,-14.26 -19.02,-9.51 -33.4,-23.65 -43.02,-42.31 -9.63,-18.66 -14.38,-41 -14.38,-67.02 0,-12.12 1.54,-27.57 4.87,-46.35 4.4,-25.55 11.05,-48.24 20.2,-68.21 11.29,-24.6 26.15,-45.75 44.57,-63.34 18.3,-17.7 39.81,-31.25 64.52,-40.75 24.72,-9.51 51.81,-14.26 81.28,-14.26 34.82,0 61.32,6.29 79.39,19.01 18.06,12.59 27.21,31.96 27.21,57.87 0,17.71 -3.57,33.27 -10.7,46.7 -7.01,13.43 -18.77,25.67 -35.29,36.6 -16.52,10.82 -39.81,19.73 -69.76,26.38 -30.06,6.78 -66.42,10.58 -108.85,11.53 -2.97,13.67 -4.51,27.81 -4.51,42.42 0,8.68 0.83,16.76 2.37,24.6 1.67,7.73 4.52,14.62 8.8,20.68 4.16,6.06 9.74,10.81 16.63,14.5 7.02,3.56 15.93,5.34 26.86,5.34 20.44,0 38.86,-4.15 55.38,-12.35 16.4,-8.2 35.77,-22.94 58.11,-43.97l29.23 29.23zm-184.55 -117.05c42.78,-1.19 75.46,-9.27 98.04,-24.48 22.58,-15.21 33.99,-36.72 33.99,-64.65 0,-11.76 -2.74,-20.79 -8.2,-26.97 -5.47,-6.18 -13.08,-9.15 -22.82,-9.15 -21.63,0 -41,10.58 -58.35,31.97 -17.23,21.39 -31.49,52.4 -42.66,93.28z"/>
   <path id="19" class="fil1" d="M9367 4315.71l28.16 30.18c-24.36,24.48 -48.72,41.83 -73.08,52.17 -24.36,10.22 -51.22,15.45 -80.45,15.45 -23.89,0 -44.33,-5.11 -61.32,-15.33 -16.88,-10.22 -29.59,-24.84 -38.03,-43.74 -8.55,-18.89 -12.71,-41.11 -12.71,-66.66 0,-20.2 2.37,-40.29 7.25,-60.25 3.44,-14.62 7.96,-28.99 13.54,-43.14 7.49,-18.77 16.16,-35.17 26.15,-49.07 11.88,-16.28 26.02,-30.31 42.66,-42.07 16.63,-11.88 35.29,-20.92 56.09,-27.09 20.67,-6.07 43.01,-9.15 67.02,-9.15 15.57,0 32.32,1.18 50.38,3.68 18.18,2.38 34.23,5.82 48.13,10.22l-19.49 84.96 -62.74 0c0.47,-4.87 0.71,-9.86 0.71,-14.97 0,-16.75 -2.49,-28.88 -7.6,-36.36 -5.11,-7.61 -12.72,-11.29 -22.7,-11.29 -17.11,0 -33.51,9.86 -49.08,29.59 -15.57,19.73 -28.52,47.06 -38.98,82.11 -10.45,35.06 -15.68,65.84 -15.68,92.22 0,43.61 15.92,65.47 47.77,65.47 15.92,0 31.13,-3.56 45.39,-10.81 14.26,-7.13 30.42,-19.25 48.61,-36.12z"/>
   <path id="20" class="fil1" d="M9647.2 3923.67l-18.06 85.33 -90.2 0 19.13 -85.33 89.13 0zm-80.45 391.32c-2.5,11.53 -4.16,20.2 -4.87,25.79 -0.6,5.47 -0.95,10.22 -0.95,13.9 0,9.98 2.61,17.11 7.84,21.51 5.11,4.4 14.14,7.37 26.97,8.8l-3.92 22.93 -144.74 0 54.31 -243.01c2.97,-13.91 5.11,-24.72 6.18,-32.56 1.19,-7.73 1.78,-14.26 1.78,-19.61 0,-9.15 -2.14,-15.57 -6.41,-19.37 -4.28,-3.8 -13.31,-6.42 -26.98,-7.84l5.23 -22.94 101.96 -3.92 39.69 0 -56.09 256.32z"/>
   <path id="21" class="fil1" d="M9958.06 4082.08l31.37 -25.07 38.98 5.58 -53.59 242.66c-2.85,12.24 -4.87,22.1 -6.18,29.59 -1.31,7.37 -1.9,13.66 -1.9,18.77 0,10.46 2.61,17.95 7.72,22.58 5.11,4.64 14.14,7.61 27.1,8.8l-3.81 22.93 -133.68 0 18.77 -71.42 -4.51 -1.31c-15.81,20.44 -30.43,36.25 -44.09,47.54 -13.55,11.17 -26.86,19.13 -40.05,23.76 -13.07,4.64 -28.16,7.02 -45.39,7.02 -16.28,0 -30.54,-3.81 -42.78,-11.53 -12.36,-7.61 -22.11,-19.73 -29.24,-36.36 -7.24,-16.64 -10.81,-37.67 -10.81,-63.22 0,-24.36 2.85,-48.96 8.56,-73.8 5.7,-24.84 14.02,-48.01 25.19,-69.4 11.17,-21.51 25.19,-39.93 42.18,-55.26 16.88,-15.33 36.13,-26.97 57.52,-34.93 21.51,-7.96 44.92,-12 70.23,-12 34.58,0 64.05,8.31 88.41,25.07zm-52.64 109.33c1.66,-7.49 2.97,-15.81 4.04,-24.96 1.07,-9.15 1.54,-18.06 1.54,-26.62 0,-15.33 -2.85,-26.85 -8.67,-34.82 -5.82,-7.84 -15.33,-11.76 -28.52,-11.76 -21.63,0 -40.76,10.81 -57.52,32.44 -16.63,21.75 -30.06,50.98 -40.28,87.58 -10.22,36.72 -15.33,69.52 -15.33,98.51 0,17 2.5,29.59 7.49,38.03 4.99,8.32 12.71,12.48 23.17,12.48 15.21,0 30.9,-7.49 46.82,-22.46 15.8,-14.97 28.64,-32.56 38.38,-52.76 9.75,-20.21 18.54,-47.77 26.15,-82.83l2.73 -12.83z"/>
   <path id="22" class="fil1" d="M10234.82 3909.41l39.34 0 -89.84 405.58c-2.26,10.7 -3.8,18.9 -4.63,24.72 -0.84,5.82 -1.31,10.81 -1.31,14.97 0,9.98 2.61,17.11 7.84,21.51 5.23,4.4 14.26,7.37 26.98,8.8l-3.81 22.93 -144.85 0 88.17 -393.46c5.11,-22.69 7.61,-39.33 7.61,-49.67 0,-5.11 -0.48,-9.15 -1.55,-12.12 -1.07,-2.85 -2.61,-5.23 -4.75,-7.13 -2.02,-1.78 -4.87,-3.21 -8.32,-4.28 -3.45,-1.07 -10.34,-2.26 -20.56,-3.68l5.59 -22.58 104.09 -5.59z"/>
   <path id="23" class="fil1" d="M10480.57 3923.67l-18.06 85.33 -90.2 0 19.13 -85.33 89.13 0zm-80.45 391.32c-2.5,11.53 -4.16,20.2 -4.87,25.79 -0.6,5.47 -0.95,10.22 -0.95,13.9 0,9.98 2.61,17.11 7.84,21.51 5.11,4.4 14.14,7.37 26.97,8.8l-3.92 22.93 -144.74 0 54.31 -243.01c2.97,-13.91 5.11,-24.72 6.18,-32.56 1.19,-7.73 1.78,-14.26 1.78,-19.61 0,-9.15 -2.14,-15.57 -6.41,-19.37 -4.28,-3.8 -13.31,-6.42 -26.98,-7.84l5.23 -22.94 101.96 -3.92 39.69 0 -56.09 256.32z"/>
   <path id="24" class="fil1" d="M10536.19 4310.48c1.19,16.63 4.63,30.06 10.34,40.16 5.7,10.1 12.71,17.11 21.03,20.92 8.32,3.8 18.06,5.7 29.23,5.7 18.3,0 32.56,-4.4 42.55,-13.43 9.98,-8.91 14.97,-21.51 14.97,-37.79 0,-9.74 -1.66,-17.94 -4.87,-24.59 -3.33,-6.78 -8.68,-13.31 -16.05,-19.73 -7.48,-6.42 -19.48,-14.74 -36.24,-24.96 -23.17,-13.9 -40.05,-28.28 -50.62,-43.25 -10.58,-14.97 -15.81,-31.73 -15.81,-50.39 0,-34.1 12.72,-60.25 38.27,-78.66 25.55,-18.3 61.2,-27.45 107.18,-27.45 17.95,0 37.08,1.42 57.64,4.27 20.56,2.97 39.33,6.9 56.21,11.77l-18.07 83.18 -44.2 0c-2.14,-21.63 -7.61,-37.55 -16.52,-47.77 -9.03,-10.1 -21.75,-15.21 -38.5,-15.21 -15.57,0 -28.05,3.92 -37.43,12 -9.39,7.96 -14.15,18.78 -14.15,32.56 0,8.56 1.79,16.04 5.47,22.58 3.57,6.54 9.27,12.95 17.23,19.49 7.84,6.53 19.61,14.38 35.18,23.65 24.59,14.61 42.18,29.7 52.88,45.27 10.69,15.57 16.04,33.75 16.04,54.67 0,23.64 -6.42,43.84 -19.01,60.6 -12.6,16.64 -29.95,29.11 -51.93,37.2 -21.87,8.19 -46.94,12.24 -74.99,12.24 -24.83,0 -47.89,-1.55 -69.28,-4.52 -21.39,-3.09 -41.48,-7.13 -60.26,-12.24l19.49 -86.27 44.22 0z"/>
   <path id="25" class="fil1" d="M11044.2 4344.58c-16.52,17.83 -31.26,31.49 -44.33,41 -12.95,9.62 -26.5,16.64 -40.64,21.15 -14.14,4.52 -30.54,6.78 -49.08,6.78 -18.89,0 -34.46,-3.45 -46.82,-10.34 -12.47,-6.78 -21.51,-15.93 -26.97,-27.45 -5.59,-11.53 -8.44,-24.48 -8.44,-38.86 0,-10.82 0.83,-21.27 2.5,-31.14 1.54,-9.86 4.99,-26.02 10.1,-48.6l35.77 -151.04 -46.94 0 4.87 -22.93c14.38,-0.95 25.67,-3.33 33.75,-7.13 8.08,-3.92 15.09,-9.51 20.67,-16.99 5.71,-7.37 11.18,-17.59 16.28,-30.54 5.11,-13.08 10.82,-30.66 17,-53l83.54 0 -20.2 87.1 84.61 0 -9.39 43.49 -85.21 0 -38.74 159.12c-1.54,6.89 -3.09,13.79 -4.51,20.56 -1.43,6.65 -2.5,13.07 -3.45,19.25 -0.95,6.18 -1.54,11.29 -1.9,15.33 -0.36,4.04 -0.59,7.72 -0.59,10.93 0,10.94 2.02,18.9 5.94,23.89 3.92,4.99 9.74,7.48 17.47,7.48 10.45,0 21.15,-3.68 32.2,-11.17 10.93,-7.36 22.94,-18.89 35.65,-34.46l26.86 27.57z"/>
   <path class="fil2" d="M8400.41 2041.86c261.53,-50.98 456.15,129.77 486.56,342.96 42.57,273.44 -97.31,491.26 -328.43,532.97 -565.62,97.33 -699.43,-769.34 -158.13,-875.93zm-936.62 546.88c79.06,18.54 206.78,-32.44 298.01,-37.08 -24.32,101.96 -170.29,412.48 -152.05,472.72 30.41,92.7 212.87,245.64 328.43,301.25 152.05,74.15 352.76,106.6 553.46,64.88 85.15,-18.53 158.13,-46.34 225.03,-92.69 109.48,-69.51 121.64,-115.86 176.38,-148.3l0 231.73 589.95 -4.64 0 -2391.43 -583.87 4.64 -6.08 811.04c-42.57,-23.17 -60.82,-55.61 -97.31,-88.05 -97.31,-78.79 -218.95,-134.41 -358.84,-157.58 -212.87,-32.44 -413.57,13.91 -565.62,106.6 -304.1,185.38 -407.49,477.36 -407.49,926.91z"/>
   <path class="fil2" d="M3103.01 2607.28c-225.04,481.99 -1119.09,370.76 -1100.84,-389.31 6.08,-296.61 158.13,-528.34 407.49,-602.49 316.26,-97.32 608.2,50.98 699.43,264.17l644.69 -4.63c-54.74,-282.71 -267.61,-500.54 -462.23,-616.4 -237.2,-148.3 -553.46,-208.55 -894.05,-162.21 -1313.71,180.75 -1338.04,2085.55 -6.09,2284.84 340.6,50.98 675.1,-18.54 912.3,-162.21 170.3,-106.6 407.49,-342.96 450.07,-616.4l-650.77 4.64z"/>
   <path class="fil2" d="M12755.11 2041.86c565.62,-111.23 675.1,778.6 158.13,875.93 -565.62,101.96 -705.51,-769.34 -158.13,-875.93zm486.56 -236.36c-139.89,-106.6 -170.3,-199.29 -425.74,-245.63 -206.79,-37.08 -401.41,0 -553.46,78.78 -808.91,435.65 -486.56,1960.42 565.62,1751.86 237.2,-46.34 285.86,-139.03 413.58,-245.63l6.08 236.37 589.95 -4.64 -6.08 -1802.84 -583.87 4.63 -6.08 227.1z"/>
   <path class="fil3" d="M7427.29 2815.83c-182.46,46.35 -322.34,111.23 -547.37,139.04 -212.87,27.8 -407.5,4.63 -577.79,-97.33 -480.48,-291.98 -358.84,-1112.29 24.33,-1376.46 346.67,-241 620.36,241 231.11,648.84 -42.57,50.98 -121.64,106.59 -194.62,143.67 -36.49,23.17 -72.99,37.07 -115.56,55.61 -54.74,18.54 -97.31,27.81 -133.8,60.25 334.51,-4.63 669.01,-120.5 869.72,-273.44 608.2,-454.18 158.13,-1163.27 -717.67,-820.31 -273.69,106.59 -480.48,310.51 -638.61,505.16 -352.76,435.65 -431.82,1279.14 176.38,1529.41 310.18,129.76 669.01,83.42 967.03,-37.08 194.62,-83.42 583.87,-319.79 656.85,-477.36z"/>
   <polygon class="fil2" points="10918.35,3381.25 11502.22,3381.25 11502.22,985.18 10924.43,980.55 "/>
   <path class="fil2" d="M4702.57 1856.48l0 -282.71 -583.87 0 -6.08 1802.84 589.95 4.64c6.08,-1038.14 -152.05,-1237.43 596.03,-1242.06l6.08 -583.96c-346.67,0 -443.98,162.21 -602.11,301.25z"/>
   <polygon class="fil2" points="9908.74,3381.24 10492.61,3377.45 10492.61,1901.28 9908.74,1901.28 "/>
   <path class="fil2" d="M10127.69 1115.79c-437.9,81.42 -334.51,742.95 164.22,646.26 152.05,-30.53 291.93,-193.36 249.36,-396.91 -36.49,-173.02 -200.71,-284.97 -413.58,-249.35z"/>
   <path class="fil3" d="M7202.26 2695.33l298.02 60.25c30.41,60.25 24.33,227.09 30.41,296.61 42.57,-46.34 164.21,-412.47 170.29,-454.18l-498.72 97.32z"/>
   <polygon class="fil4" points="9948.79,522.35 10474.79,533.15 10892.42,856.34 10354.6,872.82 "/>
   <path class="fil4" d="M10138.97 686.71l-114.13 267.27c77.77,-45.57 250.57,32.87 262.42,92.62 43,-40.23 220.28,-0.95 260.98,92.46l71.34 -273.86 -264.98 7.62 -215.63 -186.11z"/>
   <polygon class="fil5" points="9948.79,522.35 9943.65,534.12 10350.3,884.57 10889.93,868.11 10892.42,856.34 10354.6,872.82 "/>
   <path class="fil4" d="M10030.3 609.45c16.74,6.09 26.2,24.7 20.5,41.51 -4.25,11.91 -15.06,18.87 -26.36,21.27l-54.11 225.38c-14.18,60.61 -102.83,29.18 -76,-26.79l100.5 -208.99c-7.62,-9.1 -11.39,-21.11 -7.3,-33.27 6.02,-16.46 24.99,-25.12 42.77,-19.11z"/>
   <path class="fil6" d="M10452.13 688.87c-1.58,4.81 -4.46,8.4 -8.39,11.58 -4.25,3.93 -9.69,6.41 -15.53,7.85 -5.92,1.53 -10.57,2.39 -17.78,1.6 -5.13,0 -10.5,-0.79 -16.11,-2.78l5.61 -15.93c4.48,1.21 8.57,2.07 12.01,2.49 4.49,-0.42 9.07,-0.42 12.9,-0.98 2.56,-1.83 5.51,-3.02 7.14,-4.94 2.07,-0.89 2.72,-2.33 3.18,-3.93 1.77,-4.87 0,-9.68 -2.72,-14.48 -1.51,-1.51 -2.95,-2.79 -4.23,-4.16 -1.21,-1.51 -3.37,-3.11 -5.06,-3.5 -3.51,-2.42 -6.49,-4.16 -10.49,-5.69l5.61 -15.83c5.69,1.67 10.08,4.22 15.06,6.87 2.32,1.99 4.48,3.6 6.88,5.29 0.81,2 2.88,3.67 4.74,6.22 7.44,8.96 10.81,19.85 7.18,30.32zm-57.81 18.25l0 0 -0.79 -0.26c-4.81,-1.67 -9.29,-3.27 -14.41,-7.03 -2.32,-1.67 -4.18,-3.37 -6.48,-5.04 -2.98,-1.67 -4.81,-4.25 -5.53,-6.25 -5.54,-5.59 -8.81,-12.07 -8.81,-18.47 -23.88,-1.19 -50.86,-7.2 -77.75,-14.14 -30.52,-7.92 -63.04,-18.57 -92.59,-28.39l-14.48 -4.81c-60.94,-21.75 -108.75,-38.63 -132.44,-7.52l-14.34 -10.4c31.08,-42.13 84.47,-23.1 152.71,0.88l14.09 5.04c28.91,10.08 60.45,20.41 90.95,28.72 27.47,6.96 54.39,12.14 78.01,13.99 0.95,-3.13 3.44,-5.03 4.81,-6.4 4.07,-3.83 9.53,-6.32 15.78,-8.87 5.51,-0.72 11.2,-1.28 17.69,-0.81 5.21,0.09 11.3,0.32 17.53,2.81l-5.61 15.83 -0.72 -0.23c-4.23,-1.44 -8.48,-1.93 -12.8,-1.93 -3.61,-0.4 -7.37,0.32 -11.37,1.44 -3.05,0.72 -6.49,2.25 -8.65,3.99 -1.28,1.44 -2.74,2.81 -3.46,4.41 -1.84,4.55 0,9.75 4.81,14.23 0.81,2.39 2.58,3.44 3.86,4 1.35,1.43 2.72,2.97 5.11,3.85 2.56,2.78 6.81,3.92 10.49,5.43l-5.61 15.93z"/>
   <polygon class="fil7" points="9948.79,522.35 10474.79,533.15 10892.42,856.34 10354.6,872.82 "/>
   <path class="fil7" d="M10138.97 686.71l-114.13 267.27c77.77,-45.57 250.57,32.87 262.42,92.62 43,-40.23 220.28,-0.95 260.98,92.46l71.34 -273.86 -264.98 7.62 -215.63 -186.11z"/>
   <polygon class="fil5" points="9948.79,522.35 9943.65,534.12 10350.3,884.57 10889.93,868.11 10892.42,856.34 10354.6,872.82 "/>
   <path class="fil7" d="M10030.3 609.45c16.74,6.09 26.2,24.7 20.5,41.51 -4.25,11.91 -15.06,18.87 -26.36,21.27l-54.11 225.38c-14.18,60.61 -102.83,29.18 -76,-26.79l100.5 -208.99c-7.62,-9.1 -11.39,-21.11 -7.3,-33.27 6.02,-16.46 24.99,-25.12 42.77,-19.11z"/>
   <path class="fil6" d="M10452.13 688.87c-1.58,4.81 -4.46,8.4 -8.39,11.58 -4.25,3.93 -9.69,6.41 -15.53,7.85 -5.92,1.53 -10.57,2.39 -17.78,1.6 -5.13,0 -10.5,-0.79 -16.11,-2.78l5.61 -15.93c4.48,1.21 8.57,2.07 12.01,2.49 4.49,-0.42 9.07,-0.42 12.9,-0.98 2.56,-1.83 5.51,-3.02 7.14,-4.94 2.07,-0.89 2.72,-2.33 3.18,-3.93 1.77,-4.87 0,-9.68 -2.72,-14.48 -1.51,-1.51 -2.95,-2.79 -4.23,-4.16 -1.21,-1.51 -3.37,-3.11 -5.06,-3.5 -3.51,-2.42 -6.49,-4.16 -10.49,-5.69l5.61 -15.83c5.69,1.67 10.08,4.22 15.06,6.87 2.32,1.99 4.48,3.6 6.88,5.29 0.81,2 2.88,3.67 4.74,6.22 7.44,8.96 10.81,19.85 7.18,30.32zm-57.81 18.25l0 0 -0.79 -0.26c-4.81,-1.67 -9.29,-3.27 -14.41,-7.03 -2.32,-1.67 -4.18,-3.37 -6.48,-5.04 -2.98,-1.67 -4.81,-4.25 -5.53,-6.25 -5.54,-5.59 -8.81,-12.07 -8.81,-18.47 -23.88,-1.19 -50.86,-7.2 -77.75,-14.14 -30.52,-7.92 -63.04,-18.57 -92.59,-28.39l-14.48 -4.81c-60.94,-21.75 -108.75,-38.63 -132.44,-7.52l-14.34 -10.4c31.08,-42.13 84.47,-23.1 152.71,0.88l14.09 5.04c28.91,10.08 60.45,20.41 90.95,28.72 27.47,6.96 54.39,12.14 78.01,13.99 0.95,-3.13 3.44,-5.03 4.81,-6.4 4.07,-3.83 9.53,-6.32 15.78,-8.87 5.51,-0.72 11.2,-1.28 17.69,-0.81 5.21,0.09 11.3,0.32 17.53,2.81l-5.61 15.83 -0.72 -0.23c-4.23,-1.44 -8.48,-1.93 -12.8,-1.93 -3.61,-0.4 -7.37,0.32 -11.37,1.44 -3.05,0.72 -6.49,2.25 -8.65,3.99 -1.28,1.44 -2.74,2.81 -3.46,4.41 -1.84,4.55 0,9.75 4.81,14.23 0.81,2.39 2.58,3.44 3.86,4 1.35,1.43 2.72,2.97 5.11,3.85 2.56,2.78 6.81,3.92 10.49,5.43l-5.61 15.93z"/>
  </g>
 </g>
</svg>
