<svg id="logo" xmlns="http://www.w3.org/2000/svg" xmlns:xlink="http://www.w3.org/1999/xlink" width="80.137" height="70.408" viewBox="0 0 80.137 70.408">
  <defs>
    <clipPath id="clip-path">
      <rect id="Rectangle_13" data-name="Rectangle 13" width="80.137" height="70.408" fill="none"/>
    </clipPath>
  </defs>
  <g id="Group_1" data-name="Group 1" clip-path="url(#clip-path)">
    <path id="Path_1" data-name="Path 1" d="M54.671,6.749A21.652,21.652,0,1,1,33.019,28.4,21.653,21.653,0,0,1,54.671,6.749" transform="translate(-15.115 -3.089)" fill="#bf031b" fill-rule="evenodd"/>
    <rect id="Rectangle_1" data-name="Rectangle 1" width="24.764" height="2.236" transform="translate(27.174)" fill="#96999c"/>
    <rect id="Rectangle_2" data-name="Rectangle 2" width="24.764" height="2.235" transform="translate(27.174 48.389)" fill="#96999c"/>
    <rect id="Rectangle_3" data-name="Rectangle 3" width="24.764" height="2.235" transform="translate(11.444 23.379) rotate(-60)" fill="#96999c"/>
    <rect id="Rectangle_4" data-name="Rectangle 4" width="24.764" height="2.235" transform="translate(53.35 47.573) rotate(-60)" fill="#96999c"/>
    <rect id="Rectangle_5" data-name="Rectangle 5" width="2.236" height="24.765" transform="translate(53.35 3.05) rotate(-30)" fill="#96999c"/>
    <rect id="Rectangle_6" data-name="Rectangle 6" width="2.235" height="24.764" transform="translate(11.444 27.245) rotate(-30)" fill="#96999c"/>
    <path id="Path_2" data-name="Path 2" d="M19.876,112.053H22.81v7.15h4.574v2.337H19.876Zm-10.235,0h8.91V114.4H15.56v7.143H12.629V114.4H9.641Zm-4.375,0H8.2v9.487H5.265Zm-5.157,0H3.046v9.487H.108Z" transform="translate(-0.049 -51.293)" fill="#1a1818"/>
    <path id="Path_3" data-name="Path 3" d="M19.876,112.053H22.81v7.15h4.574v2.337H19.876Zm-10.235,0h8.91V114.4H15.56v7.143H12.629V114.4H9.641Zm-4.375,0H8.2v9.487H5.265Zm-5.157,0H3.046v9.487H.108Z" transform="translate(-0.049 -51.293)" fill="none" stroke="#1a1818" stroke-miterlimit="2.613" stroke-width="0.216"/>
    <path id="Path_4" data-name="Path 4" d="M101.858,116.422h2.454a2.6,2.6,0,0,0,1.727-.453,1.614,1.614,0,0,0,.51-1.274,1.712,1.712,0,0,0-.3-1.021,1.4,1.4,0,0,0-.793-.559,5.376,5.376,0,0,0-1.171-.084h-2.427ZM100.6,121.4v-9.487h3.578a8.7,8.7,0,0,1,1.442.091,2.855,2.855,0,0,1,1.173.444,2.339,2.339,0,0,1,.76.915,3.1,3.1,0,0,1-.482,3.344,3.709,3.709,0,0,1-2.783.837h-2.434V121.4Zm-3.346-9.487h1.257v5.482a6.472,6.472,0,0,1-.325,2.271,2.768,2.768,0,0,1-1.169,1.367,4.112,4.112,0,0,1-2.216.528,4.541,4.541,0,0,1-2.18-.459,2.611,2.611,0,0,1-1.21-1.33,6.308,6.308,0,0,1-.362-2.377v-5.482h1.255v5.476a5.343,5.343,0,0,0,.229,1.82,1.751,1.751,0,0,0,.788.9,2.738,2.738,0,0,0,1.37.318,2.614,2.614,0,0,0,1.974-.63,3.618,3.618,0,0,0,.588-2.412ZM81.637,116.8a3.8,3.8,0,0,0,.921,2.7,3.219,3.219,0,0,0,4.648-.009,4.038,4.038,0,0,0,.916-2.829,4.863,4.863,0,0,0-.393-2.021,3.011,3.011,0,0,0-1.144-1.34,3.115,3.115,0,0,0-1.692-.475,3.2,3.2,0,0,0-2.295.916,4.087,4.087,0,0,0-.961,3.057m-1.294-.02a5.151,5.151,0,0,1,1.268-3.7,4.317,4.317,0,0,1,3.276-1.336,4.551,4.551,0,0,1,2.368.627,4.112,4.112,0,0,1,1.608,1.751,5.677,5.677,0,0,1,.552,2.544,5.576,5.576,0,0,1-.581,2.582,3.99,3.99,0,0,1-1.65,1.725,4.713,4.713,0,0,1-2.3.585,4.464,4.464,0,0,1-2.395-.647,4.149,4.149,0,0,1-1.6-1.767,5.343,5.343,0,0,1-.543-2.367m-7.914-.678h2.7a4.025,4.025,0,0,0,1.345-.179,1.436,1.436,0,0,0,.737-.57,1.537,1.537,0,0,0,.252-.851,1.409,1.409,0,0,0-.488-1.106,2.281,2.281,0,0,0-1.544-.433h-3Zm-1.254,5.3v-9.487H75.38a5.593,5.593,0,0,1,1.928.256,2.121,2.121,0,0,1,1.056.9,2.7,2.7,0,0,1,.393,1.431,2.376,2.376,0,0,1-.653,1.7,3.313,3.313,0,0,1-2.019.881,3.153,3.153,0,0,1,.758.473,6.556,6.556,0,0,1,1.042,1.261l1.65,2.582H77.955L76.7,119.424c-.367-.568-.669-1-.908-1.305a2.773,2.773,0,0,0-.636-.634,1.91,1.91,0,0,0-.572-.254,3.959,3.959,0,0,0-.7-.044H72.429V121.4Zm-5.889-3.722v-1.111l4.017-.007v3.518a7.088,7.088,0,0,1-1.908,1.112,5.683,5.683,0,0,1-2.019.371,5.374,5.374,0,0,1-2.54-.6,3.954,3.954,0,0,1-1.725-1.729,5.448,5.448,0,0,1-.583-2.531,5.858,5.858,0,0,1,.581-2.584,3.84,3.84,0,0,1,1.666-1.785,5.238,5.238,0,0,1,2.5-.581,4.953,4.953,0,0,1,1.86.333,3.057,3.057,0,0,1,1.3.928,4.134,4.134,0,0,1,.721,1.553l-1.133.311a3.565,3.565,0,0,0-.53-1.14,2.187,2.187,0,0,0-.908-.663,3.326,3.326,0,0,0-1.305-.249,3.86,3.86,0,0,0-1.489.262,2.782,2.782,0,0,0-1.013.689,3.305,3.305,0,0,0-.6.939,4.966,4.966,0,0,0-.362,1.908,4.63,4.63,0,0,0,.437,2.122,2.793,2.793,0,0,0,1.273,1.268,3.933,3.933,0,0,0,1.771.415,4.194,4.194,0,0,0,1.593-.316,4.024,4.024,0,0,0,1.178-.669v-1.767Z" transform="translate(-27.707 -51.151)" fill="#1a1818"/>
    <path id="Path_5" data-name="Path 5" d="M54.671,6.749A21.652,21.652,0,1,1,33.019,28.4,21.653,21.653,0,0,1,54.671,6.749" transform="translate(-15.115 -3.089)" fill="#e50019" fill-rule="evenodd"/>
    <rect id="Rectangle_8" data-name="Rectangle 8" width="24.764" height="2.235" transform="translate(27.174 48.389)" fill="#96999c"/>
    <rect id="Rectangle_9" data-name="Rectangle 9" width="24.764" height="2.235" transform="translate(11.444 23.379) rotate(-60)" fill="#96999c"/>
    <rect id="Rectangle_10" data-name="Rectangle 10" width="24.764" height="2.235" transform="translate(53.35 47.573) rotate(-60)" fill="#96999c"/>
    <rect id="Rectangle_11" data-name="Rectangle 11" width="2.236" height="24.765" transform="translate(53.35 3.05) rotate(-30)" fill="#96999c"/>
    <rect id="Rectangle_12" data-name="Rectangle 12" width="2.235" height="24.764" transform="translate(11.444 27.245) rotate(-30)" fill="#96999c"/>
  </g>
</svg>
