<svg width="53" height="11" viewBox="0 0 53 11" fill="none" xmlns="http://www.w3.org/2000/svg">
<path d="M0 7.81544L1.95325 0H8.82599L8.50642 1.35572H4.50866L4.09539 2.93588H7.39305L7.05497 4.36236H3.79491L3.34374 6.32366H7.3603L7.0195 7.8115L0 7.81544ZM8.90543 2.33394C9.46909 0.263916 12.8895 0.414248 12.8895 0.414248C12.8895 0.414248 17.4364 0.188295 17.0225 2.67348C17.0225 2.67348 16.8345 3.76377 16.6842 4.51755H14.2797L18.9394 10.3137H16.1211L14.0924 7.86738C14.0924 7.86738 12.8516 8.09333 11.7616 8.09333C11.7622 8.09333 8.05616 8.28011 8.22959 6.0233C8.26658 5.53343 8.90543 2.33394 8.90543 2.33394ZM11.748 2.18361C11.2589 3.57578 10.8083 5.68377 10.8083 5.68377C10.5449 6.96356 12.0112 6.92712 12.0112 6.92712C13.9641 7.22748 14.3777 2.74789 14.3777 2.74789C14.6063 1.32596 13.1006 1.50575 13.1006 1.50575C11.9572 1.50575 11.748 2.18361 11.748 2.18361Z" fill="#982A56"/>
<path d="M18.4113 0.793272H21.0425C21.0425 0.793272 19.9904 5.08366 19.9525 5.83562C19.9525 5.83562 19.8024 6.88977 20.967 6.88977C20.967 6.88977 22.1319 6.88977 22.3569 5.94921L23.5224 0.792969H26.1521C26.1521 0.792969 25.4011 5.04509 25.063 6.17516C25.063 6.17516 24.4991 7.94331 22.1692 7.94331C22.1692 7.94331 20.5159 8.01893 19.9146 7.90656L17.5469 4.78269C17.5469 4.78299 18.1857 1.61995 18.4113 0.793272ZM27.6933 0.793272H30.3242L28.7455 7.79328H26.0775L27.6933 0.793272ZM32.87 7.79328H30.1732L31.7902 0.793272H37.6521L37.4541 2.18544H34.1665L33.856 3.50168H36.7122L36.4208 4.74382H33.5934L32.87 7.79328ZM36.9565 7.79328H35.0588L39.7936 0.793272H43.0252L43.7395 6.85302L46.3695 4.23664L44.2462 0.793272H47.2719L48.3428 2.41139L50.0902 0.793272H52.4385L49.2075 4.02951L51.5753 7.79328H48.5499L47.3841 5.85476L45.2804 7.79328H41.0898L40.9589 6.32549H38.009L36.9565 7.79328ZM38.9292 4.95216H40.7706L40.6014 2.42901L38.9292 4.95216Z" fill="#982A56"/>
</svg>
