<?xml version="1.0" encoding="UTF-8"?>
<svg xmlns="http://www.w3.org/2000/svg" version="1.1" xmlns:xlink="http://www.w3.org/1999/xlink" viewBox="0 0 300 215.77">
  <defs>
    <style>
      .cls-1 {
        fill: none;
      }

      .cls-2 {
        fill: #ce802a;
      }

      .cls-3 {
        fill: #8f282c;
      }

      .cls-4 {
        clip-path: url(#clippath);
      }
    </style>
    <clipPath id="clippath">
      <rect class="cls-1" x="27.33" y="9.85" width="272.67" height="205.92"/>
    </clipPath>
  </defs>
  <!-- Generator: Adobe Illustrator 28.7.0, SVG Export Plug-In . SVG Version: 1.2.0 Build 136)  -->
  <g>
    <g id="Isolation_Mode">
      <g class="cls-4">
        <g>
          <path class="cls-2" d="M205.47,86.85c-20.93,0-37.96-17.03-37.96-37.96s17.03-37.96,37.96-37.96,37.96,17.03,37.96,37.96-17.03,37.96-37.96,37.96ZM205.47,16.54c-17.84,0-32.36,14.52-32.36,32.36s14.52,32.36,32.36,32.36,32.36-14.52,32.36-32.36-14.52-32.36-32.36-32.36Z"/>
          <path class="cls-2" d="M217.49,35.58h-5.1c-.27-.94-.67-1.88-1.34-2.69h6.45c1.07,0,2.01-.94,2.01-2.01s-.94-2.01-2.01-2.01h-24.18c-1.07,0-2.01.94-2.01,2.01s.94,2.01,2.01,2.01h7.79c4.16,0,6.04,1.07,6.98,2.69h-14.78c-1.07,0-2.01.94-2.01,2.01s.94,2.01,2.01,2.01h15.45c-.13,2.82-1.34,5.37-7.66,5.37h-7.79c-.81,0-1.61.54-1.88,1.21-.27.81-.13,1.61.4,2.15l16.12,16.12c.4.4.94.54,1.48.54s1.07-.13,1.48-.54c.81-.81.81-2.01,0-2.82l-12.63-12.63h2.82c9.67,0,11.55-5.64,11.69-9.4h4.7c1.07,0,2.01-.94,2.01-2.01s-.94-2.01-2.01-2.01Z"/>
          <g>
            <path class="cls-3" d="M269.54,86.39h-125.94c-6.7,0-12.13-5.43-12.13-12.13h0c0-6.7,5.43-12.13,12.13-12.13h125.94c6.7,0,12.13,5.43,12.13,12.13h0c0,6.7-5.43,12.13-12.13,12.13Z"/>
            <path class="cls-3" d="M262.57,85.39h-112.01s-41.61,30.87-41.61,69.45v130.64c0,7.31,5.45,13.23,12.18,13.23h170.87c6.73,0,12.18-5.92,12.18-13.23v-130.64c0-38.59-41.61-69.45-41.61-69.45Z"/>
          </g>
          <path class="cls-2" d="M246.51,194.86c-20.93,0-37.96-17.03-37.96-37.96s17.03-37.96,37.96-37.96,37.96,17.03,37.96,37.96-17.03,37.96-37.96,37.96ZM246.51,124.54c-17.84,0-32.36,14.52-32.36,32.36s14.52,32.36,32.36,32.36,32.36-14.52,32.36-32.36-14.52-32.36-32.36-32.36Z"/>
          <path class="cls-2" d="M163.06,230.01c-20.93,0-37.96-17.03-37.96-37.96s17.03-37.96,37.96-37.96,37.96,17.03,37.96,37.96-17.03,37.96-37.96,37.96ZM163.06,159.7c-17.84,0-32.36,14.52-32.36,32.36s14.52,32.36,32.36,32.36,32.36-14.52,32.36-32.36-14.52-32.36-32.36-32.36Z"/>
          <path class="cls-2" d="M176.53,182.69h-5.43c-.29-1-.71-2-1.43-2.86h6.85c1.14,0,2.14-1,2.14-2.14s-1-2.14-2.14-2.14h-25.7c-1.14,0-2.14,1-2.14,2.14s1,2.14,2.14,2.14h8.28c4.43,0,6.43,1.14,7.43,2.86h-15.71c-1.14,0-2.14,1-2.14,2.14s1,2.14,2.14,2.14h16.42c-.14,3-1.43,5.71-8.14,5.71h-8.28c-.86,0-1.71.57-2,1.29-.29.86-.14,1.71.43,2.28l17.14,17.14c.43.43,1,.57,1.57.57s1.14-.14,1.57-.57c.86-.86.86-2.14,0-3l-13.42-13.42h3c10.28,0,12.28-6,12.42-10h5c1.14,0,2.14-1,2.14-2.14s-1-2.14-2.14-2.14Z"/>
          <path class="cls-2" d="M262.16,145.91h-5.43c-.29-1-.71-2-1.43-2.86h6.85c1.14,0,2.14-1,2.14-2.14s-1-2.14-2.14-2.14h-25.7c-1.14,0-2.14,1-2.14,2.14s1,2.14,2.14,2.14h8.28c4.43,0,6.43,1.14,7.43,2.86h-15.71c-1.14,0-2.14,1-2.14,2.14s1,2.14,2.14,2.14h16.42c-.14,3-1.43,5.71-8.14,5.71h-8.28c-.86,0-1.71.57-2,1.29-.29.86-.14,1.71.43,2.28l17.14,17.14c.43.43,1,.57,1.57.57s1.14-.14,1.57-.57c.86-.86.86-2.14,0-3l-13.42-13.42h3c10.28,0,12.28-6,12.42-10h5c1.14,0,2.14-1,2.14-2.14s-1-2.14-2.14-2.14Z"/>
        </g>
      </g>
    </g>
  </g>
</svg>