<?xml version="1.0" encoding="UTF-8"?><svg id="Layer_2" xmlns="http://www.w3.org/2000/svg" viewBox="0 0 124.9 44.55"><defs><style>.cls-1{fill:#003368;}.cls-2{fill:#f33;}</style></defs><g id="Layer_1-2"><g><path class="cls-1" d="M42.61,9.07v8.12h-3.5v5.96h3.5v21.39h8.48V23.16h3.5v-5.96h-3.5v-7.26c0-1.51,1.27-2.5,3.94-2.5V.86c-7.54-1.15-12.42,1.16-12.42,8.21Z"/><path class="cls-1" d="M116.42,17.84v4.25c-2.98-3.31-5.94-4.25-8.65-4.25-2.88,0-9.59,.92-9.59,13.03s6.72,13.03,9.59,13.03c2.71,0,6.16-.7,8.65-2.64v3.29h8.48V17.84h-8.48Zm-1.75,13.03v5.69c-1.08,1.22-2.89,1.85-4.2,1.85s-4.38-.53-4.38-7.54,3.06-7.54,4.38-7.54,2.76,.61,4.2,2.83v4.71Z"/><path class="cls-1" d="M91.45,17.44s-4.13-1.64-11.45,3.55v-3.16h-8.48v26.71h8.48V24.99c4.94-2.2,6.32-.64,6.32,.34v19.22h8.48V21.95c0-2.27-.87-3.67-3.35-4.5Z"/><g><path class="cls-2" d="M4.54,10.98C2.19,10.98,.3,12.87,.3,15.22v29.33H8.78V15.22c0-2.34-1.9-4.24-4.24-4.24Z"/><path class="cls-2" d="M33.12,17.44s-4.13-1.64-11.45,3.55v-3.16H13.19v26.71h8.48V24.99c4.94-2.2,6.32-.64,6.32,.34v19.22h8.48V21.95c0-2.27-.87-3.67-3.35-4.5Z"/><circle class="cls-2" cx="4.54" cy="4.54" r="4.54" transform="translate(-.92 1.16) rotate(-13.28)"/></g><path class="cls-1" d="M62.25,10.98c-2.34,0-4.24,1.9-4.24,4.24v29.33h8.48V15.22c0-2.34-1.9-4.24-4.24-4.24Z"/><circle class="cls-1" cx="62.25" cy="4.54" r="4.54" transform="translate(15.03 45.35) rotate(-45)"/></g></g></svg>