<svg width="41" height="41" viewBox="0 0 41 41" fill="none" xmlns="http://www.w3.org/2000/svg">
<g clip-path="url(#clip0_3487_350)">
<g clip-path="url(#clip1_3487_350)">
<rect width="41" height="41" rx="20.5" fill="url(#paint0_linear_3487_350)"/>
<path d="M14.4835 12.3639H13.8001C12.5033 12.3639 11.7949 13.0951 11.7949 14.5578V21.6121C11.7949 23.4282 11.1814 24.0656 9.74227 24.0656C8.61021 24.0656 7.69037 23.5698 6.95883 22.6735C6.88783 22.5794 5.40234 23.2866 5.40234 25.0329C5.40234 26.92 7.17066 28.0764 10.4514 28.0764C14.4375 28.0764 16.5384 26.0708 16.5384 21.6831V14.5578C16.5361 13.097 15.8285 12.3639 14.4835 12.3639ZM30.371 15.8083C26.5014 15.8083 23.9302 18.2618 23.9302 21.9203C23.9302 25.6718 26.4065 28.0787 30.2996 28.0787C34.168 28.0787 36.7153 25.6718 36.7153 21.9446C36.7176 18.2618 34.1927 15.8083 30.371 15.8083ZM30.3235 24.6077C28.813 24.6077 27.7754 23.4992 27.7754 21.9184C27.7754 20.3619 28.8384 19.2527 30.3235 19.2527C31.8086 19.2527 32.8712 20.3619 32.8712 21.9423C32.8716 23.4753 31.7866 24.6077 30.3239 24.6077H30.3235ZM20.6608 15.926H20.1882C19.0329 15.926 18.1602 16.4681 18.1602 18.1202V25.6695C18.1602 27.3449 19.0098 27.8642 20.236 27.8642H20.7083C21.8642 27.8642 22.6895 27.2974 22.6895 25.6695V18.1202C22.6895 16.4218 21.8881 15.926 20.6608 15.926ZM20.4015 10.4536C18.9384 10.4536 18.0186 11.2797 18.0186 12.5773C18.0186 13.8976 18.9627 14.7233 20.4721 14.7233C21.9348 14.7233 22.8551 13.8976 22.8551 12.5773C22.8551 11.2569 21.9113 10.4536 20.4015 10.4536Z" fill="white"/>
</g>
<path d="M14.4835 12.3639H13.8001C12.5033 12.3639 11.7949 13.0951 11.7949 14.5578V21.6121C11.7949 23.4282 11.1815 24.0656 9.74228 24.0656C8.61023 24.0656 7.69038 23.5698 6.95884 22.6735C6.88784 22.5794 5.40234 23.2866 5.40234 25.0329C5.40234 26.9201 7.17068 28.0764 10.4514 28.0764C14.4375 28.0764 16.5384 26.0708 16.5384 21.6831V14.5578C16.5361 13.097 15.8285 12.3639 14.4835 12.3639ZM30.3711 15.8083C26.5014 15.8083 23.9302 18.2618 23.9302 21.9203C23.9302 25.6718 26.4065 28.0787 30.2996 28.0787C34.1681 28.0787 36.7152 25.6718 36.7152 21.9446C36.7176 18.2618 34.1928 15.8083 30.3711 15.8083ZM30.3234 24.6077C28.813 24.6077 27.7754 23.4992 27.7754 21.9184C27.7754 20.362 28.8384 19.2527 30.3234 19.2527C31.8088 19.2527 32.8712 20.362 32.8712 21.9424C32.8715 23.4753 31.7865 24.6077 30.324 24.6077H30.3234ZM20.6608 15.926H20.1882C19.033 15.926 18.1602 16.4681 18.1602 18.1202V25.6696C18.1602 27.3449 19.0098 27.8642 20.236 27.8642H20.7083C21.8642 27.8642 22.6895 27.2974 22.6895 25.6696V18.1202C22.6895 16.4218 21.8881 15.926 20.6608 15.926ZM20.4015 10.4536C18.9384 10.4536 18.0186 11.2797 18.0186 12.5773C18.0186 13.8976 18.9627 14.7233 20.4721 14.7233C21.9348 14.7233 22.8551 13.8976 22.8551 12.5773C22.8551 11.2569 21.9113 10.4536 20.4015 10.4536Z" fill="white"/>
</g>
<defs>
<linearGradient id="paint0_linear_3487_350" x1="14.2026" y1="11.8572" x2="28.6319" y2="20.1974" gradientUnits="userSpaceOnUse">
<stop stop-color="#F9D9AF"/>
<stop offset="1" stop-color="#BD8A4A"/>
</linearGradient>
<clipPath id="clip0_3487_350">
<rect width="41" height="41" fill="white"/>
</clipPath>
<clipPath id="clip1_3487_350">
<rect width="41" height="41" fill="white"/>
</clipPath>
</defs>
</svg>
