<?xml version="1.0" encoding="utf-8"?>
<!-- Generator: Adobe Illustrator 22.1.0, SVG Export Plug-In . SVG Version: 6.00 Build 0)  -->
<svg version="1.1" id="Layer_1" xmlns="http://www.w3.org/2000/svg" xmlns:xlink="http://www.w3.org/1999/xlink" x="0px" y="0px"
	 viewBox="0 0 800 280.486" enable-background="new 0 0 800 280.486" xml:space="preserve">
<g>
	<g>
		<path fill="#FFFFFF" d="M746.775,107.569h4.918v2.706c0,7.37-2.497,14.249-7.49,20.639c-4.995,6.392-11.145,9.586-18.448,9.586
			c-5.516,0-9.765-1.466-12.744-4.399c-2.983-2.931-4.472-6.427-4.472-10.488C708.539,113.583,721.283,107.569,746.775,107.569
			 M691.321,153.131c7.603,6.467,16.77,9.698,27.502,9.698c4.77,0,9.242-0.715,13.417-2.143c4.172-1.426,7.451-3.044,9.838-4.849
			c2.383-1.803,4.547-3.869,6.486-6.202c1.935-2.331,3.129-3.948,3.577-4.849c0.446-0.903,0.817-1.653,1.117-2.256h0.446
			l-0.223,4.962c0,3.761,1.192,6.805,3.577,9.135c2.383,2.333,6.037,3.496,10.957,3.496h25.49v-24.135h-8.944
			c-3.281,0-4.92-1.653-4.92-4.962V88.171c0-30.525-16.398-42.372-49.191-42.372c-3.878,0-7.791,0.265-11.739,0.79
			c-3.953,0.53-8.424,1.505-13.417,2.933c-4.995,1.43-9.021,3.871-12.073,7.33c-3.058,3.461-4.584,7.668-4.584,12.631v12.179h26.384
			v-6.09c0-2.854,1.639-4.849,4.92-5.977c3.277-1.128,6.707-1.693,10.286-1.693c7.301,0,12.633,1.73,15.986,5.189
			c3.354,3.461,5.033,5.831,5.033,13.951v0.903h-3.577c-3.88,0-7.716,0.15-11.516,0.45c-3.8,0.302-8.497,0.828-14.086,1.578
			c-5.591,0.755-10.699,2.07-15.317,3.948c-4.624,1.883-9.056,4.172-13.305,6.88c-4.249,2.706-7.568,6.315-9.95,10.826
			c-2.387,4.511-3.577,9.625-3.577,15.337C679.917,137.943,683.718,146.666,691.321,153.131 M612.948,137.228
			c2.31,5.491,5.143,9.7,8.497,12.631c3.354,2.933,7.34,5.301,11.962,7.105c4.618,1.805,8.72,2.971,12.298,3.496
			c3.577,0.525,7.303,0.79,11.18,0.79c3.427,0,6.333-0.225,8.72-0.678v-25.035l-5.143,0.45c-5.666,0-10.845-1.541-15.539-4.624
			c-4.697-3.079-7.044-8.758-7.044-17.03V71.286h25.938v-22.78h-25.938V17.154h-27.727v31.352h-15.427v22.78h14.758v46.658
			C609.483,125.312,610.636,131.741,612.948,137.228 M497.122,127.451c-4.995-6.465-7.49-14.887-7.49-25.263
			c0-9.925,2.31-17.741,6.932-23.457c4.618-5.714,11.18-8.572,19.678-8.572c18.929,0,28.396,11.053,28.396,33.158
			c0,12.031-2.497,20.676-7.49,25.938c-4.995,5.266-11.368,7.895-19.117,7.895C509.085,137.149,502.115,133.918,497.122,127.451
			 M474.538,144.479c9.169,11.205,21.652,16.805,37.454,16.805c14.31,0,24.892-4.962,31.75-14.887h0.448l-0.225,59.813v5.414
			c0,9.773-3.019,27.166-9.056,31.677c-6.035,4.511-13.751,6.767-23.143,6.767c-11.627,0-22.136-2.56-31.527-7.67l-8.72,22.555
			c12.373,6.617,25.861,9.925,40.473,9.925c7.749,0,15.091-1.015,22.023-3.046c6.932-2.028,13.305-5.114,19.119-9.248
			c5.814-4.136,10.432-9.811,13.864-17.028c3.427-7.219,5.143-25.813,5.143-35.286V77.376c0-3.006,1.639-4.509,4.918-4.509h8.72
			v-24.36h-26.384c-4.176,0-7.305,1.053-9.392,3.156c-2.089,2.108-3.129,4.588-3.129,7.445v2.931h-0.448l-1.117-1.803
			c-0.598-1.051-1.828-2.368-3.69-3.949c-1.866-1.578-4.023-3.156-6.483-4.736c-2.46-1.578-5.814-2.931-10.063-4.059
			c-4.249-1.128-8.831-1.693-13.751-1.693c-15.802,0-28.173,5.414-37.119,16.24c-8.943,10.828-13.415,24.512-13.415,41.052
			C460.788,119.481,465.372,133.28,474.538,144.479 M359.947,80.309c6.557-6.767,14.533-10.151,23.924-10.151
			c9.392,0,17.403,3.383,24.037,10.151c6.632,6.767,9.95,12.817,9.95,23.19c0,10.528-3.281,19.138-9.838,25.828
			c-6.561,6.692-14.612,10.036-24.149,10.036c-9.392,0-17.368-3.344-23.924-10.036c-6.563-6.69-9.84-15.3-9.84-25.828
			C350.107,93.126,353.385,87.076,359.947,80.309 M383.872,163.723c17.739,0,32.607-5.673,44.609-17.028
			c11.998-11.353,17.999-25.748,17.999-43.196c0-17.441-6.037-29.315-18.112-40.671c-12.075-11.351-26.908-17.03-44.496-17.03
			c-17.591,0-32.386,5.679-44.384,17.03c-12.002,11.356-18,23.23-18,40.671c0,17.447,5.998,31.842,18,43.196
			C351.485,158.051,366.281,163.723,383.872,163.723 M226.01,161.017V93.616h9.392c3.873,0,6.855,0.304,8.943,0.903
			c2.087,0.602,3.725,2.108,4.92,4.511l25.936,50.033c2.533,4.962,5.291,8.197,8.274,9.698c2.979,1.505,7.603,2.256,13.863,2.256
			h16.77V135.98h-4.249c-5.812,0-9.542-1.726-11.18-5.187L278.555,92.49c-3.279-6.465-6.707-10.151-10.286-11.053v-0.45l1.566-0.903
			c0.894-0.6,2.16-1.878,3.803-3.834c1.639-1.953,3.202-4.286,4.695-6.994l35.776-65.861H281.91l-31.976,59.996
			c-1.939,3.463-6.187,5.189-12.744,5.189h-11.18V18.733c0-5.262-1.195-9.135-3.577-11.616c-2.387-2.481-6.26-3.721-11.627-3.721
			h-28.621v25.035h9.615c3.277,0,4.918,1.657,4.918,4.964v127.623H226.01z"/>
	</g>
	<polygon fill="#FFFFFF" points="163.831,2.927 34.132,2.927 34.132,33.664 132.821,33.664 132.821,130.374 163.831,130.374 	"/>
	<polygon fill="#FFFFFF" points="61.161,130.374 29.611,161.111 132.821,161.111 132.821,130.374 	"/>
	<polygon fill="#FFFFFF" points="6.429,33.664 6.429,133.483 34.131,106.496 34.131,33.664 	"/>
	<polygon fill="#FFFFFF" points="98.586,130.374 98.586,93.914 61.161,130.374 	"/>
	<polygon fill="#FFFFFF" points="73.405,68.239 34.131,68.239 34.131,106.496 	"/>
	<g>
		<path fill="#FFFFFF" d="M509.904,216.107v-33.143c0-1.497-0.281-2.579-0.844-3.246c-0.565-0.665-1.534-0.999-2.91-0.999h-2.502
			l-0.438,0.375v38.513c0,1.293,0.35,2.304,1.053,3.031c0.703,0.73,1.632,1.095,2.789,1.095h16.177c2.479,0,3.905-1.074,4.276-3.223
			c0.125-0.842,0.186-1.726,0.186-2.654h-12.292C513.423,215.856,511.591,215.94,509.904,216.107 M470.857,194.598
			c1.115-3.75,1.922-6.771,2.416-9.064h0.311c0.744,2.875,1.839,6.648,3.285,11.316l2.85,9.066c-0.371,0-1.405-0.021-3.098-0.063
			h-6.198l-3.16,0.063L470.857,194.598z M483.686,218.608c0.413,1.334,0.909,2.249,1.488,2.75c0.577,0.5,1.549,0.751,2.912,0.751
			c1.363,0,2.479-0.292,3.346-0.876l-13.882-42.264c-0.828-0.167-2.068-0.25-3.719-0.25c-1.653,0-2.912,0.083-3.782,0.25
			l-14.007,42.264l0.188,0.313c1.032,0.292,2.126,0.438,3.283,0.438c1.157,0,2.087-0.083,2.789-0.25l3.285-10.44l3.594,0.063h8.491
			l3.719-0.063L483.686,218.608z M440.704,221.921c1.343,0,2.45-0.083,3.317-0.25v-42.701c-0.867-0.167-1.974-0.25-3.317-0.25
			c-1.343,0-2.427,0.083-3.252,0.25v42.701C438.277,221.837,439.361,221.921,440.704,221.921 M420.469,194.1
			c2.479,0,3.719-1.251,3.719-3.753c0-1.626-0.352-3.167-1.055-4.626c-0.703-1.459-1.726-2.752-3.067-3.878
			c-1.345-1.124-2.956-2.02-4.834-2.687c-1.882-0.667-3.999-1.001-6.354-1.001c-2.272,0-4.422,0.469-6.446,1.407
			c-2.024,0.938-3.79,2.335-5.299,4.188c-1.507,1.855-2.696,4.18-3.563,6.971c-0.867,2.794-1.301,6.064-1.301,9.815
			c0,2.835,0.298,5.577,0.898,8.222c0.598,2.648,1.507,4.983,2.727,7.003c1.217,2.022,2.902,3.648,5.051,4.876
			c2.147,1.23,4.814,1.845,7.995,1.845c1.322,0,2.675-0.156,4.059-0.469c1.384-0.313,2.727-0.75,4.03-1.313
			c1.301-0.563,2.541-1.217,3.719-1.968c1.176-0.75,2.22-1.584,3.129-2.502c-0.496-1.751-1.591-3.188-3.285-4.313
			c-3.761,3.125-7.376,4.689-10.847,4.689c-3.469,0-6.094-1.403-7.87-4.213c-1.778-2.806-2.666-6.873-2.666-12.198
			c0-5.368,0.828-9.488,2.481-12.356c1.651-2.871,4.069-4.307,7.251-4.307c1.611,0,2.975,0.281,4.09,0.844
			c1.115,0.563,2.024,1.313,2.727,2.251c0.703,0.938,1.209,2.022,1.52,3.25c0.308,1.23,0.465,2.512,0.465,3.846
			C418.774,193.975,419.683,194.1,420.469,194.1 M376.092,178.719c-1.322,0-2.241,0.313-2.758,0.938
			c-0.517,0.625-0.773,1.689-0.773,3.188v15.569c0,5.168,0.165,10.419,0.494,15.754l-0.248,0.063
			c-0.246-0.5-0.846-1.822-1.797-3.969c-0.951-2.147-1.714-3.844-2.293-5.095l-13.078-26.197c-1.157-0.167-2.468-0.25-3.936-0.25
			c-1.466,0-2.779,0.104-3.936,0.313v42.639c0.951,0.167,1.964,0.25,3.037,0.25c1.074,0,2.108-0.083,3.1-0.25v-19.507
			c0-3.75-0.186-8.856-0.559-15.316l0.248-0.063c1.28,3,2.583,5.898,3.905,8.689l13.203,26.197c1.155,0.167,2.479,0.25,3.965,0.25
			c1.488,0,2.81-0.104,3.967-0.313v-42.576l-0.371-0.313H376.092z M315.353,194.598c1.115-3.75,1.92-6.771,2.416-9.064h0.311
			c0.744,2.875,1.839,6.648,3.286,11.316l2.85,9.066c-0.371,0-1.405-0.021-3.098-0.063h-6.198l-3.163,0.063L315.353,194.598z
			 M328.182,218.608c0.413,1.334,0.909,2.249,1.486,2.75c0.58,0.5,1.551,0.751,2.914,0.751c1.363,0,2.479-0.292,3.346-0.876
			l-13.882-42.264c-0.828-0.167-2.068-0.25-3.719-0.25c-1.653,0-2.914,0.083-3.782,0.25l-14.007,42.264l0.186,0.313
			c1.034,0.292,2.129,0.438,3.286,0.438c1.157,0,2.087-0.083,2.789-0.25l3.286-10.44l3.594,0.063h8.491l3.719-0.063L328.182,218.608
			z M286.161,178.719c-1.324,0-2.241,0.313-2.758,0.938c-0.517,0.625-0.776,1.689-0.776,3.188v15.569
			c0,5.168,0.165,10.419,0.496,15.754l-0.248,0.063c-0.248-0.5-0.846-1.822-1.797-3.969c-0.951-2.147-1.716-3.844-2.293-5.095
			l-13.077-26.197c-1.157-0.167-2.47-0.25-3.936-0.25c-1.468,0-2.779,0.104-3.936,0.313v42.639c0.951,0.167,1.962,0.25,3.037,0.25
			c1.074,0,2.108-0.083,3.1-0.25v-19.507c0-3.75-0.188-8.856-0.559-15.316l0.248-0.063c1.28,3,2.581,5.898,3.905,8.689
			l13.201,26.197c1.157,0.167,2.481,0.25,3.967,0.25c1.488,0,2.81-0.104,3.967-0.313v-42.576l-0.371-0.313H286.161z
			 M238.097,221.921c1.34,0,2.447-0.083,3.315-0.25v-42.701c-0.867-0.167-1.974-0.25-3.315-0.25c-1.345,0-2.429,0.083-3.254,0.25
			v42.701C235.669,221.837,236.753,221.921,238.097,221.921 M209.803,184.658h9.11c2.481,0,3.719-1.021,3.719-3.064
			c0-0.999-0.123-1.874-0.371-2.625h-24.544l-0.373,0.375v42.326c0.867,0.167,1.943,0.25,3.223,0.25s2.395-0.083,3.348-0.25v-18.694
			h15.06c0.206-0.709,0.311-1.634,0.311-2.781c0-1.147-0.104-2.074-0.311-2.783h-12.458c-1.115,0-1.983,0.021-2.602,0.063v-5.502
			l-0.063-7.378C205.011,184.638,206.993,184.658,209.803,184.658"/>
	</g>
	<text transform="matrix(1.0445 0 0 1 590.0195 197.3333)"><tspan x="0" y="0" fill="#FFFFFF" stroke="#FFFFFF" stroke-miterlimit="10" font-family="'HelveticaNeueLTStd-MdIt'" font-size="26.4075px" letter-spacing="3.829">FR</tspan><tspan x="36.046" y="0" fill="#FFFFFF" stroke="#FFFFFF" stroke-miterlimit="10" font-family="'HelveticaNeueLTStd-MdIt'" font-size="26.4075px" letter-spacing="3.829">E</tspan><tspan x="53.501" y="0" fill="#FFFFFF" stroke="#FFFFFF" stroke-miterlimit="10" font-family="'HelveticaNeueLTStd-MdIt'" font-size="26.4075px" letter-spacing="3.829">E</tspan><tspan x="70.982" y="0" fill="#FFFFFF" stroke="#FFFFFF" stroke-miterlimit="10" font-family="'HelveticaNeueLTStd-MdIt'" font-size="26.4075px" letter-spacing="3.829">D</tspan><tspan x="93.032" y="0" fill="#FFFFFF" stroke="#FFFFFF" stroke-miterlimit="10" font-family="'HelveticaNeueLTStd-MdIt'" font-size="26.4075px" letter-spacing="3.829">O</tspan><tspan x="115.716" y="0" fill="#FFFFFF" stroke="#FFFFFF" stroke-miterlimit="10" font-family="'HelveticaNeueLTStd-MdIt'" font-size="26.4075px" letter-spacing="2.872">M</tspan></text>
	<text transform="matrix(1.0445 0 0 1 750.4229 197.3333)"><tspan x="0" y="0" fill="#FFFFFF" font-family="'HelveticaNeueLTStd-Md'" font-size="26.4075px">T</tspan><tspan x="13.916" y="0" fill="#FFFFFF" font-family="'HelveticaNeueLTStd-Md'" font-size="26.4075px">O</tspan></text>
	<text transform="matrix(1.0445 0 0 1 590.0195 228.6458)"><tspan x="0" y="0" fill="#FFFFFF" font-family="'HelveticaNeueLTStd-MdIt'" font-size="26.4075px">GRO</tspan><tspan x="51.837" y="0" fill="#FFFFFF" font-family="'HelveticaNeueLTStd-MdIt'" font-size="26.4075px">W</tspan></text>
	<polygon fill="#FFFFFF" points="688.059,209.385 677.36,228.411 793.571,228.411 793.571,209.385 	"/>
</g>
</svg>
