<svg width="230" height="56" viewBox="0 0 230 56" fill="none" xmlns="http://www.w3.org/2000/svg">
<g clip-path="url(#clip0_117_2271)">
<path d="M59.0683 0.5L44.7118 2.81L47.4938 5.54308L32.1927 20.8585L18.5918 7.44692L0.500244 25.2754L6.87137 31.5454L18.5918 19.9954L32.1927 33.4069L53.8563 11.8215L56.853 14.7746L59.0683 0.5Z" fill="url(#paint0_linear_117_2271)"/>
<path d="M31.5145 43.9923L17.7934 30.4792L11.9546 36.233L31.5145 55.5L60.777 26.4176L54.8266 20.5623L31.5145 43.9923Z" fill="url(#paint1_linear_117_2271)"/>
<path d="M70.325 35.0654H74.3863C75.4167 35.0739 76.1895 35.3447 76.7047 35.8693C77.2284 36.4024 77.486 37.1047 77.486 37.9762C77.4946 38.4247 77.3916 38.8477 77.1769 39.2624C77.0653 39.457 76.9107 39.6431 76.7047 39.8124C76.4986 39.9985 76.241 40.1593 75.9405 40.3116V40.3454C76.5158 40.4977 76.9451 40.8108 77.237 41.2762C77.5118 41.7585 77.6492 42.2831 77.6492 42.85C77.6406 43.7893 77.3572 44.5339 76.7991 45.0754C76.2496 45.6508 75.5627 45.93 74.7384 45.93H70.325V35.0654ZM71.9134 36.5293V39.6516H74.206C74.7899 39.6516 75.2106 39.4908 75.4854 39.1777C75.7602 38.89 75.9061 38.5262 75.9061 38.0862C75.9061 37.6462 75.7687 37.2739 75.4854 36.9693C75.2106 36.6816 74.7813 36.5377 74.206 36.5293H71.9134ZM71.9134 41.107V44.3816H74.3606C74.953 44.3731 75.3824 44.2039 75.6571 43.8824C75.9319 43.5608 76.0693 43.1885 76.0693 42.7485C76.0693 42.3085 75.9319 41.9193 75.6571 41.5977C75.3824 41.2847 74.953 41.1239 74.3606 41.1154H71.9134V41.107Z" fill="#6C9FE7"/>
<path d="M80.2595 35.0654H81.7536V36.6139H80.2595V35.0654ZM80.2595 38.1962H81.7536V45.93H80.2595V38.1962Z" fill="#6C9FE7"/>
<path d="M88.8115 45.1262C88.3221 45.7016 87.6781 46.0062 86.8882 46.0231C86.4073 46.0146 86.0038 45.9046 85.6861 45.7016C85.3512 45.507 85.0936 45.2954 84.9219 45.0754C84.7244 44.8216 84.587 44.5085 84.5012 44.1446C84.4067 43.7808 84.3638 43.087 84.3638 42.0716C84.3638 41.0562 84.4067 40.3285 84.5012 39.9646C84.587 39.6008 84.7244 39.2962 84.9219 39.0508C85.1022 38.8054 85.3512 38.5939 85.6861 38.3993C86.0038 38.2131 86.4073 38.12 86.8882 38.1116C87.6266 38.1116 88.2706 38.4162 88.8115 39.0254V38.2046H90.3056V45.7523C90.2884 46.9116 89.9621 47.7662 89.3353 48.3162C88.6999 48.8746 87.9443 49.1623 87.0685 49.1623C86.0553 49.1454 85.1967 48.7139 84.484 47.8677L85.6432 46.9116C85.8321 47.0977 86.0553 47.25 86.3043 47.3854C86.5619 47.5293 86.8195 47.6054 87.0943 47.6139C87.6094 47.6139 88.0216 47.47 88.3307 47.1739C88.6398 46.8777 88.7944 46.4631 88.803 45.93V45.1346L88.8115 45.1262ZM85.8492 42.0716C85.8492 42.6639 85.8664 43.07 85.9093 43.2985C85.9437 43.5354 86.021 43.73 86.1497 43.8823C86.2528 44.0177 86.4073 44.1531 86.6134 44.2631C86.8109 44.3985 87.0513 44.4746 87.3433 44.4746C87.6352 44.4746 87.8756 44.407 88.0731 44.2631C88.2706 44.1446 88.4166 44.0177 88.5196 43.8823C88.6484 43.73 88.7257 43.5354 88.7686 43.2985C88.7944 43.07 88.8115 42.6639 88.8115 42.0716C88.8115 41.4793 88.7944 41.0477 88.7686 40.8108C88.7257 40.5739 88.6398 40.3877 88.5196 40.2439C88.4166 40.1085 88.2706 39.9646 88.0731 39.8293C87.8756 39.7108 87.6352 39.6516 87.3433 39.6431C87.0513 39.6516 86.8023 39.7193 86.6134 39.8293C86.4073 39.9646 86.2528 40.1 86.1497 40.2439C86.021 40.3877 85.9437 40.5823 85.9093 40.8108C85.875 41.0477 85.8492 41.4623 85.8492 42.0716Z" fill="#6C9FE7"/>
<path d="M97.4495 45.1262C96.9601 45.7016 96.3161 46.0062 95.5261 46.0231C95.0453 46.0146 94.6417 45.9046 94.324 45.7016C93.9891 45.507 93.7315 45.2954 93.5598 45.0754C93.3623 44.8216 93.225 44.5085 93.1391 44.1446C93.0446 43.7808 93.0017 43.087 93.0017 42.0716C93.0017 41.0562 93.0446 40.3285 93.1391 39.9646C93.225 39.6008 93.3623 39.2962 93.5598 39.0508C93.7401 38.8054 93.9891 38.5939 94.324 38.3993C94.6417 38.2131 95.0453 38.12 95.5261 38.1116C96.2645 38.1116 96.9085 38.4162 97.4495 39.0254V38.2046H98.9435V45.7523C98.9263 46.9116 98.6001 47.7662 97.9732 48.3162C97.3378 48.8746 96.5822 49.1623 95.7064 49.1623C94.6932 49.1454 93.8346 48.7139 93.1219 47.8677L94.2811 46.9116C94.47 47.0977 94.6932 47.25 94.9422 47.3854C95.1998 47.5293 95.4574 47.6054 95.7322 47.6139C96.2474 47.6139 96.6595 47.47 96.9686 47.1739C97.2777 46.8777 97.4323 46.4631 97.4409 45.93V45.1346L97.4495 45.1262ZM94.4872 42.0716C94.4872 42.6639 94.5043 43.07 94.5473 43.2985C94.5816 43.5354 94.6589 43.73 94.7877 43.8823C94.8907 44.0177 95.0453 44.1531 95.2513 44.2631C95.4488 44.3985 95.6893 44.4746 95.9812 44.4746C96.2731 44.4746 96.5136 44.407 96.711 44.2631C96.9085 44.1446 97.0545 44.0177 97.1575 43.8823C97.2863 43.73 97.3636 43.5354 97.4065 43.2985C97.4323 43.07 97.4495 42.6639 97.4495 42.0716C97.4495 41.4793 97.4323 41.0477 97.4065 40.8108C97.3636 40.5739 97.2777 40.3877 97.1575 40.2439C97.0545 40.1085 96.9085 39.9646 96.711 39.8293C96.5136 39.7108 96.2731 39.6516 95.9812 39.6431C95.6893 39.6516 95.4402 39.7193 95.2513 39.8293C95.0453 39.9646 94.8907 40.1 94.7877 40.2439C94.6589 40.3877 94.5816 40.5823 94.5473 40.8108C94.5129 41.0477 94.4872 41.4623 94.4872 42.0716Z" fill="#6C9FE7"/>
<path d="M103.031 42.6553C103.031 43.273 103.202 43.7469 103.546 44.0684C103.864 44.3984 104.293 44.5592 104.808 44.5592C105.418 44.5592 105.959 44.3053 106.44 43.8061L107.521 44.7707C106.757 45.6169 105.864 46.0315 104.834 46.023C104.439 46.023 104.061 45.9638 103.683 45.8453C103.494 45.7776 103.314 45.693 103.134 45.583C102.945 45.49 102.773 45.3715 102.61 45.2361C102.292 44.9484 102.035 44.5423 101.846 44.0261C101.631 43.5269 101.52 42.8838 101.52 42.0884C101.52 41.293 101.614 40.6838 101.803 40.1846C101.992 39.6684 102.232 39.2623 102.524 38.9661C102.825 38.6615 103.151 38.4415 103.52 38.3061C103.881 38.1707 104.241 38.103 104.593 38.103C105.444 38.1115 106.165 38.4076 106.757 38.9746C107.358 39.5584 107.659 40.3538 107.667 41.3776V42.6553H103.014H103.031ZM106.182 41.3692C106.165 40.7684 106.01 40.3115 105.718 39.9984C105.426 39.7023 105.057 39.5584 104.611 39.5584C104.164 39.5584 103.786 39.7023 103.503 39.9984C103.22 40.3115 103.065 40.7684 103.031 41.3692H106.182Z" fill="#6C9FE7"/>
<path d="M110.26 38.1961H111.755V39.0169H111.789C112.278 38.4076 112.931 38.103 113.729 38.103C114.33 38.1115 114.854 38.3146 115.292 38.6953L114.202 40.0407C113.884 39.7784 113.558 39.6515 113.214 39.6515C112.828 39.6515 112.502 39.7784 112.227 40.0407C111.918 40.2946 111.763 40.7092 111.755 41.2676V45.93H110.26V38.1961Z" fill="#6C9FE7"/>
<path d="M121.423 34.9807H122.565V46.023H121.423V34.9807Z" fill="#6C9FE7"/>
<path d="M130.001 35.0654H134.062C135.092 35.0739 135.865 35.3447 136.38 35.8693C136.904 36.4024 137.162 37.1047 137.162 37.9762C137.17 38.4247 137.067 38.8477 136.853 39.2624C136.741 39.457 136.587 39.6431 136.38 39.8124C136.174 39.9985 135.917 40.1593 135.616 40.3116V40.3454C136.192 40.4977 136.621 40.8108 136.913 41.2762C137.188 41.7585 137.325 42.2831 137.325 42.85C137.316 43.7893 137.033 44.5339 136.475 45.0754C135.925 45.6508 135.238 45.93 134.414 45.93H130.001V35.0654ZM131.589 36.5293V39.6516H133.882C134.466 39.6516 134.886 39.4908 135.161 39.1777C135.436 38.89 135.582 38.5262 135.582 38.0862C135.582 37.6462 135.445 37.2739 135.161 36.9693C134.886 36.6816 134.457 36.5377 133.882 36.5293H131.589ZM131.589 41.107V44.3816H134.036C134.629 44.3731 135.058 44.2039 135.333 43.8824C135.608 43.5608 135.745 43.1885 135.745 42.7485C135.745 42.3085 135.608 41.9193 135.333 41.5977C135.058 41.2847 134.629 41.1239 134.036 41.1154H131.589V41.107Z" fill="#6C9FE7"/>
<path d="M141.017 42.6553C141.017 43.273 141.189 43.7469 141.532 44.0684C141.85 44.3984 142.279 44.5592 142.794 44.5592C143.404 44.5592 143.945 44.3053 144.426 43.8061L145.508 44.7707C144.744 45.6169 143.851 46.0315 142.82 46.023C142.425 46.023 142.047 45.9638 141.67 45.8453C141.481 45.7776 141.3 45.693 141.12 45.583C140.931 45.49 140.759 45.3715 140.596 45.2361C140.279 44.9484 140.021 44.5423 139.832 44.0261C139.617 43.5269 139.506 42.8838 139.506 42.0884C139.506 41.293 139.6 40.6838 139.789 40.1846C139.978 39.6684 140.219 39.2623 140.51 38.9661C140.811 38.6615 141.137 38.4415 141.506 38.3061C141.867 38.1707 142.228 38.103 142.58 38.103C143.43 38.1115 144.151 38.4076 144.744 38.9746C145.345 39.5584 145.645 40.3538 145.654 41.3776V42.6553H141H141.017ZM144.168 41.3692C144.151 40.7684 143.997 40.3115 143.705 39.9984C143.413 39.7023 143.043 39.5584 142.597 39.5584C142.15 39.5584 141.773 39.7023 141.489 39.9984C141.206 40.3115 141.051 40.7684 141.017 41.3692H144.168Z" fill="#6C9FE7"/>
<path d="M148.333 35.8438H149.827V38.1961H150.917V39.3891H149.827V43.8991C149.818 44.2884 149.998 44.483 150.359 44.4745H150.917V45.9384H150.136C149.612 45.9384 149.183 45.7691 148.848 45.4307C148.504 45.1091 148.333 44.6438 148.333 44.0345V39.3976H147.586V38.2045H148.333V35.8522V35.8438Z" fill="#6C9FE7"/>
<path d="M153.313 35.8438H154.807V38.1961H155.897V39.3891H154.807V43.8991C154.798 44.2884 154.978 44.483 155.339 44.4745H155.897V45.9384H155.116C154.592 45.9384 154.163 45.7691 153.828 45.4307C153.484 45.1091 153.313 44.6438 153.313 44.0345V39.3976H152.566V38.2045H153.313V35.8522V35.8438Z" fill="#6C9FE7"/>
<path d="M159.332 42.6553C159.332 43.273 159.503 43.7469 159.847 44.0684C160.165 44.3984 160.594 44.5592 161.109 44.5592C161.719 44.5592 162.26 44.3053 162.741 43.8061L163.822 44.7707C163.058 45.6169 162.165 46.0315 161.135 46.023C160.74 46.023 160.362 45.9638 159.984 45.8453C159.795 45.7776 159.615 45.693 159.435 45.583C159.246 45.49 159.074 45.3715 158.911 45.2361C158.593 44.9484 158.336 44.5423 158.147 44.0261C157.932 43.5269 157.821 42.8838 157.821 42.0884C157.821 41.293 157.915 40.6838 158.104 40.1846C158.293 39.6684 158.533 39.2623 158.825 38.9661C159.126 38.6615 159.452 38.4415 159.821 38.3061C160.182 38.1707 160.542 38.103 160.894 38.103C161.745 38.1115 162.466 38.4076 163.058 38.9746C163.659 39.5584 163.96 40.3538 163.968 41.3776V42.6553H159.315H159.332ZM162.483 41.3692C162.466 40.7684 162.311 40.3115 162.019 39.9984C161.727 39.7023 161.358 39.5584 160.912 39.5584C160.465 39.5584 160.087 39.7023 159.804 39.9984C159.521 40.3115 159.366 40.7684 159.332 41.3692H162.483Z" fill="#6C9FE7"/>
<path d="M166.562 38.1961H168.056V39.0169H168.09C168.579 38.4076 169.232 38.103 170.03 38.103C170.631 38.1115 171.155 38.3146 171.593 38.6953L170.503 40.0407C170.185 39.7784 169.859 39.6515 169.515 39.6515C169.129 39.6515 168.803 39.7784 168.528 40.0407C168.219 40.2946 168.064 40.7092 168.056 41.2676V45.93H166.562V38.1961Z" fill="#6C9FE7"/>
<path d="M177.724 34.9807H178.866V46.023H177.724V34.9807Z" fill="#6C9FE7"/>
<path d="M186.302 35.0654H192.991V36.6139H187.882V39.8293H192.244V41.2847H187.882V45.93H186.293V35.0654H186.302Z" fill="#6C9FE7"/>
<path d="M198.64 45.2445H198.615C198.477 45.5068 198.263 45.7014 197.971 45.8283C197.687 45.9552 197.284 46.0229 196.777 46.0229C195.944 46.0145 195.3 45.786 194.854 45.3375C194.382 44.8975 194.141 44.3391 194.141 43.6622C194.141 42.9852 194.347 42.4691 194.759 42.046C195.171 41.606 195.773 41.386 196.571 41.3775H198.649V40.5652C198.658 39.8799 198.151 39.5499 197.121 39.5668C196.751 39.5668 196.451 39.6091 196.236 39.6852C196.013 39.7783 195.833 39.9391 195.704 40.1675L194.527 39.2368C195.094 38.4668 195.936 38.0945 197.043 38.1114C197.979 38.1029 198.726 38.2891 199.293 38.6614C199.851 39.0506 200.134 39.7106 200.152 40.6583V45.9468H198.658V45.2614L198.64 45.2445ZM198.64 42.6552H196.837C195.961 42.6722 195.532 42.9852 195.541 43.586C195.541 43.8483 195.652 44.0768 195.876 44.2545C196.09 44.4575 196.451 44.5591 196.949 44.5591C197.576 44.5675 198.022 44.4914 198.28 44.3306C198.512 44.1699 198.632 43.7975 198.632 43.2137V42.6552H198.64Z" fill="#6C9FE7"/>
<path d="M203.294 43.5693C203.904 44.2293 204.694 44.5593 205.656 44.5593C206.085 44.5593 206.437 44.4746 206.712 44.297C206.987 44.1193 207.124 43.8823 207.124 43.5693C207.124 43.29 207.038 43.0954 206.875 42.9854C206.703 42.8754 206.48 42.8077 206.205 42.7993L204.883 42.6808C204.256 42.6216 203.741 42.4016 203.346 42.0293C202.942 41.6654 202.736 41.1493 202.728 40.4893C202.736 39.6939 203.011 39.1016 203.543 38.7039C204.059 38.3062 204.72 38.1116 205.51 38.1116C205.853 38.1116 206.162 38.137 206.437 38.1793C206.712 38.23 206.969 38.2977 207.21 38.3908C207.673 38.5854 208.086 38.8477 208.446 39.1693L207.519 40.2946C207.227 40.0746 206.926 39.897 206.609 39.7616C206.291 39.6346 205.93 39.5754 205.51 39.5754C205.037 39.5754 204.711 39.66 204.522 39.8377C204.325 40.0154 204.23 40.2354 204.23 40.5062C204.222 40.6839 204.29 40.8362 204.454 40.9631C204.6 41.107 204.849 41.2 205.218 41.2423L206.454 41.3354C207.236 41.3946 207.794 41.64 208.137 42.0631C208.455 42.4777 208.618 43.0108 208.618 43.6539C208.609 44.407 208.317 44.9823 207.734 45.397C207.158 45.8116 206.42 46.0316 205.527 46.04C204.308 46.04 203.217 45.5746 202.247 44.6523L203.294 43.5862V43.5693Z" fill="#6C9FE7"/>
<path d="M211.22 35.8438H212.714V38.1961H213.804V39.3891H212.714V43.8991C212.705 44.2884 212.885 44.483 213.246 44.4745H213.804V45.9384H213.023C212.499 45.9384 212.07 45.7691 211.735 45.4307C211.391 45.1091 211.22 44.6438 211.22 44.0345V39.3976H210.473V38.2045H211.22V35.8522V35.8438Z" fill="#6C9FE7"/>
<path d="M217.23 42.6553C217.23 43.273 217.402 43.7469 217.745 44.0684C218.063 44.3984 218.492 44.5592 219.008 44.5592C219.617 44.5592 220.158 44.3053 220.639 43.8061L221.721 44.7707C220.957 45.6169 220.064 46.0315 219.033 46.023C218.638 46.023 218.261 45.9638 217.883 45.8453C217.694 45.7776 217.514 45.693 217.333 45.583C217.144 45.49 216.973 45.3715 216.809 45.2361C216.492 44.9484 216.234 44.5423 216.045 44.0261C215.831 43.5269 215.719 42.8838 215.719 42.0884C215.719 41.293 215.813 40.6838 216.002 40.1846C216.191 39.6684 216.432 39.2623 216.724 38.9661C217.024 38.6615 217.35 38.4415 217.72 38.3061C218.08 38.1707 218.441 38.103 218.793 38.103C219.643 38.1115 220.364 38.4076 220.957 38.9746C221.558 39.5584 221.858 40.3538 221.867 41.3776V42.6553H217.213H217.23ZM220.39 41.3692C220.373 40.7684 220.218 40.3115 219.926 39.9984C219.634 39.7023 219.265 39.5584 218.819 39.5584C218.372 39.5584 217.994 39.7023 217.711 39.9984C217.428 40.3115 217.273 40.7684 217.239 41.3692H220.39Z" fill="#6C9FE7"/>
<path d="M224.46 38.1961H225.954V39.0169H225.988C226.478 38.4076 227.13 38.103 227.929 38.103C228.53 38.1115 229.054 38.3146 229.492 38.6953L228.401 40.0407C228.083 39.7784 227.757 39.6515 227.414 39.6515C227.027 39.6515 226.701 39.7784 226.426 40.0407C226.117 40.2946 225.963 40.7092 225.954 41.2676V45.93H224.46V38.1961Z" fill="#6C9FE7"/>
<path d="M69.8528 26.5446V7.01538H73.7167V23.1431H82.7067V26.5446H69.8528Z" fill="#374FEE"/>
<path d="M97.1319 24.5731C95.7409 25.9439 94.0407 26.7139 91.7911 26.7139C89.5415 26.7139 87.8156 25.9439 86.4246 24.5731C84.4239 22.6016 84.4755 20.1562 84.4755 16.78C84.4755 13.4039 84.4239 10.967 86.4246 8.98696C87.8156 7.61619 89.5415 6.84619 91.7911 6.84619C94.0407 6.84619 95.7409 7.61619 97.1319 8.98696C99.1325 10.9585 99.1067 13.4039 99.1067 16.78C99.1067 20.1562 99.1325 22.5931 97.1319 24.5731ZM94.264 11.2885C93.7059 10.6539 92.8472 10.2477 91.7911 10.2477C90.735 10.2477 89.842 10.6623 89.2839 11.2885C88.5283 12.1093 88.3394 13.0147 88.3394 16.7716C88.3394 20.5285 88.5368 21.4339 89.2839 22.2547C89.842 22.8893 90.735 23.2954 91.7911 23.2954C92.8472 23.2954 93.7145 22.8808 94.264 22.2547C95.011 21.4339 95.2343 20.5285 95.2343 16.7716C95.2343 13.0147 95.011 12.1093 94.264 11.2885Z" fill="#374FEE"/>
<path d="M114.056 26.5446L112.888 23.0838H105.847L104.654 26.5446H100.618L107.822 7.01538H110.853L118.091 26.5446H114.056ZM109.436 12.7692L106.929 19.8769H111.858L109.436 12.7692Z" fill="#374FEE"/>
<path d="M132.259 26.5446L124.411 14.5546V26.5446H120.547V7.01538H123.999L131.847 18.98V7.01538H135.711V26.5446H132.259Z" fill="#374FEE"/>
<path d="M163.677 26.5446H160.448L156.799 14.69L153.158 26.5446H149.93L144.641 7.01538H148.676L151.733 19.3354L155.348 7.01538H158.242L161.856 19.3354L164.948 7.01538H168.983L163.668 26.5446H163.677Z" fill="#374FEE"/>
<path d="M171.473 26.5446V7.01538H175.337V26.5446H171.473Z" fill="#374FEE"/>
<path d="M190.483 26.5446L186.62 18.7515H183.838V26.5446H179.974V7.01538H187.736C191.771 7.01538 194.167 9.73154 194.167 12.9977C194.167 15.7392 192.467 17.44 190.552 18.1254L194.974 26.5446H190.492H190.483ZM187.478 10.4169H183.829V15.5785H187.478C189.178 15.5785 190.286 14.5123 190.286 12.9977C190.286 11.4831 189.17 10.4169 187.478 10.4169Z" fill="#374FEE"/>
<path d="M198.168 26.5446V7.01538H211.22V10.4169H202.041V14.9946H209.863V18.3961H202.041V23.1431H211.22V26.5446H198.168Z" fill="#374FEE"/>
<path d="M227.388 24.6746C226.083 25.9608 224.22 26.5361 222.159 26.5361H215.006V7.01538H222.159C224.22 7.01538 226.083 7.59077 227.388 8.87692C229.612 11.0685 229.389 13.7592 229.389 16.6954C229.389 19.6315 229.612 22.4831 227.388 24.6746ZM224.692 11.6185C224.022 10.8231 223.129 10.4085 221.798 10.4085H218.879V23.1346H221.798C223.138 23.1346 224.022 22.72 224.692 21.9246C225.413 21.0446 225.525 19.6485 225.525 16.6869C225.525 13.7254 225.413 12.49 224.692 11.61V11.6185Z" fill="#374FEE"/>
</g>
<defs>
<linearGradient id="paint0_linear_117_2271" x1="56.2176" y1="-8.98539" x2="6.82171" y2="44.5875" gradientUnits="userSpaceOnUse">
<stop offset="0.33" stop-color="#374FEE"/>
<stop offset="0.49" stop-color="#4967EE"/>
<stop offset="0.66" stop-color="#577BEE"/>
<stop offset="0.83" stop-color="#6087EE"/>
<stop offset="1" stop-color="#638BEF"/>
</linearGradient>
<linearGradient id="paint1_linear_117_2271" x1="11.9546" y1="38.0269" x2="60.777" y2="38.0269" gradientUnits="userSpaceOnUse">
<stop stop-color="#6C9FE7"/>
<stop offset="1" stop-color="#86CFCA"/>
</linearGradient>
<clipPath id="clip0_117_2271">
<rect width="229" height="55" fill="white" transform="translate(0.500244 0.5)"/>
</clipPath>
</defs>
</svg>
