<svg xmlns="http://www.w3.org/2000/svg" width="198" height="66" viewBox="0 0 198 66" fill="none"><path d="M183.468 33.853H190.317L192.069 40.3022C192.269 41.0176 192.347 41.1396 192.746 41.1396H197.204C197.604 41.1396 198 41.0592 198 40.8207C198 40.6627 197.881 40.3438 197.842 40.183L190.04 14.5052C189.882 14.0283 189.801 13.8675 189.202 13.8675H185.063C184.386 13.8675 184.347 13.9479 184.186 14.4636L176.343 40.1026C176.304 40.2607 176.185 40.5795 176.185 40.7791C176.223 41.0592 176.465 41.1368 176.98 41.1368H181.001C181.597 41.1368 181.677 41.0176 181.838 40.2995L183.471 33.8502L183.468 33.853ZM184.067 30.2707L185.82 23.4222C186.219 21.8306 186.577 19.521 186.735 17.8491H186.815C187.015 19.521 187.333 21.8695 187.691 23.4222L189.324 30.2707H184.067ZM157.513 13.8675C156.837 13.8675 156.676 13.9867 156.676 14.7048V40.3022C156.676 40.9788 156.834 41.1396 157.513 41.1396H164.043C169.178 41.1396 173.916 40.0638 173.916 33.4177C173.916 28.84 170.811 27.3677 168.94 26.8492C170.453 26.0922 173.002 24.8196 173.002 20.838C173.002 14.4276 167.586 13.8703 163.727 13.8703H157.516L157.513 13.8675ZM162.052 36.9584V29.3141H163.566C166.233 29.3141 168.543 29.7522 168.543 33.096C168.543 36.4399 166.233 36.9584 163.488 36.9584H162.052ZM162.052 25.1357V18.0487H163.724C165.915 18.0487 167.625 18.886 167.625 21.3926C167.625 24.5368 165.634 25.1357 163.286 25.1357H162.052ZM149.869 14.7048C149.869 13.9895 149.711 13.8675 149.034 13.8675H146.129C145.452 13.8675 145.291 13.9867 145.291 14.7048V27.3233C145.291 28.4379 145.411 31.2245 145.411 32.4999H145.33C144.853 30.8668 144.096 28.8372 142.982 26.7272L136.413 14.386C136.175 13.9479 136.094 13.8675 135.498 13.8675H132.235C131.558 13.8675 131.397 13.9867 131.397 14.7048V40.3022C131.397 41.0176 131.555 41.1396 132.235 41.1396H135.141C135.817 41.1396 135.978 41.0204 135.978 40.3022V25.9702C135.978 24.1403 135.859 22.1079 135.859 21.5922H135.939C136.338 23.3833 137.015 24.778 138.207 27.0072L145.491 40.5823C145.729 41.0592 145.849 41.1396 146.406 41.1396H149.034C149.75 41.1396 149.869 41.0204 149.869 40.3022V14.7048ZM112.646 33.853H119.494L121.247 40.3022C121.446 41.0176 121.527 41.1396 121.923 41.1396H126.382C126.781 41.1396 127.177 41.0592 127.177 40.8207C127.177 40.6627 127.058 40.3438 127.019 40.183L119.217 14.5052C119.059 14.0283 118.979 13.8675 118.38 13.8675H114.24C113.564 13.8675 113.525 13.9479 113.364 14.4636L105.52 40.1026C105.481 40.2607 105.362 40.5795 105.362 40.7791C105.401 41.0592 105.642 41.1368 106.158 41.1368H110.178C110.774 41.1368 110.855 41.0176 111.015 40.2995L112.649 33.8502L112.646 33.853ZM113.245 30.2707L114.997 23.4222C115.396 21.8306 115.754 19.521 115.912 17.8491H115.992C116.192 19.521 116.511 21.8695 116.869 23.4222L118.502 30.2707H113.245ZM100.623 15.1429C100.543 14.0671 100.465 13.8703 99.7861 13.8703H95.9653C95.2499 13.8703 95.2084 13.9507 95.0087 14.508L91.6261 24.5395C90.7499 27.168 90.5918 27.7642 90.3534 29.3169H90.273C90.0345 27.7642 89.5964 26.1311 89.078 24.5395L85.8533 14.508C85.6537 13.9119 85.6149 13.8703 84.9772 13.8703H81.1564C80.4799 13.8703 80.3191 13.9895 80.3191 14.7076L79.2044 40.305C79.1656 41.0204 79.3625 41.1424 80.0418 41.1424H82.9476C83.6241 41.1424 83.7433 41.0231 83.7849 40.305L84.1842 26.8104C84.223 25.3769 84.2646 21.875 84.2646 20.4415H84.345C84.5834 21.875 85.3016 25.2577 85.7397 26.6911L88.0493 34.4547C88.2073 35.012 88.2489 35.1312 88.9255 35.1312H91.3931C92.0697 35.1312 92.1085 35.012 92.2693 34.4547L94.6982 26.6911C95.1363 25.2577 95.8516 21.875 96.0928 20.4415H96.1732C96.1732 21.875 96.2121 25.3769 96.2537 26.8104L96.5725 40.305C96.5725 41.0204 96.7306 41.1424 97.4099 41.1424H100.912C101.588 41.1424 101.749 41.0231 101.749 40.305L100.634 15.1457L100.623 15.1429Z" fill="#0681AE"></path><path d="M187.957 57.6703V56.4614H184.192V53.5529H187.68V52.344H184.192V49.9013H187.957V48.6924H182.969V57.6703H187.957ZM172.023 55.3025H170.8C170.8 56.3977 169.855 56.5862 169.428 56.5862C168.976 56.5862 168.041 56.3977 168.041 55.2886V51.0686C168.041 49.9734 168.973 49.8098 169.428 49.8098C169.855 49.8098 170.8 49.9734 170.8 51.0575H172.023C172.023 50.2506 171.429 48.6147 169.428 48.6147C167.426 48.6147 166.821 50.2506 166.821 51.0464V55.2914C166.821 56.1093 167.387 57.784 169.416 57.784C171.446 57.784 172.023 56.1204 172.023 55.3025ZM155.658 57.6703V48.6924H154.436V55.028L151.754 48.6924H150.407V57.6703H151.63V51.4373L154.286 57.6703H155.658ZM137.619 54.0187H135.515L136.585 49.965L137.617 54.0187H137.619ZM139.81 57.6703L137.431 48.6924H135.667L133.324 57.6703H134.583L135.226 55.2276H137.935L138.565 57.6703H139.812H139.81ZM122.73 57.6703V48.6924H121.507V55.028L118.826 48.6924H117.479V57.6703H118.701V51.4373L121.358 57.6703H122.73ZM104.957 48.6924V57.6703H106.18V48.6924H104.957ZM94.1714 49.9013V48.6924H89.1833V57.6703H90.4061V53.5529H93.8941V52.344H90.4061V49.9013H94.1714Z" fill="#0681AE"></path><path d="M55.1209 14.7852L30.0614 0.442166C28.456 -0.475592 26.4098 0.0817169 25.4948 1.68433C24.5743 3.28971 25.1316 5.33318 26.737 6.25371L50.1135 19.6319V46.7044C50.1135 48.5537 51.6135 50.051 53.4629 50.051C55.3122 50.051 56.8095 48.551 56.8095 46.7044V17.691C56.8095 16.4905 56.1662 15.3814 55.1237 14.7852" fill="#0681AE"></path><path d="M42.5995 22.6319L17.5317 8.28331C15.9291 7.36555 13.8828 7.92009 12.9623 9.52547C12.0445 11.1309 12.5991 13.1743 14.2045 14.0949L37.5865 27.4786V54.5455C37.5865 56.3949 39.0865 57.8921 40.9359 57.8921C42.7853 57.8921 44.2853 56.3921 44.2853 54.5455V25.5377C44.2853 24.3371 43.642 23.2281 42.5995 22.6319Z" fill="#0681AE"></path><path d="M30.0753 30.4731L5.01024 16.13C3.97325 15.5366 2.70059 15.5422 1.66638 16.1383C0.634944 16.7372 0 17.8407 0 19.0358V48.2349C0 50.0843 1.49725 51.5815 3.34663 51.5815C5.19601 51.5815 6.69603 50.0815 6.69603 48.2349V24.8085L12.5353 28.1496V55.4744C12.5353 57.3237 14.0325 58.821 15.8819 58.821C17.7313 58.821 19.2313 57.321 19.2313 55.4744V31.9814L25.0678 35.3225V62.395C25.0678 64.2443 26.5678 65.7416 28.4144 65.7416C30.2611 65.7416 31.7611 64.2416 31.7611 62.395V33.3789C31.7611 32.1783 31.1178 31.0692 30.0753 30.4731Z" fill="#0681AE"></path></svg>