<?xml version="1.0" encoding="utf-8"?>
<!-- Generator: Adobe Illustrator 18.1.0, SVG Export Plug-In . SVG Version: 6.00 Build 0)  -->
<!DOCTYPE svg PUBLIC "-//W3C//DTD SVG 1.1//EN" "http://www.w3.org/Graphics/SVG/1.1/DTD/svg11.dtd">
<svg version="1.1" id="Ebene_2" xmlns="http://www.w3.org/2000/svg" xmlns:xlink="http://www.w3.org/1999/xlink" x="0px" y="0px"
	 viewBox="-6 65.1 153.9 12.7" enable-background="new -6 65.1 153.9 12.7" xml:space="preserve">
<g>
	<g>
		<g>
			<g>
				<g>
					<g>
						<g>
							<path fill="#FFFFFF" d="M64.9,73.2v-1H69v1H64.9z"/>
							<g>
								<path fill="#FFFFFF" d="M-3.5,66.5L-3.9,76c0,0.1,0,0.1,0,0.2c0,0.8,0.2,1,1.5,1.1v0.4c-0.9-0.1-1.3-0.1-1.8-0.1
									c-0.5,0-0.9,0-1.8,0.1v-0.4c1.3-0.1,1.5-0.2,1.5-1.2l0.4-9c0,0,0-0.1,0-0.1c0-0.8-0.3-1-1.5-1.1v-0.5c0.7,0.1,1,0.1,1.5,0.1
									c0.7,0,1,0,1.7-0.1L1,74.6l3.5-9.3c0.8,0.1,1.2,0.1,1.8,0.1c0.5,0,0.8,0,1.5-0.1v0.5c-1.3,0.1-1.5,0.3-1.5,1.1V67l0.2,9
									c0,1,0.2,1.1,1.5,1.2v0.4c-1.2-0.1-1.6-0.1-2.3-0.1c-0.7,0-1.1,0-2.3,0.1v-0.4c1.3-0.1,1.5-0.3,1.5-1.1V76l-0.2-9.5l-3,8.2
									l-0.2,0.6L1.2,76l-0.2,0.7l-0.2,0.6H0.5l-0.2-0.6L0,76l-0.3-0.7l-0.2-0.6L-3.5,66.5z"/>
								<path fill="#FFFFFF" d="M12.7,77.2c-1.7,0-2.4-1.3-2.4-4.2h5.5c0-2.8-1.2-4.3-3.4-4.3c-2.2,0-3.6,1.8-3.6,4.6
									c0,2.8,1.4,4.5,3.8,4.5c1.8,0,3-1.1,3.2-3H15C14.8,76.4,14,77.2,12.7,77.2z M10.3,72.4c0.2-2.1,0.9-3.2,2.1-3.2
									c1.2,0,1.8,1,1.9,3.2H10.3z"/>
								<path fill="#FFFFFF" d="M16.9,69.4v-0.3c1-0.1,1.7-0.2,2.4-0.4c0.1,0.7,0.1,1,0.2,1.5v0.2c0.4-1,1.2-1.7,2.2-1.7
									c0.9,0,1.6,0.6,1.6,1.5c0,0.5-0.3,0.9-0.8,0.9c-0.4,0-0.8-0.3-0.8-0.6c0,0,0-0.1,0-0.2l0-0.2c0-0.1,0-0.1,0-0.2
									c0-0.3-0.2-0.4-0.6-0.4c-1,0-1.6,1.2-1.6,3v3.8c0,0.8,0.2,0.9,1.3,1v0.4c-1-0.1-1.4-0.1-2-0.1c-0.7,0-1,0-2.1,0.1v-0.4
									c1.1-0.1,1.3-0.2,1.3-1v-5.7v-0.3c0-0.8-0.1-0.9-1.1-0.9H16.9z"/>
								<path fill="#FFFFFF" d="M30.2,68.5v3h-0.4c-0.3-1.6-1-2.4-2.1-2.4c-1.4,0-2.2,1.5-2.2,4.1c0,2.6,0.7,3.9,2.1,3.9
									c1.1,0,1.8-0.8,2-2.4h0.8c-0.2,2-1.3,3-2.9,3c-2.1,0-3.6-1.8-3.6-4.5c0-2.7,1.5-4.6,3.6-4.6c0.8,0,1.3,0.2,1.9,0.8l0.5-0.9
									H30.2z"/>
								<path fill="#FFFFFF" d="M35.7,77.2c-1.7,0-2.4-1.3-2.4-4.2h5.5c0-2.8-1.2-4.3-3.4-4.3c-2.2,0-3.6,1.8-3.6,4.6
									c0,2.8,1.4,4.5,3.8,4.5c1.8,0,3-1.1,3.2-3H38C37.8,76.4,37,77.2,35.7,77.2z M33.3,72.4c0.2-2.1,0.9-3.2,2.1-3.2
									c1.2,0,1.8,1,1.9,3.2H33.3z"/>
								<path fill="#FFFFFF" d="M47.3,75.8V65.1c-0.9,0.2-1.7,0.4-2.8,0.5V66c1.2,0,1.3,0.1,1.3,1.1v3.2c-0.7-1.1-1.2-1.4-2.2-1.4
									c-2,0-3.3,1.9-3.3,4.5c0,2.6,1.4,4.5,3.4,4.5c1,0,1.8-0.5,2.3-1.5c0.1,0.7,0.1,0.8,0.3,1.5c0.8-0.2,1.1-0.3,2.2-0.4l0.3,0
									V77C47.4,77,47.3,76.9,47.3,75.8z M43.8,77.3c-1.3,0-2-1.4-2-4c0-2.7,0.6-4,2-4c1.4,0,2.1,1.4,2.1,4.1
									C45.8,76,45.1,77.3,43.8,77.3z"/>
								<path fill="#FFFFFF" d="M53.2,77.2c-1.7,0-2.4-1.3-2.4-4.2h5.5c0-2.8-1.2-4.3-3.4-4.3c-2.2,0-3.6,1.8-3.6,4.6
									c0,2.8,1.4,4.5,3.8,4.5c1.8,0,3-1.1,3.2-3h-0.7C55.3,76.4,54.5,77.2,53.2,77.2z M50.8,72.4c0.2-2.1,0.9-3.2,2.1-3.2
									c1.2,0,1.8,1,1.9,3.2H50.8z"/>
								<path fill="#FFFFFF" d="M57.8,77.8v-3.1l0.4,0c0.3,1.7,1.1,2.5,2.4,2.5c1.1,0,1.9-0.7,1.9-1.7c0-0.6-0.3-1-1.3-1.5l-0.7-0.3
									l-0.8-0.4c-1.3-0.6-1.8-1.1-1.8-2.2c0-1.5,1.1-2.4,2.8-2.4c0.7,0,1.3,0.2,1.9,0.6l0.3-0.8h0.3v2.9h-0.4
									c-0.2-1.5-0.8-2.2-1.9-2.2c-1,0-1.7,0.7-1.7,1.5c0,0.7,0.3,1,1.9,1.7l0.8,0.3c1.4,0.6,1.9,1.2,1.9,2.3c0,1.5-1.2,2.6-3,2.6
									c-0.8,0-1.5-0.2-2.2-0.8l-0.4,0.8H57.8z"/>
							</g>
							<g>
								<path fill="#FFFFFF" d="M77.7,68.3c0-1-0.4-1.8-1.1-2.3c-0.6-0.5-1.3-0.7-2.5-0.7h-4.8v0.5c1.3,0.1,1.5,0.2,1.5,1.2v8.9
									c0,1-0.1,1.1-1.5,1.2v0.4h4.7c1.4,0,2.1-0.2,2.9-0.6c0.9-0.6,1.5-1.7,1.5-2.9c0-1-0.4-1.9-1.1-2.4c-0.4-0.3-0.8-0.5-1.5-0.6
									C77,70.6,77.7,69.6,77.7,68.3z M72.2,65.9h1.6c1.5,0,2.2,0.8,2.2,2.5c0,0.8-0.2,1.5-0.6,1.9c-0.4,0.5-0.9,0.6-1.9,0.6h-1.3
									V65.9z M74,71.5c1,0,1.5,0.2,1.9,0.6c0.4,0.4,0.7,1.2,0.7,2.1c0,1.8-0.9,2.9-2.6,2.9h-0.7c-1,0-1.1-0.1-1.1-1v-4.6H74z"/>
								<path fill="#FFFFFF" d="M83.6,77.2c-1.7,0-2.4-1.3-2.4-4.2h5.5c0-2.8-1.2-4.3-3.4-4.3c-2.2,0-3.6,1.8-3.6,4.6
									c0,2.8,1.4,4.5,3.8,4.5c1.8,0,3-1.1,3.2-3H86C85.7,76.4,84.9,77.2,83.6,77.2z M81.2,72.4c0.2-2.1,0.9-3.2,2.1-3.2
									c1.2,0,1.8,1,1.9,3.2H81.2z"/>
								<path fill="#FFFFFF" d="M87.7,69.5v-0.3c1.1-0.1,1.7-0.3,2.4-0.6c0.1,0.4,0.1,0.9,0.2,1.6c0.7-1,1.4-1.4,2.5-1.4
									c1.1,0,2.1,0.6,2.4,1.5c0.2,0.4,0.3,1,0.3,1.7v4.4c0,0.8,0.2,0.9,1.3,1v0.4c-1-0.1-1.3-0.1-2-0.1c-0.7,0-1,0-2,0.1v-0.4
									c1,0,1.2-0.2,1.2-1v-4.5c0-1.6-0.5-2.2-1.7-2.2c-1.3,0-1.9,0.8-1.9,2.3v4.5c0,0.7,0.2,0.9,1.2,1v0.4c-1-0.1-1.3-0.1-2-0.1
									c-0.6,0-1,0-2,0.1v-0.4c1.1-0.1,1.3-0.2,1.3-1v-5.7v-0.3c0-0.8-0.1-0.9-1-0.9C87.8,69.5,87.8,69.5,87.7,69.5z"/>
								<path fill="#FFFFFF" d="M97.5,77.6l5-8.2h-2.3c-1.2,0-1.5,0.3-2.2,1.9h-0.4l0.4-2.4h6.3l-5,8.2h2.2c1.3,0,1.8-0.5,2.3-2.2
									h0.4l-0.5,2.6H97.5z"/>
							</g>
						</g>
					</g>
				</g>
			</g>
		</g>
	</g>
	<g>
		<path fill="#FFFFFF" d="M115.2,65.4c1.2,0,1.9,0.2,2.5,0.7c0.7,0.6,1.1,1.4,1.1,2.3c0,1.3-0.7,2.2-2,2.7c1.7,0.3,2.6,1.4,2.6,3
			c0,1.2-0.6,2.3-1.5,2.9c-0.7,0.5-1.5,0.6-2.9,0.6h-4.6v-0.4c1.4-0.1,1.5-0.2,1.5-1.2V67c0-1-0.2-1.1-1.5-1.2v-0.4H115.2z
			 M114.6,70.9c1,0,1.5-0.1,1.9-0.6c0.4-0.4,0.6-1.1,0.6-1.9c0-1.7-0.7-2.5-2.2-2.5h-1.6v5H114.6z M113.4,76.1
			c0,0.8,0.2,0.9,1.1,0.9h0.7c1.6,0,2.6-1,2.6-2.9c0-0.9-0.2-1.6-0.7-2.1c-0.4-0.4-1-0.6-1.9-0.6h-1.7V76.1z"/>
		<path fill="#FFFFFF" d="M128.1,77.6c-0.4,0.1-0.7,0.1-1,0.1c-0.9,0-1.3-0.5-1.4-1.6c-0.7,1.2-1.3,1.6-2.5,1.6
			c-1.5,0-2.6-1-2.6-2.4c0-1.1,0.7-1.9,2.1-2.5c0.8-0.3,1.6-0.6,2.7-0.7v-1.1c0-0.7-0.1-1-0.3-1.3c-0.3-0.3-0.7-0.5-1.2-0.5
			c-0.9,0-1.5,0.4-1.5,1.1v0.1c0,0.1,0,0.2,0,0.3c0,0.5-0.3,0.8-0.8,0.8c-0.4,0-0.6-0.2-0.6-0.6c0-1.2,1.4-2.2,3-2.2
			c1,0,2,0.4,2.4,1.1c0.3,0.4,0.4,1,0.4,1.9v3.7c0,1.3,0.2,1.6,0.7,1.6c0.1,0,0.2,0,0.5-0.1V77.6z M125.4,72.7
			c-2.3,0.4-3.3,1.2-3.3,2.6c0,1,0.6,1.7,1.5,1.7c1.3,0,1.8-0.8,1.8-2.7V72.7z"/>
		<path fill="#FFFFFF" d="M144.4,70.2c0.2-0.2,0.3-0.4,0.3-0.5c0-0.3-0.3-0.4-1-0.4v-0.4c0.7,0.1,1.2,0.1,1.7,0.1c0.6,0,1,0,1.8-0.1
			v0.4c-0.9,0.1-1.2,0.2-1.8,0.9l-1.8,1.9l2.6,4.3c0.5,0.8,0.8,1,1.7,1v0.4c-0.6-0.1-0.9-0.1-1.2-0.1c-0.3,0-0.6,0-1.2,0.1l-2.7-4.8
			l-1.3,1.3v2.1c0,0.8,0.2,0.9,1.3,1v0.4c-1-0.1-1.5-0.1-2-0.1c-0.6,0-1.1,0-2,0.1v-0.4c1.1-0.1,1.3-0.2,1.3-1V67
			c0-0.9-0.1-1.1-1.3-1.1v-0.3c0.9-0.1,1.9-0.2,2.8-0.5v8.2L144.4,70.2z"/>
	</g>
	<path fill="#FFFFFF" d="M128.8,69.2c1-0.1,1.8-0.3,2.4-0.6c0.1,0.3,0.2,0.9,0.2,1.6c0.7-1,1.4-1.4,2.5-1.4c1,0,1.8,0.4,2.3,1.2
		c0.3,0.4,0.4,1.1,0.4,1.9v4.4c0,0.8,0.2,0.9,1.3,1v0.4c-0.9-0.1-1.4-0.1-2-0.1c-0.6,0-1.1,0-2,0.1v-0.4c1,0,1.2-0.2,1.2-1v-4.5
		c0-0.8-0.1-1.2-0.3-1.6c-0.3-0.4-0.8-0.6-1.3-0.6c-0.6,0-1.2,0.3-1.6,0.8c-0.3,0.3-0.3,0.8-0.3,1.5v4.4c0,0.7,0.2,0.9,1.2,1v0.4
		c-0.9-0.1-1.4-0.1-2-0.1c-0.6,0-1.1,0-2,0.1v-0.4c1.1-0.1,1.3-0.2,1.3-1v-5.7c0-1-0.1-1.1-1.1-1.1h-0.2V69.2z"/>
</g>
</svg>
