<svg xmlns="http://www.w3.org/2000/svg" width="57.195" height="27.617" viewBox="0 0 57.195 27.617">
  <g id="c-logo1" transform="translate(0.001 0)" style="isolation: isolate">
    <path id="Path_9972" data-name="Path 9972" d="M609.849,6.046a4.761,4.761,0,0,1,3.56,1.057,5.469,5.469,0,0,1,1.705,4.261,6,6,0,0,1-1.106,3.785,4.469,4.469,0,0,1-3.1,1.715,4.693,4.693,0,0,1-3.812-1.07,5.538,5.538,0,0,1-1.675-4.222A5.772,5.772,0,0,1,607,7.339a4.6,4.6,0,0,1,2.853-1.292m-.066,1.914a2.212,2.212,0,0,0-1.352,1.013,4.867,4.867,0,0,0-.638,2.5,4.737,4.737,0,0,0,.677,2.564,2.085,2.085,0,0,0,1.758.989,2.048,2.048,0,0,0,1.8-.962,5.169,5.169,0,0,0,.636-3.3,3.7,3.7,0,0,0-1.058-2.361A2.077,2.077,0,0,0,609.782,7.961Z" transform="translate(-592.965 10.703)" fill="#bac6d1"/>
    <path id="Path_9973" data-name="Path 9973" d="M792.844,6.045A4.77,4.77,0,0,1,796.4,7.1a5.465,5.465,0,0,1,1.712,4.271,6,6,0,0,1-1.107,3.783,4.474,4.474,0,0,1-3.1,1.713,4.7,4.7,0,0,1-3.816-1.07,5.538,5.538,0,0,1-1.675-4.22,5.779,5.779,0,0,1,1.574-4.234,4.606,4.606,0,0,1,2.853-1.3m-.067,1.915a2.211,2.211,0,0,0-1.35,1.017,4.867,4.867,0,0,0-.635,2.492,4.735,4.735,0,0,0,.675,2.561,2.087,2.087,0,0,0,1.755.992A2.062,2.062,0,0,0,795.07,14a5.287,5.287,0,0,0,.586-3.335,3.6,3.6,0,0,0-1.1-2.307A2.084,2.084,0,0,0,792.776,7.961Z" transform="translate(-757.842 10.704)" fill="#bac6d1"/>
    <path id="Path_9974" data-name="Path 9974" d="M990.011,6.124a6.3,6.3,0,0,1,3.673.412c-.169.635-.357,1.266-.505,1.905a4.533,4.533,0,0,0-2.575-.453,1.093,1.093,0,0,0-1,.888.929.929,0,0,0,.416.888c.8.549,1.786.738,2.6,1.271a3.063,3.063,0,0,1,1.256,1.429,3.172,3.172,0,0,1-.676,3.371,4.268,4.268,0,0,1-2.793,1.062,6.752,6.752,0,0,1-3.255-.634c.149-.655.306-1.309.463-1.963a5.723,5.723,0,0,0,2.594.668,1.819,1.819,0,0,0,1.323-.5,1.049,1.049,0,0,0-.068-1.391,8.728,8.728,0,0,0-2.182-1.093,3.48,3.48,0,0,1-1.884-1.956,3.02,3.02,0,0,1,.443-2.632A3.527,3.527,0,0,1,990.011,6.124Z" transform="translate(-936.895 10.71)" fill="#bac6d1"/>
    <path id="Path_9975" data-name="Path 9975" d="M4.663,6.85q5.18.007,10.36,0c0,1.044-.007,2.089.006,3.133-.991,0-1.983,0-2.974,0q-.006,3.782,0,7.565H7.745c.02-1.943-.01-3.888.013-5.831-.055-.581.064-1.167-.027-1.743-1.023.027-2.047,0-3.071.012C4.667,8.941,4.662,7.895,4.663,6.85Z" transform="translate(1.902 -6.846)" fill="#bac6d1"/>
    <path id="Path_9976" data-name="Path 9976" d="M102.492,6.853c1.44-.066,2.885-.011,4.328-.031a.207.207,0,0,1,.247.154c1.376,3.516,2.729,7.041,4.119,10.552-1.4-.015-2.794-.011-4.191,0-.757-2.111-1.461-4.241-2.218-6.352-.759,2.1-1.457,4.224-2.182,6.337-1.384.02-2.769,0-4.154.009C99.8,13.969,101.162,10.416,102.492,6.853Z" transform="translate(-82.59 -6.818)" fill="#bac6d1"/>
    <path id="Path_9977" data-name="Path 9977" d="M217.112,6.828q4.4,0,8.8,0c.515,0,1.032-.023,1.546.018-.01,1.039-.008,2.078,0,3.117-.991-.009-1.984,0-2.976,0,0,2.522,0,5.045,0,7.566-1.435,0-2.87-.006-4.3,0,.012-2.522,0-5.045.007-7.568-1.025,0-2.049,0-3.074,0C217.114,8.921,217.11,7.874,217.112,6.828Z" transform="translate(-189.508 -6.824)" fill="#bac6d1"/>
    <path id="Path_9978" data-name="Path 9978" d="M314.843,6.844c.7-.087,1.4,0,2.105-.036.81.02,1.624-.044,2.432.035q2.051,5.34,4.151,10.662-2.1,0-4.2,0c-.674-1.989-1.376-3.969-2.056-5.956-.045-.114-.07-.258-.209-.29-.681,2.089-1.429,4.155-2.115,6.242-1.386.016-2.772,0-4.157.01C312.149,13.958,313.508,10.405,314.843,6.844Z" transform="translate(-273.911 -6.803)" fill="#bac6d1"/>
    <path id="Path_9979" data-name="Path 9979" d="M902.049,7.239a19.83,19.83,0,0,1,3.357-.216,4.808,4.808,0,0,1,2.877.78,2.829,2.829,0,0,1-.787,4.82,2.381,2.381,0,0,1,1.157,1.334c.43,1.193.575,2.472,1.025,3.659-.79-.026-1.581.012-2.37-.021a22.666,22.666,0,0,1-.693-2.572,2.207,2.207,0,0,0-.673-1.315,2.9,2.9,0,0,0-1.634-.26c0,1.387,0,2.775,0,4.162q-1.135-.006-2.27,0c.01-3.457-.007-6.914.009-10.372M904.3,8.861c.015.962-.014,1.923.015,2.884a4.008,4.008,0,0,0,2.045-.29,1.452,1.452,0,0,0,.068-2.392A3.523,3.523,0,0,0,904.3,8.861Z" transform="translate(-860.214 9.806)" fill="#bac6d1"/>
    <path id="Path_9980" data-name="Path 9980" d="M480.315,8.02c1.022.011,2.044,0,3.065.006.658,2.406,1.412,4.792,1.846,7.254a.878.878,0,0,0,.15-.409c.5-2.321,1.238-4.58,1.935-6.848,1,0,2.006,0,3.01,0,.149,3.5.37,6.988.521,10.484H488.62c-.057-2.179-.2-4.353-.227-6.533.013-.6-.023-1.2-.028-1.8-.721,2.748-1.586,5.456-2.4,8.179H484.18c-.6-2.35-1.3-4.676-1.776-7.056a10.167,10.167,0,0,0-.253-1.142c-.06,2.788-.229,5.572-.349,8.356-.708,0-1.415,0-2.123,0C479.891,15.013,480.127,11.518,480.315,8.02Z" transform="translate(-479.681 8.905)" fill="#bac6d1"/>
    <path id="Path_9981" data-name="Path 9981" d="M706.42,8.066h7.739c0,.66-.009,1.319,0,1.98-.914.022-1.827,0-2.741.01,0,2.832,0,5.665,0,8.5-.763-.006-1.527,0-2.29,0q0-4.247,0-8.494c-.9,0-1.807,0-2.71,0C706.42,9.393,706.427,8.73,706.42,8.066Z" transform="translate(-683.966 8.864)" fill="#bac6d1"/>
  </g>
</svg>
