<svg xmlns="http://www.w3.org/2000/svg" width="286.646" height="42.325" viewBox="0 0 286.646 42.325">
  <g id="logo_2_" data-name="logo (2)" transform="translate(0 0.007)">
    <g id="Group_157991" data-name="Group 157991" transform="translate(54.08 16.577)">
      <g id="Group_157989" data-name="Group 157989">
        <path id="Path_66834" data-name="Path 66834" d="M47.387,8.85h3.257V33.179H47.2V14.406l-7.471,9.387h-.575l-7.471-9.387V33.179H28.23V8.85h3.257l8.046,9.962L47.579,8.85h-.192Z" transform="translate(-28.23 -8.467)" fill="#0054a6"/>
        <path id="Path_66835" data-name="Path 66835" d="M55.057,8.65a12.557,12.557,0,0,1,9.387,3.64,11.855,11.855,0,0,1,3.831,9,11.445,11.445,0,0,1-3.831,8.812,13.675,13.675,0,0,1-9.578,3.448,12.733,12.733,0,0,1-9.2-3.448,11.57,11.57,0,0,1-3.64-8.812,11.988,11.988,0,0,1,3.64-9,13.337,13.337,0,0,1,9.387-3.64Zm.192,3.257a10.037,10.037,0,0,0-6.9,2.682,9.246,9.246,0,0,0-2.682,6.7,8.805,8.805,0,0,0,2.682,6.513,9.388,9.388,0,0,0,16.092-6.7,8.805,8.805,0,0,0-2.682-6.513,9.246,9.246,0,0,0-6.7-2.682Z" transform="translate(-15.593 -8.65)" fill="#0054a6"/>
        <path id="Path_66836" data-name="Path 66836" d="M77.179,8.85h3.257V33.179H77.37L61.087,14.6V33.179H57.83V8.85H60.7L76.987,27.624V8.85h.192Z" transform="translate(-1.125 -8.467)" fill="#0054a6"/>
        <path id="Path_66837" data-name="Path 66837" d="M72.43,8.85H86.223v3.065H75.878v7.471H85.84v3.065H75.878v7.471H86.415v3.065H72.43V8.85Z" transform="translate(12.244 -8.467)" fill="#0054a6"/>
        <path id="Path_66838" data-name="Path 66838" d="M97.663,8.85h4.215l-9,11.494V33.179h-3.64V20.344l-9-11.494h4.215l6.513,8.429L97.471,8.85Z" transform="translate(19.386 -8.467)" fill="#0054a6"/>
      </g>
      <g id="Group_157990" data-name="Group 157990" transform="translate(124.52 0)">
        <path id="Path_66839" data-name="Path 66839" d="M93.23,9.033h10.536a9.509,9.509,0,0,1,5.939,1.724,5.648,5.648,0,0,1,2.107,4.215,6.014,6.014,0,0,1-3.257,4.789,6.515,6.515,0,0,1,3.831,2.3,5.856,5.856,0,0,1,1.341,3.831,7.074,7.074,0,0,1-2.107,5.172c-1.533,1.341-3.64,1.916-6.322,1.916H93.422V8.65Zm5.939,4.406v5.172h3.065a3.054,3.054,0,0,0,2.3-.766,2.46,2.46,0,0,0,.766-1.916,2.46,2.46,0,0,0-.766-1.916,3.054,3.054,0,0,0-2.3-.766H99.169v.192Zm0,9.77v5.747h3.448a8,8,0,0,0,3.448-.575,2.317,2.317,0,0,0,1.149-2.3,1.912,1.912,0,0,0-.958-1.916,4.054,4.054,0,0,0-2.682-.766H99.36l-.192-.192Z" transform="translate(-93.23 -8.65)" fill="#ac2d24"/>
        <path id="Path_66840" data-name="Path 66840" d="M119.423,8.65a13.423,13.423,0,0,1,9.962,3.831,11.946,11.946,0,0,1,3.831,8.621,12.366,12.366,0,0,1-3.831,8.812,13.909,13.909,0,0,1-9.962,3.64c-4.023,0-7.471-1.149-9.962-3.64A12.044,12.044,0,0,1,105.63,21.1a11.631,11.631,0,0,1,3.831-8.621c2.49-2.49,5.939-3.64,9.962-3.64Zm0,19.923a7.665,7.665,0,0,0,5.556-2.107,7.209,7.209,0,0,0,2.107-5.364,7.209,7.209,0,0,0-2.107-5.364,8.377,8.377,0,0,0-11.111,0A7.209,7.209,0,0,0,111.76,21.1a7.209,7.209,0,0,0,2.107,5.364A7.665,7.665,0,0,0,119.423,28.573Z" transform="translate(-81.875 -8.65)" fill="#ac2d24"/>
        <path id="Path_66841" data-name="Path 66841" d="M147.024,8.85l-9.387,11.686,10.536,12.644H140.32l-6.513-8.046-6.513,8.046H119.63l10.345-12.644L120.2,8.85h7.854l5.747,7.088,5.747-7.088h7.471Z" transform="translate(-69.056 -8.467)" fill="#ac2d24"/>
        <path id="Path_66842" data-name="Path 66842" d="M162.124,8.85l-9.387,11.686,10.536,12.644h-7.854l-6.513-8.046-6.513,8.046H134.73l10.345-12.644L135.3,8.85h7.854l5.747,7.088,5.747-7.088h7.471Z" transform="translate(-55.229 -8.467)" fill="#ac2d24"/>
      </g>
    </g>
    <g id="Group_157992" data-name="Group 157992" transform="translate(0 -0.007)">
      <path id="Path_66843" data-name="Path 66843" d="M4.27,13.5a.687.687,0,0,0-.69.69V26.546a.69.69,0,0,0,1.379,0V14.19A.687.687,0,0,0,4.27,13.5Z" transform="translate(3.278 12.376)" fill="#ac2c24"/>
      <path id="Path_66844" data-name="Path 66844" d="M37.05,16.93l-16.379,2.72.575.575.038.019A3.518,3.518,0,0,1,21,25.493a3.517,3.517,0,0,1-2.241.785,3.652,3.652,0,0,1-2.625-1.092L12.146,21.2a.691.691,0,0,1,.977-.977l3.985,3.985a2.272,2.272,0,0,0,3.046.211,2.218,2.218,0,0,0,.8-1.571,2.174,2.174,0,0,0-.613-1.628.059.059,0,0,1-.038-.019l-4.444-5.46a4.147,4.147,0,0,0-3.2-1.533H5.02V25.187H6.054l7.088,3.065a12.622,12.622,0,0,0,10.977-.441l13.429-7.146s.249-.115.364-.172c.92-.4,1.437-.613,1.437-1.839a1.6,1.6,0,0,0-.364-1.092,2.183,2.183,0,0,0-1.916-.67Z" transform="translate(4.597 13.026)" fill="#0054a5"/>
      <rect id="Rectangle_97602" data-name="Rectangle 97602" width="5.498" height="13.716" transform="translate(0 25.876)" fill="#0054a5"/>
      <path id="Path_66845" data-name="Path 66845" d="M10.807,7.146a7.656,7.656,0,1,1-.019,0Z" transform="translate(5.247 6.469)" fill="#ac2c24"/>
      <path id="Path_66846" data-name="Path 66846" d="M5.918,9.7a.692.692,0,0,0-1.341-.345,8.733,8.733,0,0,0-.287,2.222.69.69,0,0,0,1.379,0A7.75,7.75,0,0,1,5.9,9.7Z" transform="translate(3.928 8.107)" fill="#ac2c24"/>
      <path id="Path_66847" data-name="Path 66847" d="M5.326,10.562a.691.691,0,0,0,.383.115.7.7,0,0,0,.575-.307A7.537,7.537,0,0,1,12.567,7a.69.69,0,0,0,0-1.379A8.938,8.938,0,0,0,5.134,9.6.7.7,0,0,0,5.326,10.562Z" transform="translate(4.598 5.16)" fill="#ac2c24"/>
      <path id="Path_66848" data-name="Path 66848" d="M27.343,13.617A6.181,6.181,0,1,0,22.362,20.8a6.2,6.2,0,0,0,4.981-7.184Z" transform="translate(13.806 7.834)" fill="#ac2c24"/>
      <path id="Path_66849" data-name="Path 66849" d="M20.517,8.728a.691.691,0,0,0,.843-.5.7.7,0,0,0-.5-.843A8.733,8.733,0,0,0,18.64,7.1a.69.69,0,1,0,0,1.379,7.75,7.75,0,0,1,1.877.23Z" transform="translate(16.437 6.515)" fill="#ac2c24"/>
      <path id="Path_66850" data-name="Path 66850" d="M20.445,8.136a.691.691,0,0,0-.115.383.7.7,0,0,0,.307.575,7.562,7.562,0,0,1,3.372,6.283.69.69,0,0,0,1.379,0A8.912,8.912,0,0,0,21.4,7.944a.7.7,0,0,0-.958.192Z" transform="translate(18.616 7.185)" fill="#ac2c24"/>
      <path id="Path_66851" data-name="Path 66851" d="M23.348,5.352a6.176,6.176,0,1,0-3.487,8.008A6.184,6.184,0,0,0,23.348,5.352Z" transform="translate(10.464 1.328)" fill="#ac2c24"/>
      <path id="Path_66852" data-name="Path 66852" d="M16.178,1.386a.7.7,0,0,0,.728-.651.688.688,0,0,0-.651-.728A8.838,8.838,0,0,0,14.013.16a.691.691,0,0,0-.536.8.691.691,0,0,0,.8.536,7.038,7.038,0,0,1,1.9-.134Z" transform="translate(12.328 0.007)" fill="#ac2c24"/>
      <path id="Path_66853" data-name="Path 66853" d="M15.984.76a.677.677,0,0,0-.038.383.7.7,0,0,0,.4.5,7.485,7.485,0,0,1,4.521,5.517.691.691,0,0,0,.8.536.677.677,0,0,0,.536-.8A8.915,8.915,0,0,0,16.846.377a.662.662,0,0,0-.881.364Z" transform="translate(14.591 0.307)" fill="#ac2c24"/>
    </g>
  </g>
</svg>
