<?xml version="1.0" encoding="utf-8"?>
<!-- Generator: Adobe Illustrator 15.1.0, SVG Export Plug-In . SVG Version: 6.00 Build 0)  -->
<!DOCTYPE svg PUBLIC "-//W3C//DTD SVG 1.1//EN" "http://www.w3.org/Graphics/SVG/1.1/DTD/svg11.dtd">
<svg version="1.1" id="Layer_1" xmlns="http://www.w3.org/2000/svg" xmlns:xlink="http://www.w3.org/1999/xlink" x="0px" y="0px"
	 width="649.667px" height="240px" viewBox="0 0 649.667 240" enable-background="new 0 0 649.667 240" xml:space="preserve">
<g>
	<g>
		<path fill="#044C35" d="M170.493,36.36c0,5.23,1.725,10.086,10.135,16.971l3.447,2.847c6.688,5.535,8.541,8.375,8.541,13.28
			c0,4.742-3.557,9.557-10.348,9.557c-2.803,0-9.402-0.689-10.73-7.306c-0.199-1.024-0.199-2.044-0.199-2.713
			c0-0.418,0-1.403-1.121-1.403c-1.057,0-1.111,1.17-1.164,1.752l-0.072,0.904c-0.127,1.567-0.305,4.135-0.305,7.2
			c0,2.079,0.043,2.718,1.416,3.418l0,0c2.959,1.41,6.402,2.11,10.51,2.11c4.625,0,8.727-1.146,11.818-3.307
			c4.971-3.528,6.729-9.06,6.729-13.112c0-5.98-1.852-10.887-11.34-18.364l-2.133-1.688c-7.285-5.975-9.105-8.397-9.105-12.343
			c0-4.956,3.568-8.299,8.811-8.299c6.324,0,8.443,2.626,9.055,3.744c0.408,0.751,0.852,2.723,0.934,3.597
			c0.035,0.582,0.166,1.526,1.172,1.526c1.1,0,1.1-1.526,1.1-2.323c0-4.075,0.17-6.49,0.242-7.505l0.043-0.612
			c0-0.717-0.436-1.092-1.314-1.092c-0.52,0-1.076-0.027-2.545-0.368c-2.203-0.516-4.492-0.75-7.225-0.75
			C177.058,22.082,170.493,27.814,170.493,36.36z"/>
		<path fill="#044C35" d="M263.616,23.646c0.018,0.063-20.174,46.506-20.287,46.724c-0.125-0.135-21.098-46.807-21.098-46.807
			c-0.297-0.706-0.697-1.474-1.568-1.474c-1.018,0-1.246,1.272-1.357,1.832c0,0.022-5.125,50.039-5.125,50.039
			c-0.248,2.665-0.467,5.179-2.313,5.568c-1.016,0.204-1.342,0.204-2.027,0.204c-0.717,0-1.258,0.395-1.258,0.918
			c0,0.462,0.225,1.212,1.734,1.212c1.242,0,3.482-0.101,4.379-0.142c0.932-0.039,1.191-0.039,1.191-0.039s0.926,0,1.77,0
			c0.848,0,3.385,0.143,5.201,0.181c0.605,0.033,1.805,0,1.805-1.212c0-0.523-0.518-0.938-1.146-0.938
			c-0.717,0-1.367-0.041-2.518-0.341c-0.832-0.168-1.42-0.938-1.42-1.839c0-1.31,0-2.648,0.074-3.848c0,0,2.611-33.668,2.678-33.668
			c-0.182,0,17.131,38.198,17.131,38.198c1.441,2.899,1.736,3.506,2.543,3.506c0.924,0,1.199-0.608,2.33-3.234
			C244.37,78.47,261.464,39.3,261.464,39.3l3.248,37.599c0.033,0.466,0.033,0.845,0.074,1.187c0.02,0.612,0.02,1.329-0.121,1.379
			c-0.609,0.231-0.729,0.644-0.729,1.012c0,0.972,1.088,1.206,2.443,1.293c2.758,0.153,10.359,0.094,11.879,0.094
			c1.881,0,2.027-0.931,2.027-1.212c0-0.282-0.098-0.918-1.102-0.918c-0.682,0-2.445,0-4.414-0.644
			c-2.746-0.978-3.184-5.129-3.451-7.625l-4.75-46.816c-0.072-1.072-0.23-2.559-1.404-2.559
			C264.243,22.089,263.841,23.073,263.616,23.646z"/>
		<path fill="#044C35" d="M382.585,52.093c-1.5,0.033-4.141,0.144-5.719,0.181c-0.811,0.026-1.564,0.033-2.072,0.014
			c-1.498-0.062-4.078-0.113-6.455-0.113c-0.41,0-1.652,0-1.652,1.141c0,0.566,0.471,0.988,1.09,0.988
			c0.596,0,1.199-0.011,1.682,0.12c2.436,0.723,2.783,1.232,2.783,7.351v12.959c0,1.068-0.354,1.755-1.168,2.224
			c-1.654,1.044-5.154,1.518-7.699,1.518c-6.943,0-12.992-2.686-18.002-7.99c-2.523-2.663-7.297-10.429-7.297-20.755
			c0-8.231,2.531-15.317,6.764-18.968c5.027-4.309,10.02-4.901,14.674-4.901c8.545,0,14.309,3.067,16.021,5.907
			c1.174,2.021,1.379,4.359,1.41,4.821c0.066,0.647,0.162,1.621,1.012,1.621c1.166,0,1.166-1.286,1.166-2.129
			c0-5.526,0.256-8.161,0.395-9.575c0.061-0.565,0.1-0.95,0.1-1.255c0-0.399-0.174-1.085-1.359-1.213
			c-1.834-0.081-4.234-0.396-5.578-0.746c-1.977-0.456-6.779-1.313-10.852-1.313c-5.459,0-12.543,0.559-18.959,4.898
			c-7.486,5.111-11.947,14.65-11.947,25.517c0,10.391,4.586,18.404,8.514,22.111c5.799,5.512,13.689,8.308,23.445,8.308
			c4.381,0,10.658-0.92,15.15-3.519c1.115-0.704,1.158-1.162,1.158-4.562v-8.535c0-3.182,0-5.476,0.141-7.902
			c0.133-2.62,0.662-3.554,2.158-3.855c0.816-0.147,1.209-0.164,1.666-0.218c0.57-0.073,1.092-0.425,1.092-0.987
			C384.245,52.093,383.28,52.083,382.585,52.093z"/>
		<path fill="#044C35" d="M292.526,75.788c-0.324,2.33-0.699,3.562-1.848,3.79c-0.832,0.184-1.648,0.294-2.182,0.294
			c-0.746,0-1.082,0.463-1.082,0.925c0,1.079,1.227,1.079,1.689,1.079c1.631,0,4.494-0.114,6.199-0.182
			c0.676-0.029,1.662-0.033,2.158-0.013c1.693,0.063,5.238,0.194,8.457,0.194c1.475,0,1.697-0.677,1.697-1.079
			c0-0.462-0.336-0.925-1.088-0.925c-0.643,0-2.27-0.144-3.357-0.301c-1.857-0.248-2.326-1.464-2.561-3.771
			c-0.383-3.171-0.383-9.337-0.383-16.462c0,0,0.021-6.062,0.066-6.69c2.877,0,9.744,0.022,11.436,0.228
			c2.084,0.269,3.213,1.433,3.57,2.418c0.252,0.757,0.342,1.647,0.408,2.357l0.025,0.237c0,0.7,0.391,1.151,0.996,1.151
			c1.008,0,1.008-1.194,1.008-1.907c0-0.526,0.15-3.573,0.299-5.064c0.141-1.55,0.342-2.628,0.469-3.334
			c0.09-0.473,0.141-0.754,0.141-0.969c0-0.937-0.527-1.081-0.85-1.081c-0.484,0-0.775,0.381-1.053,0.747l-0.168,0.22
			c-0.576,0.828-1.406,1.022-3.156,1.17c-1.039,0.077-13.17,0.201-13.17,0.201c0-0.018-0.021-21.274-0.021-21.274
			c0-0.369,0.057-0.369,0.207-0.369l11.721,0.229c2.793,0.073,4.385,1.339,4.762,2.163c0.438,0.954,0.643,2.173,0.643,2.698
			c0,1.283,0.764,1.384,1.002,1.384c0.375,0,0.867-0.212,1.07-1.229c0.102-0.613,0.201-2.203,0.277-3.489
			c0.041-0.697,0.082-1.294,0.104-1.561c0.135-1.236,0.314-2.04,0.447-2.626c0.098-0.425,0.164-0.729,0.164-1.005
			c0-0.793-0.467-1.151-0.924-1.151c-0.293,0-0.541,0.133-0.766,0.261c-0.129,0.081-0.275,0.164-0.443,0.222
			c-0.482,0.16-1.361,0.197-2.367,0.241l-0.857,0.039c-1.383,0.063-11.43,0.024-16.256,0.008l-5.541-0.087
			c-1.693-0.074-3.723-0.074-5.504-0.074c-0.467,0-1.689,0-1.689,1.072c0,0.541,0.455,0.93,1.08,0.93
			c0.654,0,1.914,0.074,2.488,0.215c2.123,0.452,2.748,1.297,2.9,3.912c0.156,2.42,0.156,4.554,0.156,16.407v13.401
			C292.901,66.464,292.901,72.63,292.526,75.788z"/>
	</g>
	<g>
		<path fill="#044C35" d="M168.677,192.947h3.604l8.889,14.352h0.055v-14.352h3.248v19.482h-3.605l-8.865-14.324h-0.078v14.324
			h-3.246V192.947z"/>
		<path fill="#044C35" d="M199.89,209.285c0,0.387,0.047,0.662,0.146,0.824c0.102,0.162,0.293,0.244,0.59,0.244
			c0.088,0,0.195,0,0.32,0c0.131,0,0.275-0.02,0.439-0.053v2.152c-0.104,0.039-0.25,0.076-0.42,0.125
			c-0.172,0.043-0.348,0.09-0.533,0.123s-0.361,0.066-0.543,0.076c-0.186,0.023-0.344,0.029-0.469,0.029
			c-0.637,0-1.164-0.119-1.582-0.377c-0.414-0.258-0.689-0.701-0.82-1.338c-0.615,0.6-1.375,1.033-2.273,1.314
			c-0.902,0.266-1.773,0.4-2.611,0.4c-0.631,0-1.246-0.086-1.822-0.262c-0.582-0.172-1.098-0.42-1.541-0.758
			c-0.447-0.338-0.803-0.768-1.064-1.287c-0.264-0.514-0.395-1.115-0.395-1.811c0-0.875,0.156-1.58,0.471-2.123
			c0.326-0.553,0.74-0.982,1.264-1.287c0.516-0.309,1.098-0.533,1.74-0.672c0.643-0.133,1.301-0.238,1.951-0.305
			c0.568-0.113,1.098-0.189,1.609-0.238c0.51-0.047,0.957-0.123,1.352-0.229c0.395-0.109,0.701-0.285,0.928-0.51
			c0.225-0.223,0.344-0.566,0.344-1.02c0-0.404-0.096-0.732-0.291-0.986c-0.186-0.256-0.426-0.447-0.707-0.58
			c-0.289-0.139-0.602-0.229-0.941-0.277c-0.344-0.047-0.674-0.07-0.98-0.07c-0.875,0-1.592,0.186-2.158,0.547
			c-0.564,0.367-0.879,0.93-0.957,1.691h-3.107c0.059-0.904,0.268-1.668,0.648-2.262c0.391-0.602,0.879-1.082,1.465-1.443
			c0.588-0.373,1.262-0.625,2.006-0.768c0.746-0.148,1.51-0.219,2.293-0.219c0.691,0,1.373,0.07,2.047,0.219
			c0.668,0.143,1.279,0.381,1.814,0.709c0.531,0.324,0.973,0.754,1.295,1.271c0.326,0.516,0.494,1.148,0.494,1.893V209.285z
			 M196.774,205.365c-0.473,0.305-1.053,0.49-1.744,0.553c-0.691,0.072-1.383,0.162-2.072,0.285
			c-0.334,0.059-0.643,0.135-0.957,0.234c-0.305,0.096-0.582,0.238-0.822,0.41c-0.238,0.17-0.418,0.398-0.553,0.689
			c-0.141,0.277-0.207,0.615-0.207,1.016c0,0.342,0.1,0.639,0.301,0.871c0.195,0.242,0.436,0.43,0.725,0.563
			c0.285,0.133,0.59,0.229,0.924,0.285c0.336,0.049,0.643,0.082,0.914,0.082c0.346,0,0.725-0.043,1.121-0.139
			c0.396-0.086,0.777-0.244,1.133-0.457c0.352-0.225,0.65-0.5,0.891-0.834c0.229-0.338,0.348-0.758,0.348-1.244V205.365z"/>
		<path fill="#044C35" d="M201.69,198.32h3.41l3.678,10.537h0.057l3.578-10.537h3.242l-5.486,14.867
			c-0.254,0.639-0.502,1.248-0.742,1.828c-0.248,0.582-0.547,1.102-0.906,1.549c-0.357,0.443-0.795,0.795-1.322,1.063
			c-0.525,0.258-1.201,0.395-2.02,0.395c-0.727,0-1.445-0.057-2.15-0.166v-2.619c0.248,0.037,0.49,0.08,0.729,0.123
			c0.24,0.047,0.482,0.066,0.738,0.066c0.367,0,0.666-0.043,0.906-0.133c0.232-0.092,0.428-0.225,0.586-0.396
			c0.15-0.176,0.281-0.381,0.391-0.609c0.113-0.242,0.213-0.514,0.305-0.824l0.352-1.09L201.69,198.32z"/>
		<path fill="#044C35" d="M217.481,192.947h3.113v2.943h-3.113V192.947z M217.481,198.32h3.113v14.109h-3.113V198.32z"/>
		<path fill="#044C35" d="M237.208,192.947h3.631l7.498,19.482h-3.652l-1.826-5.164h-7.775l-1.83,5.164h-3.518L237.208,192.947z
			 M236.007,204.674h5.955l-2.92-8.373h-0.086L236.007,204.674z"/>
		<path fill="#044C35" d="M252.103,207.895c0.098,0.914,0.441,1.553,1.043,1.91c0.596,0.371,1.313,0.549,2.154,0.549
			c0.291,0,0.621-0.02,0.998-0.072c0.371-0.037,0.719-0.129,1.047-0.252c0.332-0.129,0.598-0.32,0.803-0.566
			c0.213-0.238,0.311-0.568,0.289-0.969c-0.02-0.395-0.168-0.723-0.436-0.98c-0.275-0.248-0.629-0.457-1.053-0.615
			c-0.428-0.152-0.91-0.285-1.459-0.391c-0.549-0.109-1.098-0.232-1.664-0.357c-0.584-0.127-1.139-0.285-1.678-0.461
			c-0.535-0.186-1.016-0.43-1.443-0.738c-0.426-0.311-0.773-0.705-1.027-1.191c-0.25-0.477-0.383-1.072-0.383-1.781
			c0-0.768,0.189-1.41,0.563-1.924c0.369-0.525,0.848-0.939,1.418-1.254c0.57-0.324,1.213-0.543,1.912-0.666
			c0.703-0.129,1.365-0.195,2.004-0.195c0.729,0,1.422,0.076,2.08,0.229c0.672,0.156,1.266,0.404,1.807,0.758
			c0.537,0.342,0.98,0.785,1.344,1.348c0.348,0.553,0.574,1.219,0.662,2.006h-3.25c-0.146-0.744-0.48-1.248-1.016-1.502
			c-0.543-0.252-1.154-0.385-1.842-0.385c-0.227,0-0.484,0.023-0.779,0.057c-0.305,0.033-0.584,0.1-0.846,0.205
			c-0.266,0.096-0.49,0.242-0.674,0.438c-0.182,0.186-0.27,0.443-0.27,0.754c0,0.381,0.137,0.686,0.395,0.924
			c0.268,0.232,0.609,0.434,1.039,0.586c0.428,0.156,0.908,0.291,1.459,0.395c0.547,0.109,1.107,0.225,1.691,0.357
			c0.561,0.125,1.117,0.281,1.66,0.463c0.549,0.18,1.037,0.428,1.465,0.732c0.43,0.314,0.771,0.701,1.035,1.178
			c0.264,0.471,0.4,1.057,0.4,1.742c0,0.84-0.197,1.549-0.578,2.131c-0.385,0.58-0.877,1.053-1.486,1.414
			c-0.613,0.367-1.285,0.639-2.035,0.795c-0.74,0.162-1.48,0.244-2.211,0.244c-0.891,0-1.715-0.096-2.465-0.301
			c-0.754-0.199-1.412-0.506-1.963-0.91c-0.559-0.41-0.996-0.92-1.314-1.523c-0.311-0.615-0.484-1.34-0.5-2.178H252.103z"/>
		<path fill="#044C35" d="M263.921,192.947h3.109v7.227h0.057c0.379-0.635,0.945-1.164,1.703-1.592
			c0.758-0.434,1.598-0.643,2.529-0.643c1.539,0,2.756,0.4,3.654,1.199c0.891,0.801,1.33,2.002,1.33,3.602v9.689h-3.107v-8.875
			c-0.039-1.105-0.273-1.904-0.713-2.41c-0.438-0.5-1.121-0.752-2.045-0.752c-0.529,0-0.998,0.1-1.42,0.291
			c-0.414,0.189-0.768,0.457-1.064,0.785c-0.289,0.338-0.518,0.734-0.678,1.191s-0.246,0.938-0.246,1.447v8.322h-3.109V192.947z"/>
		<path fill="#044C35" d="M291.394,209.285c0,0.387,0.055,0.662,0.154,0.824s0.295,0.244,0.586,0.244c0.09,0,0.197,0,0.326,0
			c0.127,0,0.268-0.02,0.438-0.053v2.152c-0.111,0.039-0.244,0.076-0.418,0.125c-0.174,0.043-0.355,0.09-0.537,0.123
			c-0.184,0.033-0.369,0.066-0.549,0.076c-0.182,0.023-0.334,0.029-0.457,0.029c-0.641,0-1.168-0.119-1.592-0.377
			c-0.414-0.258-0.684-0.701-0.814-1.338c-0.621,0.6-1.377,1.033-2.271,1.314c-0.906,0.266-1.777,0.4-2.611,0.4
			c-0.639,0-1.24-0.086-1.83-0.262c-0.576-0.172-1.092-0.42-1.541-0.758s-0.797-0.768-1.061-1.287
			c-0.266-0.514-0.398-1.115-0.398-1.811c0-0.875,0.16-1.58,0.475-2.123c0.32-0.553,0.744-0.982,1.26-1.287
			c0.514-0.309,1.104-0.533,1.748-0.672c0.643-0.133,1.291-0.238,1.947-0.305c0.563-0.113,1.098-0.189,1.607-0.238
			c0.514-0.047,0.959-0.123,1.346-0.229c0.4-0.109,0.709-0.285,0.932-0.51c0.225-0.223,0.348-0.566,0.348-1.02
			c0-0.404-0.1-0.732-0.291-0.986c-0.189-0.256-0.426-0.447-0.711-0.58c-0.277-0.139-0.596-0.229-0.943-0.277
			c-0.34-0.047-0.672-0.07-0.98-0.07c-0.873,0-1.592,0.186-2.148,0.547c-0.57,0.367-0.889,0.93-0.955,1.691h-3.119
			c0.059-0.904,0.277-1.668,0.662-2.262c0.385-0.602,0.865-1.082,1.459-1.443c0.59-0.373,1.254-0.625,2.004-0.768
			c0.742-0.148,1.508-0.219,2.287-0.219c0.691,0,1.381,0.07,2.053,0.219c0.668,0.143,1.281,0.381,1.811,0.709
			c0.539,0.324,0.969,0.754,1.295,1.271c0.332,0.516,0.492,1.148,0.492,1.893V209.285z M288.282,205.365
			c-0.471,0.305-1.057,0.49-1.748,0.553c-0.686,0.072-1.377,0.162-2.064,0.285c-0.336,0.059-0.65,0.135-0.961,0.234
			c-0.305,0.096-0.576,0.238-0.814,0.41c-0.238,0.17-0.424,0.398-0.563,0.689c-0.135,0.277-0.209,0.615-0.209,1.016
			c0,0.342,0.1,0.639,0.303,0.871c0.199,0.242,0.441,0.43,0.721,0.563c0.285,0.133,0.592,0.229,0.934,0.285
			c0.328,0.049,0.645,0.082,0.91,0.082c0.348,0,0.717-0.043,1.125-0.139c0.402-0.086,0.771-0.244,1.133-0.457
			c0.352-0.225,0.648-0.5,0.885-0.834c0.232-0.338,0.35-0.758,0.35-1.244V205.365z"/>
		<path fill="#044C35" d="M294.997,208.742h3.799v3.688h-3.799V208.742z"/>
		<path fill="#044C35" d="M310.218,192.947h3.609l8.891,14.352h0.053v-14.352h3.244v19.482h-3.602l-8.865-14.324h-0.08v14.324h-3.25
			V192.947z"/>
		<path fill="#044C35" d="M341.437,209.285c0,0.387,0.045,0.662,0.146,0.824s0.295,0.244,0.586,0.244c0.098,0,0.199,0,0.332,0
			c0.119,0,0.268-0.02,0.43-0.053v2.152c-0.105,0.039-0.248,0.076-0.42,0.125c-0.176,0.043-0.352,0.09-0.533,0.123
			c-0.184,0.033-0.361,0.066-0.541,0.076c-0.188,0.023-0.336,0.029-0.469,0.029c-0.629,0-1.162-0.119-1.582-0.377
			c-0.418-0.258-0.689-0.701-0.818-1.338c-0.619,0.6-1.377,1.033-2.275,1.314c-0.898,0.266-1.773,0.4-2.607,0.4
			c-0.635,0-1.244-0.086-1.83-0.262c-0.578-0.172-1.098-0.42-1.539-0.758c-0.449-0.338-0.799-0.768-1.066-1.287
			c-0.262-0.514-0.391-1.115-0.391-1.811c0-0.875,0.158-1.58,0.477-2.123c0.314-0.553,0.736-0.982,1.252-1.287
			c0.518-0.309,1.102-0.533,1.746-0.672c0.645-0.133,1.293-0.238,1.951-0.305c0.563-0.113,1.098-0.189,1.605-0.238
			c0.51-0.047,0.963-0.123,1.354-0.229c0.393-0.109,0.699-0.285,0.93-0.51c0.227-0.223,0.336-0.566,0.336-1.02
			c0-0.404-0.09-0.732-0.281-0.986c-0.188-0.256-0.428-0.447-0.709-0.58c-0.287-0.139-0.602-0.229-0.945-0.277
			c-0.348-0.047-0.662-0.07-0.977-0.07c-0.879,0-1.594,0.186-2.158,0.547c-0.563,0.367-0.883,0.93-0.955,1.691h-3.111
			c0.057-0.904,0.277-1.668,0.65-2.262c0.389-0.602,0.875-1.082,1.465-1.443c0.586-0.373,1.264-0.625,2.006-0.768
			c0.744-0.148,1.506-0.219,2.291-0.219c0.689,0,1.375,0.07,2.049,0.219c0.67,0.143,1.277,0.381,1.814,0.709
			c0.533,0.324,0.965,0.754,1.291,1.271c0.33,0.516,0.498,1.148,0.498,1.893V209.285z M338.323,205.365
			c-0.477,0.305-1.059,0.49-1.75,0.553c-0.688,0.072-1.385,0.162-2.07,0.285c-0.328,0.059-0.645,0.135-0.959,0.234
			c-0.305,0.096-0.58,0.238-0.818,0.41c-0.236,0.17-0.418,0.398-0.557,0.689c-0.133,0.277-0.207,0.615-0.207,1.016
			c0,0.342,0.102,0.639,0.305,0.871c0.195,0.242,0.436,0.43,0.725,0.563c0.279,0.133,0.586,0.229,0.932,0.285
			c0.328,0.049,0.635,0.082,0.902,0.082c0.355,0,0.725-0.043,1.121-0.139c0.4-0.086,0.781-0.244,1.137-0.457
			c0.348-0.225,0.65-0.5,0.891-0.834c0.234-0.338,0.35-0.758,0.35-1.244V205.365z"/>
		<path fill="#044C35" d="M343.228,198.32h3.414l3.682,10.537h0.059l3.576-10.537h3.244l-5.486,14.867
			c-0.254,0.639-0.502,1.248-0.75,1.828c-0.238,0.582-0.543,1.102-0.896,1.549c-0.363,0.443-0.799,0.795-1.328,1.063
			c-0.521,0.258-1.197,0.395-2.014,0.395c-0.73,0-1.447-0.057-2.158-0.166v-2.619c0.256,0.037,0.498,0.08,0.732,0.123
			c0.238,0.047,0.482,0.066,0.742,0.066c0.361,0,0.666-0.043,0.902-0.133c0.236-0.092,0.43-0.225,0.588-0.396
			c0.15-0.176,0.279-0.381,0.391-0.609c0.107-0.242,0.215-0.514,0.303-0.824l0.348-1.09L343.228,198.32z"/>
		<path fill="#044C35" d="M370.759,209.285c0,0.387,0.057,0.662,0.158,0.824c0.094,0.162,0.293,0.244,0.582,0.244
			c0.092,0,0.203,0,0.326,0c0.129,0,0.275-0.02,0.439-0.053v2.152c-0.107,0.039-0.248,0.076-0.424,0.125
			c-0.172,0.043-0.354,0.09-0.531,0.123c-0.18,0.033-0.371,0.066-0.551,0.076c-0.176,0.023-0.338,0.029-0.457,0.029
			c-0.641,0-1.168-0.119-1.582-0.377c-0.428-0.258-0.695-0.701-0.816-1.338c-0.621,0.6-1.387,1.033-2.285,1.314
			c-0.902,0.266-1.762,0.4-2.605,0.4c-0.637,0-1.242-0.086-1.826-0.262c-0.584-0.172-1.098-0.42-1.541-0.758
			c-0.447-0.338-0.803-0.768-1.064-1.287c-0.26-0.514-0.398-1.115-0.398-1.811c0-0.875,0.164-1.58,0.477-2.123
			c0.32-0.553,0.738-0.982,1.262-1.287c0.516-0.309,1.096-0.533,1.74-0.672c0.646-0.133,1.295-0.238,1.957-0.305
			c0.563-0.113,1.098-0.189,1.605-0.238c0.51-0.047,0.965-0.123,1.348-0.229c0.396-0.109,0.703-0.285,0.928-0.51
			c0.23-0.223,0.344-0.566,0.344-1.02c0-0.404-0.094-0.732-0.287-0.986c-0.193-0.256-0.43-0.447-0.709-0.58
			c-0.279-0.139-0.594-0.229-0.939-0.277c-0.348-0.047-0.676-0.07-0.988-0.07c-0.867,0-1.588,0.186-2.152,0.547
			c-0.564,0.367-0.877,0.93-0.951,1.691h-3.113c0.053-0.904,0.277-1.668,0.654-2.262c0.385-0.602,0.873-1.082,1.461-1.443
			c0.594-0.373,1.26-0.625,2.006-0.768c0.748-0.148,1.508-0.219,2.295-0.219c0.689,0,1.373,0.07,2.041,0.219
			c0.676,0.143,1.279,0.381,1.816,0.709c0.535,0.324,0.969,0.754,1.297,1.271c0.33,0.516,0.486,1.148,0.486,1.893V209.285z
			 M367.647,205.365c-0.467,0.305-1.049,0.49-1.74,0.553c-0.695,0.072-1.387,0.162-2.074,0.285c-0.328,0.059-0.65,0.135-0.953,0.234
			c-0.307,0.096-0.58,0.238-0.816,0.41c-0.236,0.17-0.43,0.398-0.563,0.689c-0.141,0.277-0.207,0.615-0.207,1.016
			c0,0.342,0.1,0.639,0.295,0.871c0.203,0.242,0.447,0.43,0.729,0.563s0.592,0.229,0.924,0.285c0.34,0.049,0.648,0.082,0.918,0.082
			c0.346,0,0.725-0.043,1.119-0.139c0.402-0.086,0.779-0.244,1.131-0.457c0.355-0.225,0.65-0.5,0.885-0.834
			c0.238-0.338,0.354-0.758,0.354-1.244V205.365z"/>
		<path fill="#044C35" d="M379.931,192.947h3.545l4.885,15.414h0.057l4.992-15.414h3.463l-6.658,19.482h-3.793L379.931,192.947z"/>
		<path fill="#044C35" d="M398.726,192.947h3.105v2.943h-3.105V192.947z M398.726,198.32h3.105v14.109h-3.105V198.32z"/>
		<path fill="#044C35" d="M407.567,207.895c0.09,0.914,0.441,1.553,1.035,1.91c0.604,0.371,1.32,0.549,2.156,0.549
			c0.289,0,0.617-0.02,0.996-0.072c0.371-0.037,0.723-0.129,1.055-0.252c0.322-0.129,0.594-0.32,0.801-0.566
			c0.207-0.238,0.307-0.568,0.283-0.969c-0.02-0.395-0.16-0.723-0.434-0.98c-0.27-0.248-0.625-0.457-1.053-0.615
			c-0.422-0.152-0.918-0.285-1.461-0.391c-0.543-0.109-1.098-0.232-1.656-0.357c-0.586-0.127-1.146-0.285-1.686-0.461
			c-0.535-0.186-1.02-0.43-1.447-0.738c-0.42-0.311-0.762-0.705-1.018-1.191c-0.256-0.477-0.381-1.072-0.381-1.781
			c0-0.768,0.182-1.41,0.563-1.924c0.369-0.525,0.836-0.939,1.412-1.254c0.572-0.324,1.211-0.543,1.91-0.666
			c0.703-0.129,1.373-0.195,2-0.195c0.73,0,1.422,0.076,2.1,0.229c0.66,0.156,1.258,0.404,1.799,0.758
			c0.529,0.342,0.98,0.785,1.33,1.348c0.354,0.553,0.58,1.219,0.668,2.006h-3.242c-0.148-0.744-0.488-1.248-1.029-1.502
			c-0.531-0.252-1.141-0.385-1.838-0.385c-0.215,0-0.475,0.023-0.777,0.057c-0.305,0.033-0.586,0.1-0.85,0.205
			c-0.268,0.096-0.482,0.242-0.662,0.438c-0.189,0.186-0.273,0.443-0.273,0.754c0,0.381,0.133,0.686,0.395,0.924
			c0.262,0.232,0.609,0.434,1.035,0.586c0.43,0.156,0.918,0.291,1.461,0.395c0.551,0.109,1.105,0.225,1.689,0.357
			c0.561,0.125,1.123,0.281,1.666,0.463c0.543,0.18,1.031,0.428,1.459,0.732c0.43,0.314,0.777,0.701,1.033,1.178
			c0.271,0.471,0.395,1.057,0.395,1.742c0,0.84-0.188,1.549-0.574,2.131c-0.373,0.58-0.871,1.053-1.479,1.414
			c-0.617,0.367-1.289,0.639-2.031,0.795c-0.748,0.162-1.482,0.244-2.211,0.244c-0.891,0-1.715-0.096-2.473-0.301
			c-0.75-0.199-1.404-0.506-1.961-0.91c-0.563-0.41-0.996-0.92-1.313-1.523c-0.318-0.615-0.488-1.34-0.504-2.178H407.567z"/>
		<path fill="#044C35" d="M419.378,192.947h3.115v7.227h0.051c0.387-0.635,0.953-1.164,1.711-1.592
			c0.75-0.434,1.59-0.643,2.521-0.643c1.543,0,2.764,0.4,3.654,1.199c0.891,0.801,1.338,2.002,1.338,3.602v9.689h-3.107v-8.875
			c-0.039-1.105-0.277-1.904-0.715-2.41c-0.43-0.5-1.119-0.752-2.045-0.752c-0.527,0-1.004,0.1-1.418,0.291
			c-0.422,0.189-0.771,0.457-1.059,0.785c-0.299,0.338-0.529,0.734-0.689,1.191c-0.158,0.457-0.242,0.938-0.242,1.447v8.322h-3.115
			V192.947z"/>
		<path fill="#044C35" d="M433.757,198.32h3.301l2.754,10.537h0.063l2.639-10.537h3.146l2.531,10.537h0.059l2.861-10.537h3.168
			l-4.42,14.109h-3.193l-2.621-10.48h-0.055l-2.588,10.48h-3.283L433.757,198.32z"/>
		<path fill="#044C35" d="M468.081,209.285c0,0.387,0.049,0.662,0.148,0.824s0.297,0.244,0.588,0.244c0.088,0,0.195,0,0.324,0
			c0.133,0,0.275-0.02,0.443-0.053v2.152c-0.109,0.039-0.25,0.076-0.424,0.125c-0.174,0.043-0.355,0.09-0.535,0.123
			c-0.182,0.033-0.363,0.066-0.545,0.076c-0.182,0.023-0.34,0.029-0.461,0.029c-0.641,0-1.158-0.119-1.588-0.377
			c-0.42-0.258-0.689-0.701-0.811-1.338c-0.623,0.6-1.381,1.033-2.283,1.314c-0.904,0.266-1.771,0.4-2.605,0.4
			c-0.641,0-1.246-0.086-1.828-0.262c-0.582-0.172-1.1-0.42-1.539-0.758c-0.443-0.338-0.805-0.768-1.066-1.287
			c-0.266-0.514-0.4-1.115-0.4-1.811c0-0.875,0.166-1.58,0.48-2.123c0.322-0.553,0.738-0.982,1.252-1.287
			c0.521-0.309,1.105-0.533,1.75-0.672c0.646-0.133,1.297-0.238,1.953-0.305c0.564-0.113,1.1-0.189,1.611-0.238
			c0.512-0.047,0.957-0.123,1.344-0.229c0.395-0.109,0.703-0.285,0.932-0.51c0.227-0.223,0.34-0.566,0.34-1.02
			c0-0.404-0.092-0.732-0.283-0.986c-0.191-0.256-0.426-0.447-0.715-0.58c-0.283-0.139-0.588-0.229-0.938-0.277
			c-0.348-0.047-0.678-0.07-0.984-0.07c-0.869,0-1.592,0.186-2.15,0.547c-0.572,0.367-0.881,0.93-0.957,1.691h-3.113
			c0.059-0.904,0.271-1.668,0.654-2.262c0.383-0.602,0.871-1.082,1.467-1.443c0.586-0.373,1.254-0.625,2.002-0.768
			c0.744-0.148,1.504-0.219,2.293-0.219c0.688,0,1.371,0.07,2.041,0.219c0.674,0.143,1.281,0.381,1.814,0.709
			c0.543,0.324,0.973,0.754,1.297,1.271c0.326,0.516,0.492,1.148,0.492,1.893V209.285z M464.968,205.365
			c-0.469,0.305-1.047,0.49-1.742,0.553c-0.689,0.072-1.387,0.162-2.076,0.285c-0.326,0.059-0.643,0.135-0.949,0.234
			c-0.314,0.096-0.584,0.238-0.822,0.41c-0.232,0.17-0.418,0.398-0.559,0.689c-0.135,0.277-0.207,0.615-0.207,1.016
			c0,0.342,0.1,0.639,0.301,0.871c0.201,0.242,0.441,0.43,0.723,0.563c0.283,0.133,0.59,0.229,0.926,0.285
			c0.342,0.049,0.646,0.082,0.92,0.082c0.344,0,0.715-0.043,1.115-0.139c0.402-0.086,0.773-0.244,1.133-0.457
			c0.354-0.225,0.648-0.5,0.881-0.834c0.244-0.338,0.357-0.758,0.357-1.244V205.365z"/>
		<path fill="#044C35" d="M473.786,207.895c0.092,0.914,0.438,1.553,1.033,1.91c0.604,0.371,1.324,0.549,2.152,0.549
			c0.291,0,0.627-0.02,0.998-0.072c0.379-0.037,0.723-0.129,1.049-0.252c0.336-0.129,0.598-0.32,0.807-0.566
			c0.211-0.238,0.311-0.568,0.285-0.969c-0.01-0.395-0.16-0.723-0.438-0.98c-0.266-0.248-0.621-0.457-1.047-0.615
			c-0.424-0.152-0.916-0.285-1.463-0.391c-0.543-0.109-1.098-0.232-1.66-0.357c-0.584-0.127-1.143-0.285-1.682-0.461
			c-0.529-0.186-1.012-0.43-1.441-0.738c-0.428-0.311-0.766-0.705-1.023-1.191c-0.25-0.477-0.381-1.072-0.381-1.781
			c0-0.768,0.186-1.41,0.563-1.924c0.369-0.525,0.842-0.939,1.416-1.254c0.572-0.324,1.205-0.543,1.912-0.666
			c0.697-0.129,1.365-0.195,2.008-0.195c0.723,0,1.41,0.076,2.086,0.229c0.656,0.156,1.256,0.404,1.793,0.758
			c0.535,0.342,0.982,0.785,1.34,1.348c0.352,0.553,0.576,1.219,0.662,2.006h-3.24c-0.148-0.744-0.488-1.248-1.029-1.502
			c-0.531-0.252-1.141-0.385-1.836-0.385c-0.221,0-0.477,0.023-0.779,0.057c-0.299,0.033-0.578,0.1-0.846,0.205
			c-0.26,0.096-0.486,0.242-0.668,0.438c-0.18,0.186-0.275,0.443-0.275,0.754c0,0.381,0.137,0.686,0.395,0.924
			c0.268,0.232,0.615,0.434,1.039,0.586c0.426,0.156,0.914,0.291,1.457,0.395c0.549,0.109,1.109,0.225,1.691,0.357
			c0.57,0.125,1.125,0.281,1.676,0.463c0.539,0.18,1.023,0.428,1.451,0.732c0.43,0.314,0.77,0.701,1.039,1.178
			c0.266,0.471,0.402,1.057,0.402,1.742c0,0.84-0.201,1.549-0.58,2.131c-0.381,0.58-0.883,1.053-1.482,1.414
			c-0.617,0.367-1.293,0.639-2.035,0.795c-0.748,0.162-1.49,0.244-2.211,0.244c-0.898,0-1.715-0.096-2.473-0.301
			c-0.75-0.199-1.404-0.506-1.963-0.91c-0.555-0.41-0.99-0.92-1.313-1.523c-0.314-0.615-0.486-1.34-0.502-2.178H473.786z"/>
		<path fill="#044C35" d="M485.841,208.742h3.793v3.688h-3.793V208.742z"/>
	</g>
	<polygon fill="#044C35" points="62.647,22.082 62.647,167.053 24.446,167.053 24.446,59.56 	"/>
	<polygon fill="#BED530" points="130.626,65.555 130.626,166.961 73.146,166.961 73.146,22.082 	"/>
	<g>
		<path fill="#3A8668" d="M228.347,166.961h-7.273l-1.734-7.641c-3.031,3.459-6.066,5.855-9.088,7.188
			c-3.043,1.334-6.527,2.002-10.469,2.002c-4.85,0-9.203-0.896-13.055-2.688c-3.85-1.781-7.105-4.225-9.775-7.316
			c-2.674-3.096-4.715-6.703-6.143-10.828c-1.422-4.119-2.133-8.518-2.133-13.186c0-4.611,0.711-8.975,2.133-13.098
			c1.428-4.124,3.469-7.732,6.143-10.829c2.67-3.089,5.926-5.545,9.775-7.365c3.852-1.815,8.205-2.727,13.055-2.727
			c3.516,0,6.867,0.47,10.059,1.413c3.174,0.938,6.012,2.331,8.498,4.18c2.486,1.851,4.549,4.17,6.184,6.957
			c1.643,2.794,2.674,6.005,3.094,9.641h-11.098c-0.303-2.118-0.957-3.986-1.957-5.594c-0.996-1.603-2.248-2.956-3.768-4.047
			c-1.523-1.091-3.221-1.908-5.098-2.458c-1.877-0.543-3.859-0.814-5.914-0.814c-3.457,0-6.443,0.698-8.963,2.086
			c-2.51,1.401-4.559,3.269-6.135,5.603c-1.574,2.337-2.74,4.986-3.504,7.955c-0.758,2.973-1.137,5.998-1.137,9.098
			c0,3.092,0.379,6.121,1.137,9.094c0.764,2.973,1.93,5.621,3.504,7.961c1.576,2.338,3.625,4.195,6.135,5.592
			c2.52,1.4,5.506,2.092,8.963,2.092c2.908,0.066,5.488-0.314,7.734-1.135c2.242-0.818,4.139-2,5.688-3.549
			c1.537-1.543,2.709-3.443,3.5-5.682c0.787-2.244,1.211-4.73,1.275-7.461h-17.287v-8.641h27.654V166.961z"/>
		<path fill="#3A8668" d="M238.321,119.936h9.734v9.098h0.182c0.301-1.271,0.898-2.516,1.77-3.725
			c0.881-1.219,1.945-2.324,3.188-3.324c1.242-1.001,2.619-1.801,4.139-2.411c1.516-0.603,3.059-0.909,4.641-0.909
			c1.211,0,2.047,0.033,2.5,0.093c0.455,0.057,0.93,0.121,1.41,0.181v10.006c-0.729-0.119-1.469-0.229-2.227-0.32
			c-0.758-0.09-1.504-0.137-2.227-0.137c-1.766,0-3.42,0.348-4.959,1.047c-1.549,0.695-2.896,1.725-4.057,3.092
			c-1.146,1.367-2.059,3.049-2.717,5.049c-0.678,2.002-1.006,4.307-1.006,6.912v22.375h-10.371V119.936z"/>
		<path fill="#3A8668" d="M269.995,102.021h10.367v9.816h-10.367V102.021z M269.995,119.936h10.367v47.025h-10.367V119.936z"/>
		<path fill="#3A8668" d="M289.813,102.021h10.371v24.103h0.184c1.271-2.125,3.168-3.896,5.688-5.32
			c2.51-1.422,5.322-2.139,8.41-2.139c5.156,0,9.219,1.336,12.189,4c2.973,2.668,4.461,6.674,4.461,12.006v32.291h-10.375v-29.559
			c-0.121-3.695-0.908-6.383-2.363-8.049c-1.461-1.668-3.729-2.506-6.82-2.506c-1.758,0-3.338,0.318-4.727,0.957
			c-1.4,0.633-2.586,1.52-3.555,2.639c-0.963,1.119-1.727,2.439-2.275,3.959c-0.545,1.516-0.816,3.119-0.816,4.82v27.738h-10.371
			V102.021z"/>
		<path fill="#3A8668" d="M379.765,156.5c0,1.271,0.166,2.188,0.502,2.73c0.334,0.547,0.984,0.818,1.963,0.818
			c0.301,0,0.66,0,1.084,0c0.422,0,0.912-0.057,1.461-0.176v7.18c-0.367,0.123-0.838,0.262-1.414,0.418
			c-0.576,0.143-1.172,0.281-1.773,0.404c-0.609,0.119-1.213,0.211-1.822,0.271c-0.609,0.059-1.127,0.092-1.541,0.092
			c-2.129,0-3.887-0.43-5.277-1.277c-1.389-0.844-2.305-2.334-2.732-4.453c-2.061,2-4.588,3.457-7.596,4.363
			c-2.998,0.91-5.893,1.367-8.684,1.367c-2.117,0-4.158-0.291-6.098-0.867c-1.941-0.576-3.648-1.424-5.143-2.543
			c-1.486-1.125-2.658-2.549-3.547-4.279c-0.871-1.725-1.314-3.738-1.314-6.045c0-2.914,0.529-5.273,1.594-7.098
			c1.061-1.818,2.457-3.244,4.186-4.271c1.723-1.029,3.662-1.777,5.813-2.23c2.158-0.457,4.328-0.805,6.506-1.043
			c1.881-0.367,3.674-0.625,5.371-0.777c1.693-0.152,3.195-0.408,4.506-0.771c1.297-0.365,2.332-0.924,3.086-1.686
			c0.758-0.758,1.139-1.896,1.139-3.41c0-1.33-0.314-2.426-0.953-3.277c-0.641-0.844-1.424-1.502-2.367-1.953
			c-0.938-0.457-1.984-0.754-3.139-0.91c-1.156-0.148-2.238-0.229-3.27-0.229c-2.918,0-5.313,0.613-7.189,1.818
			c-1.875,1.215-2.939,3.098-3.18,5.637H339.56c0.182-3.025,0.912-5.541,2.191-7.541c1.266-2.006,2.889-3.611,4.857-4.826
			c1.98-1.209,4.203-2.057,6.688-2.545c2.488-0.479,5.029-0.727,7.641-0.727c2.305,0,4.576,0.247,6.826,0.727
			c2.244,0.488,4.254,1.276,6.047,2.365c1.789,1.094,3.229,2.5,4.314,4.229c1.098,1.73,1.641,3.84,1.641,6.326V156.5z
			 M369.397,143.4c-1.572,1.039-3.521,1.658-5.824,1.867c-2.303,0.215-4.604,0.533-6.914,0.957c-1.09,0.182-2.154,0.439-3.178,0.773
			c-1.039,0.338-1.939,0.785-2.73,1.367c-0.789,0.576-1.412,1.332-1.867,2.271c-0.457,0.938-0.676,2.076-0.676,3.41
			c0,1.158,0.326,2.125,0.996,2.91c0.664,0.791,1.467,1.416,2.412,1.867c0.936,0.459,1.965,0.768,3.094,0.953
			c1.117,0.186,2.139,0.271,3.047,0.271c1.15,0,2.391-0.152,3.727-0.457c1.338-0.295,2.598-0.814,3.773-1.543
			c1.186-0.729,2.172-1.648,2.959-2.773c0.785-1.119,1.182-2.504,1.182-4.143V143.4z"/>
		<path fill="#3A8668" d="M398.015,151.865c0.301,3.029,1.455,5.154,3.455,6.365c2,1.215,4.395,1.818,7.191,1.818
			c0.965,0,2.072-0.076,3.316-0.223c1.246-0.158,2.41-0.443,3.498-0.867c1.098-0.42,1.988-1.043,2.686-1.863
			c0.703-0.818,1.016-1.891,0.957-3.234c-0.061-1.328-0.549-2.424-1.457-3.273c-0.908-0.852-2.072-1.527-3.504-2.047
			c-1.428-0.516-3.043-0.949-4.865-1.32c-1.82-0.357-3.668-0.752-5.547-1.182c-1.947-0.424-3.805-0.938-5.594-1.543
			s-3.398-1.424-4.824-2.453c-1.428-1.033-2.559-2.354-3.408-3.959c-0.852-1.605-1.273-3.592-1.273-5.959
			c0-2.549,0.623-4.678,1.867-6.412c1.24-1.729,2.814-3.125,4.721-4.182c1.92-1.06,4.041-1.803,6.377-2.231
			c2.332-0.422,4.561-0.636,6.678-0.636c2.432,0,4.748,0.255,6.965,0.773c2.211,0.518,4.213,1.354,6,2.498
			c1.789,1.152,3.279,2.654,4.453,4.506c1.193,1.854,1.93,4.078,2.229,6.689h-10.82c-0.482-2.486-1.621-4.154-3.406-5.008
			c-1.797-0.848-3.84-1.275-6.141-1.275c-0.729,0-1.596,0.066-2.594,0.186c-0.998,0.123-1.941,0.348-2.813,0.682
			c-0.889,0.338-1.629,0.818-2.234,1.453c-0.609,0.637-0.914,1.477-0.914,2.51c0,1.268,0.445,2.301,1.318,3.086
			c0.877,0.791,2.037,1.439,3.463,1.953c1.428,0.516,3.045,0.957,4.867,1.32c1.816,0.361,3.697,0.758,5.635,1.186
			c1.881,0.424,3.73,0.939,5.545,1.539c1.822,0.615,3.441,1.434,4.865,2.457c1.43,1.039,2.582,2.34,3.459,3.916
			c0.879,1.578,1.324,3.516,1.324,5.816c0,2.791-0.641,5.16-1.906,7.098c-1.277,1.943-2.934,3.521-4.965,4.73
			c-2.029,1.215-4.291,2.092-6.771,2.639c-2.49,0.543-4.945,0.82-7.369,0.82c-2.979,0-5.721-0.334-8.236-1
			c-2.516-0.672-4.697-1.688-6.545-3.049c-1.85-1.363-3.311-3.064-4.369-5.098c-1.064-2.029-1.625-4.439-1.686-7.227H398.015z"/>
		<path fill="#3A8668" d="M436.167,102.021h10.375v24.103h0.182c1.271-2.125,3.168-3.896,5.686-5.32
			c2.514-1.422,5.324-2.139,8.412-2.139c5.156,0,9.221,1.336,12.189,4c2.971,2.668,4.459,6.674,4.459,12.006v32.291h-10.371v-29.559
			c-0.123-3.695-0.908-6.383-2.365-8.049c-1.453-1.668-3.729-2.506-6.824-2.506c-1.758,0-3.336,0.318-4.721,0.957
			c-1.4,0.633-2.58,1.52-3.551,2.639c-0.975,1.119-1.732,2.439-2.277,3.959c-0.549,1.516-0.818,3.119-0.818,4.82v27.738h-10.375
			V102.021z"/>
		<path fill="#3A8668" d="M526.12,156.5c0,1.271,0.17,2.188,0.506,2.73c0.33,0.547,0.98,0.818,1.953,0.818c0.307,0,0.664,0,1.09,0
			c0.428,0,0.912-0.057,1.461-0.176v7.18c-0.367,0.123-0.838,0.262-1.41,0.418c-0.582,0.143-1.172,0.281-1.777,0.404
			c-0.604,0.119-1.211,0.211-1.822,0.271c-0.602,0.059-1.125,0.092-1.541,0.092c-2.129,0-3.891-0.43-5.277-1.277
			c-1.396-0.844-2.303-2.334-2.732-4.453c-2.063,2-4.594,3.457-7.596,4.363c-2.996,0.91-5.898,1.367-8.684,1.367
			c-2.125,0-4.146-0.291-6.098-0.867c-1.934-0.576-3.648-1.424-5.135-2.543c-1.494-1.125-2.67-2.549-3.549-4.279
			c-0.879-1.725-1.316-3.738-1.316-6.045c0-2.914,0.525-5.273,1.584-7.098c1.064-1.818,2.465-3.244,4.189-4.271
			c1.725-1.029,3.67-1.777,5.816-2.23c2.16-0.457,4.326-0.805,6.508-1.043c1.877-0.367,3.672-0.625,5.369-0.777
			c1.699-0.152,3.195-0.408,4.502-0.771c1.305-0.365,2.336-0.924,3.092-1.686c0.758-0.758,1.139-1.896,1.139-3.41
			c0-1.33-0.316-2.426-0.957-3.277c-0.639-0.844-1.422-1.502-2.369-1.953c-0.934-0.457-1.98-0.754-3.137-0.91
			c-1.146-0.148-2.24-0.229-3.27-0.229c-2.918,0-5.311,0.613-7.188,1.818c-1.883,1.215-2.939,3.098-3.186,5.637h-10.369
			c0.18-3.025,0.912-5.541,2.186-7.541c1.273-2.006,2.895-3.611,4.865-4.826c1.971-1.209,4.199-2.057,6.684-2.545
			c2.486-0.479,5.031-0.727,7.641-0.727c2.307,0,4.576,0.247,6.826,0.727c2.24,0.488,4.26,1.276,6.049,2.365
			c1.789,1.094,3.227,2.5,4.32,4.229c1.09,1.73,1.633,3.84,1.633,6.326V156.5z M515.761,143.4c-1.582,1.039-3.523,1.658-5.832,1.867
			c-2.303,0.215-4.607,0.533-6.912,0.957c-1.09,0.182-2.152,0.439-3.184,0.773c-1.033,0.338-1.934,0.785-2.725,1.367
			c-0.787,0.576-1.41,1.332-1.863,2.271c-0.461,0.938-0.684,2.076-0.684,3.41c0,1.158,0.33,2.125,1.004,2.91
			c0.666,0.791,1.461,1.416,2.402,1.867c0.941,0.459,1.973,0.768,3.094,0.953c1.123,0.186,2.139,0.271,3.051,0.271
			c1.146,0,2.398-0.152,3.729-0.457c1.332-0.295,2.596-0.814,3.777-1.543s2.158-1.648,2.955-2.773
			c0.789-1.119,1.188-2.504,1.188-4.143V143.4z"/>
		<path fill="#3A8668" d="M536.489,102.021h10.365v36.927l18.732-19.012h12.738l-18.01,17.287l19.746,29.738h-12.645l-14.379-22.826
			l-6.184,6.002v16.824h-10.365V102.021z"/>
		<path fill="#3A8668" d="M581.204,119.936h7.832v-14.098h10.365v14.098h9.369v7.73h-9.369v25.105c0,1.09,0.043,2.033,0.141,2.824
			c0.088,0.785,0.295,1.457,0.631,2c0.332,0.543,0.836,0.953,1.504,1.229c0.666,0.268,1.576,0.406,2.729,0.406
			c0.729,0,1.461-0.01,2.188-0.043c0.727-0.029,1.449-0.139,2.178-0.32v8.004c-1.152,0.123-2.275,0.248-3.367,0.367
			c-1.094,0.119-2.211,0.18-3.363,0.18c-2.732,0-4.932-0.262-6.598-0.771c-1.67-0.52-2.967-1.271-3.902-2.277
			c-0.943-0.994-1.58-2.252-1.924-3.771c-0.328-1.516-0.521-3.244-0.58-5.188v-27.744h-7.832V119.936z"/>
		<path fill="#3A8668" d="M614.853,102.021h10.367v9.816h-10.367V102.021z M614.853,119.936h10.367v47.025h-10.367V119.936z"/>
	</g>
</g>
</svg>
