<?xml version="1.0" encoding="UTF-8"?>
<svg id="Layer_1" data-name="Layer 1" xmlns="http://www.w3.org/2000/svg" viewBox="0 0 160 56.41">
  <path d="M146.75,56.87v-7.9h6.97v1.08h-5.73v2.25h3.49v1.01h-3.49v2.48h5.81v1.08h-7.05ZM142.33,49.98h-5.04v5.73h5.04v-1.94l1.24.31v.93c0,.7-.08,1.24-.39,1.47-.23.23-.7.39-1.32.39h-4.03c-.7,0-1.08-.15-1.32-.39-.23-.23-.39-.77-.39-1.47v-4.18c0-.7.08-1.24.39-1.47.23-.23.7-.39,1.32-.39h4.03c.62,0,1.08.15,1.32.39.23.23.39.77.39,1.47v.77l-1.24.23v-1.78h0v-.08ZM124.44,56.87v-7.9h.77l5.42,5.27c.15.15.23.23.39.46.15.15.31.39.39.54,0-.23,0-.54-.08-.77v-5.5h1.08v7.9h-.7l-5.58-5.5-.15-.15c-.31-.31-.46-.54-.62-.77v6.35h-1.08l.15.08ZM112.89,56.87l3.95-7.9h1.32l4.03,7.9h-1.32l-.93-1.94h-4.88l-.93,1.94h-1.24ZM115.45,53.85h3.87l-1.94-4.03-1.94,4.03h0ZM102.51,56.87v-7.9h.77l5.42,5.27c.15.15.23.23.39.46.15.15.31.39.39.54,0-.23,0-.54-.08-.77v-5.5h1.08v7.9h-.7l-5.58-5.5-.15-.15c-.31-.31-.46-.54-.62-.77v6.35h-1.08l.15.08h0ZM97.55,56.87v-7.9h1.24v7.9h-1.24ZM88.64,56.87v-7.9h6.9v1.08h-5.66v2.56h3.25v1.08h-3.25v3.18h-1.24,0ZM78.72,49.98h-5.66v5.73h5.66v-2.32h-2.94v-1.01h4.11v2.56c0,.7-.08,1.24-.39,1.47-.23.23-.7.39-1.32.39h-4.65c-.7,0-1.08-.15-1.32-.39s-.39-.77-.39-1.47v-4.18c0-.7.08-1.24.39-1.47.23-.23.7-.39,1.32-.39h4.65c.62,0,1.08.15,1.32.39s.39.7.39,1.39v.15l-1.24.23v-1.16h0l.08.08ZM60.13,56.87v-7.9h.77l5.42,5.27c.15.15.23.23.39.46s.31.39.46.54c0-.23,0-.54-.08-.77v-5.5h1.08v7.9h-.7l-5.58-5.5-.15-.15c-.31-.31-.46-.54-.62-.77v6.35h-1.08l.08.08h0ZM55.17,56.87v-7.9h1.24v7.9h-1.24ZM50.44,49.98h-5.11v2.25h4.57c.62,0,1.08.15,1.32.39s.39.77.39,1.47v.85c0,.7-.08,1.24-.31,1.47-.23.23-.7.39-1.32.39h-4.18c-.7,0-1.08-.15-1.32-.39s-.39-.77-.39-1.47v-.23l1.08-.31v1.24h5.35v-2.4h-4.57c-.7,0-1.08-.15-1.32-.39s-.31-.77-.31-1.47v-.7c0-.7.08-1.24.31-1.47s.7-.39,1.32-.39h3.87c.62,0,1.08.15,1.32.39s.39.7.39,1.32v.15l-1.01.31v-1.16h0l-.08.15h0ZM34.01,48.97v6.82h5.27v-6.82h1.16v6.04c0,.7-.08,1.24-.39,1.47-.23.23-.7.39-1.32.39h-4.26c-.7,0-1.08-.15-1.32-.39s-.39-.77-.39-1.47v-6.04h1.24,0ZM20.77,50.83c0-.7.08-1.24.39-1.47.23-.23.7-.39,1.32-.39h5.04c.62,0,1.08.15,1.32.39s.39.77.39,1.47v4.18c0,.7-.08,1.24-.39,1.47-.23.23-.7.39-1.32.39h-5.04c-.7,0-1.08-.15-1.32-.39s-.39-.77-.39-1.47v-4.18h0ZM21.93,55.71h5.97v-5.73h-5.97v5.73h0ZM8.99,56.87v-7.9h1.24v3.25h5.73v-3.25h1.24v7.9h-1.24v-3.56h-5.73v3.56h-1.24Z" style="fill: #010101; fill-rule: evenodd;"/>
  <path d="M70.9,32.08c-2.01,0-3.8-.77-5.27-2.25s-2.25-3.25-2.25-5.35.7-3.8,2.25-5.27c1.47-1.47,3.25-2.25,5.27-2.25h20.61v5.66h-20.61c-.54,0-.93.15-1.32.54s-.54.77-.54,1.32.15.93.54,1.32.77.54,1.32.54h14.1c2.09,0,3.87.77,5.35,2.25s2.25,3.25,2.25,5.35-.7,3.8-2.25,5.27c-1.47,1.47-3.25,2.17-5.27,2.17h-20.46v-5.66h20.46c.54,0,.93-.15,1.32-.54s.54-.77.54-1.32-.15-.93-.54-1.32-.85-.54-1.32-.54h-14.1l-.08.08h0Z" style="fill: #034d7e; fill-rule: evenodd;"/>
  <polygon points="93.99 23.09 93.99 17.51 121.8 17.51 121.8 23.09 110.88 23.09 110.88 41.84 105.3 41.84 105.3 23.09 93.99 23.09" style="fill: #034d7e; fill-rule: evenodd;"/>
  <g>
    <polygon points="139.16 0 160 14.1 150.08 14.1 139.16 6.66 128.23 14.1 118.39 14.1 139.16 0" style="fill: #009368; fill-rule: evenodd;"/>
    <path d="M144.04,25.72v4.42h-4.42v-4.42h4.42ZM139.7,19.99h4.42v4.42h-4.42v-4.42h0ZM138.38,25.72v4.42h-4.42v-4.42h4.42ZM133.97,19.99h4.42v4.42h-4.42v-4.42Z" style="fill: #034d7e; fill-rule: evenodd;"/>
    <path d="M153.88,17.51v16.89c0,2.01-.77,3.8-2.25,5.27-1.47,1.47-3.25,2.25-5.35,2.25h-14.72c-2.01,0-3.8-.77-5.27-2.25s-2.25-3.25-2.25-5.27v-16.89h5.66v16.89c0,.46.23.93.62,1.32s.85.54,1.24.54h14.72c.54,0,.93-.15,1.32-.46s.54-.77.54-1.39v-16.89h5.73,0Z" style="fill: #034d7e; fill-rule: evenodd;"/>
  </g>
  <path d="M31.38,41.61v-17.98c0-1.7.62-3.1,1.78-4.34,1.24-1.16,2.63-1.78,4.34-1.78h17.36c1.7,0,3.1.62,4.34,1.78s1.78,2.63,1.78,4.34v17.98h-5.35v-8.06h-15.11v-5.19h15.11v-3.95c0-.39-.15-.77-.46-1.08-.31-.31-.7-.46-1.01-.46h-15.42c-.46,0-.77.15-1.08.39s-.46.62-.46,1.08v17.28h-5.81Z" style="fill: #034d7e; fill-rule: evenodd;"/>
  <polygon points="0 17.36 6.12 17.36 14.64 34.17 23.24 17.36 29.37 17.36 17.74 40.14 17.05 41.53 12.32 41.53 11.62 40.14 0 17.36" style="fill: #034d7e; fill-rule: evenodd;"/>
</svg>